<svg version="1.1" xmlns="http://www.w3.org/2000/svg" xmlns:xlink="http://www.w3.org/1999/xlink" x="0px" y="0px" width="512px" height="512px" viewBox="0 0 512 512" style="enable-background:new 0 0 512 512;" xml:space="preserve">
	<style type="text/css">
		.st0{fill:none;stroke:#FFFFFF;stroke-width:19.6839;stroke-miterlimit:10;}
	</style>
	<polygon class="st0" points="42.8,377.3 43.8,135 255.5,11.5 469.2,135.1 467.6,378.2 255.8,500.5"/>
	<line class="st0" x1="43.8" y1="135" x2="467.6" y2="378.2"/>
	<line class="st0" x1="469.2" y1="135.1" x2="42.8" y2="377.3"/>
	<line class="st0" x1="255.5" y1="11.5" x2="255.5" y2="500.5"/>
	<line class="st0" x1="185.2" y1="52.1" x2="467.6" y2="215.2"/>
	<line class="st0" x1="326.4" y1="52.1" x2="44" y2="215.2"/>
	<line class="st0" x1="185.2" y1="55.8" x2="185.2" y2="459.7"/>
	<line class="st0" x1="326.4" y1="52.1" x2="326.4" y2="459.7"/>
	<line class="st0" x1="115.3" y1="93.3" x2="467.6" y2="296.7"/>
	<line class="st0" x1="397" y1="93.3" x2="44" y2="296.7"/>
	<line class="st0" x1="114.6" y1="93.3" x2="114.6" y2="419"/>
	<line class="st0" x1="397" y1="93.7" x2="397" y2="419"/>
	<line class="st0" x1="44" y1="215.2" x2="397" y2="419"/>
	<line class="st0" x1="467.6" y1="215.2" x2="114.6" y2="419"/>
	<line class="st0" x1="44" y1="296.7" x2="326.4" y2="459.7"/>
	<line class="st0" x1="467.6" y1="296.7" x2="185.2" y2="459.7"/>
</svg>