<?xml version="1.0" encoding="utf-8"?>
<!-- Generator: Adobe Illustrator 19.1.0, SVG Export Plug-In . SVG Version: 6.00 Build 0)  -->
<svg version="1.1" id="Capa_1" xmlns="http://www.w3.org/2000/svg" xmlns:xlink="http://www.w3.org/1999/xlink" x="0px" y="0px"
	 viewBox="-457 258.4 44.6 44.6" style="enable-background:new -457 258.4 44.6 44.6;" xml:space="preserve">
<style type="text/css">
	.st0{fill:#FFFFFF;}
</style>
<g>
	<g>
		<path class="st0" d="M-433.7,297.2c-1.2,1.6-3,2.6-5,2.7c-2,0.1-3.9-0.7-5.2-2.2l-11.8-13.1c-1.9-2.1-1.7-5.3,0.4-7.2
			c2.1-1.9,5.3-1.7,7.2,0.4l8.4,9.3c0.1,0.1,0.3,0.2,0.5,0.2c0.2,0,0.4-0.1,0.5-0.2l17.2-23.3c1.7-2.3,4.8-2.7,7.1-1.1
			c2.3,1.7,2.7,4.8,1.1,7.1L-433.7,297.2z"/>
	</g>
</g>
</svg>
