<?xml version="1.0" encoding="utf-8"?>
<!-- Generator: Adobe Illustrator 19.1.0, SVG Export Plug-In . SVG Version: 6.00 Build 0)  -->
<svg version="1.1" id="Layer_1" xmlns="http://www.w3.org/2000/svg" xmlns:xlink="http://www.w3.org/1999/xlink" x="0px" y="0px"
	 viewBox="0 0 256 256" style="enable-background:new 0 0 256 256;" xml:space="preserve">
<style type="text/css">
	.st0{fill:#9EDCF2;}
	.st1{clip-path:url(#SVGID_2_);fill:#7DBCE7;}
	.st2{fill:#010101;}
	.st3{fill:#F5CCB3;}
	.st4{fill:#FFFFFF;}
	.st5{fill:#AF5C51;}
	.st6{fill:#C4E5D9;}
</style>
<g>
	<path class="st0" d="M200.9,215.3c0,13.9-32.2,25.1-71.9,25.1s-71.9-11.3-71.9-25.1c0-13.9,32.2-25.1,71.9-25.1
		S200.9,201.4,200.9,215.3L200.9,215.3z"/>
	<g>
		<g>
			<defs>
				<path id="SVGID_1_" d="M98.1,260.3c1.6,7.5,5.5,11.9,9.4,14.5h41.1c5-3.4,10.1-9.8,10.1-21.8v-31c0,0,0.6-7.7,7.7-10.2
					c0,0,4.1-2.9-0.3-4.5c0,0-19.5-1.6-19.5,14.4v23.6c0,0,0.8,8.7-3.8,12.3v-29.2c0,0,0.3-9.3,5.1-12.8c0,0,3.2-5.7-3.8-4.2
					c0,0-13.4,1.9-14,17.6l-0.3,30h-3.2l-0.3-30c-0.6-15.6-14-17.6-14-17.6c-7-1.6-3.8,4.2-3.8,4.2c4.8,3.5,5.1,12.8,5.1,12.8v29.5
					c-4.6-3.3-3.8-12.6-3.8-12.6v-23.6c0-16-19.5-14.4-19.5-14.4c-4.5,1.6-0.3,4.5-0.3,4.5c7,2.6,7.7,10.2,7.7,10.2v21.7L98.1,260.3
					z"/>
			</defs>
			<clipPath id="SVGID_2_">
				<use xlink:href="#SVGID_1_"  style="overflow:visible;"/>
			</clipPath>
			<path class="st1" d="M200.9,215.3c0,13.9-32.2,25.1-71.9,25.1s-71.9-11.3-71.9-25.1c0-13.9,32.2-25.1,71.9-25.1
				S200.9,201.4,200.9,215.3L200.9,215.3z"/>
		</g>
	</g>
	<path class="st0" d="M46.9,141.4l-2.1,7.2c0,0-0.5,2.6,1.9,3.1c2.6-0.1,2.4-2.5,2.2-3.2L46.9,141.4L46.9,141.4z"/>
	<path class="st2" d="M255.8,111.1l0.2-0.9c-21.1-4.2-42.7-4.3-55.8-3.7c2.1-7.7,2.8-16.7,2.8-26.6c0-14.3-5.4-25.7-14-34.3
		c1.5-4.9,3.5-15.8-2-29.7c0,0-9.8-3.1-32.1,11.8c-8.7-2.2-18-3.3-27.3-3.3c-10.2,0-20.5,1.3-30.2,3.9c-23-15.7-33.1-12.5-33.1-12.5
		c-6.6,16.5-2.5,28.8-1.3,31.8C55.2,56,50.5,66.7,50.5,79.8c0,9.9,1.1,18.8,3.9,26.5c-13.2-0.5-34-0.3-54.4,3.8l0.2,0.9
		c20.4-4.1,41.4-4.2,54.5-3.7c0.6,1.6,1.3,3.2,2,4.7c-13,0.4-35.1,2.1-56.3,8.1l0.3,0.9c21.4-6,43.7-7.6,56.6-8
		c7.8,14.4,23,23.8,50.2,26.7c-3.9,2.6-7.8,7-9.4,14.5c-5.3,2.5-21.9,8.7-31.9-8.5c0,0-5.6-10.2-16.3-11c0,0-10.4-0.2-0.7,6.5
		c0,0,6.9,3.3,11.7,15.6c0,0,6.3,21,36.4,14.2v21.5c0,0-0.6,7.7-7.7,10.2c0,0-4.2,2.9,0.3,4.5c0,0,19.5,1.6,19.5-14.4v-23.6
		c0,0-0.8-9.4,3.8-12.6v38.8c0,0-0.3,9.3-5.1,12.8c0,0-3.2,5.7,3.8,4.2c0,0,13.4-1.9,14-17.6l0.3-39.3h3.2l0.3,39.3
		c0.6,15.6,14,17.6,14,17.6c7,1.6,3.8-4.2,3.8-4.2c-4.8-3.5-5.1-12.8-5.1-12.8v-38.5c4.6,3.6,3.8,12.3,3.8,12.3v23.6
		c0,16,19.5,14.4,19.5,14.4c4.5-1.6,0.3-4.5,0.3-4.5c-7-2.6-7.7-10.2-7.7-10.2v-31c0-12.1-5.1-18.5-10.1-21.8
		c29-2.9,42.9-12.2,49.3-26.8c12.7,0.3,35.6,1.9,57.4,8.1l0.3-0.9c-21.7-6.1-44.4-7.7-57.3-8.1c0.6-1.5,1.1-3,1.6-4.6
		C212.9,106.9,234.6,106.9,255.8,111.1L255.8,111.1z"/>
	<path class="st3" d="M174.6,79.2c6.2,5.7,9.9,12.5,9.9,19.8c0,34.4-25.6,35.3-57.2,35.3S70.1,129.5,70.1,99
		c0-7.3,3.6-14.1,9.8-19.7c10.3-9.4,27.7-4.4,47.4-4.4C147,74.9,164.3,69.8,174.6,79.2L174.6,79.2z"/>
	<path class="st4" d="M108.3,100.8c0,9.5-5.3,17.1-11.9,17.1s-11.9-7.7-11.9-17.1c0-9.5,5.3-17.1,11.9-17.1
		C103,83.6,108.3,91.3,108.3,100.8L108.3,100.8z"/>
	<path class="st5" d="M104.5,101c0,6.3-3.6,11.4-7.9,11.4c-4.4,0-7.9-5.1-7.9-11.4s3.6-11.4,7.9-11.4S104.5,94.7,104.5,101
		L104.5,101z"/>
	<path class="st4" d="M172.2,100.8c0,9.5-5.3,17.1-11.9,17.1c-6.6,0-11.9-7.7-11.9-17.1c0-9.5,5.3-17.1,11.9-17.1
		C166.8,83.6,172.2,91.3,172.2,100.8L172.2,100.8z"/>
	<path class="st5" d="M168.3,101c0,6.3-3.6,11.4-7.9,11.4c-4.4,0-7.9-5.1-7.9-11.4s3.6-11.4,7.9-11.4
		C164.8,89.6,168.3,94.7,168.3,101L168.3,101z"/>
	<path class="st5" d="M130.5,116c0,1.6-1.3,3-3,3c-1.6,0-3-1.3-3-3s1.3-3,3-3C129.1,113,130.5,114.3,130.5,116L130.5,116z"/>
	<path class="st5" d="M120.6,123.5c-0.2-0.5,0.1-1,0.6-1.2s1,0.1,1.2,0.6c0.8,2.2,2.8,3.6,5.1,3.6s4.3-1.5,5.1-3.6
		c0.2-0.5,0.7-0.8,1.2-0.6c0.5,0.2,0.8,0.7,0.6,1.2c-1,2.9-3.8,4.9-6.9,4.9C124.4,128.4,121.6,126.4,120.6,123.5L120.6,123.5z"/>
	<path class="st6" d="M54.5,137.1c0,0.8-0.9,1.4-2.1,1.4c-1.1,0-2.1-0.6-2.1-1.4s0.9-1.4,2.1-1.4S54.5,136.3,54.5,137.1L54.5,137.1z
		"/>
	<path class="st6" d="M60.3,140.3c0,0.8-0.9,1.4-2.1,1.4c-1.1,0-2.1-0.6-2.1-1.4s0.9-1.4,2.1-1.4C59.4,138.9,60.3,139.5,60.3,140.3
		L60.3,140.3z"/>
	<path class="st6" d="M63.8,144.5c0,0.8-0.9,1.4-2.1,1.4c-1.1,0-2.1-0.6-2.1-1.4c0-0.8,0.9-1.4,2.1-1.4
		C62.9,143,63.8,143.7,63.8,144.5L63.8,144.5z"/>
	<path class="st6" d="M67,149.3c0,0.8-0.9,1.4-2.1,1.4c-1.1,0-2.1-0.6-2.1-1.4c0-0.8,0.9-1.4,2.1-1.4C66.1,147.8,67,148.5,67,149.3
		L67,149.3z"/>
	<path class="st6" d="M70.5,153.7c0,0.8-0.9,1.4-2.1,1.4c-1.1,0-2.1-0.6-2.1-1.4c0-0.8,0.9-1.4,2.1-1.4S70.5,152.9,70.5,153.7
		L70.5,153.7z"/>
	<path class="st6" d="M75.3,157.6c0,0.8-0.9,1.4-2.1,1.4c-1.1,0-2.1-0.6-2.1-1.4c0-0.8,0.9-1.4,2.1-1.4
		C74.4,156.1,75.3,156.8,75.3,157.6L75.3,157.6z"/>
	<path class="st6" d="M82,160.1c0,0.8-0.9,1.4-2.1,1.4c-1.1,0-2.1-0.6-2.1-1.4c0-0.8,0.9-1.4,2.1-1.4C81.1,158.7,82,159.3,82,160.1
		L82,160.1z"/>
	<path class="st6" d="M88.7,160.1c0,0.8-0.9,1.4-2.1,1.4c-1.1,0-2.1-0.6-2.1-1.4c0-0.8,0.9-1.4,2.1-1.4
		C87.8,158.7,88.7,159.3,88.7,160.1L88.7,160.1z"/>
	<path class="st6" d="M95.5,159c0,0.8-0.9,1.4-2.1,1.4c-1.1,0-2.1-0.6-2.1-1.4c0-0.8,0.9-1.4,2.1-1.4
		C94.5,157.6,95.5,158.2,95.5,159L95.5,159z"/>
</g>
</svg>
