<?xml version="1.0" encoding="utf-8"?>
<!-- Generator: Adobe Illustrator 19.1.0, SVG Export Plug-In . SVG Version: 6.00 Build 0)  -->
<svg version="1.1" id="Layer_1" xmlns="http://www.w3.org/2000/svg" xmlns:xlink="http://www.w3.org/1999/xlink" x="0px" y="0px"
	 viewBox="0 0 181.6 32" style="enable-background:new 0 0 181.6 32;" xml:space="preserve">
<style type="text/css">
	.st0{fill:#000000;}
</style>
<g>
	<path class="st0" d="M6.9,13.4H0.7c0.7-4.5,3.9-6.8,9.6-6.8c6.8,0,10.2,2.2,10.3,6.8v8.3c0,6.8-4.1,9.8-10.7,10.2
		C4.1,32.4,0,29.6,0,24.2c0.1-5.9,4.4-7.4,10.6-8c2.6-0.3,4-1.1,4-2.4c-0.1-1.4-1.4-2.1-4-2.1C8.4,11.7,7.2,12.2,6.9,13.4z
		 M14.7,21.4v-2.3c-1.4,0.6-3.1,1.1-4.9,1.5c-2.5,0.5-3.7,1.6-3.7,3.4c0.1,1.9,1.2,2.9,3.1,2.9C12.6,26.9,14.7,24.9,14.7,21.4z"/>
	<path class="st0" d="M44.2,21.7c0,4.2-1.1,7-3.2,8.3c-2.2,1.2-4.6,1.9-7.2,1.9c-2.5,0-4.8-0.7-6.9-2.1c-2.1-1.3-3.2-4-3.2-8.1V7
		h6.1v16c0,2.7,1.4,4.1,4.2,4.1s4.2-1.3,4.2-4.1V10C38,8,39,7,41,7h3.1V21.7z"/>
	<path class="st0" d="M53.7,11.4H53v13.5c0,1,0.6,1.6,1.8,1.6h1.9v4.7c-2,0.2-4.2,0.2-6.5,0c-2.3-0.2-3.4-1.7-3.4-4.4V0h3.2
		c1.6,0,3,1.5,3,3.1V7h3.7v1.3C56.7,10.1,55.4,11.4,53.7,11.4z"/>
	<path class="st0" d="M81.4,19.3c0,8.4-3.7,12.7-11.1,12.7s-11.1-4.3-11.1-12.7c0-8.5,3.7-12.7,11.1-12.7S81.4,10.8,81.4,19.3z
		 M65.4,19.3c0,4.8,1.7,7.2,4.8,7.2s4.7-2.5,4.8-7.4c0-4.8-1.6-7.1-4.7-7.1C67,12,65.4,14.5,65.4,19.3z"/>
	<path class="st0" d="M95.5,32c-7.4,0-11.2-4.3-11.4-12.7c0-8.4,3.7-12.6,11.3-12.7c5.9,0,9.4,2.6,10.5,8h-6.7c-0.7-1.7-2-2.5-4-2.5
		c-3.2,0-4.9,2.5-4.9,7.3s1.7,7.3,5.1,7.3c1.4,0,2.7-0.6,3.7-1.8c0.6-0.6,1.3-0.9,2.1-0.9h4.6C104.8,28.9,101.2,32.1,95.5,32z"/>
	<path class="st0" d="M131.2,19.3c0,8.4-3.7,12.7-11.1,12.7S109,27.7,109,19.3c0-8.5,3.7-12.7,11.1-12.7S131.2,10.8,131.2,19.3z
		 M115.2,19.3c0,4.8,1.7,7.2,4.8,7.2s4.7-2.5,4.8-7.4c0-4.8-1.6-7.1-4.7-7.1C116.9,12,115.2,14.5,115.2,19.3z"/>
	<path class="st0" d="M156.8,3.1v17.8c0,7.4-3.8,11-11.5,11c-7.6-0.1-11.4-4.3-11.4-12.4c0-8.3,3.2-12.6,9.8-12.8
		c3.1,0,5.4,1.2,7,3.8V0h3.1C155.4,0,156.8,1.4,156.8,3.1z M140.3,19.1c0,4.9,1.6,7.4,5.1,7.4c3.5,0,5.3-2.5,5.3-7.4
		c-0.1-4.7-1.9-7-5.2-7C142.2,12.1,140.4,14.4,140.3,19.1z"/>
	<path class="st0" d="M170.5,32c-7.4-0.2-11.1-4.5-11.1-12.9c0-8.3,3.7-12.5,11.2-12.5c7.8,0,11.4,4.8,11,14.3h-15.8
		c0.2,3.7,1.9,5.6,4.9,5.6c1.4,0,2.8-0.6,4-1.8c0.6-0.6,1.2-0.9,2.1-0.9h4.5C179.8,29.1,176.5,32,170.5,32z M165.8,16.6h9.2
		c-0.4-3.2-1.9-4.9-4.5-4.9S166.3,13.3,165.8,16.6z"/>
</g>
</svg>
