<?xml version="1.0" encoding="utf-8"?>
<!-- Generator: Adobe Illustrator 19.1.0, SVG Export Plug-In . SVG Version: 6.00 Build 0)  -->
<svg version="1.1" xmlns="http://www.w3.org/2000/svg" xmlns:xlink="http://www.w3.org/1999/xlink" x="0px" y="0px"
	 viewBox="-525.6 477.6 554.7 554.7" style="enable-background:new -525.6 477.6 554.7 554.7;" xml:space="preserve">
<style type="text/css">
	.st0{clip-path:url(#SVGID_2_);fill:url(#SVGID_3_);}
	.st1{clip-path:url(#SVGID_2_);fill:none;}
	.st2{clip-path:url(#SVGID_5_);}
	.st3{opacity:0.8;fill:url(#SVGID_6_);enable-background:new    ;}
	.st4{fill:url(#SVGID_7_);}
	.st5{fill:#990000;}
	.st6{fill:#D1D0E0;}
	.st7{fill:#666666;}
	.st8{opacity:0.1;enable-background:new    ;}
	.st9{opacity:0.2;fill:#D4EEF9;enable-background:new    ;}
	.st10{opacity:0.2;}
	.st11{fill:#4B0644;}
	.st12{fill:#191928;}
	.st13{opacity:0.1;fill:#D4EEF9;enable-background:new    ;}
</style>
<g id="Layer_1">
	<g>
		<g>
			<g>
				<defs>
					<circle id="SVGID_1_" cx="-251.4" cy="754.2" r="248.6"/>
				</defs>
				<clipPath id="SVGID_2_">
					<use xlink:href="#SVGID_1_"  style="overflow:visible;"/>
				</clipPath>
				
					<radialGradient id="SVGID_3_" cx="-350.4703" cy="690.3367" r="281.8253" gradientTransform="matrix(1.1947 0 0 1.1947 170.4569 -69.7953)" gradientUnits="userSpaceOnUse">
					<stop  offset="0" style="stop-color:#0052AA"/>
					<stop  offset="0.8885" style="stop-color:#004B7F"/>
					<stop  offset="1" style="stop-color:#00001D"/>
				</radialGradient>
				<rect x="-525.6" y="477.6" class="st0" width="554.7" height="554.7"/>
				<rect x="-525.6" y="477.6" class="st1" width="554.7" height="554.7"/>
			</g>
		</g>
	</g>
	<g>
		<g>
			<g>
				<defs>
					<circle id="SVGID_4_" cx="-251.4" cy="754.2" r="248.6"/>
				</defs>
				<clipPath id="SVGID_5_">
					<use xlink:href="#SVGID_4_"  style="overflow:visible;"/>
				</clipPath>
				<g class="st2">
					
						<linearGradient id="SVGID_6_" gradientUnits="userSpaceOnUse" x1="-571.3427" y1="1138.1309" x2="-368.1976" y2="904.295" gradientTransform="matrix(0.8719 -5.580000e-02 5.440000e-02 0.8494 -41.8859 31.7597)">
						<stop  offset="0" style="stop-color:#FEF9ED;stop-opacity:0"/>
						<stop  offset="0.3113" style="stop-color:#FDECCA;stop-opacity:0.7"/>
						<stop  offset="1" style="stop-color:#FFDC7F"/>
					</linearGradient>
					<polygon class="st3" points="-339.3,805.7 -500,928.8 -492.1,1037.9 -376.9,1030.6 -284.7,853.7 					"/>
					
						<linearGradient id="SVGID_7_" gradientUnits="userSpaceOnUse" x1="-509.5" y1="925.7829" x2="-133" y2="925.7829" gradientTransform="matrix(1 0 0 1 0 5.6)">
						<stop  offset="0" style="stop-color:#FEF9ED;stop-opacity:0"/>
						<stop  offset="0.3255" style="stop-color:#D1D1D2"/>
						<stop  offset="1" style="stop-color:#A3A3A5;stop-opacity:0.4"/>
					</linearGradient>
					<path class="st4" d="M-509.5,850.5c0,0,39.7-31.8,75.5,8.2l3.9,1.4c0,0,87.9-38.4,116.1,52.8c0,0,44.9-3.3,44.3,38.6
						c0,0,33.5,0,31.6,25.3c0,0,17.5-31.2,44.8-11.7c0,0,40.6-23.7,60.3,18.9c0,0-93.7,70.8-218.8,24.6
						C-476,962.8-509.5,850.5-509.5,850.5z"/>
				</g>
			</g>
		</g>
	</g>
</g>
<g id="Layer_2">
	<path class="st5" d="M-375,721.6c33.2-11.7,51,6.2,78,19.1c-1.3-25.7,120-103.8,14.2-109.6c-39.4-2.1-102.7,31.5-130.2,84.2
		c-10.5,20.3-16.1,41.2-17,60.4C-419.3,755.5-402.3,731.3-375,721.6z"/>
	<path class="st5" d="M-191.1,879.8c7.2-33.8-12.5-48.9-28.4-73.5c25.2-1.9,86.1-129.8,105-27.5c7,38-17.8,103.9-65.7,137.2
		c-18.4,12.8-38.1,20.9-56.6,24.2C-218.5,927.2-197.1,907.6-191.1,879.8z"/>
	<path class="st6" d="M-284.7,854.7c34.2-12.3,69.4-31.3,102.4-56.7c95.3-73.4,134.4-169.1,126-258c-87.3,0.8-179.2,54-239.8,157.9
		c-21,36-35.4,73.4-43.2,108.8L-284.7,854.7z"/>
	<path class="st7" d="M-129.4,622.3c17.3,15.2,35.5,28.6,54.4,40.2c16.6-40.4,22.6-82.2,18.8-122.6c-40,0.4-81,11.8-119.6,34
		C-162,591.1-146.5,607.2-129.4,622.3z"/>
	<g>
		<g>
			<path class="st6" d="M-328.7,769.1c-4.3,12.7-7.9,25.3-10.6,37.6l54.6,48c11.9-4.3,23.9-9.4,36-15.3L-328.7,769.1z"/>
			<path class="st8" d="M-296.1,812.6c12.4,10.9,24,21.9,34.6,32.7c4.2-1.9,8.5-3.8,12.8-6l-79.9-70.3c-1.6,4.5-3,9-4.3,13.4
				C-320.9,791.6-308.5,801.7-296.1,812.6z"/>
		</g>
		<g>
			<path class="st7" d="M-253.5,843.9l-79.1-69.5l2-20.5c1.5-3.3,4.9-4.1,7.6-1.7l90.3,79.4c2.7,2.4,2.4,5.9-0.7,7.8L-253.5,843.9z"
				/>
		</g>
	</g>
	<path class="st5" d="M-166.2,568.7c12.7,16.4,27.2,31.9,43.4,46.2c16.4,14.4,33.7,26.9,51.7,37.4C-57.6,615.1-52.8,577-56.3,540
		C-93,540.3-130.5,549.9-166.2,568.7z"/>
	<path class="st5" d="M-344.2,868.1c0,0,126.3-203.1,155.8-177.1C-160,715.9-344.2,868.1-344.2,868.1z"/>
	<g>
		<circle class="st5" cx="-154.6" cy="650.6" r="34.4"/>
		<circle class="st9" cx="-154.6" cy="650.6" r="25.3"/>
		<g class="st10">
			<path class="st11" d="M-154.6,620.2L-154.6,620.2C-154.7,620.2-154.7,620.2-154.6,620.2C-154.7,620.2-154.7,620.2-154.6,620.2
				C-154.7,620.2-154.7,620.2-154.6,620.2C-154.7,620.2-154.7,620.2-154.6,620.2c-0.2,0-0.4,0-0.6,0l0,0l0,0l0,0l0,0l0,0l0,0l0,0
				l0,0l0,0l0,0l0,0l0,0v0.2v0.1l-0.2,0.1c-1.1,0-2,1-1.9,2.1c0,1.1,0.9,1.9,2,1.9c0,0,0,0,0.1,0c0.3,0,0.6,0,0.9,0
				c0.1,0,0.1,0,0.2,0c0.1,0,0.1,0,0.2,0c0.3,0,0.6,0,0.9,0h0.1c1.1,0,1.9-0.8,2-1.9c0.1-1.1-0.8-2-1.9-2.1c-0.1,0-0.2,0-0.2,0v-0.2
				c0,0-0.5-0.2-0.8-0.2l0,0c-0.1,0-0.1,0-0.2,0C-154.5,620.2-154.6,620.2-154.6,620.2L-154.6,620.2z M-164.7,622.4
				c-0.2,0-0.5-0.1-0.7,0v-0.2l0,0v0.2v0.1l0,0l0,0l0,0l0,0c-0.3,0.1-0.6,0.2-0.9,0.4c-1,0.4-1.5,1.6-1.1,2.6
				c0.3,0.8,1.1,1.2,1.8,1.2c0.3,0,0.5-0.1,0.8-0.2c0.3-0.1,0.5-0.2,0.8-0.3c1-0.4,1.5-1.6,1.2-2.6
				C-163.1,622.9-163.9,622.4-164.7,622.4L-164.7,622.4z M-173.4,627.8c-0.5,0-1,0.2-1.3,0.5c-0.2,0.2-0.4,0.4-0.6,0.5l0,0l0,0l0,0
				l0,0l0,0l0,0l0,0l0,0l0,0l0,0l0,0l0,0l0,0l0,0l0,0l0,0l0,0l0,0l0,0l0,0l0,0l0,0l0,0c-0.8,0.8-0.8,2,0,2.8
				c0.4,0.4,0.9,0.6,1.4,0.6s1-0.2,1.4-0.6c0.2-0.2,0.4-0.4,0.6-0.6c0.8-0.7,0.9-2,0.1-2.8C-172.3,628-172.8,627.8-173.4,627.8
				L-173.4,627.8z M-179.6,635.9c-0.7,0-1.4,0.5-1.8,1.2c0,0,0,0.2-0.1,0.2l0,0v-0.1l0,0l0,0l0,0l0,0l0,0l0,0l0,0l0,0l0,0l0,0l0,0
				l0,0l0,0l0,0l0,0h0.1h0.1l0,0l-0.1-0.1l0,0c-0.1,0-0.2,0.3-0.2,0.5l0,0l0,0l0,0l0,0l0,0h0.2h0.2l0,0h-0.2c-0.5,1-0.1,2.2,0.9,2.7
				c0.3,0.1,0.5,0.2,0.8,0.2c0.8,0,1.4-0.4,1.8-1.2c0.1-0.3,0.2-0.5,0.4-0.8c0.5-1,0.1-2.2-0.9-2.7
				C-179,635.9-179.3,635.9-179.6,635.9L-179.6,635.9z M-182.5,645.7c-1,0-1.8,0.8-1.9,1.8c0,0.2,0,0.3,0,0.5l0,0l0,0l0,0l0,0l0,0
				l0,0l0,0l0,0l0,0l0,0l-0.1,0.2l0,0l0,0l0,0c-0.1,1,0.7,2.2,1.9,2.2l0.1,0.1c1,0,1.9-0.8,2-1.8c0-0.3,0-0.6,0.1-0.8
				c0.1-1.1-0.7-2.1-1.8-2.2C-182.3,645.6-182.4,645.7-182.5,645.7L-182.5,645.7z M-181.7,655.8c-0.2,0-0.3,0-0.5,0.1
				c-1.1,0.3-1.6,1.4-1.3,2.4c0,0.1,0.1,0.2,0.1,0.3l0,0l0,0l0,0h-0.1l0,0l0,0h0.1h0.1l0,0h-0.1l0,0l0,0l0,0l0,0l0,0l0,0h0.1l0,0
				l0,0l0,0l0,0l0,0l0,0l0,0l0,0l0,0l0,0l0,0l0,0l0,0l0,0l0,0l0,0l0,0l0,0l0,0l0,0l0,0l0,0l0,0l0,0l0,0l0,0c0,0.1,0,0.1,0.1,0.2
				c0.3,0.9,1.1,1.4,1.9,1.4c0.2,0,0.4,0,0.6-0.1c1.1-0.3,1.7-1.4,1.3-2.5c-0.1-0.3-0.2-0.6-0.2-0.8
				C-180,656.4-180.8,655.8-181.7,655.8L-181.7,655.8z M-177.3,665c-0.4,0-0.8,0.1-1.2,0.4c-0.9,0.7-1.1,1.9-0.4,2.8
				c0.1,0.1,0.1,0.2,0.2,0.3l0,0c0,0,0,0,0.1,0.1l0,0c0.1,0.1,0.2,0.3,0.3,0.4c0.4,0.5,1,0.8,1.6,0.8c0.4,0,0.9-0.1,1.2-0.4
				c0.9-0.7,1-1.9,0.3-2.8c-0.2-0.2-0.4-0.5-0.5-0.7C-176,665.3-176.7,665-177.3,665L-177.3,665z M-169.8,672.1
				c-0.7,0-1.3,0.3-1.7,0.9c-0.6,0.9-0.3,2.2,0.6,2.8c0,0,0.1,0,0.1,0.1l0,0l0,0l0,0l0,0l0,0l0,0l0,0l0,0l0,0l0,0l0,0l0,0l0,0l0,0
				l0,0l0,0l0,0l0,0l0,0l0,0l0,0l0,0l0,0l0,0l0,0l0,0l0,0l0,0l0,0l0,0l0,0l0,0l0,0l0,0l0,0l0,0l0,0c0.1,0.1,0.2,0.1,0.4,0.2
				c0.3,0.2,0.7,0.3,1,0.3c0.7,0,1.3-0.3,1.7-1c0.6-0.9,0.3-2.2-0.7-2.7c-0.2-0.1-0.5-0.3-0.7-0.5
				C-169.1,672.2-169.5,672.1-169.8,672.1L-169.8,672.1z M-160.4,675.9c-0.9,0-1.8,0.6-2,1.6c-0.2,1.1,0.5,2.2,1.5,2.4
				c0.3,0.1,0.6,0.2,0.9,0.2l0,0V680l0,0l0,0l0,0l0,0l0.5-0.1l0,0c0,0,0,0,0.1,0c1,0,1.7-0.7,1.9-1.7c0.2-1.1-0.6-2.1-1.7-2.3
				c-0.3,0-0.6-0.1-0.9-0.2C-160.1,676-160.3,675.9-160.4,675.9L-160.4,675.9z M-149.3,676c-0.1,0-0.3,0-0.4,0
				c-0.3,0.1-0.6,0.1-0.9,0.2c-1.1,0.2-1.8,1.2-1.7,2.3c0.2,1,1,1.7,2,1.7c0.1,0,0.2,0,0.3,0c0.3-0.1,0.7-0.1,1-0.2
				c1.1-0.2,1.8-1.3,1.6-2.3C-147.5,676.7-148.3,676-149.3,676L-149.3,676z M-139.8,672.3c-0.4,0-0.7,0.1-1.1,0.3
				c-0.2,0.2-0.5,0.3-0.7,0.4c-1,0.6-1.3,1.8-0.7,2.7c0.4,0.6,1,1,1.7,1c0.3,0,0.7-0.1,1-0.3c0.3-0.2,0.6-0.3,0.9-0.5
				c0.9-0.6,1.2-1.8,0.6-2.8C-138.5,672.6-139.1,672.3-139.8,672.3L-139.8,672.3z M-132.3,665.4c-0.6,0-1.2,0.3-1.6,0.8
				c-0.2,0.2-0.4,0.5-0.5,0.7c-0.7,0.9-0.6,2.1,0.3,2.8c0.4,0.3,0.8,0.4,1.3,0.4c0.6,0,1.2-0.3,1.6-0.7l0,0l0,0l0,0l0,0l0,0l0,0l0,0
				l0,0l0,0l0,0l0,0l0,0l0,0l0,0l0,0l0,0l0,0l0,0l0,0l0,0l0,0l0,0l0,0l0,0l0,0l0,0l0,0l0,0l0,0l0,0l0,0l0,0l0,0l0,0l0,0l0,0l0,0l0,0
				l0,0l0,0l0,0l0,0l0,0c0.1-0.1,0.2-0.2,0.3-0.3c0.7-0.9,0.5-2.1-0.4-2.8C-131.4,665.5-131.9,665.4-132.3,665.4L-132.3,665.4z
				 M-127.7,656.2c-0.9,0-1.7,0.6-1.9,1.5c-0.1,0.3-0.2,0.6-0.3,0.8c-0.3,1.1,0.2,2.2,1.3,2.5c0.2,0.1,0.4,0.1,0.6,0.1
				c0.8,0,1.5-0.5,1.7-1.4l-0.1-0.1l0,0l0.2-0.4h0.1v0.2v0.1l0,0l0,0l0,0l0,0l0,0l0,0l0,0l0,0l0,0l0,0l0,0l0,0l0,0l0,0l0,0l0,0l0,0
				l0,0l0,0l0,0l0,0l0,0l0,0l0,0l0,0l0,0l0,0h-0.2h-0.2l0,0h0.2h-0.1h-0.1l0,0l0,0l0,0l0,0l0,0l0,0l0,0l0,0l0,0c1,0,1,0,1,0l0,0l0,0
				l0,0h-0.2h-0.1h-0.1l0,0l0,0h0.2h0.2l0,0h-0.2h-0.1h0.2h0.2l0,0l-0.2-0.1c0.3-1.1-0.4-2.2-1.5-2.5
				C-127.3,656.3-127.5,656.2-127.7,656.2L-127.7,656.2z M-126.6,646.1c-0.1,0-0.2,0-0.3,0c-1.1,0.1-2,1.1-1.9,2.2
				c0,0.3,0,0.6,0,0.9c0.1,1.1,0.9,1.9,2,1.9h0.1c1.1-0.1,1.9-0.8,1.9-1.9v0.1h0.2l0.2-0.5l0,0l0,0l0,0l0,0l0,0l0,0l0,0l0,0
				c0-0.2,0-0.4,0-0.7l0,0l0,0l0,0l0,0l0,0l0,0l-0.2,0.3h-0.1h0.1h0.1v-0.3C-124.4,646.9-125.5,646.1-126.6,646.1L-126.6,646.1z
				 M-129.5,636.2c-0.3,0-0.6,0.1-0.9,0.2c-1,0.5-1.4,1.7-0.9,2.7c0.1,0.3,0.2,0.5,0.4,0.8c0.3,0.7,1.1,1.2,1.8,1.2
				c0.3,0,0.6-0.1,0.8-0.2c1-0.5,1.5-1.7,1-2.7l0,0l0,0l0,0l0,0c0-0.2-0.1-0.3-0.2-0.5h0.1h0.1l0,0h-0.1l0,0l0,0l0,0l0,0l0,0l0,0
				l0,0l0,0l0,0l0,0l0,0l0,0l0,0l0,0l0,0l0,0l0,0l0,0l0,0l0,0l0,0l0,0l0,0l0,0l0,0l0,0l0,0l0,0l0,0l0,0l0,0l0,0l0,0
				C-128.1,636.6-128.8,636.2-129.5,636.2L-129.5,636.2z M-135.6,628.1c-0.5,0-1.1,0.2-1.5,0.6c-0.8,0.8-0.7,2.1,0.1,2.8
				c0.2,0.2,0.4,0.4,0.6,0.6c0.4,0.4,0.9,0.6,1.4,0.6s1-0.2,1.4-0.6c0.8-0.8,0.8-2,0-2.8l0,0l0,0l0,0l0,0l0,0l0,0l0,0
				c-0.2-0.2-0.4-0.4-0.6-0.6C-134.6,628.2-135.1,628.1-135.6,628.1L-135.6,628.1z M-144.2,622.6c-0.8,0-1.5,0.5-1.9,1.3
				c-0.4,1,0.1,2.2,1.1,2.6c0.3,0.1,0.5,0.2,0.8,0.3c0.3,0.1,0.5,0.2,0.8,0.2c0.8,0,1.5-0.4,1.8-1.2c0.4-1,0-2.2-1-2.6
				c-0.3-0.1-0.6-0.3-1-0.4C-143.7,622.6-144,622.6-144.2,622.6L-144.2,622.6z"/>
		</g>
		<circle class="st12" cx="-154.6" cy="650.6" r="23.9"/>
		<path class="st13" d="M-175.9,639.8c-1.6,3.2-2.5,6.7-2.6,10.2c0.5-0.1,1.1-0.2,1.7-0.3l45.7-2.9c-0.6-3.4-1.8-6.7-3.8-9.6
			L-175.9,639.8z"/>
		<path class="st13" d="M-135.4,664.7c0.7-1,1.3-1.9,1.9-3l-40.5,2.6c0.7,0.9,1.4,1.8,2.2,2.7C-159.7,666.3-147.6,665.5-135.4,664.7
			z"/>
	</g>
</g>
</svg>
