<?xml version="1.0" encoding="utf-8"?>
<!-- Generator: Adobe Illustrator 19.1.0, SVG Export Plug-In . SVG Version: 6.00 Build 0)  -->
<svg version="1.1" id="Layer_1" xmlns="http://www.w3.org/2000/svg" xmlns:xlink="http://www.w3.org/1999/xlink" x="0px" y="0px"
	 viewBox="-722 728.9 497.2 497.2" style="enable-background:new -722 728.9 497.2 497.2;" xml:space="preserve">
<style type="text/css">
	.st0{clip-path:url(#SVGID_2_);fill:url(#SVGID_3_);}
	.st1{clip-path:url(#SVGID_5_);fill:none;}
	.st2{clip-path:url(#SVGID_7_);}
	.st3{opacity:0.8;fill:url(#SVGID_8_);enable-background:new    ;}
	.st4{opacity:0.8;fill:#FFFFFF;}
	.st5{fill:#990000;}
	.st6{fill:#D1D0E0;}
	.st7{fill:#666666;}
	.st8{opacity:0.1;enable-background:new    ;}
	.st9{opacity:0.2;fill:#D4EEF9;enable-background:new    ;}
	.st10{opacity:0.2;}
	.st11{fill:#4B0644;}
	.st12{fill:#191928;}
	.st13{opacity:0.1;fill:#D4EEF9;enable-background:new    ;}
</style>
<g id="Layer_1_1_">
	<g>
		<g>
			<g>
				<g>
					<defs>
						<circle id="SVGID_1_" cx="-473.4" cy="977.5" r="248.6"/>
					</defs>
					<clipPath id="SVGID_2_">
						<use xlink:href="#SVGID_1_"  style="overflow:visible;"/>
					</clipPath>
					
						<linearGradient id="SVGID_3_" gradientUnits="userSpaceOnUse" x1="-506.8815" y1="404.7481" x2="-710.4177" y2="-154.4631" gradientTransform="matrix(1.1947 0 0 -1.1947 256.9037 1127.7578)">
						<stop  offset="5.618000e-03" style="stop-color:#8FBAD9"/>
						<stop  offset="0.3595" style="stop-color:#95C6E4"/>
						<stop  offset="1" style="stop-color:#5F87AC"/>
					</linearGradient>
					<rect x="-747.6" y="700.9" class="st0" width="554.7" height="554.7"/>
				</g>
				<g>
					<defs>
						<circle id="SVGID_4_" cx="-473.4" cy="977.5" r="248.6"/>
					</defs>
					<clipPath id="SVGID_5_">
						<use xlink:href="#SVGID_4_"  style="overflow:visible;"/>
					</clipPath>
					<rect x="-747.6" y="700.9" class="st1" width="554.7" height="554.7"/>
				</g>
			</g>
		</g>
	</g>
	<g>
		<g>
			<g>
				<g>
					<defs>
						<circle id="SVGID_6_" cx="-473.4" cy="977.5" r="248.6"/>
					</defs>
					<clipPath id="SVGID_7_">
						<use xlink:href="#SVGID_6_"  style="overflow:visible;"/>
					</clipPath>
					<g class="st2">
						
							<linearGradient id="SVGID_8_" gradientUnits="userSpaceOnUse" x1="-778.0061" y1="-413.7833" x2="-574.861" y2="-179.9474" gradientTransform="matrix(0.8719 -5.580000e-02 -5.440000e-02 -0.8494 -44.2916 858.7886)">
							<stop  offset="2.247200e-02" style="stop-color:#573735"/>
							<stop  offset="0.427" style="stop-color:#D6562B"/>
							<stop  offset="0.736" style="stop-color:#ED7C31"/>
							<stop  offset="1" style="stop-color:#F4BB3A"/>
						</linearGradient>
						<polygon class="st3" points="-561.3,1029 -722,1152.1 -714.1,1261.2 -598.9,1253.9 -506.7,1077 						"/>
						<path class="st4" d="M-731.5,1073.8c0,0,39.7-31.8,75.5,8.2l3.9,1.4c0,0,87.9-38.4,116.1,52.8c0,0,44.9-3.3,44.3,38.6
							c0,0,33.5,0,31.6,25.3c0,0,17.5-31.2,44.8-11.7c0,0,40.6-23.7,60.3,18.9c0,0-93.7,70.8-218.8,24.6
							C-698,1186.1-731.5,1073.8-731.5,1073.8z"/>
					</g>
				</g>
			</g>
		</g>
	</g>
</g>
<g id="Layer_2">
	<path class="st5" d="M-597,944.9c33.2-11.7,51,6.2,78,19.1c-1.3-25.7,120-103.8,14.2-109.6c-39.4-2.1-102.7,31.5-130.2,84.2
		c-10.5,20.3-16.1,41.2-17,60.4C-641.3,978.8-624.3,954.6-597,944.9z"/>
	<path class="st5" d="M-413.1,1103.1c7.2-33.8-12.5-48.9-28.4-73.5c25.2-1.9,86.1-129.8,105-27.5c7,38-17.8,103.9-65.7,137.2
		c-18.4,12.8-38.1,20.9-56.6,24.2C-440.5,1150.5-419.1,1130.9-413.1,1103.1z"/>
	<path class="st6" d="M-506.7,1078c34.2-12.3,69.4-31.3,102.4-56.7c95.3-73.4,134.4-169.1,126-258c-87.3,0.8-179.2,54-239.8,157.9
		c-21,36-35.4,73.4-43.2,108.8L-506.7,1078z"/>
	<path class="st7" d="M-351.4,845.6c17.3,15.2,35.5,28.6,54.4,40.2c16.6-40.4,22.6-82.2,18.8-122.6c-40,0.4-81,11.8-119.6,34
		C-384,814.4-368.5,830.5-351.4,845.6z"/>
	<g>
		<g>
			<path class="st6" d="M-550.7,992.4c-4.3,12.7-7.9,25.3-10.6,37.6l54.6,48c11.9-4.3,23.9-9.4,36-15.3L-550.7,992.4z"/>
			<path class="st8" d="M-518.1,1035.9c12.4,10.9,24,21.9,34.6,32.7c4.2-1.9,8.5-3.8,12.8-6l-79.9-70.3c-1.6,4.5-3,9-4.3,13.4
				C-542.9,1014.9-530.5,1025-518.1,1035.9z"/>
		</g>
		<g>
			<path class="st7" d="M-475.5,1067.2l-79.1-69.5l2-20.5c1.5-3.3,4.9-4.1,7.6-1.7l90.3,79.4c2.7,2.4,2.4,5.9-0.7,7.8L-475.5,1067.2
				z"/>
		</g>
	</g>
	<path class="st5" d="M-388.2,792c12.7,16.4,27.2,31.9,43.4,46.2c16.4,14.4,33.7,26.9,51.7,37.4c13.5-37.2,18.3-75.3,14.8-112.3
		C-315,763.6-352.5,773.2-388.2,792z"/>
	<path class="st5" d="M-566.2,1091.4c0,0,126.3-203.1,155.8-177.1C-382,939.2-566.2,1091.4-566.2,1091.4z"/>
	<g>
		<circle class="st5" cx="-376.6" cy="873.9" r="34.4"/>
		<circle class="st9" cx="-376.6" cy="873.9" r="25.3"/>
		<g class="st10">
			<path class="st11" d="M-376.6,843.5L-376.6,843.5C-376.7,843.5-376.7,843.5-376.6,843.5C-376.7,843.5-376.7,843.5-376.6,843.5
				C-376.7,843.5-376.7,843.5-376.6,843.5C-376.7,843.5-376.7,843.5-376.6,843.5c-0.2,0-0.4,0-0.6,0l0,0l0,0l0,0l0,0l0,0l0,0l0,0
				l0,0l0,0l0,0l0,0l0,0v0.2v0.1l-0.2,0.1c-1.1,0-2,1-1.9,2.1c0,1.1,0.9,1.9,2,1.9c0,0,0,0,0.1,0c0.3,0,0.6,0,0.9,0
				c0.1,0,0.1,0,0.2,0s0.1,0,0.2,0c0.3,0,0.6,0,0.9,0h0.1c1.1,0,1.9-0.8,2-1.9c0.1-1.1-0.8-2-1.9-2.1c-0.1,0-0.2,0-0.2,0v-0.2
				c0,0-0.5-0.2-0.8-0.2l0,0c-0.1,0-0.1,0-0.2,0C-376.5,843.5-376.6,843.5-376.6,843.5L-376.6,843.5z M-386.7,845.7
				c-0.2,0-0.5-0.1-0.7,0v-0.2l0,0v0.2v0.1l0,0l0,0l0,0l0,0c-0.3,0.1-0.6,0.2-0.9,0.4c-1,0.4-1.5,1.6-1.1,2.6
				c0.3,0.8,1.1,1.2,1.8,1.2c0.3,0,0.5-0.1,0.8-0.2c0.3-0.1,0.5-0.2,0.8-0.3c1-0.4,1.5-1.6,1.2-2.6
				C-385.1,846.2-385.9,845.7-386.7,845.7L-386.7,845.7z M-395.4,851.1c-0.5,0-1,0.2-1.3,0.5c-0.2,0.2-0.4,0.4-0.6,0.5l0,0l0,0l0,0
				l0,0l0,0l0,0l0,0l0,0l0,0l0,0l0,0l0,0l0,0l0,0l0,0l0,0l0,0l0,0l0,0l0,0l0,0l0,0l0,0c-0.8,0.8-0.8,2,0,2.8
				c0.4,0.4,0.9,0.6,1.4,0.6s1-0.2,1.4-0.6c0.2-0.2,0.4-0.4,0.6-0.6c0.8-0.7,0.9-2,0.1-2.8C-394.3,851.3-394.8,851.1-395.4,851.1
				L-395.4,851.1z M-401.6,859.2c-0.7,0-1.4,0.5-1.8,1.2c0,0,0,0.2-0.1,0.2l0,0v-0.1l0,0l0,0l0,0l0,0l0,0l0,0l0,0l0,0l0,0l0,0l0,0
				l0,0l0,0l0,0l0,0h0.1h0.1l0,0l-0.1-0.1l0,0c-0.1,0-0.2,0.3-0.2,0.5l0,0l0,0l0,0l0,0l0,0h0.2h0.2l0,0h-0.2c-0.5,1-0.1,2.2,0.9,2.7
				c0.3,0.1,0.5,0.2,0.8,0.2c0.8,0,1.4-0.4,1.8-1.2c0.1-0.3,0.2-0.5,0.4-0.8c0.5-1,0.1-2.2-0.9-2.7
				C-401,859.2-401.3,859.2-401.6,859.2L-401.6,859.2z M-404.5,869c-1,0-1.8,0.8-1.9,1.8c0,0.2,0,0.3,0,0.5l0,0l0,0l0,0l0,0l0,0l0,0
				l0,0l0,0l0,0l0,0l-0.1,0.2l0,0l0,0l0,0c-0.1,1,0.7,2.2,1.9,2.2l0.1,0.1c1,0,1.9-0.8,2-1.8c0-0.3,0-0.6,0.1-0.8
				c0.1-1.1-0.7-2.1-1.8-2.2C-404.3,868.9-404.4,869-404.5,869L-404.5,869z M-403.7,879.1c-0.2,0-0.3,0-0.5,0.1
				c-1.1,0.3-1.6,1.4-1.3,2.4c0,0.1,0.1,0.2,0.1,0.3l0,0l0,0l0,0h-0.1l0,0l0,0h0.1h0.1l0,0h-0.1l0,0l0,0l0,0l0,0l0,0l0,0h0.1l0,0
				l0,0l0,0l0,0l0,0l0,0l0,0l0,0l0,0l0,0l0,0l0,0l0,0l0,0l0,0l0,0l0,0l0,0l0,0l0,0l0,0l0,0l0,0l0,0l0,0l0,0c0,0.1,0,0.1,0.1,0.2
				c0.3,0.9,1.1,1.4,1.9,1.4c0.2,0,0.4,0,0.6-0.1c1.1-0.3,1.7-1.4,1.3-2.5c-0.1-0.3-0.2-0.6-0.2-0.8
				C-402,879.7-402.8,879.1-403.7,879.1L-403.7,879.1z M-399.3,888.3c-0.4,0-0.8,0.1-1.2,0.4c-0.9,0.7-1.1,1.9-0.4,2.8
				c0.1,0.1,0.1,0.2,0.2,0.3l0,0c0,0,0,0,0.1,0.1l0,0c0.1,0.1,0.2,0.3,0.3,0.4c0.4,0.5,1,0.8,1.6,0.8c0.4,0,0.9-0.1,1.2-0.4
				c0.9-0.7,1-1.9,0.3-2.8c-0.2-0.2-0.4-0.5-0.5-0.7C-398,888.6-398.7,888.3-399.3,888.3L-399.3,888.3z M-391.8,895.4
				c-0.7,0-1.3,0.3-1.7,0.9c-0.6,0.9-0.3,2.2,0.6,2.8c0,0,0.1,0,0.1,0.1l0,0l0,0l0,0l0,0l0,0l0,0l0,0l0,0l0,0l0,0l0,0l0,0l0,0l0,0
				l0,0l0,0l0,0l0,0l0,0l0,0l0,0l0,0l0,0l0,0l0,0l0,0l0,0l0,0l0,0l0,0l0,0l0,0l0,0l0,0l0,0l0,0l0,0c0.1,0.1,0.2,0.1,0.4,0.2
				c0.3,0.2,0.7,0.3,1,0.3c0.7,0,1.3-0.3,1.7-1c0.6-0.9,0.3-2.2-0.7-2.7c-0.2-0.1-0.5-0.3-0.7-0.5
				C-391.1,895.5-391.5,895.4-391.8,895.4L-391.8,895.4z M-382.4,899.2c-0.9,0-1.8,0.6-2,1.6c-0.2,1.1,0.5,2.2,1.5,2.4
				c0.3,0.1,0.6,0.2,0.9,0.2l0,0v-0.1l0,0l0,0l0,0l0,0l0.5-0.1l0,0c0,0,0,0,0.1,0c1,0,1.7-0.7,1.9-1.7c0.2-1.1-0.6-2.1-1.7-2.3
				c-0.3,0-0.6-0.1-0.9-0.2C-382.1,899.3-382.3,899.2-382.4,899.2L-382.4,899.2z M-371.3,899.3c-0.1,0-0.3,0-0.4,0
				c-0.3,0.1-0.6,0.1-0.9,0.2c-1.1,0.2-1.8,1.2-1.7,2.3c0.2,1,1,1.7,2,1.7c0.1,0,0.2,0,0.3,0c0.3-0.1,0.7-0.1,1-0.2
				c1.1-0.2,1.8-1.3,1.6-2.3C-369.5,900-370.3,899.3-371.3,899.3L-371.3,899.3z M-361.8,895.6c-0.4,0-0.7,0.1-1.1,0.3
				c-0.2,0.2-0.5,0.3-0.7,0.4c-1,0.6-1.3,1.8-0.7,2.7c0.4,0.6,1,1,1.7,1c0.3,0,0.7-0.1,1-0.3c0.3-0.2,0.6-0.3,0.9-0.5
				c0.9-0.6,1.2-1.8,0.6-2.8C-360.5,895.9-361.1,895.6-361.8,895.6L-361.8,895.6z M-354.3,888.7c-0.6,0-1.2,0.3-1.6,0.8
				c-0.2,0.2-0.4,0.5-0.5,0.7c-0.7,0.9-0.6,2.1,0.3,2.8c0.4,0.3,0.8,0.4,1.3,0.4c0.6,0,1.2-0.3,1.6-0.7l0,0l0,0l0,0l0,0l0,0l0,0l0,0
				l0,0l0,0l0,0l0,0l0,0l0,0l0,0l0,0l0,0l0,0l0,0l0,0l0,0l0,0l0,0l0,0l0,0l0,0l0,0l0,0l0,0l0,0l0,0l0,0l0,0l0,0l0,0l0,0l0,0l0,0l0,0
				l0,0l0,0l0,0l0,0l0,0c0.1-0.1,0.2-0.2,0.3-0.3c0.7-0.9,0.5-2.1-0.4-2.8C-353.4,888.8-353.9,888.7-354.3,888.7L-354.3,888.7z
				 M-349.7,879.5c-0.9,0-1.7,0.6-1.9,1.5c-0.1,0.3-0.2,0.6-0.3,0.8c-0.3,1.1,0.2,2.2,1.3,2.5c0.2,0.1,0.4,0.1,0.6,0.1
				c0.8,0,1.5-0.5,1.7-1.4l-0.1-0.1l0,0l0.2-0.4h0.1v0.2v0.1l0,0l0,0l0,0l0,0l0,0l0,0l0,0l0,0l0,0l0,0l0,0l0,0l0,0l0,0l0,0l0,0l0,0
				l0,0l0,0l0,0l0,0l0,0l0,0l0,0l0,0l0,0l0,0h-0.2h-0.2l0,0h0.2h-0.1h-0.1l0,0l0,0l0,0l0,0l0,0l0,0l0,0l0,0l0,0c1,0,1,0,1,0l0,0l0,0
				l0,0h-0.2h-0.1h-0.1l0,0l0,0h0.2h0.2l0,0h-0.2h-0.1h0.2h0.2l0,0l-0.2-0.1c0.3-1.1-0.4-2.2-1.5-2.5
				C-349.3,879.6-349.5,879.5-349.7,879.5L-349.7,879.5z M-348.6,869.4c-0.1,0-0.2,0-0.3,0c-1.1,0.1-2,1.1-1.9,2.2
				c0,0.3,0,0.6,0,0.9c0.1,1.1,0.9,1.9,2,1.9h0.1c1.1-0.1,1.9-0.8,1.9-1.9v0.1h0.2l0.2-0.5l0,0l0,0l0,0l0,0l0,0l0,0l0,0l0,0
				c0-0.2,0-0.4,0-0.7l0,0l0,0l0,0l0,0l0,0l0,0l-0.2,0.3h-0.1h0.1h0.1v-0.3C-346.4,870.2-347.5,869.4-348.6,869.4L-348.6,869.4z
				 M-351.5,859.5c-0.3,0-0.6,0.1-0.9,0.2c-1,0.5-1.4,1.7-0.9,2.7c0.1,0.3,0.2,0.5,0.4,0.8c0.3,0.7,1.1,1.2,1.8,1.2
				c0.3,0,0.6-0.1,0.8-0.2c1-0.5,1.5-1.7,1-2.7l0,0l0,0l0,0l0,0c0-0.2-0.1-0.3-0.2-0.5h0.1h0.1l0,0h-0.1l0,0l0,0l0,0l0,0l0,0l0,0
				l0,0l0,0l0,0l0,0l0,0l0,0l0,0l0,0l0,0l0,0l0,0l0,0l0,0l0,0l0,0l0,0l0,0l0,0l0,0l0,0l0,0l0,0l0,0l0,0l0,0l0,0l0,0
				C-350.1,859.9-350.8,859.5-351.5,859.5L-351.5,859.5z M-357.6,851.4c-0.5,0-1.1,0.2-1.5,0.6c-0.8,0.8-0.7,2.1,0.1,2.8
				c0.2,0.2,0.4,0.4,0.6,0.6c0.4,0.4,0.9,0.6,1.4,0.6s1-0.2,1.4-0.6c0.8-0.8,0.8-2,0-2.8l0,0l0,0l0,0l0,0l0,0l0,0l0,0
				c-0.2-0.2-0.4-0.4-0.6-0.6C-356.6,851.5-357.1,851.4-357.6,851.4L-357.6,851.4z M-366.2,845.9c-0.8,0-1.5,0.5-1.9,1.3
				c-0.4,1,0.1,2.2,1.1,2.6c0.3,0.1,0.5,0.2,0.8,0.3s0.5,0.2,0.8,0.2c0.8,0,1.5-0.4,1.8-1.2c0.4-1,0-2.2-1-2.6
				c-0.3-0.1-0.6-0.3-1-0.4C-365.7,845.9-366,845.9-366.2,845.9L-366.2,845.9z"/>
		</g>
		<circle class="st12" cx="-376.6" cy="873.9" r="23.9"/>
		<path class="st13" d="M-397.9,863.1c-1.6,3.2-2.5,6.7-2.6,10.2c0.5-0.1,1.1-0.2,1.7-0.3l45.7-2.9c-0.6-3.4-1.8-6.7-3.8-9.6
			L-397.9,863.1z"/>
		<path class="st13" d="M-357.4,888c0.7-1,1.3-1.9,1.9-3l-40.5,2.6c0.7,0.9,1.4,1.8,2.2,2.7C-381.7,889.6-369.6,888.8-357.4,888z"/>
	</g>
</g>
</svg>
