<?xml version="1.0" encoding="utf-8"?>
<!-- Generator: Adobe Illustrator 16.0.0, SVG Export Plug-In . SVG Version: 6.00 Build 0)  -->
<!DOCTYPE svg PUBLIC "-//W3C//DTD SVG 1.1//EN" "http://www.w3.org/Graphics/SVG/1.1/DTD/svg11.dtd">
<svg version="1.1" id="Layer_1" xmlns="http://www.w3.org/2000/svg" xmlns:xlink="http://www.w3.org/1999/xlink" x="0px" y="0px"
	 width="250px" height="44.065px" viewBox="0 0 250 44.065" enable-background="new 0 0 250 44.065" xml:space="preserve">
<g>
	<path fill="#652C8F" d="M9.487,18.398H1.019c1.019-6.239,5.412-9.295,13.178-9.295c9.295,0,14.008,3.056,14.2,9.295v11.458
		c0,9.299-5.604,13.437-14.708,14.073C5.602,44.568,0,40.809,0,33.36c0.192-8.085,6.048-10.249,14.581-11.079
		c3.629-0.445,5.475-1.526,5.475-3.372c-0.192-1.911-1.973-2.868-5.475-2.868C11.586,16.042,9.933,16.807,9.487,18.398z
		 M20.182,29.479v-3.121c-1.972,0.829-4.264,1.529-6.747,2.036c-3.375,0.638-5.094,2.229-5.094,4.713
		c0.189,2.674,1.592,3.946,4.264,3.946C17.318,37.053,20.182,34.253,20.182,29.479z"/>
	<path fill="#652C8F" d="M60.817,29.856c0,5.796-1.464,9.615-4.456,11.467c-2.994,1.716-6.304,2.606-9.933,2.606
		c-3.501,0-6.623-0.959-9.551-2.866c-2.927-1.846-4.391-5.538-4.391-11.207V9.612h8.466v21.965c0,3.759,1.91,5.603,5.73,5.603
		c3.821,0,5.732-1.844,5.732-5.603V13.815c-0.065-2.802,1.272-4.204,4.074-4.204h4.329V29.856z"/>
	<path fill="#652C8F" d="M73.886,15.661h-0.891v18.652c0,1.4,0.829,2.167,2.483,2.167h2.613v6.429
		c-2.74,0.259-5.732,0.259-8.915-0.062c-3.183-0.322-4.712-2.292-4.647-6.045V0h4.391c2.229,0,4.075,2.037,4.075,4.264v5.348h5.096
		v1.848C78.091,13.878,76.243,15.661,73.886,15.661z"/>
	<path fill="#652C8F" d="M112.034,26.613c0,11.589-5.159,17.446-15.345,17.446c-10.187,0-15.28-5.857-15.28-17.446
		c0-11.717,5.093-17.51,15.28-17.51C106.875,9.104,112.034,14.896,112.034,26.613z M90.003,26.613
		c0.065,6.561,2.294,9.867,6.624,9.867c4.328,0,6.493-3.44,6.558-10.123c0-6.559-2.165-9.804-6.496-9.804
		C92.233,16.553,90.003,19.928,90.003,26.613z"/>
	<path fill="#652C8F" d="M131.531,44.06c-10.185,0-15.405-5.857-15.662-17.446c0-11.524,5.159-17.318,15.538-17.51
		c8.149,0,12.986,3.629,14.454,10.952h-9.233c-1.021-2.294-2.805-3.502-5.48-3.502c-4.453,0-6.683,3.375-6.683,10.06
		s2.357,10.06,7.067,9.992c1.976,0,3.691-0.825,5.097-2.414c0.823-0.831,1.783-1.215,2.867-1.215h6.366
		C144.332,39.856,139.365,44.247,131.531,44.06z"/>
	<path fill="#652C8F" d="M180.703,26.613c0,11.589-5.158,17.446-15.346,17.446s-15.278-5.857-15.278-17.446
		c0-11.717,5.091-17.51,15.278-17.51S180.703,14.896,180.703,26.613z M158.675,26.613c0.062,6.561,2.292,9.867,6.62,9.867
		c4.329,0,6.497-3.44,6.559-10.123c0-6.559-2.168-9.804-6.496-9.804C160.904,16.553,158.675,19.928,158.675,26.613z"/>
	<path fill="#652C8F" d="M215.867,4.264v24.452c0,10.119-5.288,15.146-15.792,15.084c-10.441-0.186-15.666-5.857-15.666-17.06
		c0-11.462,4.458-17.318,13.437-17.637c4.199,0,7.45,1.719,9.612,5.22V0h4.204C213.954,0,215.867,1.973,215.867,4.264z
		 M193.134,26.357c-0.062,6.816,2.229,10.248,7.066,10.248c4.842,0,7.258-3.432,7.258-10.248c-0.187-6.495-2.546-9.678-7.129-9.678
		C195.74,16.68,193.388,19.863,193.134,26.357z"/>
	<path fill="#652C8F" d="M234.726,44.06c-10.182-0.321-15.277-6.242-15.277-17.702c0-11.461,5.157-17.192,15.412-17.254
		c10.69,0,15.72,6.558,15.087,19.736h-21.774c0.316,5.159,2.545,7.766,6.688,7.766c1.97,0,3.815-0.825,5.475-2.414
		c0.763-0.831,1.716-1.215,2.861-1.215h6.242C247.593,40.108,243.011,44.06,234.726,44.06z M228.297,22.792h12.671
		c-0.508-4.456-2.612-6.75-6.242-6.75C231.097,16.042,228.936,18.336,228.297,22.792z"/>
</g>
</svg>
