<?xml version="1.0" encoding="utf-8"?>
<!-- Generator: Adobe Illustrator 16.0.0, SVG Export Plug-In . SVG Version: 6.00 Build 0)  -->
<!DOCTYPE svg PUBLIC "-//W3C//DTD SVG 1.1//EN" "http://www.w3.org/Graphics/SVG/1.1/DTD/svg11.dtd">
<svg version="1.1" id="Layer_1" xmlns="http://www.w3.org/2000/svg" xmlns:xlink="http://www.w3.org/1999/xlink" x="0px" y="0px"
	 width="500px" height="500px" viewBox="0 0 500 500" enable-background="new 0 0 500 500" xml:space="preserve">
<path fill="#18112E" d="M311.395,371.422c-16.003-1.729-22.892,2.541-20.669,12.801c9.05,9.04,10.701,19.567,4.96,31.574
	c-3.141,5.162-5.291,12.477-6.443,21.946c2.197-0.757,3.873-2.192,5.032-4.321c0,0-0.187,3.478-0.528,10.429
	c3.675-1.855,6.074-4.909,7.182-9.17c0,0,0.12,2.696,0.366,8.095c4.606-4.32,6.035-10.797,4.291-19.424
	C326.61,407.3,328.543,389.996,311.395,371.422"/>
<path fill="#18112E" d="M338.106,287.746c-12.7,7.009-23.72,20.904-33.07,41.688c13.308-6.408,19.919,2.769,19.829,27.545
	c16.25,5.573,20.229,20.37,11.927,44.385c19.979,10.827,33.758,28.476,41.354,52.953c32.133-7.368,53.839,2.895,65.104,30.812
	c54.725-53.031,63.724-113.419,26.996-181.146C416.612,344.471,372.564,339.061,338.106,287.746"/>
<path fill="#18112E" d="M262.072,264.578c2.796,17.104-2.087,37.532-14.646,61.301c-3.804-17.243-17.259-16.971-40.366,0.838
	c-17.19-11.473-33.953-4.669-50.296,20.427c-24.837-11.266-51.503-11.746-79.992-1.462C60.002,309.824,34.414,296.526,0,305.786
	c9.303-90.015,59.161-141.8,149.569-155.335C151.19,230.476,188.692,268.518,262.072,264.578"/>
<path fill="#18112E" d="M139.03,152.457c2.167,6.984,3.249,10.479,3.249,10.479c0.399-0.895,0.829-1.766,1.282-2.615l0.138,3.42
	c-0.396,0.159-0.799,0.318-1.204,0.492c-1.763,7.095-2.646,10.641-2.646,10.641c8.978-6.209,19.063-8.095,30.257-5.681
	c6.47,2.654,9.001,0.937,7.608-5.162c-2.177-7.305-11.113-8.302-26.801-2.993c5.72-4.21,12.518-6.6,20.403-7.165
	c6.954,0.739,8.902-1.625,5.852-7.086c-4.282-6.624-13.611-4.732-27.987,5.663c4.204-4.474,9.551-7.824,16.037-10.062
	c6.912-1.078,8.188-3.858,3.834-8.35C162.468,128.077,152.457,134.213,139.03,152.457"/>
<path fill="#18112E" d="M262.072,264.578c45.165,13.596,73.603,25.732,85.31,36.397c-18.523,12.239-24.996,26.624-19.418,43.142
	c15.076,38.703,4.54,63.63-31.635,74.788c-50.347,5.2-78.145-9.666-83.406-44.583C208.954,343.651,225.342,307.071,262.072,264.578"
	/>
<path fill="#18112E" d="M262.622,226.218c53.025-47.261,79.538-70.894,79.538-70.894c-13.14-13.227-20.531-41.021-22.146-83.385
	c3.854-55.036-3.459-70.385-21.932-46.021c-53.884,55.429-70.182,97.853-48.899,127.276
	C267.813,181.66,272.295,205.999,262.622,226.218"/>
<path fill="#18112E" d="M409.898,157.873c-22.729,37.532-11.044,55.389,35.055,53.569c3.993-6.924,8.303-10.698,12.944-11.329
	c25.546,1.321,39.508-17.793,41.88-57.343c1.543-46.993-4.934-79.35-19.411-97.065c-11.416-15.062-18.728-10.87-21.932,12.583
	C445.74,124.525,429.559,157.723,409.898,157.873"/>
<path fill="#CCC9E4" d="M267.846,270.596c16.124,4.967,32.389,10.439,47.825,17.03c6.035,2.57,12.07,5.375,17.774,8.618
	c2.391,1.363,4.864,2.87,7.177,4.527c-8.75,6.645-16.196,15.301-18.166,26.423c-1.096,6.177-0.348,12.328,1.646,18.24l0.03,0.087
	l0.036,0.078c13.073,33.561,7.338,58.031-28.663,69.291c-3.188,0.321-6.551,0.592-10.01,0.763
	c-29.521-3.24-43.171-21.454-40.943-54.638c3.303-35.815,13.683-61.139,31.137-75.966
	C273.016,279.979,270.411,275.178,267.846,270.596"/>
<path fill="#18112E" d="M267.461,207.62c-0.834,11.626-1.255,17.445-1.255,17.445s-4.191,2.928-12.584,8.801
	C255.295,225.533,259.907,216.784,267.461,207.62"/>
<path fill="#2B1F51" d="M385.607,446.223c24.543-5.669,44.444,4.032,59.686,29.109c33.479-37.084,46.933-99.412,22.489-149.928
	C450.679,362.961,420.92,414.827,385.607,446.223"/>
<path fill="#2B1F51" d="M351.913,398.415c18.556,4.429,29.707,17.92,33.454,40.451c31.869-42.595,53.221-79.188,64.051-109.756
	C417.414,360.033,384.914,383.135,351.913,398.415"/>
<path fill="#2B1F51" d="M348.534,387.396c2.192-16.192-3.197-28.215-16.178-36.072c34.179,0.501,69.123-6.122,104.829-19.884
	C399.136,363.027,369.585,381.679,348.534,387.396"/>
<path fill="#2B1F51" d="M339.145,304.084c-5.854,15.285-8.497,29.02-7.924,41.207c31.668-5.45,47.504-8.186,47.504-8.186
	C361.382,328.29,348.195,317.279,339.145,304.084"/>
<path fill="#2B1F51" d="M78.843,332.803c-12.782-27.407-36.511-39.394-71.187-35.949c10.035-58.397,58.429-115.81,123.681-128.711
	C108.806,211.301,82.197,276.739,78.843,332.803"/>
<path fill="#CCC9E4" d="M454.315,316.871c-45.648,31.581-85.132,22.315-118.442-27.81
	C369.063,336.373,408.541,345.643,454.315,316.871"/>
<path fill="#2B1F51" d="M148.374,330.642c-17.817-14.479-38.643-15.437-62.483-2.88c16.382-60.799,34.881-107.297,55.508-139.5
	C136.045,240.853,138.363,288.314,148.374,330.642"/>
<path fill="#2B1F51" d="M161.177,325.976c13.523-13.668,28.747-17.148,45.66-10.432c-25.645-32.163-45.18-70.152-58.607-113.968
	C146.704,260.387,151.022,301.855,161.177,325.976"/>
<path fill="#2B1F51" d="M246.026,275.279c-9.983,16.503-20.889,28.85-32.719,37.028c-18.213-34.031-27.323-51.05-27.323-51.05
	C207.002,271.448,227.017,276.12,246.026,275.279"/>
<path fill="#CCC9E4" d="M441.1,485.292c52.588-50.96,62.943-108.721,31.065-173.27l0.071,5.401
	C500.744,372.998,493.982,429.85,441.1,485.292"/>
<path fill="#CCC9E4" d="M463.217,326.546c2.522-6.521-0.057-5.051-0.432-4.934c-1.805,0.499-2.685,5.792-2.685,5.792
	c-8.113,28.375-35.629,69.768-80.007,123.046C422.827,402.082,450.541,360.781,463.217,326.546"/>
<path fill="#CCC9E4" d="M445.01,329.759c-38.938,36.739-71.438,54.437-104.276,68.351c33.745-10.396,69.074-33.287,105.981-68.702
	C445.581,329.645,445.01,329.759,445.01,329.759"/>
<path fill="#CCC9E4" d="M404.751,340.595c-27.083,4.071-52.323,6.87-75.71,8.398C346.216,349.731,371.45,346.934,404.751,340.595"/>
<path fill="#CCC9E4" d="M1.42,307.966c8.945-86.519,55.351-137.704,139.201-153.576l-5.099,3.789
	C62.548,170.847,14.343,217.973,1.42,307.966"/>
<path fill="#CCC9E4" d="M133.631,173.307c4.24-7.074,4.759-3.555,4.937-3.126c0.865,2.072-3.444,6.705-3.444,6.705
	c-20.559,28.011-39.024,83.832-56.169,164.184C92.724,265.798,110.95,209.875,133.631,173.307"/>
<path fill="#CCC9E4" d="M144.038,192.931c-5.693,63.345,1.687,106.924,12.851,148.144c-15.13-39.55-19.727-89.555-13.782-150.015
	C143.726,192.307,144.038,192.931,144.038,192.931"/>
<path fill="#CCC9E4" d="M149.244,174.855c4.069,66.036,41.82,96.972,113.246,92.792
	C193.785,269.923,156.036,238.994,149.244,174.855"/>
<path fill="#CCC9E4" d="M163.552,238.991c16.136,28.68,32.104,54.695,47.903,78.04C198.117,301.222,182.153,275.211,163.552,238.991
	"/>
<path fill="#FFFFFF" d="M462.983,58.503l0.019-0.101l0.024-0.108c0.612-4.507,1.555-9.995,3.393-14.183
	c0.402-0.903,1.657-3.45,2.786-3.693c0.729-0.153,1.981,0.619,2.522,0.997c2.216,1.538,4.317,4.07,5.938,6.214l0.049,0.059
	l0.051,0.057c18.396,22.52,19.405,66.791,18.505,94.311c-0.985,16.274-4.57,40.934-20.379,49.899
	c-5.278,2.994-11.227,3.876-17.226,3.567l-0.381-0.021l-0.376,0.054c-6.53,0.879-11.325,6.008-14.739,11.364
	c-11.545,0.31-31.963-0.384-37.995-10.932c-2.404-4.215-2.278-9.596-0.934-15.085c9.314,7.35,24.099,13.794,44.349,19.349
	c-3.819-13.326-3.52-29.702,0.948-49.131C458.023,121.656,457.005,89.677,462.983,58.503"/>
<path fill="#CCC9E2" d="M442.59,206.911c-11.633,0.273-31.497-0.573-37.431-10.95c-2.204-3.853-2.288-8.675-1.255-13.665
	c9.355,7.104,23.889,13.353,43.585,18.751c-0.114-0.399-0.222-0.801-0.327-1.21c0.441,0.12,0.865,0.24,1.304,0.36
	C446.181,202.077,444.235,204.449,442.59,206.911 M462.983,58.503l0.019-0.101l0.024-0.108c0.612-4.507,1.555-9.995,3.393-14.183
	c0.27-0.615,0.937-1.98,1.693-2.875l0.012-0.003c0.721-0.161,1.982,0.611,2.517,0.99c2.222,1.537,4.323,4.074,5.944,6.213
	l0.046,0.062l0.057,0.065c18.394,22.519,19.399,66.785,18.502,94.306c-0.919,15.1-4.068,37.427-17.147,47.72
	c-0.693,0.487-1.402,0.943-2.141,1.357c-5.279,2.994-11.225,3.876-17.227,3.567l-0.381-0.019l-0.375,0.051
	c-3.078,0.415-5.769,1.771-8.116,3.654c-0.424,0.297-0.835,0.6-1.231,0.937c-3.795-13.307-3.471-29.647,0.967-49.02
	C458.023,121.656,457.005,89.677,462.983,58.503z"/>
<path fill="#18112E" d="M374.479,162.605c-3.152-4.419-7.151-8.065-12.208-10.275c-7.708-3.362-16.082-2.627-23.912-0.15
	c-10.293,3.252-20.34,9.62-28.957,16.016c-30.776,21.252-67.918,55.734-47.339,96.382c3.345,7.579,7.938,14.443,13.62,20.472
	c34.178,36.322,104.903,39.259,148.447,20.352l0.054-0.023l0.048-0.024c21.858-10.154,29.552-26.81,20.511-49.038
	c1.475-7.014,2.942-14.034,4.411-21.057l0.057-0.201l0.021-0.216c1.688-16.418,3.116-45.387-13.284-55.577
	c-7.32-4.546-16.217-4.144-24.284-2.084C400.583,170.442,387.459,164.112,374.479,162.605"/>
<path fill="#CCC9E4" d="M265.759,262.831c3.282,7.471,7.75,13.998,13.124,19.667v0.003c9.458,15.202,18.988,30.474,28.585,45.811
	c0,0-1.855-8.161-5.57-24.48c0,0,8.393,1.559,25.183,4.663v-0.006c32.305,7.899,69.492,4.438,95.434-6.822
	c20.73-9.638,26.721-24.615,17.989-44.942c0,0,1.555-7.428,4.675-22.291c4.423-43.057-6.969-60.673-34.151-52.848
	c-2.342,3.054-3.513,4.579-3.513,4.579c0.366-1.906,1.015-3.753,1.945-5.537c-12.599-7.663-23.828-12.235-33.701-13.728
	c1.09,5.056,0.949,10.761-0.42,17.103c-0.379-6.053-1.43-11.896-3.144-17.523c-7.777-12.118-19.457-15.307-35.043-9.566
	c-2.33,0.919-4.637,1.922-6.9,3.003c-5.699,2.828-11.851,6.692-18.454,11.602c-2.149,1.48-4.239,2.967-6.257,4.444
	c-10.918,9.215-20.904,20.814-29.954,34.776c0,0,5.039,0,15.104,0C268.419,216.967,260.118,234.337,265.759,262.831"/>
<path fill="#18112E" d="M474.255,312.095c-5.699,2.171-8.558,3.258-8.558,3.258c0.396-0.728,0.744-1.472,1.084-2.216l-2.327,1.681
	c0.084,0.354,0.192,0.709,0.282,1.075c-3.783,4.87-5.689,7.309-5.689,7.309c-0.447-9.26-4.291-17.007-11.533-23.268
	c-5.026-2.963-5.171-5.558-0.444-7.785c5.927-2.333,11.089,3.141,15.511,16.436c-0.107-6.022-1.969-11.833-5.569-17.408
	c-4.009-4.294-3.426-6.831,1.721-7.621c6.533-0.564,10.005,6.678,10.4,21.732c0.832-5.146,0.34-10.479-1.462-15.997
	c-2.771-5.198-1.588-7.504,3.576-6.912C478.512,283.688,479.515,293.596,474.255,312.095"/>
<path fill="#18112E" d="M247.897,389.678c-13.95,8.026-17.003,15.541-9.161,22.514c12.638,1.981,20.181,9.512,22.612,22.598
	c0.493,6.017,3.062,13.192,7.714,21.521c1.327-1.903,1.835-4.053,1.517-6.458c0,0,1.909,2.912,5.711,8.746
	c1.883-3.669,2.015-7.554,0.402-11.649c0,0,1.688,2.107,5.059,6.323c1.178-6.209-1.474-12.28-7.983-18.226
	c3.549-11.92,3.525-21.586-0.087-28.99l2.495,1.198c-1.696-4.937-5.219-8.467-10.581-10.581l0,0
	C261.102,393.452,255.2,391.119,247.897,389.678"/>
<path fill="#18112E" d="M229.173,380.803c-6.647-10.504-12.07-12.662-16.262-6.474c0.39,20.213,7.476,33.568,21.24,40.057
	C227.975,403.634,226.314,392.44,229.173,380.803 M217.312,357.544c-0.489-12.499-0.732-18.76-0.732-18.76
	c-4.483,11.716-6.636,22.276-6.461,31.701C214.914,361.862,217.312,357.544,217.312,357.544z"/>
<path fill="#BEBCD7" d="M302.592,360.285c2.203-34.205,9.286-50.355,21.24-48.452c2.624,2.075,4.575,7.11,5.843,15.139
	c-2.606-0.609-3.909-0.909-3.909-0.909c1.197,5.896,1.291,10.476,0.321,13.739c-1.931-1.354-2.897-2.044-2.897-2.044
	C321.94,348.578,315.077,356.094,302.592,360.285"/>
<path fill="#FFFFFF" d="M302.592,360.285l0.032-0.447c11.791-6.561,17.995-16.334,18.37-25.933c1.531,1.198,2.627,2.23,3.27,3.102
	c-0.078-6.206-0.501-10.846-1.267-13.938c1.604,0.568,2.867,1.178,3.801,1.82c-0.732-5.601-2.3-10.005-4.714-13.199
	c0.573,0,1.153,0.054,1.744,0.144c2.628,2.078,4.579,7.119,5.847,15.142c-2.606-0.609-3.909-0.909-3.909-0.909
	c1.197,5.897,1.291,10.473,0.321,13.739c-1.931-1.356-2.897-2.044-2.897-2.044c-0.522,4.542-2.036,8.5-4.534,11.856
	C315.245,353.545,309.864,358.538,302.592,360.285"/>
<path fill="#18112E" d="M320.529,310.196c3.897,0.279,5.699,1.217,5.405,2.784c3.903,4.605,5.597,10.782,5.08,18.531
	c-1.85-2.012-2.756-3.018-2.756-3.018c0.882,4.633,0.498,9.432-1.147,14.38c-1.579-1.964-2.366-2.946-2.366-2.946
	c-0.648,8.393-7.645,17.358-22.159,20.357c12.707-6.684,19.253-15.01,19.644-24.975c1.534,1.186,2.624,2.225,3.272,3.099
	c-0.078-6.206-0.505-10.849-1.273-13.941c1.601,0.57,2.871,1.177,3.799,1.819C327.051,318.745,324.549,313.389,320.529,310.196"/>
<path fill="#CCC9E4" d="M262.27,168.421c-2.912-6.077-6.326-11.923-9.947-17.457l-0.054-0.075l-0.055-0.075
	c-2.501-3.462-4.51-7.221-5.909-11.266c-12.935-37.379,31.091-86.773,54.424-110.78l0.175-0.18l0.156-0.198
	c2.116-2.791,4.857-6.149,7.722-8.233c0.55-0.399,2.304-1.559,3.057-1.347c0.703,0.19,1.52,1.845,1.771,2.403
	c1.292,2.91,1.904,6.765,2.276,9.907c0.667,5.574,0.799,11.339,0.774,16.957c-4.605,31.967-7.008,57.644-3.396,76.42
	c5.041,26.238,1.149,32.925-11.863,29.478c-3.588-1.387-8.134,1.973-7.191,10.785C297.097,184.056,279.992,198.348,262.27,168.421
	L262.27,168.421z"/>
<path fill="#BEBADD" d="M314.741,62.123c-3.265,25.516-4.547,46.433-1.475,62.378c5.041,26.238,1.149,32.922-11.863,29.481
	c-3.588-1.387-8.137,1.969-7.191,10.785c2.729,18.115-12.217,31.821-28.717,8.624c11.645,6.996,18.77,5.14,21.34-5.567
	c-0.57-17.511,3.63-26.081,12.593-25.708c7.561,1.603,10.611-1.51,9.157-9.347C307.033,109.125,309.083,85.576,314.741,62.123z"/>
<path fill="#FFFFFF" d="M368.117,161.317c-7.578-7.758-17.904-9.23-30.98-4.411c-2.33,0.919-4.636,1.922-6.902,3
	c-5.696,2.829-11.849,6.696-18.454,11.605c-2.15,1.478-4.236,2.967-6.258,4.441c-10.917,9.215-20.906,20.811-29.953,34.773h4.438
	C296.013,178.092,344.358,146.623,368.117,161.317"/>
<path fill="#FFFFFF" d="M290.671,210.725c-24.951,12.397-32.523,44.015-11.649,71.995
	C255.287,261.979,257.241,216.958,290.671,210.725"/>
<path fill="#BEBADD" d="M441.059,229.638c-27.402,2.006-41.105,3.012-41.105,3.012c10.313-28.207,19.961-39.643,29.562-39.322
	C440.638,193.688,444.41,204.11,441.059,229.638"/>
<path fill="#BEBADD" d="M359.208,235.093c-38.157-22.934-60.832-32.56-60.832-32.56c19.559-29.719,42.21-41.09,62.369-35.574
	C376.929,171.385,376.797,192.331,359.208,235.093"/>
<path fill="#FFFFFF" d="M325.691,271.418c-36.104-3.507-46.243-17.265-32.179-36.808l-0.006,0.006
	c-1.369-1.066-3.162-0.477-5.381,1.769c4.78-10.01,13.422-5.537,6.197-2.612c-10.779,18.489,2.306,31.545,32.442,33.977
	c34.542,2.793,57.19,8.005,70.216,13.975c21.483,9.842,37.809,3.2,35.301-10.468c1.841,10.306-2.345,16.227-12.571,17.775
	c-6.216,1.094-13.941-0.637-23.192-5.209C378.563,276.685,354.464,274.214,325.691,271.418"/>
<path fill="#381F59" d="M325.526,269.241c-36.104-3.507-46.246-17.262-32.182-36.808v0.006c-1.375-1.063-3.165-0.477-5.381,1.769
	c4.774-10.007,13.412-5.54,6.191-2.609c-10.779,18.484,2.312,31.545,32.442,33.977c34.545,2.793,57.196,8.005,70.219,13.968
	c21.483,9.849,37.802,3.201,35.301-10.461c1.844,10.306-2.354,16.227-12.574,17.778c-6.216,1.103-13.944-0.64-23.187-5.215
	C378.389,274.511,354.291,272.037,325.526,269.241"/>
<path fill="#381F59" d="M389.336,290.845c-8.611,11.86-24.189,8.264-46.738-10.785C364.788,294.01,380.365,297.607,389.336,290.845"
	/>
<path fill="#381F59" d="M316.295,238.913c13.716,6.924,32.056,2.636,42.087-3.327l0.826-0.493l0.333-0.901
	c1.108-3.002,0.586-7.782,1.145-10.923l0.015-0.102l0.012-0.105c1.138-11.455,0.285-25.501-8.938-33.71
	c-5.398-4.801-12.395-6.458-19.469-6.419c-15.79,0.069-26.549,9.326-33.322,23.132l-0.09,0.192l-0.063,0.195
	c-1.433,4.645-2.699,8.975-1.378,13.692C299.967,229.202,308.299,234.871,316.295,238.913"/>
<path fill="#FFFFFF" d="M317.569,237.024c-14.938-7.548-20.628-17.322-16.71-29.981c6.42-13.091,16.86-21.333,31.452-21.396
	c19.52-0.09,28.057,13.388,25.69,37.142c-0.763,4.284-1.489,7.377-2.204,9.293C340.86,240.984,328.222,242.408,317.569,237.024"/>
<path fill="#0F143C" d="M327.591,195.567c-9.93,0.889-17.256,9.662-16.367,19.58c0.886,9.929,9.653,17.255,19.58,16.37
	c9.923-0.886,17.253-9.653,16.364-19.58C346.286,202.011,337.521,194.682,327.591,195.567"/>
<path fill="#196097" d="M327.774,197.618c-8.788,0.796-15.282,8.551-14.499,17.352c0.784,8.789,8.552,15.286,17.349,14.5
	c8.792-0.784,15.283-8.552,14.497-17.346C344.333,203.326,336.569,196.834,327.774,197.618"/>
<path fill="#FFFFFF" d="M335.362,225.68c-1.585,0.147-2.75,1.538-2.609,3.125c0.142,1.585,1.537,2.754,3.126,2.612
	c1.579-0.141,2.753-1.537,2.606-3.123C338.34,226.707,336.941,225.539,335.362,225.68"/>
<path fill="#FFFFFF" d="M319.938,191.679c-4.351,1.213-7.239,4.495-6.447,7.332c0.79,2.837,4.961,4.165,9.312,2.943
	c4.345-1.21,7.239-4.495,6.446-7.333C328.462,191.778,324.289,190.463,319.938,191.679"/>
<path fill="#381F59" d="M314.356,191.163c-2.48-0.36-3.724-0.538-3.724-0.538c15.241-8.989,30.177-10.292,44.802-3.903
	C340.206,182.422,326.513,183.899,314.356,191.163"/>
<path fill="#030204" d="M328.324,203.758c-5.404,0.483-9.392,5.254-8.902,10.656c0.478,5.408,5.258,9.401,10.659,8.909
	c5.404-0.483,9.4-5.254,8.902-10.659C338.5,207.266,333.729,203.278,328.324,203.758"/>
<path fill="#CCC9E4" d="M289.651,215.108c8.519,13.151,15.625,20.585,21.339,22.285
	C311.083,221.167,303.967,213.739,289.651,215.108"/>
<path fill="#381F59" d="M289.651,215.108c16.262-8.341,22.447,5.167,21.339,22.285C310.089,221.516,302.976,214.081,289.651,215.108
	"/>
<path fill="#FFFFFF" d="M289.651,215.108c13.133-1.201,20.243,6.233,21.339,22.285C308.471,222.699,301.352,215.271,289.651,215.108
	"/>
<path fill="#381F59" d="M396.545,205.158c-2.243-13.001-7.278-19.601-15.097-19.775c9.539-3.165,15.352,3.486,17.436,19.955
	c-8.671,19.096-8.11,30.936,1.699,35.521c-4.497-0.907-6.792-1.372-6.86-1.391C389.279,232.505,390.219,221.068,396.545,205.158"/>
<path fill="#381F59" d="M432.024,253.565c9.128-5.278,9.287-19.283,8.938-27.708c-0.207-5.188-1.303-10.251-5.84-13.118
	c-6.356-4.009-14.487-1.826-20.369,1.973c-8.675,5.585-14.266,15.169-17.571,24.75l-0.172,0.49l0.024,0.516
	C397.75,256.724,425.463,257.36,432.024,253.565"/>
<path fill="#FFFFFF" d="M399.479,240.363c10.719-31.056,38.739-34.641,39.583-14.439c0.576,14.791-2.063,23.138-7.899,25.066
	C419.89,254.778,403.118,254.039,399.479,240.363"/>
<path fill="#381F59" d="M436.999,217.204c0.949-0.823,1.424-1.225,1.424-1.225c-3.288-5.579-9.002-8.509-17.139-8.773
	C427.658,208.688,432.898,212.021,436.999,217.204"/>
<path fill="#0F143C" d="M418.161,221.605c-7.527,0-13.641,6.096-13.641,13.632c0,7.524,6.104,13.629,13.641,13.629
	c7.531,0,13.632-6.098,13.632-13.629C431.792,227.704,425.692,221.605,418.161,221.605"/>
<path fill="#196097" d="M418.161,223.155c-6.665,0-12.076,5.404-12.076,12.079c0,6.669,5.411,12.073,12.076,12.073
	c6.666,0,12.076-5.404,12.076-12.073S424.827,223.155,418.161,223.155"/>
<path fill="#030204" d="M418.161,227.815c-4.102,0-7.416,3.324-7.416,7.422s3.314,7.417,7.416,7.417
	c4.096,0,7.417-3.321,7.417-7.417C425.578,231.136,422.256,227.815,418.161,227.815"/>
<path fill="#FFFFFF" d="M424.922,244.236c-1.207,0-2.18,0.97-2.18,2.171c0,1.207,0.973,2.174,2.18,2.174
	c1.204,0,2.168-0.967,2.168-2.174C427.09,245.206,426.118,244.236,424.922,244.236"/>
<path fill="#FFFFFF" d="M412.667,221.113c-3.018,1.585-4.63,4.468-3.598,6.44c1.033,1.97,4.324,2.279,7.345,0.694
	s4.633-4.462,3.597-6.438C418.975,219.84,415.693,219.525,412.667,221.113"/>
<path fill="#381F59" d="M426.743,252.175c-0.363,2.009-0.541,3.012-0.541,3.012c4.549-0.486,8.527,0.012,11.938,1.483
	C434.933,253.391,431.135,251.893,426.743,252.175"/>
<path fill="#18112E" d="M389.834,273.457c11.506-4.057,17.262-10.205,17.289-18.46c-2.892-18.31-17.145-22.12-42.763-11.448
	c-5.479,3.479-2.984,8.773,7.479,15.89c4.459,2.747,6.642,5.729,6.543,8.93l0,0c-0.007,0.126-0.013,0.252-0.024,0.378
	c-0.015,0.874,0.271,1.537,0.853,1.981l0,0C383.217,273.521,386.76,274.43,389.834,273.457"/>
<path fill="#18112E" d="M389.264,271.635c10.316-3.646,15.49-9.158,15.512-16.557c-2.598-16.424-15.383-19.853-38.361-10.274
	c-4.921,3.126-2.679,7.876,6.711,14.256c3.996,2.466,5.954,5.138,5.867,8.005v0.013c-0.003,0.104-0.013,0.216-0.027,0.33
	c-0.012,0.786,0.246,1.375,0.769,1.774l0,0C383.331,271.688,386.508,272.506,389.264,271.635"/>
<path fill="#2B1F51" d="M391.201,241.591c5.552,0.541,10.05,3.747,10.05,7.164c0,3.414-4.498,5.75-10.05,5.216
	c-5.546-0.538-10.05-3.744-10.05-7.167C381.154,243.393,385.655,241.054,391.201,241.591"/>
<path fill="#18112E" d="M374.732,178.062c-0.168-10.311-8.501-23.576-8.501-23.576c41.938-13.767,60.493,3.219,65.784,9.899
	c-5.87-0.826-10.516-0.676-13.941,0.339c5.57,2.369,9.563,5.966,11.966,10.806c-4.273-1.633-9.062-2.27-14.358-1.907
	c12.265,8.521,14.136,19.718,5.597,33.584c0.708-4.231-1.346-7.84-6.158-10.824c-3.988,12.241-11.779,20.396-23.369,24.447
	c1.525-10.794,0.081-20.496-4.318-29.128c-1.675,4.555-2.516,6.837-2.516,6.837C378.127,184.887,374.732,178.062,374.732,178.062"/>
<path fill="#2B1F51" d="M415.12,196.384c10.716-30.786-18.703-50.852-46.735-38.112c30.74-1.462,53.355,34.004,23.366,62.559
	C403.562,216.543,411.357,208.392,415.12,196.384"/>
<path fill="#2B1F51" d="M368.384,158.278c-1.226-2.33-2.144-3.786-2.144-3.786c41.934-13.77,60.489,3.219,65.783,9.896
	C413.777,152.36,392.567,150.325,368.384,158.278L368.384,158.278z"/>
<path fill="#FFFFFF" d="M388.795,310.95c46.468-7.086,63.766-24.999,51.902-53.749C448.709,285.387,431.405,303.306,388.795,310.95"
	/>
<path fill="#2B1F51" d="M322.244,124.316c-0.165,3.529-1.186,3.831-3.057,0.897c-3.504-18.415-3.678-42.326-0.537-71.729
	C317.557,83.657,318.751,107.265,322.244,124.316"/>
</svg>
