<?xml version="1.0" encoding="utf-8"?>
<!-- Generator: Adobe Illustrator 16.0.0, SVG Export Plug-In . SVG Version: 6.00 Build 0)  -->
<!DOCTYPE svg PUBLIC "-//W3C//DTD SVG 1.1//EN" "http://www.w3.org/Graphics/SVG/1.1/DTD/svg11.dtd">
<svg version="1.1" id="Layer_1" xmlns="http://www.w3.org/2000/svg" xmlns:xlink="http://www.w3.org/1999/xlink" x="0px" y="0px"
	 width="400px" height="70.504px" viewBox="0 0 400 70.504" enable-background="new 0 0 400 70.504" xml:space="preserve">
<g>
	<path fill="#185F96" d="M15.179,29.438H1.631c1.629-9.983,8.658-14.872,21.084-14.872c14.872,0,22.413,4.889,22.72,14.872v18.333
		c0,14.877-8.967,21.498-23.532,22.517C8.962,71.311,0,65.294,0,53.377C0.307,40.439,9.677,36.979,23.329,35.65
		c5.807-0.712,8.76-2.442,8.76-5.395c-0.308-3.057-3.157-4.588-8.76-4.588C18.539,25.667,15.892,26.891,15.179,29.438z
		 M32.292,47.166v-4.994c-3.155,1.327-6.822,2.447-10.795,3.258c-5.401,1.021-8.151,3.567-8.151,7.541
		c0.303,4.277,2.547,6.313,6.823,6.313C27.708,59.284,32.292,54.805,32.292,47.166z"/>
	<path fill="#185F96" d="M97.308,47.771c0,9.272-2.342,15.383-7.129,18.347c-4.791,2.745-10.086,4.17-15.893,4.17
		c-5.603,0-10.596-1.534-15.282-4.586c-4.683-2.953-7.026-8.86-7.026-17.931V15.379h13.545v35.145c0,6.015,3.056,8.965,9.169,8.965
		c6.114,0,9.171-2.95,9.171-8.965V22.105c-0.104-4.483,2.036-6.726,6.519-6.726h6.926V47.771z"/>
	<path fill="#185F96" d="M118.218,25.058h-1.426V54.9c0,2.242,1.327,3.469,3.974,3.469h4.181v10.285
		c-4.385,0.414-9.171,0.414-14.264-0.098c-5.092-0.517-7.539-3.668-7.436-9.673V0h7.025c3.566,0,6.52,3.26,6.52,6.823v8.556h8.154
		v2.957C124.946,22.205,121.988,25.058,118.218,25.058z"/>
	<path fill="#185F96" d="M179.254,42.581c0,18.542-8.254,27.914-24.552,27.914c-16.298,0-24.447-9.372-24.447-27.914
		c0-18.747,8.149-28.015,24.447-28.015C171,14.566,179.254,23.834,179.254,42.581z M144.005,42.581
		c0.104,10.497,3.671,15.788,10.598,15.788c6.925,0,10.388-5.505,10.492-16.197c0-10.495-3.463-15.687-10.393-15.687
		C147.573,26.485,144.005,31.884,144.005,42.581z"/>
	<path fill="#185F96" d="M210.45,70.495c-16.295,0-24.648-9.372-25.059-27.914c0-18.439,8.254-27.708,24.86-28.015
		c13.039,0,20.778,5.806,23.127,17.522h-14.772c-1.635-3.671-4.487-5.603-8.77-5.603c-7.125,0-10.693,5.399-10.693,16.096
		c0,10.696,3.771,16.096,11.307,15.987c3.159,0,5.905-1.32,8.153-3.862c1.317-1.329,2.854-1.942,4.588-1.942h10.187
		C230.932,63.771,222.984,70.795,210.45,70.495z"/>
	<path fill="#185F96" d="M289.125,42.581c0,18.542-8.253,27.914-24.555,27.914c-16.299,0-24.444-9.372-24.444-27.914
		c0-18.747,8.146-28.015,24.444-28.015C280.872,14.566,289.125,23.834,289.125,42.581z M253.88,42.581
		c0.099,10.497,3.667,15.788,10.593,15.788s10.396-5.505,10.493-16.197c0-10.495-3.469-15.687-10.396-15.687
		C257.445,26.485,253.88,31.884,253.88,42.581z"/>
	<path fill="#185F96" d="M345.387,6.823v39.122c0,16.19-8.46,24.234-25.267,24.136c-16.706-0.297-25.065-9.372-25.065-27.296
		c0-18.339,7.133-27.708,21.498-28.218c6.719,0,11.922,2.75,15.381,8.352V0h6.727C342.326,0,345.387,3.156,345.387,6.823z
		 M309.014,42.172c-0.1,10.906,3.567,16.396,11.307,16.396c7.748,0,11.613-5.49,11.613-16.396
		c-0.3-10.391-4.074-15.484-11.406-15.484C313.186,26.688,309.42,31.781,309.014,42.172z"/>
	<path fill="#185F96" d="M375.561,70.495c-16.291-0.515-24.442-9.987-24.442-28.323c0-18.337,8.251-27.507,24.659-27.606
		c17.104,0,25.15,10.492,24.139,31.579h-34.839c0.506,8.254,4.071,12.424,10.7,12.424c3.15,0,6.104-1.319,8.759-3.861
		c1.221-1.329,2.746-1.943,4.578-1.943h9.987C396.148,64.174,388.816,70.495,375.561,70.495z M365.273,36.468h20.273
		c-0.812-7.13-4.18-10.801-9.986-10.801S366.297,29.338,365.273,36.468z"/>
</g>
</svg>
