<?xml version="1.0" encoding="utf-8"?>
<!-- Generator: Adobe Illustrator 16.0.0, SVG Export Plug-In . SVG Version: 6.00 Build 0)  -->
<!DOCTYPE svg PUBLIC "-//W3C//DTD SVG 1.1//EN" "http://www.w3.org/Graphics/SVG/1.1/DTD/svg11.dtd">
<svg version="1.1" id="Layer_1" xmlns="http://www.w3.org/2000/svg" xmlns:xlink="http://www.w3.org/1999/xlink" x="0px" y="0px"
	 width="250px" height="250px" viewBox="0 0 250 250" enable-background="new 0 0 250 250" xml:space="preserve">
<g>
	<g>
		<path fill="#BAB8D4" d="M17.682,74.185H1.899c1.898-11.631,10.086-17.324,24.562-17.324c17.324,0,26.107,5.693,26.465,17.324
			V95.54c0,17.333-10.445,25.044-27.412,26.232C10.44,122.961,0,115.955,0,102.072c0.357-15.069,11.272-19.104,27.176-20.65
			c6.764-0.832,10.204-2.847,10.204-6.287c-0.357-3.56-3.677-5.344-10.204-5.344C21.595,69.792,18.513,71.218,17.682,74.185z
			 M37.617,94.833v-5.817c-3.677,1.547-7.948,2.853-12.577,3.799c-6.291,1.188-9.493,4.155-9.493,8.783
			c0.352,4.982,2.966,7.354,7.947,7.354C32.278,108.951,37.617,103.734,37.617,94.833z"/>
		<path fill="#BAB8D4" d="M124.948,95.54c0,10.802-2.73,17.921-8.305,21.373c-5.58,3.197-11.75,4.859-18.514,4.859
			c-6.526,0-12.344-1.787-17.803-5.344c-5.454-3.439-8.183-10.32-8.183-20.888V57.807h15.778v40.939
			c0,7.005,3.56,10.445,10.681,10.445c7.122,0,10.683-3.439,10.683-10.445V65.641c-0.121-5.222,2.373-7.834,7.595-7.834h8.068V95.54
			z"/>
		<path fill="#BAB8D4" d="M166.306,69.082h-1.661v34.768c0,2.609,1.545,4.037,4.628,4.037h4.871v11.98
			c-5.107,0.484-10.683,0.484-16.614-0.115c-5.934-0.6-8.784-4.27-8.664-11.268V39.891h8.186c4.153,0,7.594,3.799,7.594,7.949v9.967
			h9.499v3.444C174.144,65.758,170.698,69.082,166.306,69.082z"/>
		<path fill="#BAB8D4" d="M250,89.495c0,21.601-9.616,32.519-28.603,32.519c-18.985,0-28.479-10.918-28.479-32.519
			c0-21.836,9.494-32.634,28.479-32.634C240.384,56.861,250,67.658,250,89.495z M208.937,89.495
			c0.12,12.23,4.278,18.392,12.345,18.392c8.067,0,12.103-6.416,12.225-18.871c0-12.225-4.035-18.271-12.108-18.271
			C213.093,70.745,208.937,77.036,208.937,89.495z"/>
	</g>
	<path fill="#BAB8D4" d="M29.19,210.099c-18.982,0-28.712-10.919-29.19-32.52c0-21.481,9.614-32.277,28.959-32.636
		c15.189,0,24.205,6.764,26.94,20.411H38.69c-1.904-4.273-5.229-6.526-10.215-6.526c-8.3,0-12.456,6.29-12.456,18.751
		s4.392,18.75,13.171,18.626c3.682,0,6.88-1.54,9.5-4.503c1.536-1.546,3.324-2.261,5.342-2.261h11.867
		C53.047,202.261,43.792,210.446,29.19,210.099z"/>
	<path fill="#BAB8D4" d="M120.84,177.579c0,21.601-9.614,32.52-28.602,32.52c-18.988,0-28.477-10.919-28.477-32.52
		c0-21.839,9.489-32.636,28.477-32.636C111.226,144.943,120.84,155.74,120.84,177.579z M79.782,177.579
		c0.116,12.229,4.27,18.392,12.339,18.392s12.108-6.415,12.224-18.87c0-12.223-4.039-18.272-12.107-18.272
		C83.938,158.828,79.782,165.118,79.782,177.579z"/>
	<path fill="#BAB8D4" d="M186.381,135.923v45.575c0,18.858-9.856,28.232-29.435,28.116c-19.461-0.348-29.199-10.919-29.199-31.799
		c0-21.365,8.308-32.276,25.044-32.872c7.826,0,13.886,3.203,17.916,9.73v-26.698h7.836
		C182.814,127.976,186.381,131.652,186.381,135.923z M144.007,177.101c-0.115,12.708,4.155,19.104,13.171,19.104
		c9.026,0,13.529-6.396,13.529-19.104c-0.348-12.103-4.745-18.036-13.287-18.036C148.868,159.064,144.481,164.998,144.007,177.101z"
		/>
	<path fill="#BAB8D4" d="M221.53,210.099c-18.978-0.601-28.478-11.635-28.478-32.998c0-21.36,9.614-32.041,28.729-32.157
		c19.925,0,29.297,12.225,28.12,36.786h-40.585c0.59,9.615,4.745,14.476,12.465,14.476c3.673,0,7.111-1.54,10.204-4.503
		c1.421-1.546,3.197-2.261,5.335-2.261h11.634C245.515,202.734,236.973,210.099,221.53,210.099z M209.548,170.459h23.616
		c-0.946-8.308-4.87-12.581-11.634-12.581C214.766,157.878,210.736,162.151,209.548,170.459z"/>
</g>
</svg>
