<?xml version="1.0" encoding="utf-8"?>
<!-- Generator: Adobe Illustrator 16.0.0, SVG Export Plug-In . SVG Version: 6.00 Build 0)  -->
<!DOCTYPE svg PUBLIC "-//W3C//DTD SVG 1.1//EN" "http://www.w3.org/Graphics/SVG/1.1/DTD/svg11.dtd">
<svg version="1.1" id="Layer_1" xmlns="http://www.w3.org/2000/svg" xmlns:xlink="http://www.w3.org/1999/xlink" x="0px" y="0px"
	 width="250px" height="250px" viewBox="0 0 250 250" enable-background="new 0 0 250 250" xml:space="preserve">
<g>
	<g>
		<path fill="#BAB8D4" d="M21.171,65.574H2.276C4.549,51.65,14.351,44.833,31.681,44.833c20.741,0,31.257,6.817,31.685,20.741V91.14
			c0,20.752-12.505,29.983-32.818,31.406c-18.046,1.423-30.546-6.964-30.546-23.584C0.43,80.92,13.497,76.089,32.537,74.238
			c8.098-0.996,12.216-3.407,12.216-7.525c-0.428-4.264-4.401-6.397-12.216-6.397C25.856,60.316,22.166,62.021,21.171,65.574z
			 M45.037,90.295V83.33c-4.402,1.853-9.515,3.415-15.057,4.548c-7.531,1.424-11.366,4.976-11.366,10.515
			c0.422,5.966,3.551,8.804,9.514,8.804C38.646,107.196,45.037,100.951,45.037,90.295z"/>
		<path fill="#BAB8D4" d="M135.713,91.14c0,12.933-3.269,21.456-9.944,25.588c-6.68,3.829-14.066,5.818-22.164,5.818
			c-7.813,0-14.778-2.14-21.314-6.397c-6.53-4.119-9.796-12.356-9.796-25.008V45.966h18.891V94.98
			c0,8.387,4.262,12.504,12.786,12.504c8.525,0,12.789-4.117,12.789-12.504V55.347c-0.145-6.253,2.841-9.381,9.092-9.381h9.661
			V91.14z"/>
		<path fill="#BAB8D4" d="M164.874,59.466h-1.989v41.622c0,3.125,1.85,4.833,5.541,4.833h5.832v14.345
			c-6.115,0.58-12.789,0.58-19.891-0.139c-7.105-0.717-10.517-5.112-10.373-13.489V24.518h9.8c4.973,0,9.091,4.546,9.091,9.515
			v11.933h11.373v4.123C174.258,55.485,170.132,59.466,164.874,59.466z"/>
		<path fill="#BAB8D4" d="M250,83.904c0,25.859-11.512,38.932-34.243,38.932c-22.73,0-34.098-13.073-34.098-38.932
			c0-26.145,11.367-39.071,34.098-39.071C238.488,44.833,250,57.759,250,83.904z M200.839,83.904
			c0.143,14.641,5.121,22.018,14.778,22.018c9.658,0,14.488-7.679,14.635-22.591c0-14.633-4.831-21.875-14.495-21.875
			C205.813,61.455,200.839,68.986,200.839,83.904z"/>
	</g>
	<path fill="#BAB8D4" d="M29.19,225.471c-18.981,0-28.712-10.918-29.19-32.518c0-21.48,9.614-32.275,28.959-32.635
		c15.188,0,24.205,6.762,26.939,20.41H38.689c-1.904-4.275-5.229-6.529-10.215-6.529c-8.299,0-12.455,6.293-12.455,18.754
		s4.392,18.75,13.171,18.625c3.682,0,6.879-1.539,9.499-4.504c1.536-1.545,3.324-2.26,5.342-2.26h11.868
		C53.047,217.635,43.792,225.82,29.19,225.471z"/>
	<path fill="#BAB8D4" d="M120.839,192.953c0,21.6-9.614,32.518-28.602,32.518S63.76,214.553,63.76,192.953
		c0-21.838,9.489-32.635,28.477-32.635S120.839,171.115,120.839,192.953z M79.782,192.953c0.116,12.23,4.27,18.391,12.337,18.391
		c8.07,0,12.109-6.414,12.225-18.869c0-12.223-4.039-18.275-12.108-18.275C83.937,174.199,79.782,180.492,79.782,192.953z"/>
	<path fill="#BAB8D4" d="M186.38,151.295v45.578c0,18.857-9.856,28.232-29.434,28.115c-19.461-0.348-29.2-10.92-29.2-31.799
		c0-21.365,8.31-32.277,25.045-32.871c7.827,0,13.886,3.201,17.915,9.729V143.35h7.836
		C182.815,143.35,186.38,147.027,186.38,151.295z M144.007,192.475c-0.115,12.709,4.155,19.104,13.171,19.104
		c9.025,0,13.528-6.395,13.528-19.104c-0.347-12.102-4.744-18.037-13.287-18.037C148.868,174.438,144.481,180.373,144.007,192.475z"
		/>
	<path fill="#BAB8D4" d="M221.529,225.471c-18.978-0.598-28.477-11.633-28.477-32.996c0-21.359,9.614-32.041,28.728-32.156
		c19.927,0,29.298,12.225,28.118,36.785h-40.583c0.591,9.615,4.746,14.475,12.465,14.475c3.673,0,7.112-1.539,10.205-4.504
		c1.421-1.545,3.196-2.26,5.334-2.26h11.634C245.513,218.107,236.971,225.471,221.529,225.471z M209.547,185.832h23.616
		c-0.945-8.307-4.87-12.582-11.634-12.582C214.765,173.25,210.736,177.525,209.547,185.832z"/>
</g>
</svg>
