<?xml version="1.0" encoding="utf-8"?>
<!-- Generator: Adobe Illustrator 16.0.0, SVG Export Plug-In . SVG Version: 6.00 Build 0)  -->
<!DOCTYPE svg PUBLIC "-//W3C//DTD SVG 1.1//EN" "http://www.w3.org/Graphics/SVG/1.1/DTD/svg11.dtd">
<svg version="1.1" id="Layer_1" xmlns="http://www.w3.org/2000/svg" xmlns:xlink="http://www.w3.org/1999/xlink" x="0px" y="0px"
	 width="500px" height="400.514px" viewBox="0 0 500 400.514" enable-background="new 0 0 500 400.514" xml:space="preserve">
<path fill="#18112E" d="M278.359,232.037c-10.41-1.123-14.892,1.654-13.446,8.326c5.888,5.883,6.962,12.729,3.227,20.538
	c-2.043,3.356-3.44,8.114-4.191,14.275c1.43-0.492,2.519-1.427,3.273-2.812c0,0-0.116,2.262-0.344,6.783
	c2.395-1.206,3.953-3.194,4.672-5.964c0,0,0.078,1.752,0.238,5.263c2.997-2.811,3.926-7.021,2.793-12.635
	C288.258,255.374,289.514,244.119,278.359,232.037"/>
<path fill="#196097" d="M18.975,310.812H2.039c2.039-12.475,10.822-18.59,26.355-18.59c18.589,0,28.015,6.115,28.399,18.59v22.916
	c0,18.602-11.208,26.878-29.416,28.149C11.204,363.151,0,355.633,0,340.738c0.384-16.173,12.095-20.493,29.161-22.157
	c7.258-0.888,10.949-3.051,10.949-6.741c-0.386-3.822-3.945-5.736-10.949-5.736C23.174,306.1,19.868,307.63,18.975,310.812z
	 M40.365,332.976v-6.243c-3.944,1.656-8.528,3.059-13.494,4.069c-6.75,1.28-10.188,4.459-10.188,9.429
	c0.378,5.352,3.185,7.89,8.529,7.89C34.637,348.12,40.365,342.521,40.365,332.976z"/>
<path fill="#196097" d="M121.635,333.728c0,11.591-2.926,19.233-8.913,22.938c-5.987,3.433-12.607,5.212-19.866,5.212
	c-7.001,0-13.246-1.919-19.101-5.734c-5.854-3.689-8.782-11.077-8.782-22.415v-40.482h16.932v43.929
	c0,7.521,3.82,11.202,11.462,11.202c7.642,0,11.462-3.682,11.462-11.202v-35.528c-0.13-5.604,2.546-8.4,8.147-8.4h8.659V333.728
	L121.635,333.728z"/>
<path fill="#196097" d="M147.772,305.342h-1.782v37.297c0,2.802,1.657,4.336,4.966,4.336h5.225v12.862
	c-5.48,0.518-11.463,0.518-17.829-0.123c-6.363-0.644-9.424-4.585-9.294-12.089v-73.608h8.782c4.458,0,8.15,4.076,8.15,8.529v10.701
	h10.193v3.694C156.184,301.773,152.487,305.342,147.772,305.342z"/>
<path fill="#196097" d="M224.069,327.243c0,23.179-10.318,34.887-30.69,34.887c-20.373,0-30.557-11.708-30.557-34.887
	c0-23.437,10.185-35.023,30.557-35.023C213.75,292.22,224.069,303.809,224.069,327.243z M180.009,327.243
	c0.13,13.123,4.59,19.731,13.248,19.731c8.658,0,12.987-6.877,13.117-20.245c0-13.118-4.331-19.609-12.992-19.609
	C184.467,307.121,180.009,313.87,180.009,327.243z"/>
<path fill="#196097" d="M263.062,362.133c-20.372,0-30.81-11.71-31.324-34.888c0-23.049,10.318-34.635,31.074-35.023
	c16.3,0,25.973,7.259,28.909,21.905h-18.464c-2.044-4.589-5.611-7.006-10.962-7.006c-8.906,0-13.365,6.749-13.365,20.124
	c0,13.371,4.709,20.12,14.132,19.982c3.953,0,7.382-1.646,10.195-4.829c1.647-1.66,3.565-2.431,5.733-2.431h12.73
	C288.663,353.728,278.73,362.512,263.062,362.133z"/>
<path fill="#196097" d="M361.406,327.243c0,23.179-10.316,34.887-30.691,34.887s-30.557-11.708-30.557-34.887
	c0-23.437,10.182-35.023,30.557-35.023C351.09,292.222,361.406,303.809,361.406,327.243z M317.351,327.243
	c0.121,13.123,4.583,19.731,13.242,19.731c8.656,0,12.992-6.877,13.113-20.245c0-13.118-4.331-19.609-12.991-19.609
	C321.809,307.121,317.351,313.87,317.351,327.243z"/>
<path fill="#196097" d="M431.729,282.545v48.903c0,20.237-10.57,30.291-31.581,30.166c-20.88-0.371-31.333-11.715-31.333-34.119
	c0-22.928,8.918-34.636,26.875-35.277c8.398,0,14.902,3.441,19.228,10.445v-28.647h8.405
	C427.91,274.016,431.729,277.961,431.729,282.545z M386.269,326.732c-0.125,13.632,4.457,20.495,14.133,20.495
	c9.683,0,14.517-6.863,14.517-20.495c-0.376-12.986-5.092-19.357-14.258-19.357C391.48,307.375,386.777,313.743,386.269,326.732z"/>
<path fill="#196097" d="M469.452,362.133c-20.363-0.638-30.555-12.481-30.555-35.4c0-22.924,10.312-34.382,30.825-34.511
	c21.381,0,31.44,13.121,30.17,39.474H456.35c0.63,10.317,5.092,15.532,13.376,15.532c3.94,0,7.629-1.646,10.954-4.829
	c1.522-1.66,3.429-2.431,5.717-2.431h12.485C495.186,354.233,486.022,362.133,469.452,362.133z M456.597,319.601h25.34
	c-1.017-8.911-5.227-13.501-12.484-13.501S457.873,310.689,456.597,319.601z"/>
<path fill="#18112E" d="M295.733,177.606c-8.262,4.559-15.429,13.598-21.512,27.118c8.657-4.169,12.956,1.803,12.898,17.918
	c10.575,3.625,13.16,13.249,7.758,28.871c12.996,7.041,21.96,18.521,26.902,34.443c20.902-4.795,35.019,1.882,42.348,20.042
	c35.598-34.494,41.454-73.775,17.563-117.832C346.8,214.508,318.147,210.986,295.733,177.606"/>
<path fill="#18112E" d="M246.276,162.536c1.818,11.125-1.357,24.414-9.528,39.877c-2.474-11.218-11.226-11.039-26.257,0.547
	c-11.18-7.465-22.086-3.038-32.717,13.286c-16.156-7.328-33.501-7.642-52.033-0.951c-10.908-23.325-27.553-31.975-49.938-25.95
	c6.051-58.555,38.484-92.239,97.291-101.045C174.148,140.355,198.544,165.099,246.276,162.536"/>
<path fill="#18112E" d="M166.24,89.605c1.409,4.541,2.113,6.814,2.113,6.814c0.26-0.583,0.541-1.147,0.834-1.699l0.09,2.225
	c-0.258,0.103-0.52,0.207-0.784,0.32c-1.147,4.615-1.721,6.924-1.721,6.924c5.841-4.039,12.4-5.266,19.682-3.695
	c4.208,1.727,5.856,0.609,4.949-3.357c-1.416-4.752-7.229-5.401-17.432-1.947c3.719-2.738,8.142-4.293,13.27-4.66
	c4.523,0.48,5.793-1.057,3.808-4.607c-2.787-4.309-8.855-3.08-18.207,3.682c2.734-2.908,6.212-5.09,10.432-6.545
	c4.497-0.699,5.326-2.509,2.495-5.432C181.484,73.746,174.973,77.736,166.24,89.605"/>
<path fill="#18112E" d="M246.276,162.536c29.379,8.844,47.875,16.738,55.492,23.676c-12.051,7.963-16.261,17.319-12.633,28.065
	c9.81,25.174,2.953,41.39-20.578,48.646c-32.747,3.385-50.831-6.286-54.254-29C211.723,213.972,222.383,190.177,246.276,162.536"/>
<path fill="#18112E" d="M246.632,137.585c34.492-30.742,51.739-46.116,51.739-46.116c-8.546-8.604-13.356-26.684-14.405-54.24
	c2.506-35.801-2.252-45.784-14.268-29.936c-35.047,36.057-45.649,63.652-31.808,82.792
	C250.01,108.599,252.926,124.431,246.632,137.585"/>
<path fill="#18112E" d="M342.434,93.126c-14.786,24.414-7.184,36.029,22.804,34.846c2.597-4.504,5.399-6.958,8.418-7.368
	c16.618,0.857,25.699-11.576,27.243-37.303c1.002-30.568-3.208-51.616-12.626-63.14c-7.426-9.799-12.183-7.071-14.266,8.185
	C365.749,71.435,355.222,93.029,342.434,93.126"/>
<path fill="#CCC9E4" d="M250.033,166.451c10.486,3.232,21.067,6.792,31.108,11.077c3.925,1.672,7.851,3.499,11.562,5.606
	c1.559,0.886,3.164,1.865,4.668,2.945c-5.688,4.322-10.531,9.951-11.816,17.184c-0.71,4.019-0.226,8.021,1.07,11.866l0.02,0.059
	l0.023,0.052c8.504,21.83,4.773,37.749-18.645,45.073c-2.074,0.21-4.262,0.384-6.511,0.495
	c-19.204-2.107-28.081-13.952-26.633-35.539c2.149-23.299,8.902-39.772,20.253-49.417
	C253.394,172.555,251.7,169.433,250.033,166.451"/>
<path fill="#18112E" d="M249.783,125.485c-0.544,7.562-0.816,11.346-0.816,11.346s-2.727,1.906-8.186,5.727
	C241.869,137.138,244.87,131.447,249.783,125.485"/>
<path fill="#2B1F51" d="M326.632,280.694c15.969-3.687,28.91,2.622,38.824,18.935c21.777-24.124,30.531-64.665,14.633-97.523
	C368.961,226.533,349.605,260.273,326.632,280.694"/>
<path fill="#2B1F51" d="M304.714,249.598c12.071,2.881,19.325,11.655,21.762,26.312c20.731-27.71,34.618-51.511,41.664-71.397
	C347.324,224.629,326.183,239.655,304.714,249.598"/>
<path fill="#2B1F51" d="M302.521,242.428c1.425-10.531-2.084-18.352-10.525-23.465c22.23,0.326,44.96-3.982,68.187-12.934
	C335.433,226.578,316.211,238.709,302.521,242.428"/>
<path fill="#2B1F51" d="M296.409,188.233c-3.809,9.944-5.528,18.878-5.152,26.806c20.599-3.545,30.899-5.324,30.899-5.324
	C310.874,203.981,302.297,196.817,296.409,188.233"/>
<path fill="#2B1F51" d="M127.089,206.917c-8.315-17.83-23.75-25.627-46.306-23.386c6.527-37.987,38.006-75.332,80.452-83.725
	C146.579,127.88,129.27,170.446,127.089,206.917"/>
<path fill="#CCC9E4" d="M371.328,196.552c-29.696,20.545-55.379,14.516-77.049-18.089
	C315.87,209.238,341.55,215.267,371.328,196.552"/>
<path fill="#2B1F51" d="M172.316,205.511c-11.587-9.417-25.136-10.043-40.644-1.872c10.656-39.55,22.689-69.797,36.108-90.743
	C164.296,147.105,165.807,177.976,172.316,205.511"/>
<path fill="#2B1F51" d="M180.645,202.474c8.798-8.891,18.7-11.154,29.702-6.783c-16.682-20.921-29.389-45.634-38.122-74.136
	C171.232,159.811,174.039,186.785,180.645,202.474"/>
<path fill="#2B1F51" d="M235.838,169.5c-6.494,10.734-13.588,18.766-21.282,24.086c-11.85-22.139-17.773-33.208-17.773-33.208
	C210.455,167.006,223.473,170.044,235.838,169.5"/>
<path fill="#CCC9E4" d="M362.729,306.107c34.206-33.148,40.944-70.722,20.212-112.71l0.047,3.513
	C401.525,233.062,397.128,270.042,362.729,306.107"/>
<path fill="#CCC9E4" d="M377.116,202.845c1.641-4.239-0.034-3.283-0.28-3.21c-1.172,0.325-1.747,3.769-1.747,3.769
	c-5.277,18.455-23.175,45.383-52.043,80.036C350.843,251.979,368.87,225.114,377.116,202.845"/>
<path fill="#CCC9E4" d="M365.273,204.936c-25.329,23.899-46.47,35.409-67.83,44.462c21.951-6.76,44.931-21.652,68.938-44.688
	C365.644,204.86,365.273,204.936,365.273,204.936"/>
<path fill="#CCC9E4" d="M339.085,211.983c-17.618,2.648-34.035,4.469-49.245,5.464C301.011,217.927,317.425,216.106,339.085,211.983
	"/>
<path fill="#CCC9E4" d="M76.727,190.761c5.819-56.28,36.004-89.574,90.548-99.9l-3.318,2.467
	C116.489,101.566,85.133,132.22,76.727,190.761"/>
<path fill="#CCC9E4" d="M162.729,103.165c2.758-4.599,3.094-2.31,3.209-2.031c0.563,1.347-2.239,4.361-2.239,4.361
	c-13.374,18.221-25.386,54.531-36.538,106.8C136.117,163.331,147.973,126.953,162.729,103.165"/>
<path fill="#CCC9E4" d="M169.497,115.932c-3.704,41.205,1.098,69.554,8.359,96.364c-9.842-25.727-12.832-58.254-8.966-97.582
	C169.295,115.525,169.497,115.932,169.497,115.932"/>
<path fill="#CCC9E4" d="M172.883,104.173c2.648,42.955,27.204,63.078,73.666,60.359
	C201.856,166.015,177.301,145.895,172.883,104.173"/>
<path fill="#CCC9E4" d="M182.19,145.892c10.496,18.656,20.883,35.578,31.16,50.764C204.675,186.373,194.289,169.452,182.19,145.892"
	/>
<path fill="#FFFFFF" d="M376.964,28.488l0.012-0.066l0.016-0.07c0.398-2.932,1.012-6.502,2.207-9.227
	c0.262-0.587,1.078-2.244,1.813-2.402c0.475-0.1,1.288,0.403,1.64,0.648c1.441,1.001,2.809,2.649,3.862,4.042l0.032,0.037
	l0.031,0.037c11.969,14.648,12.622,43.445,12.036,61.348c-0.642,10.583-2.974,26.626-13.256,32.457
	c-3.433,1.947-7.304,2.522-11.202,2.321l-0.249-0.011l-0.242,0.033c-4.249,0.572-7.368,3.908-9.591,7.393
	c-7.508,0.201-20.792-0.251-24.715-7.112c-1.565-2.742-1.484-6.24-0.605-9.811c6.059,4.78,15.676,8.974,28.848,12.584
	c-2.487-8.668-2.288-19.32,0.613-31.957C373.736,69.568,373.078,48.767,376.964,28.488"/>
<path fill="#CCC9E2" d="M363.697,125.026c-7.564,0.176-20.487-0.372-24.346-7.123c-1.435-2.506-1.489-5.643-0.816-8.891
	c6.085,4.622,15.537,8.686,28.351,12.197c-0.073-0.259-0.146-0.521-0.215-0.785c0.285,0.079,0.562,0.157,0.849,0.234
	C366.034,121.88,364.769,123.424,363.697,125.026 M376.964,28.488l0.012-0.066l0.016-0.07c0.398-2.932,1.012-6.502,2.207-9.227
	c0.177-0.4,0.609-1.287,1.101-1.869l0.009-0.002c0.469-0.103,1.289,0.398,1.637,0.644c1.445,1,2.812,2.651,3.866,4.042l0.028,0.039
	l0.035,0.041c11.969,14.648,12.622,43.442,12.036,61.344c-0.599,9.822-2.645,24.346-11.153,31.041
	c-0.453,0.316-0.914,0.613-1.395,0.883c-3.433,1.947-7.301,2.522-11.202,2.32l-0.251-0.011l-0.242,0.033
	c-2.005,0.269-3.755,1.152-5.281,2.377c-0.273,0.193-0.539,0.392-0.801,0.608c-2.468-8.655-2.257-19.282,0.629-31.886
	C373.736,69.568,373.078,48.767,376.964,28.488z"/>
<path fill="#18112E" d="M319.395,96.205c-2.051-2.874-4.652-5.247-7.943-6.682c-5.01-2.188-10.459-1.711-15.554-0.101
	c-6.696,2.116-13.23,6.258-18.836,10.418c-20.02,13.824-44.177,36.256-30.79,62.695c2.177,4.93,5.164,9.395,8.857,13.319
	c22.234,23.626,68.237,25.536,96.565,13.236l0.032-0.013l0.03-0.016c14.22-6.604,19.223-17.439,13.343-31.898
	c0.957-4.564,1.915-9.13,2.868-13.698l0.035-0.132l0.017-0.139c1.093-10.679,2.022-29.523-8.646-36.154
	c-4.762-2.955-10.547-2.693-15.797-1.354C336.374,101.302,327.838,97.185,319.395,96.205"/>
<path fill="#CCC9E4" d="M248.675,161.4c2.133,4.857,5.039,9.105,8.535,12.791v0.001c6.151,9.891,12.353,19.824,18.595,29.802
	c0,0-1.208-5.309-3.626-15.924c0,0,5.461,1.011,16.383,3.031v-0.003c21.012,5.14,45.204,2.888,62.078-4.436
	c13.483-6.269,17.383-16.011,11.699-29.234c0,0,1.011-4.834,3.044-14.5c2.875-28.008-4.532-39.469-22.216-34.378
	c-1.524,1.985-2.286,2.978-2.286,2.978c0.238-1.24,0.662-2.439,1.268-3.602c-8.196-4.982-15.501-7.959-21.922-8.93
	c0.706,3.289,0.616,7-0.273,11.127c-0.246-3.938-0.93-7.738-2.048-11.398c-5.059-7.883-12.656-9.958-22.793-6.223
	c-1.517,0.598-3.017,1.25-4.491,1.951c-3.705,1.84-7.708,4.353-12.005,7.549c-1.398,0.963-2.754,1.93-4.07,2.89
	c-7.103,5.995-13.598,13.538-19.484,22.62c0,0,3.278,0,9.823,0C250.405,131.566,245.004,142.865,248.675,161.4"/>
<path fill="#18112E" d="M384.297,193.444c-3.708,1.415-5.567,2.119-5.567,2.119c0.257-0.474,0.485-0.957,0.703-1.44l-1.512,1.093
	c0.054,0.23,0.122,0.46,0.185,0.697c-2.465,3.167-3.703,4.754-3.703,4.754c-0.29-6.022-2.789-11.063-7.502-15.135
	c-3.268-1.925-3.362-3.615-0.287-5.064c3.855-1.517,7.214,2.045,10.088,10.691c-0.07-3.917-1.28-7.697-3.62-11.326
	c-2.61-2.792-2.229-4.442,1.118-4.955c4.25-0.367,6.506,4.344,6.764,14.136c0.541-3.348,0.224-6.816-0.948-10.405
	c-1.805-3.381-1.035-4.882,2.325-4.497C387.065,174.966,387.718,181.412,384.297,193.444"/>
<path fill="#18112E" d="M237.055,243.913c-9.074,5.221-11.06,10.107-5.958,14.645c8.222,1.289,13.126,6.188,14.708,14.697
	c0.32,3.914,1.995,8.585,5.019,14.003c0.863-1.239,1.191-2.639,0.987-4.201c0,0,1.239,1.895,3.717,5.688
	c1.223-2.386,1.308-4.914,0.258-7.576c0,0,1.097,1.369,3.293,4.111c0.766-4.038-0.961-7.988-5.191-11.854
	c2.307-7.755,2.291-14.043-0.059-18.857l1.623,0.778c-1.101-3.211-3.394-5.506-6.88-6.883l0,0
	C245.644,246.368,241.806,244.85,237.055,243.913"/>
<path fill="#18112E" d="M224.877,238.139c-4.326-6.833-7.853-8.236-10.579-4.212c0.254,13.148,4.862,21.837,13.817,26.058
	C224.096,252.991,223.017,245.709,224.877,238.139 M217.161,223.011c-0.318-8.133-0.477-12.202-0.477-12.202
	c-2.916,7.62-4.315,14.49-4.202,20.621C215.601,225.818,217.161,223.011,217.161,223.011z"/>
<path fill="#BEBCD7" d="M272.633,224.793c1.432-22.251,6.041-32.756,13.815-31.518c1.711,1.35,2.981,4.626,3.805,9.848
	c-1.695-0.396-2.542-0.593-2.542-0.593c0.777,3.837,0.839,6.816,0.21,8.938c-1.258-0.882-1.886-1.329-1.886-1.329
	C285.217,217.179,280.753,222.066,272.633,224.793"/>
<path fill="#FFFFFF" d="M272.633,224.793l0.022-0.291c7.669-4.267,11.702-10.624,11.949-16.867c0.996,0.776,1.706,1.45,2.125,2.017
	c-0.05-4.036-0.322-7.057-0.824-9.069c1.043,0.37,1.868,0.768,2.474,1.186c-0.478-3.645-1.497-6.507-3.066-8.586
	c0.374,0.001,0.749,0.035,1.136,0.096c1.711,1.349,2.981,4.63,3.805,9.848c-1.695-0.397-2.542-0.594-2.542-0.594
	c0.777,3.837,0.839,6.816,0.21,8.939c-1.258-0.884-1.886-1.331-1.886-1.331c-0.34,2.953-1.325,5.527-2.949,7.715
	C280.862,220.41,277.363,223.655,272.633,224.793"/>
<path fill="#18112E" d="M284.3,192.21c2.535,0.181,3.708,0.789,3.516,1.812c2.539,2.995,3.641,7.012,3.304,12.055
	c-1.197-1.31-1.792-1.965-1.792-1.965c0.575,3.015,0.324,6.135-0.746,9.355c-1.027-1.278-1.539-1.918-1.539-1.918
	c-0.422,5.462-4.972,11.294-14.414,13.243c8.266-4.348,12.524-9.764,12.777-16.246c1.002,0.771,1.707,1.446,2.129,2.017
	c-0.051-4.038-0.328-7.06-0.828-9.069c1.044,0.369,1.867,0.767,2.474,1.182C288.542,197.772,286.916,194.287,284.3,192.21"/>
<path fill="#CCC9E4" d="M246.405,99.987c-1.895-3.953-4.115-7.755-6.471-11.355l-0.034-0.049l-0.035-0.05
	c-1.628-2.252-2.935-4.697-3.845-7.328c-8.414-24.315,20.226-56.444,35.401-72.061l0.114-0.117l0.102-0.129
	c1.378-1.816,3.159-4,5.023-5.355c0.354-0.26,1.495-1.014,1.987-0.875c0.457,0.123,0.988,1.198,1.153,1.564
	c0.84,1.893,1.237,4.4,1.48,6.444c0.433,3.627,0.518,7.375,0.503,11.029c-2.995,20.794-4.558,37.496-2.211,49.71
	c3.28,17.069,0.751,21.416-7.715,19.176c-2.336-0.902-5.294,1.281-4.68,7.016C269.059,110.16,257.933,119.455,246.405,99.987
	L246.405,99.987z"/>
<path fill="#BEBADD" d="M280.534,30.843c-2.125,16.598-2.956,30.203-0.961,40.576c3.28,17.068,0.751,21.416-7.715,19.175
	c-2.336-0.901-5.294,1.282-4.68,7.016c1.773,11.783-7.945,20.699-18.678,5.609c7.572,4.553,12.204,3.344,13.883-3.621
	c-0.372-11.391,2.358-16.965,8.189-16.722c4.918,1.044,6.902-0.983,5.958-6.081C275.522,61.417,276.854,46.099,280.534,30.843z"/>
<path fill="#FFFFFF" d="M315.257,95.367c-4.929-5.047-11.647-6.004-20.152-2.869c-1.516,0.598-3.016,1.25-4.492,1.951
	c-3.702,1.84-7.707,4.356-12.003,7.549c-1.4,0.962-2.755,1.93-4.071,2.89c-7.102,5.995-13.598,13.537-19.483,22.619h2.887
	C268.355,106.279,299.801,85.808,315.257,95.367"/>
<path fill="#FFFFFF" d="M264.878,127.507c-16.229,8.064-21.153,28.631-7.578,46.83C241.862,160.845,243.135,131.56,264.878,127.507"
	/>
<path fill="#BEBADD" d="M362.702,139.809c-17.823,1.304-26.738,1.958-26.738,1.958c6.712-18.345,12.984-25.785,19.23-25.578
	C362.429,116.423,364.883,123.202,362.702,139.809"/>
<path fill="#BEBADD" d="M309.461,143.356c-24.821-14.916-39.571-21.178-39.571-21.178c12.724-19.333,27.457-26.73,40.571-23.142
	C320.987,101.916,320.901,115.541,309.461,143.356"/>
<path fill="#FFFFFF" d="M287.658,166.986c-23.482-2.281-30.08-11.23-20.933-23.943l-0.004,0.003
	c-0.891-0.691-2.054-0.311-3.499,1.15c3.108-6.51,8.73-3.602,4.031-1.698c-7.013,12.025,1.499,20.52,21.106,22.102
	c22.468,1.814,37.197,5.206,45.669,9.088c13.979,6.403,24.595,2.082,22.965-6.808c1.197,6.703-1.526,10.554-8.179,11.563
	c-4.044,0.712-9.066-0.416-15.085-3.39C322.052,170.414,306.374,168.804,287.658,166.986"/>
<path fill="#381F59" d="M287.55,165.57c-23.484-2.281-30.082-11.23-20.933-23.943v0.003c-0.896-0.691-2.06-0.311-3.5,1.15
	c3.104-6.51,8.726-3.602,4.027-1.697c-7.012,12.025,1.504,20.52,21.105,22.104c22.469,1.814,37.202,5.205,45.675,9.086
	c13.973,6.404,24.591,2.082,22.961-6.807c1.2,6.703-1.526,10.556-8.18,11.565c-4.043,0.717-9.069-0.416-15.081-3.393
	C321.937,168.998,306.261,167.388,287.55,165.57"/>
<path fill="#381F59" d="M329.058,179.623c-5.602,7.715-15.735,5.377-30.402-7.016C313.089,181.683,323.223,184.023,329.058,179.623"
	/>
<path fill="#381F59" d="M281.546,145.841c8.922,4.506,20.853,1.717,27.38-2.164l0.535-0.321l0.218-0.586
	c0.719-1.951,0.379-5.062,0.742-7.105l0.012-0.066l0.008-0.069c0.738-7.451,0.185-16.586-5.816-21.926
	c-3.511-3.125-8.062-4.201-12.664-4.176c-10.27,0.045-17.27,6.066-21.676,15.047l-0.059,0.125l-0.039,0.129
	c-0.933,3.02-1.758,5.838-0.897,8.906C270.925,139.524,276.348,143.212,281.546,145.841"/>
<path fill="#FFFFFF" d="M282.375,144.613c-9.72-4.91-13.418-11.266-10.868-19.502c4.177-8.516,10.966-13.875,20.457-13.916
	c12.699-0.061,18.251,8.707,16.715,24.161c-0.495,2.785-0.973,4.798-1.433,6.045C297.527,147.189,289.304,148.114,282.375,144.613"
	/>
<path fill="#0F143C" d="M288.893,117.646c-6.455,0.578-11.222,6.284-10.644,12.736c0.575,6.459,6.277,11.225,12.734,10.649
	c6.458-0.577,11.224-6.28,10.645-12.737C301.056,121.84,295.354,117.069,288.893,117.646"/>
<path fill="#196097" d="M289.015,118.98c-5.718,0.515-9.941,5.562-9.434,11.287c0.513,5.716,5.562,9.941,11.285,9.43
	c5.719-0.51,9.941-5.562,9.43-11.282C299.785,122.692,294.732,118.47,289.015,118.98"/>
<path fill="#FFFFFF" d="M293.948,137.233c-1.031,0.096-1.789,1-1.695,2.033c0.091,1.03,1,1.789,2.031,1.698
	c1.028-0.092,1.79-1,1.694-2.03C295.886,137.902,294.976,137.142,293.948,137.233"/>
<path fill="#FFFFFF" d="M283.917,115.116c-2.832,0.789-4.711,2.924-4.195,4.771c0.515,1.846,3.228,2.707,6.06,1.914
	c2.827-0.787,4.707-2.924,4.19-4.77C289.46,115.183,286.745,114.328,283.917,115.116"/>
<path fill="#381F59" d="M280.284,114.781c-1.612-0.234-2.421-0.351-2.421-0.351c9.912-5.845,19.629-6.692,29.145-2.536
	C297.101,109.097,288.194,110.056,280.284,114.781"/>
<path fill="#030204" d="M289.371,122.974c-3.516,0.314-6.109,3.418-5.794,6.932c0.312,3.518,3.423,6.113,6.934,5.795
	c3.515-0.314,6.112-3.418,5.794-6.932C295.992,125.255,292.887,122.662,289.371,122.974"/>
<path fill="#CCC9E4" d="M264.215,130.357c5.538,8.556,10.162,13.39,13.882,14.498C278.155,134.298,273.526,129.466,264.215,130.357"
	/>
<path fill="#381F59" d="M264.215,130.357c10.578-5.424,14.601,3.36,13.882,14.498C277.511,134.525,272.883,129.691,264.215,130.357"
	/>
<path fill="#FFFFFF" d="M264.215,130.357c8.542-0.78,13.168,4.054,13.882,14.498C276.456,135.294,271.828,130.462,264.215,130.357"
	/>
<path fill="#381F59" d="M333.75,123.884c-1.462-8.458-4.734-12.75-9.821-12.862c6.203-2.061,9.983,2.266,11.341,12.981
	c-5.641,12.419-5.273,20.121,1.104,23.105c-2.926-0.592-4.418-0.895-4.464-0.906C329.023,141.675,329.632,134.234,333.75,123.884"/>
<path fill="#381F59" d="M356.827,155.373c5.938-3.433,6.039-12.542,5.812-18.023c-0.133-3.374-0.847-6.667-3.796-8.532
	c-4.137-2.607-9.427-1.187-13.249,1.282c-5.646,3.635-9.282,9.867-11.432,16.1l-0.112,0.318l0.015,0.335
	C334.531,157.427,352.559,157.841,356.827,155.373"/>
<path fill="#FFFFFF" d="M335.655,146.784c6.974-20.199,25.2-22.533,25.751-9.392c0.373,9.619-1.345,15.051-5.141,16.305
	C348.932,156.161,338.022,155.683,335.655,146.784"/>
<path fill="#381F59" d="M360.062,131.72c0.617-0.533,0.927-0.797,0.927-0.797c-2.139-3.631-5.855-5.536-11.149-5.707
	C353.987,126.183,357.394,128.349,360.062,131.72"/>
<path fill="#0F143C" d="M347.809,134.583c-4.896,0-8.873,3.967-8.873,8.867c0,4.896,3.975,8.865,8.873,8.865
	c4.896,0,8.866-3.967,8.866-8.865C356.675,138.552,352.705,134.583,347.809,134.583"/>
<path fill="#196097" d="M347.809,135.593c-4.336,0-7.856,3.515-7.856,7.855c0,4.338,3.521,7.854,7.856,7.854
	s7.854-3.516,7.854-7.854C355.663,139.111,352.145,135.593,347.809,135.593"/>
<path fill="#030204" d="M347.809,138.623c-2.669,0-4.824,2.163-4.824,4.828s2.155,4.827,4.824,4.827
	c2.663,0,4.824-2.163,4.824-4.827C352.633,140.783,350.472,138.623,347.809,138.623"/>
<path fill="#FFFFFF" d="M352.207,149.304c-0.786,0-1.42,0.634-1.42,1.413c0,0.785,0.634,1.415,1.42,1.415
	c0.781,0,1.409-0.63,1.409-1.415C353.616,149.938,352.983,149.304,352.207,149.304"/>
<path fill="#FFFFFF" d="M344.234,134.263c-1.962,1.031-3.012,2.909-2.341,4.19c0.673,1.28,2.813,1.484,4.777,0.45
	c1.965-1.031,3.017-2.903,2.341-4.187C348.339,133.437,346.202,133.229,344.234,134.263"/>
<path fill="#381F59" d="M353.39,154.468c-0.233,1.307-0.352,1.959-0.352,1.959c2.96-0.317,5.551,0.008,7.765,0.967
	C358.717,155.261,356.249,154.284,353.39,154.468"/>
<path fill="#18112E" d="M329.383,168.312c7.483-2.638,11.23-6.641,11.244-12.007c-1.877-11.911-11.151-14.391-27.815-7.448
	c-3.562,2.264-1.941,5.708,4.866,10.337c2.899,1.787,4.321,3.726,4.256,5.808v0.002c-0.004,0.081-0.008,0.164-0.018,0.246
	c-0.007,0.568,0.177,1,0.556,1.287l0,0C325.078,168.353,327.383,168.945,329.383,168.312"/>
<path fill="#18112E" d="M329.011,167.126c6.713-2.369,10.078-5.957,10.091-10.77c-1.688-10.684-10.004-12.912-24.954-6.681
	c-3.198,2.031-1.742,5.121,4.368,9.271c2.597,1.604,3.87,3.342,3.815,5.207v0.006c-0.005,0.07-0.007,0.143-0.021,0.217
	c-0.006,0.512,0.161,0.896,0.502,1.154l0,0C325.151,167.164,327.217,167.693,329.011,167.126"/>
<path fill="#2B1F51" d="M330.272,147.585c3.61,0.35,6.535,2.436,6.535,4.661c0,2.22-2.925,3.74-6.535,3.392
	c-3.609-0.349-6.539-2.436-6.539-4.662C323.737,148.757,326.663,147.234,330.272,147.585"/>
<path fill="#18112E" d="M319.558,106.261c-0.108-6.707-5.527-15.336-5.527-15.336c27.277-8.956,39.349,2.093,42.789,6.438
	c-3.816-0.535-6.839-0.438-9.066,0.221c3.62,1.541,6.219,3.882,7.781,7.028c-2.777-1.062-5.894-1.476-9.34-1.239
	c7.98,5.542,9.195,12.825,3.641,21.845c0.461-2.752-0.875-5.1-4.003-7.041c-2.595,7.964-7.665,13.267-15.205,15.904
	c0.994-7.022,0.057-13.333-2.808-18.948c-1.091,2.963-1.637,4.448-1.637,4.448C321.769,110.699,319.558,106.261,319.558,106.261"/>
<path fill="#2B1F51" d="M345.832,118.178c6.968-20.024-12.17-33.079-30.403-24.79c19.996-0.949,34.708,22.12,15.198,40.691
	C338.312,131.29,343.382,125.988,345.832,118.178"/>
<path fill="#2B1F51" d="M315.429,93.39c-0.798-1.516-1.396-2.465-1.396-2.465c27.278-8.956,39.348,2.093,42.791,6.438
	C344.956,89.541,331.158,88.216,315.429,93.39L315.429,93.39z"/>
<path fill="#FFFFFF" d="M328.707,192.701c30.225-4.61,41.479-16.262,33.761-34.963C367.679,176.071,356.426,187.728,328.707,192.701
	"/>
<path fill="#2B1F51" d="M285.417,71.298c-0.108,2.297-0.773,2.493-1.988,0.584c-2.28-11.979-2.393-27.531-0.352-46.658
	C282.365,44.851,283.144,60.207,285.417,71.298"/>
<g>
	<path fill="#CCC9E4" d="M6.064,383.562v10.25H1.971v-9.433c0-4.578,2.305-6.853,6.884-6.853c2.062,0,3.639,0.455,4.792,1.364
		c1.152-0.878,2.729-1.304,4.792-1.304c4.579,0,6.854,2.274,6.824,6.854v9.433h-2.093c-1.334-0.092-2.001-0.728-2.001-2.002v-8.249
		c-0.091-1.669-1.001-2.486-2.79-2.486c-1.79,0-2.699,0.817-2.729,2.486v10.189h-4.064v-10.25c-0.091-1.668-1.001-2.487-2.79-2.487
		C7.005,381.074,6.095,381.894,6.064,383.562z"/>
	<path fill="#CCC9E4" d="M34.748,394.176c-4.852-0.151-7.278-2.973-7.278-8.431c0-5.459,2.457-8.189,7.339-8.219
		c5.095,0,7.491,3.124,7.188,9.4H31.624c0.152,2.457,1.213,3.7,3.184,3.7c0.941,0,1.82-0.395,2.609-1.151
		c0.363-0.395,0.818-0.577,1.364-0.577h2.972C40.874,392.296,38.69,394.176,34.748,394.176z M31.685,384.046h6.035
		c-0.242-2.123-1.243-3.214-2.972-3.214C33.019,380.832,31.988,381.923,31.685,384.046z"/>
	<path fill="#CCC9E4" d="M48.33,380.65h-0.425v8.885c0,0.668,0.395,1.031,1.183,1.031h1.244v3.063
		c-1.304,0.121-2.729,0.121-4.246-0.03c-1.517-0.152-2.245-1.092-2.214-2.881v-17.529h2.092c1.062,0,1.941,0.97,1.941,2.031v2.549
		h2.426v0.879C50.332,379.801,49.452,380.65,48.33,380.65z"/>
	<path fill="#CCC9E4" d="M56.183,381.953h-4.033c0.485-2.971,2.578-4.427,6.277-4.427c4.428,0,6.672,1.456,6.764,4.427v5.46
		c0,4.427-2.669,6.398-7.006,6.702c-3.852,0.304-6.52-1.485-6.52-5.034c0.091-3.852,2.881-4.884,6.944-5.277
		c1.729-0.212,2.609-0.728,2.609-1.607c-0.091-0.909-0.94-1.364-2.609-1.364C57.184,380.832,56.395,381.194,56.183,381.953z
		 M61.278,387.23v-1.485c-0.94,0.394-2.032,0.728-3.215,0.97c-1.607,0.305-2.426,1.062-2.426,2.244
		c0.091,1.273,0.758,1.881,2.032,1.881C59.913,390.84,61.278,389.505,61.278,387.23z"/>
	<path fill="#CCC9E4" d="M71.16,398.088c0,1.334-0.667,2.001-2.002,2.001h-2.031v-15.346c0.212-4.79,2.699-7.156,7.521-7.156
		c4.973,0,7.46,2.699,7.46,8.098c0,5.458-2.123,8.278-6.398,8.431c-2.002,0-3.518-0.819-4.549-2.487V398.088z M74.587,390.506
		c2.184,0,3.305-1.547,3.396-4.64c0-3.245-1.152-4.852-3.457-4.852c-2.305,0-3.397,1.606-3.367,4.852
		C71.282,388.959,72.403,390.506,74.587,390.506z"/>
	<path fill="#CCC9E4" d="M83.985,385.532c0.121-5.187,2.88-7.763,8.248-7.763h0.577v4.184h-1.365c-2.244,0-3.366,1.185-3.366,3.518
		v8.341h-4.094V385.532z"/>
	<path fill="#CCC9E4" d="M109.154,385.866c0,5.52-2.457,8.31-7.309,8.31c-4.853,0-7.279-2.79-7.279-8.31
		c0-5.58,2.426-8.34,7.279-8.34C106.697,377.526,109.154,380.286,109.154,385.866z M98.661,385.866c0.031,3.124,1.092,4.7,3.154,4.7
		c2.063,0,3.094-1.637,3.124-4.821c0-3.124-1.031-4.671-3.093-4.671C99.723,381.074,98.661,382.682,98.661,385.866z"/>
	<path fill="#CCC9E4" d="M110.848,385.806c0-5.338,2.487-8.007,7.46-8.098c5.004-0.031,7.521,2.335,7.521,7.157v9.493
		c0,4.033-2.547,6.065-7.672,6.155c-3.64,0-5.945-1.697-6.885-5.095h4.458c0.273,1.152,1.213,1.698,2.881,1.698
		c2.123,0,3.214-1.244,3.214-3.73c0,0,0,0.03,0-1.637c-1.031,1.577-2.577,2.365-4.58,2.365
		C112.971,394.115,110.848,391.325,110.848,385.806z M121.826,385.928c0.031-3.246-1.091-4.854-3.396-4.854
		c-2.305,0-3.427,1.607-3.427,4.854c0.091,3.092,1.183,4.639,3.366,4.639C120.553,390.566,121.705,389.02,121.826,385.928z"/>
	<path fill="#CCC9E4" d="M127.706,385.532c0.122-5.187,2.881-7.763,8.249-7.763h0.576v4.184h-1.365
		c-2.244,0-3.366,1.185-3.366,3.518v8.341h-4.095V385.532z"/>
	<path fill="#CCC9E4" d="M142.564,381.953h-4.034c0.485-2.971,2.577-4.427,6.277-4.427c4.428,0,6.672,1.456,6.763,4.427v5.46
		c0,4.427-2.668,6.398-7.006,6.702c-3.851,0.304-6.52-1.485-6.52-5.034c0.091-3.852,2.881-4.884,6.945-5.277
		c1.729-0.212,2.608-0.728,2.608-1.607c-0.091-0.909-0.941-1.364-2.608-1.364C143.564,380.832,142.775,381.194,142.564,381.953z
		 M147.658,387.23v-1.485c-0.939,0.394-2.032,0.728-3.214,0.97c-1.608,0.305-2.426,1.062-2.426,2.244
		c0.091,1.273,0.757,1.881,2.031,1.881C146.294,390.84,147.658,389.505,147.658,387.23z"/>
	<path fill="#CCC9E4" d="M157.602,383.562v10.25h-4.095v-9.433c0-4.578,2.305-6.853,6.884-6.853c2.063,0,3.64,0.455,4.792,1.364
		c1.152-0.878,2.729-1.304,4.791-1.304c4.58,0,6.854,2.274,6.824,6.854v9.433h-2.092c-1.334-0.092-2.002-0.728-2.002-2.002v-8.249
		c-0.091-1.669-1-2.486-2.79-2.486s-2.699,0.817-2.729,2.486v10.189h-4.063v-10.25c-0.091-1.668-1.001-2.487-2.791-2.487
		S157.632,381.894,157.602,383.562z"/>
	<path fill="#CCC9E4" d="M183.222,383.562v10.25h-4.095v-9.433c0-4.578,2.306-6.853,6.885-6.853c2.062,0,3.639,0.455,4.792,1.364
		c1.152-0.878,2.729-1.304,4.792-1.304c4.58,0,6.854,2.274,6.824,6.854v9.433h-2.092c-1.334-0.092-2.002-0.728-2.002-2.002v-8.249
		c-0.091-1.669-1-2.486-2.79-2.486c-1.79,0-2.699,0.817-2.73,2.486v10.189h-4.063v-10.25c-0.091-1.668-1.001-2.487-2.79-2.487
		C184.162,381.074,183.252,381.894,183.222,383.562z"/>
	<path fill="#CCC9E4" d="M206.84,373.189c1.334,0,1.972,0.667,1.941,1.972v1.182h-4.033v-3.153H206.84z M206.84,377.77
		c1.304,0,1.941,0.636,1.941,1.94v14.102h-4.033V377.77H206.84z"/>
	<path fill="#CCC9E4" d="M222.669,393.812c-1.334-0.09-2.001-0.728-2.001-2.002v-8.248c-0.091-1.668-1.001-2.487-2.79-2.487
		s-2.699,0.819-2.729,2.487v10.25h-4.094v-9.433c0-4.578,2.305-6.853,6.884-6.853c4.579,0,6.824,2.274,6.793,6.853v9.433H222.669z"
		/>
	<path fill="#CCC9E4" d="M226.304,385.806c0-5.338,2.487-8.007,7.46-8.098c5.004-0.031,7.521,2.335,7.521,7.157v9.493
		c0,4.033-2.547,6.065-7.673,6.155c-3.64,0-5.944-1.697-6.884-5.095h4.458c0.273,1.152,1.213,1.698,2.882,1.698
		c2.123,0,3.214-1.244,3.214-3.73c0,0,0,0.03,0-1.637c-1.031,1.577-2.577,2.365-4.579,2.365
		C228.428,394.115,226.304,391.325,226.304,385.806z M237.282,385.928c0.031-3.246-1.091-4.854-3.396-4.854
		s-3.427,1.607-3.427,4.854c0.091,3.092,1.183,4.639,3.366,4.639C236.009,390.566,237.162,389.02,237.282,385.928z"/>
	<path fill="#CCC9E4" d="M260.687,387.534h-3.214v-3.578h3.214v-3.337h3.67v3.337h3.215v3.578h-3.215v3.336h-3.67V387.534z"/>
	<path fill="#CCC9E4" d="M291.341,394.176c-4.852,0-7.339-2.79-7.46-8.31c0-5.489,2.456-8.249,7.4-8.34
		c3.882,0,6.187,1.729,6.884,5.217h-4.397c-0.486-1.092-1.335-1.669-2.608-1.669c-2.123,0-3.185,1.607-3.185,4.792
		s1.123,4.792,3.366,4.761c0.941,0,1.759-0.395,2.427-1.151c0.394-0.395,0.849-0.577,1.364-0.577h3.033
		C297.437,392.173,295.071,394.266,291.341,394.176z"/>
	<path fill="#CCC9E4" d="M314.749,385.866c0,5.52-2.455,8.31-7.309,8.31c-4.852,0-7.277-2.79-7.277-8.31
		c0-5.58,2.426-8.34,7.277-8.34C312.294,377.526,314.749,380.286,314.749,385.866z M304.256,385.866
		c0.031,3.124,1.092,4.7,3.155,4.7c2.062,0,3.093-1.637,3.123-4.821c0-3.124-1.031-4.671-3.094-4.671
		C305.318,381.074,304.256,382.682,304.256,385.866z"/>
	<path fill="#CCC9E4" d="M331.485,375.221v11.646c0,4.822-2.517,7.218-7.52,7.188c-4.974-0.092-7.461-2.791-7.461-8.127
		c0-5.46,2.123-8.251,6.399-8.401c2,0,3.549,0.819,4.579,2.486v-6.823h2.001C330.576,373.189,331.485,374.13,331.485,375.221z
		 M320.659,385.745c-0.03,3.245,1.061,4.882,3.366,4.882s3.458-1.637,3.458-4.882c-0.092-3.094-1.213-4.609-3.397-4.609
		C321.902,381.136,320.781,382.651,320.659,385.745z"/>
	<path fill="#CCC9E4" d="M340.459,394.176c-4.852-0.151-7.278-2.973-7.278-8.431c0-5.459,2.456-8.189,7.339-8.219
		c5.096,0,7.491,3.124,7.187,9.4h-10.371c0.151,2.457,1.213,3.7,3.185,3.7c0.941,0,1.819-0.395,2.608-1.151
		c0.363-0.395,0.818-0.577,1.365-0.577h2.972C346.586,392.296,344.402,394.176,340.459,394.176z M337.396,384.046h6.034
		c-0.242-2.123-1.242-3.214-2.972-3.214C338.73,380.832,337.699,381.923,337.396,384.046z"/>
	<path fill="#CCC9E4" d="M363.53,385.806c0-5.338,2.486-8.007,7.461-8.098c5.004-0.031,7.521,2.335,7.521,7.157v9.493
		c0,4.033-2.547,6.065-7.673,6.155c-3.639,0-5.943-1.697-6.885-5.095h4.459c0.273,1.152,1.213,1.698,2.88,1.698
		c2.124,0,3.216-1.244,3.216-3.73c0,0,0,0.03,0-1.637c-1.031,1.577-2.577,2.365-4.58,2.365
		C365.652,394.115,363.53,391.325,363.53,385.806z M374.509,385.928c0.03-3.246-1.092-4.854-3.396-4.854
		c-2.306,0-3.427,1.607-3.427,4.854c0.09,3.092,1.182,4.639,3.366,4.639C373.234,390.566,374.388,389.02,374.509,385.928z"/>
	<path fill="#CCC9E4" d="M387.544,394.176c-4.852-0.151-7.277-2.973-7.277-8.431c0-5.459,2.456-8.189,7.339-8.219
		c5.095,0,7.49,3.124,7.187,9.4h-10.371c0.15,2.457,1.213,3.7,3.185,3.7c0.939,0,1.819-0.395,2.607-1.151
		c0.363-0.395,0.818-0.577,1.365-0.577h2.973C393.671,392.296,391.487,394.176,387.544,394.176z M384.481,384.046h6.035
		c-0.242-2.123-1.243-3.214-2.973-3.214C385.815,380.832,384.785,381.923,384.481,384.046z"/>
	<path fill="#CCC9E4" d="M408.283,393.812c-1.333-0.09-2.001-0.728-2.001-2.002v-8.248c-0.091-1.668-1.001-2.487-2.791-2.487
		c-1.789,0-2.698,0.819-2.728,2.487v10.25h-4.095v-9.433c0-4.578,2.305-6.853,6.884-6.853s6.823,2.274,6.793,6.853v9.433H408.283z"
		/>
	<path fill="#CCC9E4" d="M419.319,394.176c-4.853-0.151-7.278-2.973-7.278-8.431c0-5.459,2.457-8.189,7.339-8.219
		c5.095,0,7.492,3.124,7.188,9.4h-10.372c0.152,2.457,1.213,3.7,3.185,3.7c0.94,0,1.82-0.395,2.608-1.151
		c0.364-0.395,0.819-0.577,1.366-0.577h2.971C425.445,392.296,423.262,394.176,419.319,394.176z M416.257,384.046h6.035
		c-0.243-2.123-1.243-3.214-2.973-3.214C417.591,380.832,416.56,381.923,416.257,384.046z"/>
	<path fill="#CCC9E4" d="M428.443,385.532c0.121-5.187,2.881-7.763,8.248-7.763h0.577v4.184h-1.364
		c-2.245,0-3.367,1.185-3.367,3.518v8.341h-4.094V385.532z"/>
	<path fill="#CCC9E4" d="M443.3,381.953h-4.033c0.486-2.971,2.579-4.427,6.279-4.427c4.427,0,6.671,1.456,6.762,4.427v5.46
		c0,4.427-2.668,6.398-7.005,6.702c-3.852,0.304-6.521-1.485-6.521-5.034c0.091-3.852,2.882-4.884,6.945-5.277
		c1.729-0.212,2.607-0.728,2.607-1.607c-0.091-0.909-0.939-1.364-2.607-1.364C444.302,380.832,443.513,381.194,443.3,381.953z
		 M448.396,387.23v-1.485c-0.939,0.394-2.031,0.728-3.214,0.97c-1.607,0.305-2.426,1.062-2.426,2.244
		c0.09,1.273,0.757,1.881,2.031,1.881C447.031,390.84,448.396,389.505,448.396,387.23z"/>
	<path fill="#CCC9E4" d="M459.31,380.65h-0.426v8.885c0,0.668,0.396,1.031,1.184,1.031h1.243v3.063
		c-1.304,0.121-2.729,0.121-4.246-0.03c-1.516-0.152-2.243-1.092-2.213-2.881v-17.529h2.092c1.062,0,1.94,0.97,1.94,2.031v2.549
		h2.427v0.879C461.311,379.801,460.432,380.65,459.31,380.65z"/>
	<path fill="#CCC9E4" d="M465.706,373.189c1.335,0,1.971,0.667,1.941,1.972v1.182h-4.034v-3.153H465.706z M465.706,377.77
		c1.305,0,1.941,0.636,1.941,1.94v14.102h-4.034V377.77H465.706z"/>
	<path fill="#CCC9E4" d="M484.387,385.866c0,5.52-2.457,8.31-7.311,8.31c-4.852,0-7.277-2.79-7.277-8.31
		c0-5.58,2.426-8.34,7.277-8.34C481.93,377.526,484.387,380.286,484.387,385.866z M473.893,385.866c0.03,3.124,1.092,4.7,3.155,4.7
		c2.062,0,3.092-1.637,3.123-4.821c0-3.124-1.03-4.671-3.095-4.671C474.954,381.074,473.893,382.682,473.893,385.866z"/>
	<path fill="#CCC9E4" d="M497.938,393.812c-1.334-0.09-2.001-0.728-2.001-2.002v-8.248c-0.091-1.668-1.001-2.487-2.79-2.487
		c-1.79,0-2.698,0.819-2.729,2.487v10.25h-4.094v-9.433c0-4.578,2.305-6.853,6.884-6.853c4.58,0,6.823,2.274,6.793,6.853v9.433
		H497.938z"/>
</g>
</svg>
