<?xml version="1.0" encoding="utf-8"?>
<!-- Generator: Adobe Illustrator 19.1.0, SVG Export Plug-In . SVG Version: 6.00 Build 0)  -->
<svg version="1.1" id="Layer_1" xmlns="http://www.w3.org/2000/svg" xmlns:xlink="http://www.w3.org/1999/xlink" x="0px" y="0px"
	 viewBox="-249 300.5 500 362.1" style="enable-background:new -249 300.5 500 362.1;" xml:space="preserve">
<style type="text/css">
	.st0{fill:#18112E;}
	.st1{fill:#000;}
	.st2{fill:#CCC9E4;}
	.st3{fill:#2B1F51;}
	.st4{fill:#FFFFFF;}
	.st5{fill:#CCC9E2;}
	.st6{fill:#BEBCD7;}
	.st7{fill:#BEBADD;}
	.st8{fill:#381F59;}
	.st9{fill:#0F143C;}
	.st10{fill:#030204;}
</style>
<path class="st0" d="M29.4,532.5c-10.4-1.1-14.9,1.7-13.4,8.3c5.9,5.9,7,12.7,3.2,20.5c-2,3.4-3.4,8.1-4.2,14.3
	c1.4-0.5,2.5-1.4,3.3-2.8c0,0-0.1,2.3-0.3,6.8c2.4-1.2,4-3.2,4.7-6c0,0,0.1,1.8,0.2,5.3c3-2.8,3.9-7,2.8-12.6
	C39.3,555.9,40.5,544.6,29.4,532.5"/>
<path class="st1" d="M-230,611.3H-247c2-12.5,10.8-18.6,26.4-18.6c18.6,0,28,6.1,28.4,18.6v22.9c0,18.6-11.2,26.9-29.4,28.1
	c-16.2,1.3-27.4-6.2-27.4-21.1c0.4-16.2,12.1-20.5,29.2-22.2c7.3-0.9,10.9-3.1,10.9-6.7c-0.4-3.8-3.9-5.7-10.9-5.7
	C-225.8,606.6-229.1,608.1-230,611.3z M-208.6,633.5v-6.2c-3.9,1.7-8.5,3.1-13.5,4.1c-6.8,1.3-10.2,4.5-10.2,9.4
	c0.4,5.4,3.2,7.9,8.5,7.9C-214.4,648.6-208.6,643-208.6,633.5z"/>
<path class="st1" d="M-127.4,634.2c0,11.6-2.9,19.2-8.9,22.9c-6,3.4-12.6,5.2-19.9,5.2c-7,0-13.2-1.9-19.1-5.7
	c-5.9-3.7-8.8-11.1-8.8-22.4v-40.5h16.9v43.9c0,7.5,3.8,11.2,11.5,11.2s11.5-3.7,11.5-11.2v-35.5c-0.1-5.6,2.5-8.4,8.1-8.4h8.7
	L-127.4,634.2L-127.4,634.2z"/>
<path class="st1" d="M-101.2,605.8h-1.8v37.3c0,2.8,1.7,4.3,5,4.3h5.2v12.9c-5.5,0.5-11.5,0.5-17.8-0.1c-6.4-0.6-9.4-4.6-9.3-12.1
	v-73.6h8.8c4.5,0,8.1,4.1,8.1,8.5v10.7h10.2v3.7C-92.8,602.3-96.5,605.8-101.2,605.8z"/>
<path class="st1" d="M-24.9,627.7c0,23.2-10.3,34.9-30.7,34.9c-20.4,0-30.6-11.7-30.6-34.9c0-23.4,10.2-35,30.6-35
	C-35.2,592.7-24.9,604.3-24.9,627.7z M-69,627.7c0.1,13.1,4.6,19.7,13.2,19.7s13-6.9,13.1-20.2c0-13.1-4.3-19.6-13-19.6
	C-64.5,607.6-69,614.4-69,627.7z"/>
<path class="st1" d="M14.1,662.6c-20.4,0-30.8-11.7-31.3-34.9c0-23,10.3-34.6,31.1-35c16.3,0,26,7.3,28.9,21.9H24.3
	c-2-4.6-5.6-7-11-7c-8.9,0-13.4,6.7-13.4,20.1c0,13.4,4.7,20.1,14.1,20c4,0,7.4-1.6,10.2-4.8c1.6-1.7,3.6-2.4,5.7-2.4h12.7
	C39.7,654.2,29.7,663,14.1,662.6z"/>
<path class="st1" d="M112.4,627.7c0,23.2-10.3,34.9-30.7,34.9s-30.6-11.7-30.6-34.9c0-23.4,10.2-35,30.6-35
	C102.1,592.7,112.4,604.3,112.4,627.7z M68.4,627.7c0.1,13.1,4.6,19.7,13.2,19.7c8.7,0,13-6.9,13.1-20.2c0-13.1-4.3-19.6-13-19.6
	C72.8,607.6,68.4,614.4,68.4,627.7z"/>
<path class="st1" d="M182.7,583v48.9c0,20.2-10.6,30.3-31.6,30.2c-20.9-0.4-31.3-11.7-31.3-34.1c0-22.9,8.9-34.6,26.9-35.3
	c8.4,0,14.9,3.4,19.2,10.4v-28.6h8.4C178.9,574.5,182.7,578.4,182.7,583z M137.3,627.2c-0.1,13.6,4.5,20.5,14.1,20.5
	c9.7,0,14.5-6.9,14.5-20.5c-0.4-13-5.1-19.4-14.3-19.4C142.5,607.9,137.8,614.2,137.3,627.2z"/>
<path class="st1" d="M220.5,662.6c-20.4-0.6-30.6-12.5-30.6-35.4c0-22.9,10.3-34.4,30.8-34.5c21.4,0,31.4,13.1,30.2,39.5h-43.5
	c0.6,10.3,5.1,15.5,13.4,15.5c3.9,0,7.6-1.6,11-4.8c1.5-1.7,3.4-2.4,5.7-2.4h12.5C246.2,654.7,237,662.6,220.5,662.6z M207.6,620.1
	h25.3c-1-8.9-5.2-13.5-12.5-13.5S208.9,611.2,207.6,620.1z"/>
<path class="st0" d="M46.7,478.1c-8.3,4.6-15.4,13.6-21.5,27.1c8.7-4.2,13,1.8,12.9,17.9c10.6,3.6,13.2,13.2,7.8,28.9
	c13,7,22,18.5,26.9,34.4c20.9-4.8,35,1.9,42.3,20c35.6-34.5,41.5-73.8,17.6-117.8C97.8,515,69.1,511.5,46.7,478.1"/>
<path class="st0" d="M-2.7,463c1.8,11.1-1.4,24.4-9.5,39.9c-2.5-11.2-11.2-11-26.3,0.5c-11.2-7.5-22.1-3-32.7,13.3
	c-16.2-7.3-33.5-7.6-52-1c-10.9-23.3-27.6-32-49.9-25.9c6.1-58.6,38.5-92.2,97.3-101C-74.9,440.8-50.5,465.6-2.7,463"/>
<path class="st0" d="M-82.8,390.1c1.4,4.5,2.1,6.8,2.1,6.8c0.3-0.6,0.5-1.1,0.8-1.7l0.1,2.2c-0.3,0.1-0.5,0.2-0.8,0.3
	c-1.1,4.6-1.7,6.9-1.7,6.9c5.8-4,12.4-5.3,19.7-3.7c4.2,1.7,5.9,0.6,4.9-3.4c-1.4-4.8-7.2-5.4-17.4-1.9c3.7-2.7,8.1-4.3,13.3-4.7
	c4.5,0.5,5.8-1.1,3.8-4.6c-2.8-4.3-8.9-3.1-18.2,3.7c2.7-2.9,6.2-5.1,10.4-6.5c4.5-0.7,5.3-2.5,2.5-5.4
	C-67.5,374.2-74,378.2-82.8,390.1"/>
<path class="st0" d="M-2.7,463c29.4,8.8,47.9,16.7,55.5,23.7c-12.1,8-16.3,17.3-12.6,28.1c9.8,25.2,3,41.4-20.6,48.6
	c-32.7,3.4-50.8-6.3-54.3-29C-37.3,514.5-26.6,490.7-2.7,463"/>
<path class="st0" d="M-2.4,438.1C32.1,407.3,49.4,392,49.4,392c-8.5-8.6-13.4-26.7-14.4-54.2c2.5-35.8-2.3-45.8-14.3-29.9
	c-35,36.1-45.6,63.7-31.8,82.8C1,409.1,3.9,424.9-2.4,438.1"/>
<path class="st0" d="M93.4,393.6c-14.8,24.4-7.2,36,22.8,34.8c2.6-4.5,5.4-7,8.4-7.4c16.6,0.9,25.7-11.6,27.2-37.3
	c1-30.6-3.2-51.6-12.6-63.1c-7.4-9.8-12.2-7.1-14.3,8.2C116.7,371.9,106.2,393.5,93.4,393.6"/>
<path class="st2" d="M1,466.9c10.5,3.2,21.1,6.8,31.1,11.1c3.9,1.7,7.9,3.5,11.6,5.6c1.6,0.9,3.2,1.9,4.7,2.9
	c-5.7,4.3-10.5,10-11.8,17.2c-0.7,4-0.2,8,1.1,11.9l0,0.1l0,0.1c8.5,21.8,4.8,37.7-18.6,45.1c-2.1,0.2-4.3,0.4-6.5,0.5
	c-19.2-2.1-28.1-14-26.6-35.5c2.1-23.3,8.9-39.8,20.3-49.4C4.4,473,2.7,469.9,1,466.9"/>
<path class="st0" d="M0.8,426C0.2,433.5,0,437.3,0,437.3s-2.7,1.9-8.2,5.7C-7.1,437.6-4.1,431.9,0.8,426"/>
<path class="st3" d="M77.6,581.2c16-3.7,28.9,2.6,38.8,18.9c21.8-24.1,30.5-64.7,14.6-97.5C120,527,100.6,560.8,77.6,581.2"/>
<path class="st3" d="M55.7,550.1c12.1,2.9,19.3,11.7,21.8,26.3c20.7-27.7,34.6-51.5,41.7-71.4C98.3,525.1,77.2,540.1,55.7,550.1"/>
<path class="st3" d="M53.5,542.9c1.4-10.5-2.1-18.4-10.5-23.5c22.2,0.3,45-4,68.2-12.9C86.4,527.1,67.2,539.2,53.5,542.9"/>
<path class="st3" d="M47.4,488.7c-3.8,9.9-5.5,18.9-5.2,26.8c20.6-3.5,30.9-5.3,30.9-5.3C61.9,504.5,53.3,497.3,47.4,488.7"/>
<path class="st3" d="M-121.9,507.4c-8.3-17.8-23.8-25.6-46.3-23.4c6.5-38,38-75.3,80.5-83.7C-102.4,428.4-119.7,470.9-121.9,507.4"
	/>
<path class="st2" d="M122.3,497c-29.7,20.5-55.4,14.5-77-18.1C66.9,509.7,92.5,515.8,122.3,497"/>
<path class="st3" d="M-76.7,506c-11.6-9.4-25.1-10-40.6-1.9c10.7-39.6,22.7-69.8,36.1-90.7C-84.7,447.6-83.2,478.5-76.7,506"/>
<path class="st3" d="M-68.4,503c8.8-8.9,18.7-11.2,29.7-6.8C-55.3,475.3-68,450.5-76.8,422C-77.8,460.3-75,487.3-68.4,503"/>
<path class="st3" d="M-13.2,470c-6.5,10.7-13.6,18.8-21.3,24.1c-11.9-22.1-17.8-33.2-17.8-33.2C-38.5,467.5-25.5,470.5-13.2,470"/>
<path class="st2" d="M113.7,606.6c34.2-33.1,40.9-70.7,20.2-112.7l0,3.5C152.5,533.5,148.1,570.5,113.7,606.6"/>
<path class="st2" d="M128.1,503.3c1.6-4.2,0-3.3-0.3-3.2c-1.2,0.3-1.7,3.8-1.7,3.8c-5.3,18.5-23.2,45.4-52,80
	C101.8,552.5,119.9,525.6,128.1,503.3"/>
<path class="st2" d="M116.3,505.4c-25.3,23.9-46.5,35.4-67.8,44.5c22-6.8,44.9-21.7,68.9-44.7C116.6,505.3,116.3,505.4,116.3,505.4"
	/>
<path class="st2" d="M90.1,512.5c-17.6,2.6-34,4.5-49.2,5.5C52,518.4,68.4,516.6,90.1,512.5"/>
<path class="st2" d="M-172.3,491.2c5.8-56.3,36-89.6,90.5-99.9l-3.3,2.5C-132.5,402.1-163.9,432.7-172.3,491.2"/>
<path class="st2" d="M-86.3,403.7c2.8-4.6,3.1-2.3,3.2-2c0.6,1.3-2.2,4.4-2.2,4.4c-13.4,18.2-25.4,54.5-36.5,106.8
	C-112.9,463.8-101,427.4-86.3,403.7"/>
<path class="st2" d="M-79.5,416.4c-3.7,41.2,1.1,69.6,8.4,96.4c-9.8-25.7-12.8-58.3-9-97.6C-79.7,416-79.5,416.4-79.5,416.4"/>
<path class="st2" d="M-76.1,404.7c2.6,43,27.2,63.1,73.7,60.4C-47.1,466.5-71.7,446.4-76.1,404.7"/>
<path class="st2" d="M-66.8,446.4c10.5,18.7,20.9,35.6,31.2,50.8C-44.3,486.9-54.7,469.9-66.8,446.4"/>
<path class="st4" d="M128,329L128,329l0-0.1c0.4-2.9,1-6.5,2.2-9.2c0.3-0.6,1.1-2.2,1.8-2.4c0.5-0.1,1.3,0.4,1.6,0.6
	c1.4,1,2.8,2.6,3.9,4l0,0l0,0c12,14.6,12.6,43.4,12,61.3c-0.6,10.6-3,26.6-13.3,32.5c-3.4,1.9-7.3,2.5-11.2,2.3l-0.2,0l-0.2,0
	c-4.2,0.6-7.4,3.9-9.6,7.4c-7.5,0.2-20.8-0.3-24.7-7.1c-1.6-2.7-1.5-6.2-0.6-9.8c6.1,4.8,15.7,9,28.8,12.6c-2.5-8.7-2.3-19.3,0.6-32
	C124.7,370.1,124.1,349.3,128,329"/>
<path class="st5" d="M114.7,425.5c-7.6,0.2-20.5-0.4-24.3-7.1c-1.4-2.5-1.5-5.6-0.8-8.9c6.1,4.6,15.5,8.7,28.4,12.2
	c-0.1-0.3-0.1-0.5-0.2-0.8c0.3,0.1,0.6,0.2,0.8,0.2C117,422.4,115.8,423.9,114.7,425.5 M128,329L128,329l0-0.1
	c0.4-2.9,1-6.5,2.2-9.2c0.2-0.4,0.6-1.3,1.1-1.9l0,0c0.5-0.1,1.3,0.4,1.6,0.6c1.4,1,2.8,2.7,3.9,4l0,0l0,0
	c12,14.6,12.6,43.4,12,61.3c-0.6,9.8-2.6,24.3-11.2,31c-0.5,0.3-0.9,0.6-1.4,0.9c-3.4,1.9-7.3,2.5-11.2,2.3l-0.3,0l-0.2,0
	c-2,0.3-3.8,1.2-5.3,2.4c-0.3,0.2-0.5,0.4-0.8,0.6c-2.5-8.7-2.3-19.3,0.6-31.9C124.7,370.1,124.1,349.3,128,329z"/>
<path class="st0" d="M70.4,396.7c-2.1-2.9-4.7-5.2-7.9-6.7c-5-2.2-10.5-1.7-15.6-0.1c-6.7,2.1-13.2,6.3-18.8,10.4
	C8,414.1-16.1,436.6-2.7,463c2.2,4.9,5.2,9.4,8.9,13.3c22.2,23.6,68.2,25.5,96.6,13.2l0,0l0,0c14.2-6.6,19.2-17.4,13.3-31.9
	c1-4.6,1.9-9.1,2.9-13.7l0-0.1l0-0.1c1.1-10.7,2-29.5-8.6-36.2c-4.8-3-10.5-2.7-15.8-1.4C87.4,401.8,78.8,397.7,70.4,396.7"/>
<path class="st2" d="M-0.3,461.9c2.1,4.9,5,9.1,8.5,12.8v0c6.2,9.9,12.4,19.8,18.6,29.8c0,0-1.2-5.3-3.6-15.9c0,0,5.5,1,16.4,3v0
	c21,5.1,45.2,2.9,62.1-4.4c13.5-6.3,17.4-16,11.7-29.2c0,0,1-4.8,3-14.5c2.9-28-4.5-39.5-22.2-34.4c-1.5,2-2.3,3-2.3,3
	c0.2-1.2,0.7-2.4,1.3-3.6c-8.2-5-15.5-8-21.9-8.9c0.7,3.3,0.6,7-0.3,11.1c-0.2-3.9-0.9-7.7-2-11.4c-5.1-7.9-12.7-10-22.8-6.2
	c-1.5,0.6-3,1.2-4.5,2c-3.7,1.8-7.7,4.4-12,7.5c-1.4,1-2.8,1.9-4.1,2.9c-7.1,6-13.6,13.5-19.5,22.6c0,0,3.3,0,9.8,0
	C1.4,432.1-4,443.4-0.3,461.9"/>
<path class="st0" d="M135.3,493.9c-3.7,1.4-5.6,2.1-5.6,2.1c0.3-0.5,0.5-1,0.7-1.4l-1.5,1.1c0.1,0.2,0.1,0.5,0.2,0.7
	c-2.5,3.2-3.7,4.8-3.7,4.8c-0.3-6-2.8-11.1-7.5-15.1c-3.3-1.9-3.4-3.6-0.3-5.1c3.9-1.5,7.2,2,10.1,10.7c-0.1-3.9-1.3-7.7-3.6-11.3
	c-2.6-2.8-2.2-4.4,1.1-5c4.2-0.4,6.5,4.3,6.8,14.1c0.5-3.3,0.2-6.8-0.9-10.4c-1.8-3.4-1-4.9,2.3-4.5
	C138.1,475.5,138.7,481.9,135.3,493.9"/>
<path class="st0" d="M-11.9,544.4c-9.1,5.2-11.1,10.1-6,14.6c8.2,1.3,13.1,6.2,14.7,14.7c0.3,3.9,2,8.6,5,14c0.9-1.2,1.2-2.6,1-4.2
	c0,0,1.2,1.9,3.7,5.7c1.2-2.4,1.3-4.9,0.3-7.6c0,0,1.1,1.4,3.3,4.1c0.8-4-1-8-5.2-11.9c2.3-7.8,2.3-14-0.1-18.9l1.6,0.8
	c-1.1-3.2-3.4-5.5-6.9-6.9l0,0C-3.4,546.9-7.2,545.3-11.9,544.4"/>
<path class="st0" d="M-24.1,538.6c-4.3-6.8-7.9-8.2-10.6-4.2c0.3,13.1,4.9,21.8,13.8,26.1C-24.9,553.5-26,546.2-24.1,538.6
	 M-31.8,523.5c-0.3-8.1-0.5-12.2-0.5-12.2c-2.9,7.6-4.3,14.5-4.2,20.6C-33.4,526.3-31.8,523.5-31.8,523.5z"/>
<path class="st6" d="M23.6,525.3c1.4-22.3,6-32.8,13.8-31.5c1.7,1.4,3,4.6,3.8,9.8c-1.7-0.4-2.5-0.6-2.5-0.6
	c0.8,3.8,0.8,6.8,0.2,8.9c-1.3-0.9-1.9-1.3-1.9-1.3C36.2,517.7,31.8,522.6,23.6,525.3"/>
<path class="st4" d="M23.6,525.3l0-0.3c7.7-4.3,11.7-10.6,11.9-16.9c1,0.8,1.7,1.5,2.1,2c0-4-0.3-7.1-0.8-9.1c1,0.4,1.9,0.8,2.5,1.2
	c-0.5-3.6-1.5-6.5-3.1-8.6c0.4,0,0.7,0,1.1,0.1c1.7,1.3,3,4.6,3.8,9.8c-1.7-0.4-2.5-0.6-2.5-0.6c0.8,3.8,0.8,6.8,0.2,8.9
	c-1.3-0.9-1.9-1.3-1.9-1.3c-0.3,3-1.3,5.5-2.9,7.7C31.9,520.9,28.4,524.1,23.6,525.3"/>
<path class="st0" d="M35.3,492.7c2.5,0.2,3.7,0.8,3.5,1.8c2.5,3,3.6,7,3.3,12.1c-1.2-1.3-1.8-2-1.8-2c0.6,3,0.3,6.1-0.7,9.4
	c-1-1.3-1.5-1.9-1.5-1.9c-0.4,5.5-5,11.3-14.4,13.2c8.3-4.3,12.5-9.8,12.8-16.2c1,0.8,1.7,1.4,2.1,2c-0.1-4-0.3-7.1-0.8-9.1
	c1,0.4,1.9,0.8,2.5,1.2C39.5,498.3,37.9,494.8,35.3,492.7"/>
<path class="st2" d="M-2.6,400.5c-1.9-4-4.1-7.8-6.5-11.4l0,0l0,0c-1.6-2.3-2.9-4.7-3.8-7.3c-8.4-24.3,20.2-56.4,35.4-72.1l0.1-0.1
	l0.1-0.1c1.4-1.8,3.2-4,5-5.4c0.4-0.3,1.5-1,2-0.9c0.5,0.1,1,1.2,1.2,1.6c0.8,1.9,1.2,4.4,1.5,6.4c0.4,3.6,0.5,7.4,0.5,11
	c-3,20.8-4.6,37.5-2.2,49.7c3.3,17.1,0.8,21.4-7.7,19.2c-2.3-0.9-5.3,1.3-4.7,7C20.1,410.6,8.9,419.9-2.6,400.5L-2.6,400.5z"/>
<path class="st7" d="M31.5,331.3c-2.1,16.6-3,30.2-1,40.6c3.3,17.1,0.8,21.4-7.7,19.2c-2.3-0.9-5.3,1.3-4.7,7
	c1.8,11.8-7.9,20.7-18.7,5.6c7.6,4.6,12.2,3.3,13.9-3.6c-0.4-11.4,2.4-17,8.2-16.7c4.9,1,6.9-1,6-6.1
	C26.5,361.9,27.9,346.6,31.5,331.3z"/>
<path class="st4" d="M66.3,395.9c-4.9-5-11.6-6-20.2-2.9c-1.5,0.6-3,1.2-4.5,2c-3.7,1.8-7.7,4.4-12,7.5c-1.4,1-2.8,1.9-4.1,2.9
	c-7.1,6-13.6,13.5-19.5,22.6h2.9C19.4,406.8,50.8,386.3,66.3,395.9"/>
<path class="st4" d="M15.9,428c-16.2,8.1-21.2,28.6-7.6,46.8C-7.1,461.3-5.9,432,15.9,428"/>
<path class="st7" d="M113.7,440.3c-17.8,1.3-26.7,2-26.7,2c6.7-18.3,13-25.8,19.2-25.6C113.4,416.9,115.9,423.7,113.7,440.3"/>
<path class="st7" d="M60.5,443.8c-24.8-14.9-39.6-21.2-39.6-21.2c12.7-19.3,27.5-26.7,40.6-23.1C72,402.4,71.9,416,60.5,443.8"/>
<path class="st4" d="M38.7,467.5c-23.5-2.3-30.1-11.2-20.9-23.9l0,0c-0.9-0.7-2.1-0.3-3.5,1.1c3.1-6.5,8.7-3.6,4-1.7
	c-7,12,1.5,20.5,21.1,22.1c22.5,1.8,37.2,5.2,45.7,9.1c14,6.4,24.6,2.1,23-6.8c1.2,6.7-1.5,10.6-8.2,11.6c-4,0.7-9.1-0.4-15.1-3.4
	C73.1,470.9,57.4,469.3,38.7,467.5"/>
<path class="st8" d="M38.5,466.1c-23.5-2.3-30.1-11.2-20.9-23.9v0c-0.9-0.7-2.1-0.3-3.5,1.1c3.1-6.5,8.7-3.6,4-1.7
	c-7,12,1.5,20.5,21.1,22.1c22.5,1.8,37.2,5.2,45.7,9.1c14,6.4,24.6,2.1,23-6.8c1.2,6.7-1.5,10.6-8.2,11.6c-4,0.7-9.1-0.4-15.1-3.4
	C72.9,469.5,57.3,467.9,38.5,466.1"/>
<path class="st8" d="M80.1,480.1c-5.6,7.7-15.7,5.4-30.4-7C64.1,482.2,74.2,484.5,80.1,480.1"/>
<path class="st8" d="M32.5,446.3c8.9,4.5,20.9,1.7,27.4-2.2l0.5-0.3l0.2-0.6c0.7-2,0.4-5.1,0.7-7.1l0-0.1l0-0.1
	c0.7-7.5,0.2-16.6-5.8-21.9c-3.5-3.1-8.1-4.2-12.7-4.2c-10.3,0-17.3,6.1-21.7,15l-0.1,0.1l0,0.1c-0.9,3-1.8,5.8-0.9,8.9
	C21.9,440,27.3,443.7,32.5,446.3"/>
<path class="st4" d="M33.4,445.1c-9.7-4.9-13.4-11.3-10.9-19.5c4.2-8.5,11-13.9,20.5-13.9c12.7-0.1,18.3,8.7,16.7,24.2
	c-0.5,2.8-1,4.8-1.4,6C48.5,447.7,40.3,448.6,33.4,445.1"/>
<path class="st9" d="M39.9,418.1c-6.5,0.6-11.2,6.3-10.6,12.7c0.6,6.5,6.3,11.2,12.7,10.6c6.5-0.6,11.2-6.3,10.6-12.7
	C52.1,422.3,46.4,417.6,39.9,418.1"/>
<path class="st1" d="M40,419.5c-5.7,0.5-9.9,5.6-9.4,11.3c0.5,5.7,5.6,9.9,11.3,9.4c5.7-0.5,9.9-5.6,9.4-11.3
	C50.8,423.2,45.7,419,40,419.5"/>
<path class="st4" d="M44.9,437.7c-1,0.1-1.8,1-1.7,2c0.1,1,1,1.8,2,1.7c1-0.1,1.8-1,1.7-2C46.9,438.4,46,437.6,44.9,437.7"/>
<path class="st4" d="M34.9,415.6c-2.8,0.8-4.7,2.9-4.2,4.8c0.5,1.8,3.2,2.7,6.1,1.9c2.8-0.8,4.7-2.9,4.2-4.8
	C40.5,415.7,37.7,414.8,34.9,415.6"/>
<path class="st8" d="M31.3,415.3c-1.6-0.2-2.4-0.4-2.4-0.4c9.9-5.8,19.6-6.7,29.1-2.5C48.1,409.6,39.2,410.5,31.3,415.3"/>
<path class="st10" d="M40.4,423.5c-3.5,0.3-6.1,3.4-5.8,6.9c0.3,3.5,3.4,6.1,6.9,5.8c3.5-0.3,6.1-3.4,5.8-6.9
	C47,425.7,43.9,423.1,40.4,423.5"/>
<path class="st2" d="M15.2,430.8c5.5,8.6,10.2,13.4,13.9,14.5C29.2,434.8,24.5,430,15.2,430.8"/>
<path class="st8" d="M15.2,430.8c10.6-5.4,14.6,3.4,13.9,14.5C28.5,435,23.9,430.2,15.2,430.8"/>
<path class="st4" d="M15.2,430.8c8.5-0.8,13.2,4.1,13.9,14.5C27.5,435.8,22.8,430.9,15.2,430.8"/>
<path class="st8" d="M84.8,424.4c-1.5-8.5-4.7-12.8-9.8-12.9c6.2-2.1,10,2.3,11.3,13c-5.6,12.4-5.3,20.1,1.1,23.1
	c-2.9-0.6-4.4-0.9-4.5-0.9C80,442.2,80.6,434.7,84.8,424.4"/>
<path class="st8" d="M107.8,455.9c5.9-3.4,6-12.5,5.8-18c-0.1-3.4-0.8-6.7-3.8-8.5c-4.1-2.6-9.4-1.2-13.2,1.3
	c-5.6,3.6-9.3,9.9-11.4,16.1l-0.1,0.3l0,0.3C85.5,457.9,103.6,458.3,107.8,455.9"/>
<path class="st4" d="M86.7,447.3c7-20.2,25.2-22.5,25.8-9.4c0.4,9.6-1.3,15.1-5.1,16.3C99.9,456.6,89,456.2,86.7,447.3"/>
<path class="st8" d="M111.1,432.2c0.6-0.5,0.9-0.8,0.9-0.8c-2.1-3.6-5.9-5.5-11.1-5.7C105,426.7,108.4,428.8,111.1,432.2"/>
<path class="st9" d="M98.8,435.1c-4.9,0-8.9,4-8.9,8.9c0,4.9,4,8.9,8.9,8.9c4.9,0,8.9-4,8.9-8.9C107.7,439,103.7,435.1,98.8,435.1"
	/>
<path class="st1" d="M98.8,436.1c-4.3,0-7.9,3.5-7.9,7.9c0,4.3,3.5,7.9,7.9,7.9s7.9-3.5,7.9-7.9C106.7,439.6,103.1,436.1,98.8,436.1
	"/>
<path class="st10" d="M98.8,439.1c-2.7,0-4.8,2.2-4.8,4.8s2.2,4.8,4.8,4.8c2.7,0,4.8-2.2,4.8-4.8
	C103.6,441.3,101.5,439.1,98.8,439.1"/>
<path class="st4" d="M103.2,449.8c-0.8,0-1.4,0.6-1.4,1.4c0,0.8,0.6,1.4,1.4,1.4c0.8,0,1.4-0.6,1.4-1.4
	C104.6,450.4,104,449.8,103.2,449.8"/>
<path class="st4" d="M95.2,434.7c-2,1-3,2.9-2.3,4.2c0.7,1.3,2.8,1.5,4.8,0.4c2-1,3-2.9,2.3-4.2C99.3,433.9,97.2,433.7,95.2,434.7"
	/>
<path class="st8" d="M104.4,455c-0.2,1.3-0.4,2-0.4,2c3-0.3,5.6,0,7.8,1C109.7,455.7,107.2,454.8,104.4,455"/>
<path class="st0" d="M80.4,468.8c7.5-2.6,11.2-6.6,11.2-12c-1.9-11.9-11.2-14.4-27.8-7.4c-3.6,2.3-1.9,5.7,4.9,10.3
	c2.9,1.8,4.3,3.7,4.3,5.8v0c0,0.1,0,0.2,0,0.2c0,0.6,0.2,1,0.6,1.3l0,0C76.1,468.8,78.4,469.4,80.4,468.8"/>
<path class="st0" d="M80,467.6c6.7-2.4,10.1-6,10.1-10.8c-1.7-10.7-10-12.9-25-6.7c-3.2,2-1.7,5.1,4.4,9.3c2.6,1.6,3.9,3.3,3.8,5.2
	v0c0,0.1,0,0.1,0,0.2c0,0.5,0.2,0.9,0.5,1.2l0,0C76.2,467.6,78.2,468.2,80,467.6"/>
<path class="st3" d="M81.3,448.1c3.6,0.4,6.5,2.4,6.5,4.7c0,2.2-2.9,3.7-6.5,3.4c-3.6-0.3-6.5-2.4-6.5-4.7
	C74.7,449.2,77.7,447.7,81.3,448.1"/>
<path class="st0" d="M70.6,406.7c-0.1-6.7-5.5-15.3-5.5-15.3c27.3-9,39.3,2.1,42.8,6.4c-3.8-0.5-6.8-0.4-9.1,0.2
	c3.6,1.5,6.2,3.9,7.8,7c-2.8-1.1-5.9-1.5-9.3-1.2c8,5.5,9.2,12.8,3.6,21.8c0.5-2.8-0.9-5.1-4-7c-2.6,8-7.7,13.3-15.2,15.9
	c1-7,0.1-13.3-2.8-18.9c-1.1,3-1.6,4.4-1.6,4.4C72.8,411.2,70.6,406.7,70.6,406.7"/>
<path class="st3" d="M96.8,418.7c7-20-12.2-33.1-30.4-24.8c20-0.9,34.7,22.1,15.2,40.7C89.3,431.8,94.4,426.5,96.8,418.7"/>
<path class="st3" d="M66.4,393.9c-0.8-1.5-1.4-2.5-1.4-2.5c27.3-9,39.3,2.1,42.8,6.4C96,390,82.2,388.7,66.4,393.9L66.4,393.9z"/>
<path class="st4" d="M79.7,493.2c30.2-4.6,41.5-16.3,33.8-35C118.7,476.6,107.4,488.2,79.7,493.2"/>
<path class="st3" d="M36.4,371.8c-0.1,2.3-0.8,2.5-2,0.6c-2.3-12-2.4-27.5-0.4-46.7C33.4,345.3,34.1,360.7,36.4,371.8"/>
</svg>
