<?xml version="1.0" encoding="utf-8"?>
<!-- Generator: Adobe Illustrator 16.0.0, SVG Export Plug-In . SVG Version: 6.00 Build 0)  -->
<!DOCTYPE svg PUBLIC "-//W3C//DTD SVG 1.1//EN" "http://www.w3.org/Graphics/SVG/1.1/DTD/svg11.dtd">
<svg version="1.1" id="Layer_1" xmlns="http://www.w3.org/2000/svg" xmlns:xlink="http://www.w3.org/1999/xlink" x="0px" y="0px"
	 width="250px" height="250px" viewBox="0 0 250 250" enable-background="new 0 0 250 250" xml:space="preserve">
<rect fill="#185F96" width="250" height="250"/>
<g>
	<path fill="#FFFFFF" d="M24.086,121.825h-7.397c0.89-5.451,4.728-8.12,11.512-8.12c8.12,0,12.237,2.669,12.405,8.12v10.009
		c0,8.124-4.896,11.738-12.849,12.295c-7.065,0.559-11.958-2.727-11.958-9.232c0.167-7.063,5.283-8.955,12.738-9.68
		c3.17-0.389,4.783-1.333,4.783-2.946c-0.168-1.669-1.724-2.505-4.783-2.505C25.921,119.766,24.476,120.434,24.086,121.825z
		 M33.43,131.504v-2.727c-1.723,0.725-3.725,1.336-5.895,1.779c-2.949,0.557-4.45,1.946-4.45,4.116
		c0.166,2.336,1.391,3.447,3.725,3.447C30.928,138.121,33.43,135.675,33.43,131.504z"/>
	<path fill="#FFFFFF" d="M68.929,131.834c0,5.062-1.279,8.4-3.892,10.018c-2.616,1.5-5.507,2.277-8.678,2.277
		c-3.059,0-5.786-0.838-8.344-2.504c-2.557-1.611-3.836-4.838-3.836-9.791v-17.686h7.396v19.189c0,3.283,1.669,4.896,5.006,4.896
		c3.338,0,5.007-1.611,5.007-4.896V117.82c-0.057-2.448,1.112-3.672,3.56-3.672h3.781V131.834z"/>
	<path fill="#FFFFFF" d="M80.347,119.433h-0.779v16.295c0,1.223,0.725,1.893,2.169,1.893h2.283v5.615
		c-2.394,0.228-5.007,0.228-7.788-0.053c-2.781-0.281-4.117-2.002-4.06-5.281v-32.151h3.836c1.947,0,3.56,1.78,3.56,3.725v4.672
		h4.452v1.614C84.02,117.875,82.405,119.433,80.347,119.433z"/>
	<path fill="#FFFFFF" d="M113.673,129.001c0,10.124-4.507,15.241-13.406,15.241s-13.349-5.117-13.349-15.241
		c0-10.236,4.45-15.296,13.349-15.296S113.673,118.765,113.673,129.001z M94.427,129.001c0.057,5.731,2.004,8.62,5.786,8.62
		c3.781,0,5.672-3.006,5.729-8.844c0-5.73-1.891-8.565-5.675-8.565C96.375,120.212,94.427,123.161,94.427,129.001z"/>
	<path fill="#FFFFFF" d="M130.706,144.242c-8.897,0-13.458-5.117-13.683-15.241c0-10.068,4.507-15.129,13.575-15.296
		c7.118,0,11.344,3.17,12.627,9.567h-8.066c-0.893-2.004-2.45-3.06-4.788-3.06c-3.89,0-5.838,2.948-5.838,8.789
		s2.059,8.788,6.174,8.729c1.726,0,3.226-0.722,4.452-2.109c0.72-0.727,1.558-1.061,2.505-1.061h5.562
		C141.889,140.57,137.55,144.406,130.706,144.242z"/>
	<path fill="#FFFFFF" d="M173.663,129.001c0,10.124-4.507,15.241-13.406,15.241s-13.348-5.117-13.348-15.241
		c0-10.236,4.446-15.296,13.348-15.296C169.156,113.705,173.663,118.765,173.663,129.001z M154.419,129.001
		c0.054,5.731,2.002,8.62,5.783,8.62c3.782,0,5.676-3.006,5.729-8.844c0-5.73-1.895-8.565-5.676-8.565
		C156.366,120.212,154.419,123.161,154.419,129.001z"/>
	<path fill="#FFFFFF" d="M204.383,109.477v21.361c0,8.84-4.619,13.232-13.796,13.178c-9.122-0.162-13.687-5.117-13.687-14.902
		c0-10.014,3.895-15.129,11.738-15.408c3.668,0,6.508,1.501,8.396,4.56v-12.513h3.673
		C202.711,105.751,204.383,107.475,204.383,109.477z M184.521,128.777c-0.055,5.955,1.947,8.953,6.174,8.953
		c4.229,0,6.341-2.998,6.341-8.953c-0.163-5.673-2.224-8.454-6.228-8.454C186.8,120.323,184.744,123.104,184.521,128.777z"/>
	<path fill="#FFFFFF" d="M220.857,144.242c-8.896-0.28-13.348-5.453-13.348-15.465c0-10.012,4.506-15.02,13.465-15.073
		c9.34,0,13.732,5.729,13.18,17.241h-19.021c0.276,4.508,2.225,6.785,5.844,6.785c1.721,0,3.332-0.722,4.781-2.109
		c0.666-0.727,1.499-1.061,2.5-1.061h5.453C232.1,140.791,228.096,144.242,220.857,144.242z M215.241,125.663h11.069
		c-0.443-3.893-2.283-5.897-5.453-5.897S215.799,121.771,215.241,125.663z"/>
</g>
</svg>
