<?xml version="1.0" encoding="utf-8"?>
<!-- Generator: Adobe Illustrator 16.0.0, SVG Export Plug-In . SVG Version: 6.00 Build 0)  -->
<!DOCTYPE svg PUBLIC "-//W3C//DTD SVG 1.1//EN" "http://www.w3.org/Graphics/SVG/1.1/DTD/svg11.dtd">
<svg version="1.1" id="Layer_1" xmlns="http://www.w3.org/2000/svg" xmlns:xlink="http://www.w3.org/1999/xlink" x="0px" y="0px"
	 width="250px" height="250px" viewBox="0 0 250 250" enable-background="new 0 0 250 250" xml:space="preserve">
<g>
	<g>
		<path fill="#BAB8D4" d="M47.179,84.297H5.066C10.132,53.27,31.981,38.073,70.6,38.073c46.225,0,69.66,15.197,70.613,46.224v56.988
			c0,46.225-27.868,66.811-73.139,69.981C27.856,214.425,0,195.746,0,158.7c0.954-40.205,30.073-50.969,72.509-55.093
			c18.045-2.217,27.224-7.593,27.224-16.77c-0.954-9.5-9.81-14.257-27.224-14.257C57.62,72.58,49.396,76.382,47.179,84.297z
			 M100.364,139.39v-15.52c-9.81,4.125-21.205,7.605-33.554,10.132c-16.783,3.171-25.33,11.085-25.33,23.435
			c0.941,13.303,7.915,19.632,21.205,19.632C86.121,177.068,100.364,163.135,100.364,139.39z"/>
		<path fill="#BAB8D4" d="M178.769,211.898c-50.659,0-76.62-29.133-77.896-86.752c0-57.31,25.651-86.12,77.264-87.073
			c40.527,0,64.58,18.046,71.863,54.461h-45.902c-5.066-11.408-13.934-17.415-27.237-17.415c-22.158,0-33.244,16.783-33.244,50.027
			c0,33.245,11.718,50.027,35.152,49.705c9.81,0,18.355-4.111,25.329-12.025c4.112-4.125,8.869-6.021,14.244-6.021H250
			C242.407,191.003,217.711,212.839,178.769,211.898z"/>
	</g>
</g>
</svg>
