<?xml version="1.0" encoding="utf-8"?>
<!-- Generator: Adobe Illustrator 16.0.0, SVG Export Plug-In . SVG Version: 6.00 Build 0)  -->
<!DOCTYPE svg PUBLIC "-//W3C//DTD SVG 1.1//EN" "http://www.w3.org/Graphics/SVG/1.1/DTD/svg11.dtd">
<svg version="1.1" id="Layer_1" xmlns="http://www.w3.org/2000/svg" xmlns:xlink="http://www.w3.org/1999/xlink" x="0px" y="0px"
	 width="250px" height="250px" viewBox="0 0 250 250" enable-background="new 0 0 250 250" xml:space="preserve">
<g>
	<path fill="#BAB8D4" d="M9.487,121.366H1.019c1.019-6.24,5.412-9.295,13.178-9.295c9.295,0,14.007,3.055,14.199,9.295v11.458
		c0,9.3-5.604,13.437-14.707,14.074C5.602,147.535,0,143.776,0,136.328c0.192-8.085,6.048-10.25,14.581-11.08
		c3.629-0.446,5.475-1.527,5.475-3.372c-0.192-1.911-1.973-2.867-5.475-2.867C11.586,119.009,9.933,119.774,9.487,121.366z
		 M20.182,132.444v-3.121c-1.973,0.83-4.264,1.53-6.748,2.038c-3.375,0.638-5.093,2.229-5.093,4.712
		c0.189,2.674,1.591,3.945,4.264,3.945C17.318,140.019,20.182,137.22,20.182,132.444z"/>
	<path fill="#BAB8D4" d="M60.817,132.823c0,5.796-1.464,9.615-4.456,11.467c-2.994,1.716-6.304,2.607-9.933,2.607
		c-3.501,0-6.623-0.959-9.552-2.867c-2.926-1.846-4.39-5.537-4.39-11.207v-20.245h8.465v21.965c0,3.759,1.91,5.604,5.73,5.604
		c3.821,0,5.731-1.845,5.731-5.604v-17.761c-0.065-2.802,1.273-4.204,4.075-4.204h4.329V132.823z"/>
	<path fill="#BAB8D4" d="M73.886,118.628h-0.892v18.653c0,1.4,0.83,2.166,2.483,2.166h2.613v6.429
		c-2.74,0.26-5.731,0.26-8.914-0.062c-3.183-0.321-4.713-2.291-4.648-6.045v-36.802h4.391c2.229,0,4.074,2.038,4.074,4.264v5.348
		h5.096v1.848C78.091,116.845,76.243,118.628,73.886,118.628z"/>
	<path fill="#BAB8D4" d="M112.034,129.58c0,11.589-5.159,17.447-15.345,17.447s-15.28-5.858-15.28-17.447
		c0-11.716,5.094-17.509,15.28-17.509S112.034,117.864,112.034,129.58z M90.004,129.58c0.064,6.562,2.294,9.867,6.623,9.867
		c4.328,0,6.493-3.441,6.558-10.124c0-6.558-2.165-9.803-6.496-9.803C92.233,119.52,90.004,122.895,90.004,129.58z"/>
	<path fill="#BAB8D4" d="M131.531,147.027c-10.184,0-15.405-5.858-15.661-17.447c0-11.525,5.158-17.317,15.537-17.509
		c8.149,0,12.986,3.628,14.454,10.951h-9.233c-1.021-2.294-2.806-3.502-5.48-3.502c-4.453,0-6.683,3.375-6.683,10.06
		c0,6.686,2.356,10.06,7.066,9.993c1.976,0,3.691-0.826,5.097-2.416c0.824-0.829,1.783-1.213,2.866-1.213h6.367
		C144.331,142.822,139.365,147.214,131.531,147.027z"/>
	<path fill="#BAB8D4" d="M180.703,129.58c0,11.589-5.158,17.447-15.346,17.447s-15.278-5.858-15.278-17.447
		c0-11.716,5.091-17.509,15.278-17.509S180.703,117.864,180.703,129.58z M158.675,129.58c0.062,6.562,2.291,9.867,6.62,9.867
		s6.496-3.441,6.559-10.124c0-6.558-2.167-9.803-6.496-9.803C160.904,119.52,158.675,122.895,158.675,129.58z"/>
	<path fill="#BAB8D4" d="M215.867,107.231v24.452c0,10.118-5.288,15.147-15.792,15.085c-10.441-0.187-15.666-5.858-15.666-17.061
		c0-11.462,4.457-17.317,13.437-17.636c4.199,0,7.45,1.718,9.612,5.22v-14.324h4.204
		C213.954,102.967,215.867,104.939,215.867,107.231z M193.133,129.323c-0.062,6.818,2.229,10.25,7.066,10.25
		c4.843,0,7.259-3.432,7.259-10.25c-0.187-6.493-2.546-9.676-7.129-9.676C195.741,119.647,193.388,122.83,193.133,129.323z"/>
	<path fill="#BAB8D4" d="M234.726,147.027c-10.182-0.322-15.278-6.242-15.278-17.704c0-11.459,5.158-17.19,15.413-17.252
		c10.69,0,15.719,6.558,15.087,19.736h-21.774c0.316,5.159,2.546,7.767,6.688,7.767c1.971,0,3.815-0.826,5.475-2.416
		c0.763-0.829,1.716-1.213,2.862-1.213h6.242C247.594,143.076,243.011,147.027,234.726,147.027z M228.297,125.759h12.671
		c-0.508-4.456-2.613-6.75-6.242-6.75S228.935,121.303,228.297,125.759z"/>
</g>
</svg>
