<?xml version="1.0" encoding="utf-8"?>
<!-- Generator: Adobe Illustrator 16.0.0, SVG Export Plug-In . SVG Version: 6.00 Build 0)  -->
<!DOCTYPE svg PUBLIC "-//W3C//DTD SVG 1.1//EN" "http://www.w3.org/Graphics/SVG/1.1/DTD/svg11.dtd">
<svg version="1.1" id="Layer_1" xmlns="http://www.w3.org/2000/svg" xmlns:xlink="http://www.w3.org/1999/xlink" x="0px" y="0px"
	 width="250px" height="250px" viewBox="0 0 250 250" enable-background="new 0 0 250 250" xml:space="preserve">
<g>
	<g>
		<path fill="#BAB8D4" d="M38.275,69.185H22.492C24.39,57.554,32.579,51.86,47.053,51.86c17.325,0,26.108,5.693,26.466,17.324
			v21.354c0,17.334-10.445,25.044-27.412,26.232c-15.074,1.189-25.515-5.817-25.515-19.7c0.358-15.069,11.272-19.104,27.176-20.65
			c6.764-0.832,10.204-2.847,10.204-6.287c-0.357-3.56-3.677-5.344-10.204-5.344C42.188,64.791,39.105,66.218,38.275,69.185z
			 M58.209,89.833v-5.817c-3.677,1.547-7.948,2.852-12.577,3.799c-6.291,1.188-9.493,4.155-9.493,8.782
			c0.352,4.984,2.966,7.354,7.947,7.354C52.871,103.95,58.209,98.734,58.209,89.833z"/>
		<path fill="#BAB8D4" d="M133.948,90.539c0,10.803-2.73,17.922-8.305,21.373c-5.58,3.198-11.75,4.86-18.514,4.86
			c-6.526,0-12.343-1.787-17.803-5.344c-5.454-3.44-8.183-10.32-8.183-20.889V52.807h15.778v40.94
			c0,7.006,3.561,10.444,10.681,10.444c7.121,0,10.683-3.438,10.683-10.444V60.641c-0.121-5.222,2.373-7.834,7.595-7.834h8.068
			V90.539z"/>
		<path fill="#BAB8D4" d="M158.306,64.081h-1.662v34.767c0,2.61,1.546,4.038,4.629,4.038h4.871v11.982
			c-5.107,0.484-10.683,0.484-16.614-0.116c-5.935-0.599-8.784-4.271-8.664-11.267V34.891h8.185c4.154,0,7.594,3.799,7.594,7.949
			v9.967h9.5v3.444C166.144,60.757,162.698,64.081,158.306,64.081z"/>
		<path fill="#BAB8D4" d="M229.409,84.494c0,21.601-9.615,32.52-28.602,32.52c-18.987,0-28.48-10.919-28.48-32.52
			c0-21.836,9.493-32.634,28.48-32.634C219.794,51.86,229.409,62.658,229.409,84.494z M188.346,84.494
			c0.121,12.23,4.278,18.392,12.345,18.392c8.067,0,12.103-6.415,12.225-18.87c0-12.224-4.035-18.271-12.107-18.271
			C192.502,65.745,188.346,72.035,188.346,84.494z"/>
	</g>
	<g>
		<path fill="#BAB8D4" d="M29.19,215.099c-18.981,0-28.712-10.919-29.19-32.52c0-21.481,9.614-32.277,28.959-32.636
			c15.189,0,24.205,6.764,26.94,20.412h-17.21c-1.904-4.274-5.229-6.527-10.215-6.527c-8.3,0-12.455,6.29-12.455,18.751
			c0,12.462,4.392,18.75,13.17,18.626c3.683,0,6.88-1.539,9.5-4.503c1.537-1.545,3.324-2.261,5.342-2.261h11.868
			C53.047,207.262,43.792,215.446,29.19,215.099z"/>
		<path fill="#BAB8D4" d="M120.84,182.579c0,21.601-9.614,32.52-28.602,32.52s-28.477-10.919-28.477-32.52
			c0-21.838,9.489-32.636,28.477-32.636S120.84,160.741,120.84,182.579z M79.782,182.579c0.116,12.23,4.27,18.392,12.339,18.392
			s12.108-6.414,12.225-18.87c0-12.223-4.039-18.272-12.108-18.272C83.938,163.828,79.782,170.118,79.782,182.579z"/>
		<path fill="#BAB8D4" d="M186.381,140.923v45.575c0,18.859-9.856,28.233-29.435,28.117c-19.462-0.348-29.199-10.92-29.199-31.799
			c0-21.365,8.307-32.277,25.044-32.873c7.826,0,13.886,3.204,17.916,9.731v-26.699h7.836
			C182.814,132.976,186.381,136.652,186.381,140.923z M144.007,182.101c-0.115,12.709,4.155,19.104,13.171,19.104
			c9.025,0,13.529-6.396,13.529-19.104c-0.348-12.103-4.745-18.036-13.287-18.036C148.868,164.064,144.481,169.998,144.007,182.101z
			"/>
		<path fill="#BAB8D4" d="M221.53,215.099c-18.978-0.601-28.478-11.634-28.478-32.998c0-21.359,9.614-32.04,28.729-32.157
			c19.926,0,29.298,12.225,28.12,36.786h-40.585c0.59,9.616,4.745,14.476,12.465,14.476c3.673,0,7.111-1.539,10.204-4.503
			c1.421-1.545,3.198-2.261,5.335-2.261h11.635C245.515,207.734,236.973,215.099,221.53,215.099z M209.548,175.459h23.617
			c-0.947-8.308-4.871-12.581-11.635-12.581S210.736,167.151,209.548,175.459z"/>
	</g>
</g>
</svg>
