<?xml version="1.0" encoding="utf-8"?>
<!-- Generator: Adobe Illustrator 19.1.0, SVG Export Plug-In . SVG Version: 6.00 Build 0)  -->
<svg version="1.1" id="Capa_1" xmlns="http://www.w3.org/2000/svg" xmlns:xlink="http://www.w3.org/1999/xlink" x="0px" y="0px"
	 viewBox="-456 257.6 46.4 46.4" style="enable-background:new -456 257.6 46.4 46.4;" xml:space="preserve">
<g>
	<path d="M-415.8,274.7h-10.9v-10.9c0-3.4-2.8-6.1-6.2-6.1c-3.4,0-6.2,2.7-6.2,6.1v10.9h-10.9c-3.4,0-6.1,2.7-6.1,6.1
		c0,3.4,2.8,6.1,6.1,6.1h10.9v10.9c0,3.4,2.8,6.1,6.2,6.1c3.4,0,6.2-2.7,6.2-6.1V287l10.9,0c3.4,0,6.1-2.8,6.1-6.1
		C-409.6,277.4-412.4,274.7-415.8,274.7z"/>
</g>
</svg>
