<?xml version="1.0" encoding="utf-8"?>
<!-- Generator: Adobe Illustrator 19.1.0, SVG Export Plug-In . SVG Version: 6.00 Build 0)  -->
<svg version="1.1" id="Capa_1" xmlns="http://www.w3.org/2000/svg" xmlns:xlink="http://www.w3.org/1999/xlink" x="0px" y="0px"
	 viewBox="-456 258.7 45.3 45.3" style="enable-background:new -456 258.7 45.3 45.3;" xml:space="preserve">
<g>
	<path d="M-415.5,277.9h-1.3V276c0-3-2.5-5.5-5.5-5.5h-9V266c1.2-0.7,2-2,2-3.4c0-2.2-1.8-4-4-4c-2.2,0-4,1.8-4,4
		c0,1.5,0.8,2.7,2,3.4v4.5h-9c-3,0-5.4,2.4-5.4,5.5v1.9h-1.4c-1.7,0-3.1,1.4-3.1,3.1v6.7c0,1.7,1.4,3.1,3.1,3.1h1.4v1.9
		c0,3,2.4,5.4,5.4,5.4h2.6v2.9c0,1.7,1.4,3.1,3.1,3.1h10.6c1.7,0,3.1-1.4,3.1-3.1V298h2.6c3,0,5.5-2.4,5.5-5.4v-1.9h1.3
		c1.7,0,3.1-1.4,3.1-3.1V281C-412.5,279.3-413.8,277.9-415.5,277.9z M-445.3,279.9c0-2,1.6-3.6,3.6-3.6c2,0,3.6,1.6,3.6,3.6
		s-1.6,3.6-3.6,3.6C-443.7,283.5-445.3,281.9-445.3,279.9z M-428.4,293.1h-9.9c-1.6,0-3-1.3-3-3c0-1.6,1.3-2.9,3-2.9h9.9
		c1.6,0,3,1.3,3,2.9S-426.8,293.1-428.4,293.1z M-424.9,283.5c-2,0-3.6-1.6-3.6-3.6s1.6-3.6,3.6-3.6c2,0,3.6,1.6,3.6,3.6
		S-422.9,283.5-424.9,283.5z"/>
</g>
</svg>
