<?xml version="1.0" encoding="utf-8"?>
<!-- Generator: Adobe Illustrator 19.1.0, SVG Export Plug-In . SVG Version: 6.00 Build 0)  -->
<svg version="1.1" id="Capa_1" xmlns="http://www.w3.org/2000/svg" xmlns:xlink="http://www.w3.org/1999/xlink" x="0px" y="0px"
	 viewBox="-432 234 94 94" style="enable-background:new -432 234 94 94;" xml:space="preserve">
<style type="text/css">
	.st0{fill:#030104;}
</style>
<g>
	<path class="st0" d="M-345.2,305v-11.5c0-6.9-4.6-17.2-17.2-17.2h-10c-7.1,0-7.7-3.5-7.8-5.2v-14c4.3-1.8,7.2-6.1,7.2-11
		c0-6.6-5.4-12-12-12s-12,5.4-12,12c0,4.9,3,9.2,7.2,11v14c0,1.3-0.4,5.2-7.8,5.2h-10c-12.7,0-17.2,10.3-17.2,17.2V305
		c-4.3,1.8-7.2,6.1-7.2,11c0,6.6,5.4,12,12,12s12-5.4,12-12c0-4.9-3-9.2-7.2-11v-11.5c0-1.3,0.4-7.8,7.8-7.8h10c3,0,5.6-0.5,7.8-1.2
		V305c-4.3,1.8-7.2,6.1-7.2,11c0,6.6,5.4,12,12,12s12-5.4,12-12c0-4.9-3-9.2-7.2-11v-20.5c2.2,0.8,4.7,1.2,7.8,1.2h10
		c7.1,0,7.7,6,7.8,7.8V305c-4.3,1.8-7.2,6.1-7.2,11c0,6.6,5.4,12,12,12s12-5.4,12-12C-338,311.1-341,306.8-345.2,305z M-413.1,316
		c0,3.8-3.1,6.9-6.9,6.9c-3.8,0-6.9-3.1-6.9-6.9s3.1-6.9,6.9-6.9C-416.2,309.1-413.1,312.2-413.1,316z M-391.9,246
		c0-3.8,3.1-6.9,6.9-6.9c3.8,0,6.9,3.1,6.9,6.9s-3.1,6.9-6.9,6.9C-388.8,252.9-391.9,249.8-391.9,246z M-378.1,316
		c0,3.8-3.1,6.9-6.9,6.9c-3.8,0-6.9-3.1-6.9-6.9s3.1-6.9,6.9-6.9C-381.2,309.1-378.1,312.2-378.1,316z M-350,322.9
		c-3.8,0-6.9-3.1-6.9-6.9s3.1-6.9,6.9-6.9c3.8,0,6.9,3.1,6.9,6.9S-346.2,322.9-350,322.9z"/>
</g>
</svg>
