<?xml version="1.0" encoding="utf-8"?>
<!-- Generator: Adobe Illustrator 19.1.0, SVG Export Plug-In . SVG Version: 6.00 Build 0)  -->
<svg version="1.1" id="Capa_1" xmlns="http://www.w3.org/2000/svg" xmlns:xlink="http://www.w3.org/1999/xlink" x="0px" y="0px"
	 viewBox="-463 265.3 31.7 31.7" style="enable-background:new -463 265.3 31.7 31.7;" xml:space="preserve">
<g>
	<path d="M-431.6,275.2l-6.5,6.3l-1.3-1.4l4.9-4.8c0.5-0.5,0.5-1.2,0-1.7l-4.4-4.6c-0.2-0.2-0.5-0.4-0.8-0.4c-0.3,0-0.6,0.1-0.9,0.3
		l-3.9,3.7l3.4,3.5c0.3,0.3,0.3,0.8,0,1c-0.2,0.2-0.5,0.3-0.8,0.2l-4.9-5.2l6.4-6.2c0.4-0.4,1-0.4,1.4,0l7.4,7.7
		C-431.2,274.2-431.2,274.8-431.6,275.2z M-453.7,293.8c-0.2,0.2-0.5,0.3-0.9,0.3c-0.3,0-0.6-0.1-0.8-0.4l-4.4-4.6
		c-0.5-0.5-0.4-1.2,0-1.7l2,2.1c0.3,0.3,0.7,0.3,1,0s0.3-0.7,0-1l-2-2.1l0.5-0.5l2,2.1c0.3,0.3,0.7,0.3,1,0c0.3-0.3,0.3-0.7,0-1
		l-2-2.1l0.5-0.5l2,2.1c0.3,0.3,0.7,0.3,1,0c0.3-0.3,0.3-0.7,0-1l-2-2.1l0.5-0.5l2,2.1c0.3,0.3,0.7,0.3,1,0c0.1-0.1,0.2-0.2,0.2-0.4
		l-3.7-4l-7.2,6.9c-0.4,0.4-0.4,1,0,1.4l7.4,7.7c0.4,0.4,1,0.4,1.4,0l7.1-6.8l-1.3-1.4L-453.7,293.8z M-440.8,274.9
		c-0.9-1-0.9-2.5,0.1-3.4c1-0.9,2.5-0.9,3.4,0.1c0.9,1,0.9,2.5-0.1,3.4C-438.3,275.9-439.8,275.9-440.8,274.9z M-439.7,273.9
		c0.4,0.4,1,0.4,1.4,0c0.4-0.4,0.4-1,0-1.4c-0.4-0.4-1-0.4-1.4,0S-440.1,273.5-439.7,273.9z M-435.8,286.4l-6.4,6l-14.2-15.1l6.4-6
		L-435.8,286.4z M-448.9,275.5c0-0.1,0-0.3-0.2-0.4l-0.7-0.7c-0.2-0.2-0.6-0.2-0.8,0l-0.4,0.4c-0.2,0.2-0.2,0.6,0,0.8l0.7,0.7
		c0.1,0.1,0.2,0.2,0.4,0.2c0.1,0,0.8-0.5,0.8-0.5C-449,275.8-448.9,275.7-448.9,275.5z M-439.1,286.6c0.2-0.2,0.2-0.6,0-0.8l-8-8.5
		c-0.1-0.1-0.2-0.2-0.4-0.2c-0.1,0-0.3,0.1-0.4,0.1l-0.4,0.4c-0.2,0.2-0.2,0.6,0,0.8l8,8.5c0.1,0.1,0.2,0.2,0.4,0.2
		c0.1,0,0.3-0.1,0.4-0.2L-439.1,286.6z M-457,276.7l6.4-6l-1.6-1.7l-6.4,6L-457,276.7z M-461.5,271.9c-0.3-0.4-0.5-0.9-0.5-1.4
		c0-0.5,0.2-1,0.6-1.3l3.6-3.4c0.8-0.7,2-0.7,2.7,0.1l2.2,2.4l-6.4,6L-461.5,271.9z M-460.4,270.6l1.2,1.2l3.9-3.6l-1.2-1.2
		L-460.4,270.6z M-432.6,295c0.1,0.3,0,0.7-0.3,1c-0.3,0.2-0.6,0.3-1,0.2l-7.6-2.9l6.4-6L-432.6,295z M-434.6,292.4l-1-3l-3.7,3.5
		l3,1.1L-434.6,292.4z"/>
</g>
</svg>
