<?xml version="1.0" encoding="utf-8"?>
<!-- Generator: Adobe Illustrator 19.1.0, SVG Export Plug-In . SVG Version: 6.00 Build 0)  -->
<svg version="1.1" id="Layer_1" xmlns="http://www.w3.org/2000/svg" xmlns:xlink="http://www.w3.org/1999/xlink" x="0px" y="0px"
	 viewBox="-248 49.4 462.5 462.5" style="enable-background:new -248 49.4 462.5 462.5;" xml:space="preserve">
<style type="text/css">
	.st0{fill:#543729;}
	.st1{fill:#00ACEE;}
	.st2{fill:#2BAF2B;}
	.st3{fill:#FFCC2F;}
	.st4{fill:#CECECE;}
	.st5{fill:#EF5734;}
	.st6{fill:#FFFFFF;}
</style>
<g>
	<path id="outline" class="st0" d="M205.7,276c-23.8-22.9-142.7-37.1-180.3-41.3c1.8-4.3,3.4-8.7,4.6-13.3
		c5.1-2.2,10.6-4.3,16.4-6.1c0.7,2.1,4,9.9,5.8,13.7c75.5,2.1,79.4-56.1,82.4-72c3-15.6,2.8-30.6,28.7-58.2
		c-38.6-11.2-94,17.4-112.6,60.1c-7-2.6-14-4.5-20.9-5.7c-5-20-30.8-75.7-98.6-75.7C-154.5,77.4-248,148.2-248,268
		c0,100.7,68.8,189,107.6,189c17,0,31.6-12.7,35-24.1c2.9,7.8,11.7,32.1,14.6,38.3c4.3,9.1,24.1,17,32.7,7.6
		c11.1,6.2,31.6,9.9,42.7-6.6c21.4,4.5,40.4-8.3,40.8-23.5c10.5-0.6,15.7-15.3,13.4-27.1c-1.7-8.7-19.8-39.7-26.8-50.5
		c14,11.4,49.4,14.6,53.7,0c22.5,17.7,57.6,8.4,60.4-6c27.4,7.1,58.8-8.5,53.6-27.4C223.7,334.6,218,287.8,205.7,276z"/>
	<g id="leaf">
		<path class="st1" d="M83.3,176.2c9.5-18.8,21.4-39.3,36.4-52c-16.5,6.7-32.9,26.6-42.5,47.9c-4.9-3.1-9.9-5.9-15-8.4
			c13.5-28.8,44.8-52.8,79.3-54.7c-23.1,21-14.9,64.5-33.9,87.6C102.1,191.2,89.6,180.7,83.3,176.2z M68.3,206.8
			c0-0.7,0.3-6.3,0.8-8.8c-1.3-0.3-9.6-1.9-13.9-1.8c-0.3,5.4,2.3,14.6,4.8,20.1c17.6-0.4,30.2-5.6,37.7-10.5
			c-6.4-3-17.2-5.6-25.4-7.2C71.4,200.6,69.1,205.4,68.3,206.8z"/>
	</g>
	<path id="wingtip" class="st2" d="M3.1,355.5C3.1,355.5,3.1,355.5,3.1,355.5c-2.2-4.7-4.6-10.5-7.4-18.1c11,16,45.4,7.7,43.6-6.6
		c16.9,12.7,51.6-2.1,43.7-19.9c16.9,7.9,36.2-8,31.8-14.9c28.8,5.6,56.4,11.1,65,13.3c-5.8,9.4-18.9,16-38.6,11.4
		c10.7,14.5-10,32-38.9,22.4c6.4,14.3-19.3,27.1-48.5,12.2C54.2,369.6,17.6,371.3,3.1,355.5z M60.2,283.3
		c33.4,2.6,88.7,7.5,122.9,12.3c-2.2-11.1-8.1-14.3-26.6-19.3C136.5,278.5,85.8,283.5,60.2,283.3z"/>
	<path id="body" class="st3" d="M39.3,330.8c16.9,12.7,51.6-2.1,43.7-19.9c16.9,7.9,36.2-8,31.8-14.9c-34-6.6-69.7-13.1-77.8-14.3
		c4.9,0.3,13.1,0.8,23.2,1.6c25.6,0.1,76.3-4.8,96.2-7c-32.3-8.2-98.4-20.2-144-23.1c-2.1,3.1-6,8.3-12.8,13.9
		c-19.9,42.2-56.1,70.3-96.1,70.3c-11.7,0-24.7-2-39.3-6.6c-9.1,9.8-48,17.2-79.5,1.7c25,58.6,83,97.7,147.2,97.7
		c54.1,0,78-55.2,72.8-69.8c-1.3-3.5-6.3-15.3-9.1-22.9C6.7,353.3,41.1,345.1,39.3,330.8z"/>
	<path id="beak" class="st4" d="M6.5,219.6c4.8-2.6,21.3-12.6,37-16.4c-0.2-1.7-0.4-3.5-0.6-5.3c-10.3,2.5-29.8,10.8-40.9-0.7
		c23.5,7.1,35.2-6.3,52.5-6.3c10.3,0,25,2.9,36.6,7.4c-9.3-8.6-39.9-34.6-77.7-34.7C5.1,174-4.1,196.2,6.5,219.6z"/>
	<path id="head" class="st5" d="M-135.7,330.7c14.6,4.7,27.7,6.6,39.3,6.6c40,0,76.1-28.1,96.1-70.3C-15,279.4-40.7,290-80.7,290
		c35.7-8.1,66.4-25.9,82-51.8c-11-17.5-22.9-56.1,7.3-86.7c-4.6-14.9-27.2-54.2-77.2-54.2c-87.2,0-159.5,73-159.5,170.8
		c0,23.2,4.7,44.9,13,64.4C-183.6,347.9-144.8,340.5-135.7,330.7z"/>
	<path id="eye_rim" class="st3" d="M-109.5,181.8c0,22.3,18,40.3,40.3,40.3s40.3-18,40.3-40.3c0-22.3-18-40.3-40.3-40.3
		S-109.5,159.5-109.5,181.8z"/>
	<path id="eye" class="st0" d="M-93.3,181.8c0,13.3,10.8,24.1,24.1,24.1c13.3,0,24.1-10.8,24.1-24.1c0-13.3-10.8-24.1-24.1-24.1
		C-82.5,157.7-93.3,168.5-93.3,181.8z"/>
	<ellipse id="pupil_highlight" class="st6" cx="-69.2" cy="171.1" rx="14.1" ry="8.7"/>
</g>
</svg>
