<?xml version="1.0" encoding="utf-8"?>
<!-- Generator: Adobe Illustrator 19.1.0, SVG Export Plug-In . SVG Version: 6.00 Build 0)  -->
<svg version="1.1"
	 id="svg-001" xmlns:svg="http://www.w3.org/2000/svg" xmlns:cc="http://creativecommons.org/ns#" xmlns:rdf="http://www.w3.org/1999/02/22-rdf-syntax-ns#" xmlns:dc="http://purl.org/dc/elements/1.1/"
	 xmlns="http://www.w3.org/2000/svg" xmlns:xlink="http://www.w3.org/1999/xlink" x="0px" y="0px" viewBox="-399 201 160 160"
	 style="enable-background:new -399 201 160 160;" xml:space="preserve">
<style type="text/css">
	.st0{fill:url(#path7508_1_);}
	.st1{fill:url(#path7510_1_);}
</style>
<title  id="title-001">JSON logo</title>
<linearGradient id="path7508_1_" gradientUnits="userSpaceOnUse" x1="-1066.094" y1="-51.7511" x2="-953.2472" y2="-164.6138" gradientTransform="matrix(0.9988 0 0 -0.9987 688.082 174.4251)">
	<stop  offset="0" style="stop-color:#000000"/>
	<stop  offset="1" style="stop-color:#FFFFFF"/>
</linearGradient>
<path id="path7508" class="st0" d="M-319.1,320.1c35.4,48.3,70-13.5,70-50.6c-0.1-43.9-44.5-68.4-70-68.4c-40.9,0-79.8,33.8-79.8,80
	c0,51.4,44.6,79.9,79.8,79.9c-8-1.1-34.5-6.8-34.9-68c-0.2-41.3,13.5-57.9,34.8-50.6c0.5,0.2,23.5,9.3,23.5,39
	C-295.7,310.9-319.1,320.1-319.1,320.1z"/>
<linearGradient id="path7510_1_" gradientUnits="userSpaceOnUse" x1="-948.1379" y1="-159.5045" x2="-1060.9846" y2="-46.6419" gradientTransform="matrix(0.9988 0 0 -0.9987 688.082 174.4251)">
	<stop  offset="0" style="stop-color:#000000"/>
	<stop  offset="1" style="stop-color:#FFFFFF"/>
</linearGradient>
<path id="path7510" class="st1" d="M-319.2,242.4c-23.4-8.1-52,11.2-52,49.8c0,63,46.7,68.8,52.4,68.8c40.9,0,79.8-33.8,79.8-80
	c0-51.4-44.6-79.9-79.8-79.9c9.7-1.4,52.5,10.5,52.5,69c0,38.1-32,58.9-52.7,50c-0.5-0.2-23.5-9.3-23.5-39
	C-342.5,251.7-319.2,242.4-319.2,242.4z"/>
</svg>
