<?xml version="1.0" encoding="utf-8"?>
<!-- Generator: Adobe Illustrator 16.0.0, SVG Export Plug-In . SVG Version: 6.00 Build 0)  -->
<!DOCTYPE svg PUBLIC "-//W3C//DTD SVG 1.1//EN" "http://www.w3.org/Graphics/SVG/1.1/DTD/svg11.dtd">
<svg version="1.1" id="Layer_1" xmlns="http://www.w3.org/2000/svg" xmlns:xlink="http://www.w3.org/1999/xlink" x="0px" y="0px"
	 width="199.998px" height="200.002px" viewBox="0 0 199.998 200.002" enable-background="new 0 0 199.998 200.002"
	 xml:space="preserve">
<g>
	<g>
		<path fill="#333333" d="M177.79,77.28c-0.057-0.19-0.107-0.382-0.164-0.572c-0.68-2.272-1.473-4.519-2.356-6.738
			c-0.104-0.254-0.198-0.516-0.305-0.77c-0.88-2.142-1.868-4.25-2.938-6.329c-0.158-0.301-0.305-0.609-0.466-0.907
			c-0.351-0.659-0.72-1.309-1.088-1.958l10.205-20.738L160.15,18.74l-20.966,10.315c-0.385-0.214-0.77-0.421-1.158-0.629
			c-0.301-0.161-0.605-0.308-0.906-0.465c-2.076-1.071-4.184-2.059-6.33-2.939c-0.254-0.104-0.512-0.201-0.77-0.305
			c-2.216-0.884-4.461-1.677-6.734-2.356c-0.19-0.057-0.389-0.107-0.579-0.164c-0.087-0.027-0.174-0.05-0.261-0.074L114.915,0
			H85.886l-7.447,21.876c-0.385,0.107-0.77,0.218-1.155,0.329c-0.194,0.057-0.388,0.107-0.579,0.164
			c-2.273,0.68-4.515,1.473-6.735,2.356c-0.254,0.104-0.515,0.198-0.77,0.305c-2.146,0.88-4.254,1.868-6.33,2.939
			c-0.301,0.154-0.605,0.305-0.904,0.462c-0.388,0.208-0.776,0.418-1.162,0.629L39.84,18.744L19.313,39.271L29.518,60.01
			c-0.368,0.649-0.736,1.295-1.088,1.955c-0.161,0.301-0.312,0.609-0.469,0.914c-1.071,2.075-2.059,4.184-2.936,6.326
			c-0.104,0.254-0.201,0.512-0.305,0.77c-0.884,2.219-1.677,4.465-2.356,6.738c-0.057,0.19-0.107,0.381-0.164,0.572
			c-0.113,0.385-0.221,0.773-0.328,1.162L0,85.893v29.029l22.124,7.531c0.026,0.09,0.05,0.18,0.077,0.268
			c0.054,0.189,0.104,0.381,0.161,0.568c0.68,2.272,1.473,4.519,2.356,6.738c0.104,0.254,0.198,0.516,0.305,0.77
			c0.88,2.143,1.868,4.25,2.939,6.329c0.157,0.302,0.305,0.609,0.465,0.911c0.351,0.658,0.72,1.309,1.088,1.954L19.31,160.729
			l20.527,20.528l20.966-10.316c0.385,0.215,0.77,0.422,1.158,0.629c0.301,0.161,0.605,0.309,0.91,0.466
			c2.075,1.071,4.184,2.059,6.329,2.938c0.255,0.104,0.513,0.201,0.77,0.305c2.219,0.885,4.465,1.678,6.738,2.357
			c0.191,0.057,0.382,0.106,0.572,0.164c0.09,0.026,0.178,0.05,0.268,0.076l7.531,22.125h29.029l7.447-21.873
			c0.389-0.107,0.773-0.218,1.162-0.328c0.189-0.058,0.381-0.107,0.572-0.164c2.271-0.68,4.518-1.473,6.737-2.357
			c0.255-0.104,0.515-0.197,0.771-0.305c2.141-0.88,4.25-1.864,6.325-2.936c0.305-0.156,0.612-0.308,0.913-0.469
			c0.389-0.207,0.773-0.414,1.158-0.629l20.967,10.316l20.527-20.528l-10.205-20.738c0.367-0.649,0.736-1.299,1.088-1.958
			c0.16-0.298,0.308-0.603,0.461-0.904c1.072-2.078,2.059-4.187,2.939-6.328c0.104-0.255,0.201-0.513,0.305-0.771
			c0.884-2.22,1.677-4.466,2.356-6.737c0.057-0.188,0.106-0.383,0.161-0.569c0.113-0.386,0.225-0.773,0.331-1.161l21.873-7.447
			V85.086l-22.124-7.531C177.839,77.458,177.816,77.367,177.79,77.28z M111.728,156.401c-0.05,0.01-0.097,0.026-0.147,0.036
			c-1.604,0.328-3.243,0.556-4.89,0.75c-0.288,0.033-0.569,0.098-0.856,0.127c-1.922,0.194-3.867,0.295-5.838,0.295
			c-1.971,0-3.916-0.101-5.837-0.295c-0.288-0.029-0.569-0.094-0.857-0.127c-1.647-0.19-3.287-0.418-4.89-0.75
			c-0.05-0.01-0.101-0.026-0.154-0.036c-22.365-4.649-40.017-22.302-44.667-44.667c-0.01-0.05-0.026-0.1-0.037-0.154
			c-0.328-1.604-0.555-3.239-0.75-4.89c-0.034-0.288-0.097-0.569-0.127-0.856c-0.194-1.922-0.294-3.866-0.294-5.837
			s0.101-3.916,0.294-5.837c0.03-0.288,0.094-0.569,0.127-0.856c0.19-1.65,0.418-3.287,0.75-4.891
			c0.01-0.05,0.027-0.097,0.037-0.147c4.649-22.382,22.318-40.044,44.7-44.68c0.04-0.007,0.077-0.021,0.117-0.03
			c1.617-0.332,3.271-0.562,4.93-0.753c0.274-0.03,0.542-0.094,0.816-0.121c1.921-0.194,3.87-0.294,5.84-0.294
			c1.971,0,3.92,0.1,5.84,0.294c0.275,0.026,0.543,0.09,0.816,0.121c1.664,0.19,3.314,0.421,4.931,0.753
			c0.04,0.006,0.077,0.02,0.116,0.03c22.386,4.639,40.052,22.301,44.7,44.68c0.011,0.05,0.026,0.097,0.037,0.147
			c0.328,1.604,0.556,3.244,0.749,4.891c0.033,0.288,0.098,0.569,0.128,0.856c0.194,1.921,0.294,3.866,0.294,5.837
			c0,1.972-0.1,3.916-0.294,5.837c-0.03,0.287-0.095,0.568-0.128,0.856c-0.189,1.647-0.418,3.286-0.749,4.89
			c-0.011,0.051-0.026,0.102-0.037,0.154C151.752,134.104,134.096,151.756,111.728,156.401z"/>
		<circle fill="#333333" cx="99.997" cy="99.997" r="8.786"/>
	</g>
</g>
</svg>
