<?xml version="1.0" encoding="utf-8"?>
<!-- Generator: Adobe Illustrator 19.1.0, SVG Export Plug-In . SVG Version: 6.00 Build 0)  -->
<svg version="1.1" id="Layer_1" xmlns="http://www.w3.org/2000/svg" xmlns:xlink="http://www.w3.org/1999/xlink" x="0px" y="0px"
	 viewBox="-229 80.5 500 362.1" style="enable-background:new -229 80.5 500 362.1;" xml:space="preserve">
<style type="text/css">
	.st0{fill:#18112E;}
	.st1{fill:#196097;}
	.st2{fill:#CCC9E4;}
	.st3{fill:#2B1F51;}
	.st4{fill:#FFFFFF;}
	.st5{fill:#CCC9E2;}
	.st6{fill:#BEBCD7;}
	.st7{fill:#BEBADD;}
	.st8{fill:#381F59;}
	.st9{fill:#0F143C;}
	.st10{fill:#030204;}
</style>
<path class="st0" d="M49.4,312.5c-10.4-1.1-14.9,1.7-13.4,8.3c5.9,5.9,7,12.7,3.2,20.5c-2,3.4-3.4,8.1-4.2,14.3
	c1.4-0.5,2.5-1.4,3.3-2.8c0,0-0.1,2.3-0.3,6.8c2.4-1.2,4-3.2,4.7-6c0,0,0.1,1.8,0.2,5.3c3-2.8,3.9-7,2.8-12.6
	C59.3,335.9,60.5,324.6,49.4,312.5"/>
<path class="st1" d="M-210,391.3H-227c2-12.5,10.8-18.6,26.4-18.6c18.6,0,28,6.1,28.4,18.6v22.9c0,18.6-11.2,26.9-29.4,28.1
	c-16.2,1.3-27.4-6.2-27.4-21.1c0.4-16.2,12.1-20.5,29.2-22.2c7.3-0.9,10.9-3.1,10.9-6.7c-0.4-3.8-3.9-5.7-10.9-5.7
	C-205.8,386.6-209.1,388.1-210,391.3z M-188.6,413.5v-6.2c-3.9,1.7-8.5,3.1-13.5,4.1c-6.8,1.3-10.2,4.5-10.2,9.4
	c0.4,5.4,3.2,7.9,8.5,7.9C-194.4,428.6-188.6,423-188.6,413.5z"/>
<path class="st1" d="M-107.4,414.2c0,11.6-2.9,19.2-8.9,22.9c-6,3.4-12.6,5.2-19.9,5.2c-7,0-13.2-1.9-19.1-5.7
	c-5.9-3.7-8.8-11.1-8.8-22.4v-40.5h16.9v43.9c0,7.5,3.8,11.2,11.5,11.2s11.5-3.7,11.5-11.2v-35.5c-0.1-5.6,2.5-8.4,8.1-8.4h8.7
	L-107.4,414.2L-107.4,414.2z"/>
<path class="st1" d="M-81.2,385.8H-83v37.3c0,2.8,1.7,4.3,5,4.3h5.2v12.9c-5.5,0.5-11.5,0.5-17.8-0.1c-6.4-0.6-9.4-4.6-9.3-12.1
	v-73.6h8.8c4.5,0,8.1,4.1,8.1,8.5v10.7h10.2v3.7C-72.8,382.3-76.5,385.8-81.2,385.8z"/>
<path class="st1" d="M-4.9,407.7c0,23.2-10.3,34.9-30.7,34.9c-20.4,0-30.6-11.7-30.6-34.9c0-23.4,10.2-35,30.6-35
	C-15.2,372.7-4.9,384.3-4.9,407.7z M-49,407.7c0.1,13.1,4.6,19.7,13.2,19.7s13-6.9,13.1-20.2c0-13.1-4.3-19.6-13-19.6
	C-44.5,387.6-49,394.4-49,407.7z"/>
<path class="st1" d="M34.1,442.6c-20.4,0-30.8-11.7-31.3-34.9c0-23,10.3-34.6,31.1-35c16.3,0,26,7.3,28.9,21.9H44.3
	c-2-4.6-5.6-7-11-7c-8.9,0-13.4,6.7-13.4,20.1c0,13.4,4.7,20.1,14.1,20c4,0,7.4-1.6,10.2-4.8c1.6-1.7,3.6-2.4,5.7-2.4h12.7
	C59.7,434.2,49.7,443,34.1,442.6z"/>
<path class="st1" d="M132.4,407.7c0,23.2-10.3,34.9-30.7,34.9s-30.6-11.7-30.6-34.9c0-23.4,10.2-35,30.6-35
	C122.1,372.7,132.4,384.3,132.4,407.7z M88.4,407.7c0.1,13.1,4.6,19.7,13.2,19.7c8.7,0,13-6.9,13.1-20.2c0-13.1-4.3-19.6-13-19.6
	C92.8,387.6,88.4,394.4,88.4,407.7z"/>
<path class="st1" d="M202.7,363v48.9c0,20.2-10.6,30.3-31.6,30.2c-20.9-0.4-31.3-11.7-31.3-34.1c0-22.9,8.9-34.6,26.9-35.3
	c8.4,0,14.9,3.4,19.2,10.4v-28.6h8.4C198.9,354.5,202.7,358.4,202.7,363z M157.3,407.2c-0.1,13.6,4.5,20.5,14.1,20.5
	c9.7,0,14.5-6.9,14.5-20.5c-0.4-13-5.1-19.4-14.3-19.4C162.5,387.9,157.8,394.2,157.3,407.2z"/>
<path class="st1" d="M240.5,442.6c-20.4-0.6-30.6-12.5-30.6-35.4c0-22.9,10.3-34.4,30.8-34.5c21.4,0,31.4,13.1,30.2,39.5h-43.5
	c0.6,10.3,5.1,15.5,13.4,15.5c3.9,0,7.6-1.6,11-4.8c1.5-1.7,3.4-2.4,5.7-2.4h12.5C266.2,434.7,257,442.6,240.5,442.6z M227.6,400.1
	h25.3c-1-8.9-5.2-13.5-12.5-13.5S228.9,391.2,227.6,400.1z"/>
<path class="st0" d="M66.7,258.1c-8.3,4.6-15.4,13.6-21.5,27.1c8.7-4.2,13,1.8,12.9,17.9c10.6,3.6,13.2,13.2,7.8,28.9
	c13,7,22,18.5,26.9,34.4c20.9-4.8,35,1.9,42.3,20c35.6-34.5,41.5-73.8,17.6-117.8C117.8,295,89.1,291.5,66.7,258.1"/>
<path class="st0" d="M17.3,243c1.8,11.1-1.4,24.4-9.5,39.9c-2.5-11.2-11.2-11-26.3,0.5c-11.2-7.5-22.1-3-32.7,13.3
	c-16.2-7.3-33.5-7.6-52-1c-10.9-23.3-27.6-32-49.9-25.9c6.1-58.6,38.5-92.2,97.3-101C-54.9,220.8-30.5,245.6,17.3,243"/>
<path class="st0" d="M-62.8,170.1c1.4,4.5,2.1,6.8,2.1,6.8c0.3-0.6,0.5-1.1,0.8-1.7l0.1,2.2c-0.3,0.1-0.5,0.2-0.8,0.3
	c-1.1,4.6-1.7,6.9-1.7,6.9c5.8-4,12.4-5.3,19.7-3.7c4.2,1.7,5.9,0.6,4.9-3.4c-1.4-4.8-7.2-5.4-17.4-1.9c3.7-2.7,8.1-4.3,13.3-4.7
	c4.5,0.5,5.8-1.1,3.8-4.6c-2.8-4.3-8.9-3.1-18.2,3.7c2.7-2.9,6.2-5.1,10.4-6.5c4.5-0.7,5.3-2.5,2.5-5.4
	C-47.5,154.2-54,158.2-62.8,170.1"/>
<path class="st0" d="M17.3,243c29.4,8.8,47.9,16.7,55.5,23.7c-12.1,8-16.3,17.3-12.6,28.1c9.8,25.2,3,41.4-20.6,48.6
	c-32.7,3.4-50.8-6.3-54.3-29C-17.3,294.5-6.6,270.7,17.3,243"/>
<path class="st0" d="M17.6,218.1C52.1,187.3,69.4,172,69.4,172c-8.5-8.6-13.4-26.7-14.4-54.2c2.5-35.8-2.3-45.8-14.3-29.9
	C5.7,123.8-5,151.4,8.9,170.6C21,189.1,23.9,204.9,17.6,218.1"/>
<path class="st0" d="M113.4,173.6c-14.8,24.4-7.2,36,22.8,34.8c2.6-4.5,5.4-7,8.4-7.4c16.6,0.9,25.7-11.6,27.2-37.3
	c1-30.6-3.2-51.6-12.6-63.1c-7.4-9.8-12.2-7.1-14.3,8.2C136.7,151.9,126.2,173.5,113.4,173.6"/>
<path class="st2" d="M21,246.9c10.5,3.2,21.1,6.8,31.1,11.1c3.9,1.7,7.9,3.5,11.6,5.6c1.6,0.9,3.2,1.9,4.7,2.9
	c-5.7,4.3-10.5,10-11.8,17.2c-0.7,4-0.2,8,1.1,11.9l0,0.1l0,0.1c8.5,21.8,4.8,37.7-18.6,45.1c-2.1,0.2-4.3,0.4-6.5,0.5
	c-19.2-2.1-28.1-14-26.6-35.5c2.1-23.3,8.9-39.8,20.3-49.4C24.4,253,22.7,249.9,21,246.9"/>
<path class="st0" d="M20.8,206c-0.5,7.6-0.8,11.3-0.8,11.3s-2.7,1.9-8.2,5.7C12.9,217.6,15.9,211.9,20.8,206"/>
<path class="st3" d="M97.6,361.2c16-3.7,28.9,2.6,38.8,18.9c21.8-24.1,30.5-64.7,14.6-97.5C140,307,120.6,340.8,97.6,361.2"/>
<path class="st3" d="M75.7,330.1c12.1,2.9,19.3,11.7,21.8,26.3c20.7-27.7,34.6-51.5,41.7-71.4C118.3,305.1,97.2,320.1,75.7,330.1"/>
<path class="st3" d="M73.5,322.9c1.4-10.5-2.1-18.4-10.5-23.5c22.2,0.3,45-4,68.2-12.9C106.4,307.1,87.2,319.2,73.5,322.9"/>
<path class="st3" d="M67.4,268.7c-3.8,9.9-5.5,18.9-5.2,26.8c20.6-3.5,30.9-5.3,30.9-5.3C81.9,284.5,73.3,277.3,67.4,268.7"/>
<path class="st3" d="M-101.9,287.4c-8.3-17.8-23.8-25.6-46.3-23.4c6.5-38,38-75.3,80.5-83.7C-82.4,208.4-99.7,250.9-101.9,287.4"/>
<path class="st2" d="M142.3,277c-29.7,20.5-55.4,14.5-77-18.1C86.9,289.7,112.5,295.8,142.3,277"/>
<path class="st3" d="M-56.7,286c-11.6-9.4-25.1-10-40.6-1.9c10.7-39.6,22.7-69.8,36.1-90.7C-64.7,227.6-63.2,258.5-56.7,286"/>
<path class="st3" d="M-48.4,283c8.8-8.9,18.7-11.2,29.7-6.8C-35.3,255.3-48,230.5-56.8,202C-57.8,240.3-55,267.3-48.4,283"/>
<path class="st3" d="M6.8,250c-6.5,10.7-13.6,18.8-21.3,24.1c-11.9-22.1-17.8-33.2-17.8-33.2C-18.5,247.5-5.5,250.5,6.8,250"/>
<path class="st2" d="M133.7,386.6c34.2-33.1,40.9-70.7,20.2-112.7l0,3.5C172.5,313.5,168.1,350.5,133.7,386.6"/>
<path class="st2" d="M148.1,283.3c1.6-4.2,0-3.3-0.3-3.2c-1.2,0.3-1.7,3.8-1.7,3.8c-5.3,18.5-23.2,45.4-52,80
	C121.8,332.5,139.9,305.6,148.1,283.3"/>
<path class="st2" d="M136.3,285.4c-25.3,23.9-46.5,35.4-67.8,44.5c22-6.8,44.9-21.7,68.9-44.7C136.6,285.3,136.3,285.4,136.3,285.4"
	/>
<path class="st2" d="M110.1,292.5c-17.6,2.6-34,4.5-49.2,5.5C72,298.4,88.4,296.6,110.1,292.5"/>
<path class="st2" d="M-152.3,271.2c5.8-56.3,36-89.6,90.5-99.9l-3.3,2.5C-112.5,182.1-143.9,212.7-152.3,271.2"/>
<path class="st2" d="M-66.3,183.7c2.8-4.6,3.1-2.3,3.2-2c0.6,1.3-2.2,4.4-2.2,4.4c-13.4,18.2-25.4,54.5-36.5,106.8
	C-92.9,243.8-81,207.4-66.3,183.7"/>
<path class="st2" d="M-59.5,196.4c-3.7,41.2,1.1,69.6,8.4,96.4c-9.8-25.7-12.8-58.3-9-97.6C-59.7,196-59.5,196.4-59.5,196.4"/>
<path class="st2" d="M-56.1,184.7c2.6,43,27.2,63.1,73.7,60.4C-27.1,246.5-51.7,226.4-56.1,184.7"/>
<path class="st2" d="M-46.8,226.4c10.5,18.7,20.9,35.6,31.2,50.8C-24.3,266.9-34.7,249.9-46.8,226.4"/>
<path class="st4" d="M148,109L148,109l0-0.1c0.4-2.9,1-6.5,2.2-9.2c0.3-0.6,1.1-2.2,1.8-2.4c0.5-0.1,1.3,0.4,1.6,0.6
	c1.4,1,2.8,2.6,3.9,4l0,0l0,0c12,14.6,12.6,43.4,12,61.3c-0.6,10.6-3,26.6-13.3,32.5c-3.4,1.9-7.3,2.5-11.2,2.3l-0.2,0l-0.2,0
	c-4.2,0.6-7.4,3.9-9.6,7.4c-7.5,0.2-20.8-0.3-24.7-7.1c-1.6-2.7-1.5-6.2-0.6-9.8c6.1,4.8,15.7,9,28.8,12.6c-2.5-8.7-2.3-19.3,0.6-32
	C144.7,150.1,144.1,129.3,148,109"/>
<path class="st5" d="M134.7,205.5c-7.6,0.2-20.5-0.4-24.3-7.1c-1.4-2.5-1.5-5.6-0.8-8.9c6.1,4.6,15.5,8.7,28.4,12.2
	c-0.1-0.3-0.1-0.5-0.2-0.8c0.3,0.1,0.6,0.2,0.8,0.2C137,202.4,135.8,203.9,134.7,205.5 M148,109L148,109l0-0.1
	c0.4-2.9,1-6.5,2.2-9.2c0.2-0.4,0.6-1.3,1.1-1.9l0,0c0.5-0.1,1.3,0.4,1.6,0.6c1.4,1,2.8,2.7,3.9,4l0,0l0,0
	c12,14.6,12.6,43.4,12,61.3c-0.6,9.8-2.6,24.3-11.2,31c-0.5,0.3-0.9,0.6-1.4,0.9c-3.4,1.9-7.3,2.5-11.2,2.3l-0.3,0l-0.2,0
	c-2,0.3-3.8,1.2-5.3,2.4c-0.3,0.2-0.5,0.4-0.8,0.6c-2.5-8.7-2.3-19.3,0.6-31.9C144.7,150.1,144.1,129.3,148,109z"/>
<path class="st0" d="M90.4,176.7c-2.1-2.9-4.7-5.2-7.9-6.7c-5-2.2-10.5-1.7-15.6-0.1c-6.7,2.1-13.2,6.3-18.8,10.4
	C28,194.1,3.9,216.6,17.3,243c2.2,4.9,5.2,9.4,8.9,13.3c22.2,23.6,68.2,25.5,96.6,13.2l0,0l0,0c14.2-6.6,19.2-17.4,13.3-31.9
	c1-4.6,1.9-9.1,2.9-13.7l0-0.1l0-0.1c1.1-10.7,2-29.5-8.6-36.2c-4.8-3-10.5-2.7-15.8-1.4C107.4,181.8,98.8,177.7,90.4,176.7"/>
<path class="st2" d="M19.7,241.9c2.1,4.9,5,9.1,8.5,12.8v0c6.2,9.9,12.4,19.8,18.6,29.8c0,0-1.2-5.3-3.6-15.9c0,0,5.5,1,16.4,3v0
	c21,5.1,45.2,2.9,62.1-4.4c13.5-6.3,17.4-16,11.7-29.2c0,0,1-4.8,3-14.5c2.9-28-4.5-39.5-22.2-34.4c-1.5,2-2.3,3-2.3,3
	c0.2-1.2,0.7-2.4,1.3-3.6c-8.2-5-15.5-8-21.9-8.9c0.7,3.3,0.6,7-0.3,11.1c-0.2-3.9-0.9-7.7-2-11.4c-5.1-7.9-12.7-10-22.8-6.2
	c-1.5,0.6-3,1.2-4.5,2c-3.7,1.8-7.7,4.4-12,7.5c-1.4,1-2.8,1.9-4.1,2.9c-7.1,6-13.6,13.5-19.5,22.6c0,0,3.3,0,9.8,0
	C21.4,212.1,16,223.4,19.7,241.9"/>
<path class="st0" d="M155.3,273.9c-3.7,1.4-5.6,2.1-5.6,2.1c0.3-0.5,0.5-1,0.7-1.4l-1.5,1.1c0.1,0.2,0.1,0.5,0.2,0.7
	c-2.5,3.2-3.7,4.8-3.7,4.8c-0.3-6-2.8-11.1-7.5-15.1c-3.3-1.9-3.4-3.6-0.3-5.1c3.9-1.5,7.2,2,10.1,10.7c-0.1-3.9-1.3-7.7-3.6-11.3
	c-2.6-2.8-2.2-4.4,1.1-5c4.2-0.4,6.5,4.3,6.8,14.1c0.5-3.3,0.2-6.8-0.9-10.4c-1.8-3.4-1-4.9,2.3-4.5
	C158.1,255.5,158.7,261.9,155.3,273.9"/>
<path class="st0" d="M8.1,324.4C-1,329.6-3,334.5,2.1,339c8.2,1.3,13.1,6.2,14.7,14.7c0.3,3.9,2,8.6,5,14c0.9-1.2,1.2-2.6,1-4.2
	c0,0,1.2,1.9,3.7,5.7c1.2-2.4,1.3-4.9,0.3-7.6c0,0,1.1,1.4,3.3,4.1c0.8-4-1-8-5.2-11.9c2.3-7.8,2.3-14-0.1-18.9l1.6,0.8
	c-1.1-3.2-3.4-5.5-6.9-6.9l0,0C16.6,326.9,12.8,325.3,8.1,324.4"/>
<path class="st0" d="M-4.1,318.6c-4.3-6.8-7.9-8.2-10.6-4.2c0.3,13.1,4.9,21.8,13.8,26.1C-4.9,333.5-6,326.2-4.1,318.6 M-11.8,303.5
	c-0.3-8.1-0.5-12.2-0.5-12.2c-2.9,7.6-4.3,14.5-4.2,20.6C-13.4,306.3-11.8,303.5-11.8,303.5z"/>
<path class="st6" d="M43.6,305.3c1.4-22.3,6-32.8,13.8-31.5c1.7,1.4,3,4.6,3.8,9.8c-1.7-0.4-2.5-0.6-2.5-0.6
	c0.8,3.8,0.8,6.8,0.2,8.9c-1.3-0.9-1.9-1.3-1.9-1.3C56.2,297.7,51.8,302.6,43.6,305.3"/>
<path class="st4" d="M43.6,305.3l0-0.3c7.7-4.3,11.7-10.6,11.9-16.9c1,0.8,1.7,1.4,2.1,2c0-4-0.3-7.1-0.8-9.1c1,0.4,1.9,0.8,2.5,1.2
	c-0.5-3.6-1.5-6.5-3.1-8.6c0.4,0,0.7,0,1.1,0.1c1.7,1.3,3,4.6,3.8,9.8c-1.7-0.4-2.5-0.6-2.5-0.6c0.8,3.8,0.8,6.8,0.2,8.9
	c-1.3-0.9-1.9-1.3-1.9-1.3c-0.3,3-1.3,5.5-2.9,7.7C51.9,300.9,48.4,304.1,43.6,305.3"/>
<path class="st0" d="M55.3,272.7c2.5,0.2,3.7,0.8,3.5,1.8c2.5,3,3.6,7,3.3,12.1c-1.2-1.3-1.8-2-1.8-2c0.6,3,0.3,6.1-0.7,9.4
	c-1-1.3-1.5-1.9-1.5-1.9c-0.4,5.5-5,11.3-14.4,13.2c8.3-4.3,12.5-9.8,12.8-16.2c1,0.8,1.7,1.4,2.1,2c-0.1-4-0.3-7.1-0.8-9.1
	c1,0.4,1.9,0.8,2.5,1.2C59.5,278.3,57.9,274.8,55.3,272.7"/>
<path class="st2" d="M17.4,180.5c-1.9-4-4.1-7.8-6.5-11.4l0,0l0-0.1c-1.6-2.3-2.9-4.7-3.8-7.3c-8.4-24.3,20.2-56.4,35.4-72.1
	l0.1-0.1l0.1-0.1c1.4-1.8,3.2-4,5-5.4c0.4-0.3,1.5-1,2-0.9c0.5,0.1,1,1.2,1.2,1.6c0.8,1.9,1.2,4.4,1.5,6.4c0.4,3.6,0.5,7.4,0.5,11
	c-3,20.8-4.6,37.5-2.2,49.7c3.3,17.1,0.8,21.4-7.7,19.2c-2.3-0.9-5.3,1.3-4.7,7C40.1,190.6,28.9,199.9,17.4,180.5L17.4,180.5z"/>
<path class="st7" d="M51.5,111.3c-2.1,16.6-3,30.2-1,40.6c3.3,17.1,0.8,21.4-7.7,19.2c-2.3-0.9-5.3,1.3-4.7,7
	c1.8,11.8-7.9,20.7-18.7,5.6c7.6,4.6,12.2,3.3,13.9-3.6c-0.4-11.4,2.4-17,8.2-16.7c4.9,1,6.9-1,6-6.1
	C46.5,141.9,47.9,126.6,51.5,111.3z"/>
<path class="st4" d="M86.3,175.9c-4.9-5-11.6-6-20.2-2.9c-1.5,0.6-3,1.2-4.5,2c-3.7,1.8-7.7,4.4-12,7.5c-1.4,1-2.8,1.9-4.1,2.9
	c-7.1,6-13.6,13.5-19.5,22.6h2.9C39.4,186.8,70.8,166.3,86.3,175.9"/>
<path class="st4" d="M35.9,208c-16.2,8.1-21.2,28.6-7.6,46.8C12.9,241.3,14.1,212,35.9,208"/>
<path class="st7" d="M133.7,220.3c-17.8,1.3-26.7,2-26.7,2c6.7-18.3,13-25.8,19.2-25.6C133.4,196.9,135.9,203.7,133.7,220.3"/>
<path class="st7" d="M80.5,223.8c-24.8-14.9-39.6-21.2-39.6-21.2c12.7-19.3,27.5-26.7,40.6-23.1C92,182.4,91.9,196,80.5,223.8"/>
<path class="st4" d="M58.7,247.5c-23.5-2.3-30.1-11.2-20.9-23.9l0,0c-0.9-0.7-2.1-0.3-3.5,1.1c3.1-6.5,8.7-3.6,4-1.7
	c-7,12,1.5,20.5,21.1,22.1c22.5,1.8,37.2,5.2,45.7,9.1c14,6.4,24.6,2.1,23-6.8c1.2,6.7-1.5,10.6-8.2,11.6c-4,0.7-9.1-0.4-15.1-3.4
	C93.1,250.9,77.4,249.3,58.7,247.5"/>
<path class="st8" d="M58.5,246.1c-23.5-2.3-30.1-11.2-20.9-23.9v0c-0.9-0.7-2.1-0.3-3.5,1.1c3.1-6.5,8.7-3.6,4-1.7
	c-7,12,1.5,20.5,21.1,22.1c22.5,1.8,37.2,5.2,45.7,9.1c14,6.4,24.6,2.1,23-6.8c1.2,6.7-1.5,10.6-8.2,11.6c-4,0.7-9.1-0.4-15.1-3.4
	C92.9,249.5,77.3,247.9,58.5,246.1"/>
<path class="st8" d="M100.1,260.1c-5.6,7.7-15.7,5.4-30.4-7C84.1,262.2,94.2,264.5,100.1,260.1"/>
<path class="st8" d="M52.5,226.3c8.9,4.5,20.9,1.7,27.4-2.2l0.5-0.3l0.2-0.6c0.7-2,0.4-5.1,0.7-7.1l0-0.1l0-0.1
	c0.7-7.5,0.2-16.6-5.8-21.9c-3.5-3.1-8.1-4.2-12.7-4.2c-10.3,0-17.3,6.1-21.7,15l-0.1,0.1l0,0.1c-0.9,3-1.8,5.8-0.9,8.9
	C41.9,220,47.3,223.7,52.5,226.3"/>
<path class="st4" d="M53.4,225.1c-9.7-4.9-13.4-11.3-10.9-19.5c4.2-8.5,11-13.9,20.5-13.9c12.7-0.1,18.3,8.7,16.7,24.2
	c-0.5,2.8-1,4.8-1.4,6C68.5,227.7,60.3,228.6,53.4,225.1"/>
<path class="st9" d="M59.9,198.1c-6.5,0.6-11.2,6.3-10.6,12.7c0.6,6.5,6.3,11.2,12.7,10.6c6.5-0.6,11.2-6.3,10.6-12.7
	C72.1,202.3,66.4,197.6,59.9,198.1"/>
<path class="st1" d="M60,199.5c-5.7,0.5-9.9,5.6-9.4,11.3c0.5,5.7,5.6,9.9,11.3,9.4c5.7-0.5,9.9-5.6,9.4-11.3
	C70.8,203.2,65.7,199,60,199.5"/>
<path class="st4" d="M64.9,217.7c-1,0.1-1.8,1-1.7,2c0.1,1,1,1.8,2,1.7c1-0.1,1.8-1,1.7-2C66.9,218.4,66,217.6,64.9,217.7"/>
<path class="st4" d="M54.9,195.6c-2.8,0.8-4.7,2.9-4.2,4.8c0.5,1.8,3.2,2.7,6.1,1.9c2.8-0.8,4.7-2.9,4.2-4.8
	C60.5,195.7,57.7,194.8,54.9,195.6"/>
<path class="st8" d="M51.3,195.3c-1.6-0.2-2.4-0.4-2.4-0.4c9.9-5.8,19.6-6.7,29.1-2.5C68.1,189.6,59.2,190.5,51.3,195.3"/>
<path class="st10" d="M60.4,203.5c-3.5,0.3-6.1,3.4-5.8,6.9c0.3,3.5,3.4,6.1,6.9,5.8c3.5-0.3,6.1-3.4,5.8-6.9
	C67,205.7,63.9,203.1,60.4,203.5"/>
<path class="st2" d="M35.2,210.8c5.5,8.6,10.2,13.4,13.9,14.5C49.2,214.8,44.5,210,35.2,210.8"/>
<path class="st8" d="M35.2,210.8c10.6-5.4,14.6,3.4,13.9,14.5C48.5,215,43.9,210.2,35.2,210.8"/>
<path class="st4" d="M35.2,210.8c8.5-0.8,13.2,4.1,13.9,14.5C47.5,215.8,42.8,210.9,35.2,210.8"/>
<path class="st8" d="M104.8,204.4c-1.5-8.5-4.7-12.8-9.8-12.9c6.2-2.1,10,2.3,11.3,13c-5.6,12.4-5.3,20.1,1.1,23.1
	c-2.9-0.6-4.4-0.9-4.5-0.9C100,222.2,100.6,214.7,104.8,204.4"/>
<path class="st8" d="M127.8,235.9c5.9-3.4,6-12.5,5.8-18c-0.1-3.4-0.8-6.7-3.8-8.5c-4.1-2.6-9.4-1.2-13.2,1.3
	c-5.6,3.6-9.3,9.9-11.4,16.1l-0.1,0.3l0,0.3C105.5,237.9,123.6,238.3,127.8,235.9"/>
<path class="st4" d="M106.7,227.3c7-20.2,25.2-22.5,25.8-9.4c0.4,9.6-1.3,15.1-5.1,16.3C119.9,236.6,109,236.2,106.7,227.3"/>
<path class="st8" d="M131.1,212.2c0.6-0.5,0.9-0.8,0.9-0.8c-2.1-3.6-5.9-5.5-11.1-5.7C125,206.7,128.4,208.8,131.1,212.2"/>
<path class="st9" d="M118.8,215.1c-4.9,0-8.9,4-8.9,8.9c0,4.9,4,8.9,8.9,8.9c4.9,0,8.9-4,8.9-8.9C127.7,219,123.7,215.1,118.8,215.1
	"/>
<path class="st1" d="M118.8,216.1c-4.3,0-7.9,3.5-7.9,7.9c0,4.3,3.5,7.9,7.9,7.9s7.9-3.5,7.9-7.9
	C126.7,219.6,123.1,216.1,118.8,216.1"/>
<path class="st10" d="M118.8,219.1c-2.7,0-4.8,2.2-4.8,4.8s2.2,4.8,4.8,4.8c2.7,0,4.8-2.2,4.8-4.8
	C123.6,221.3,121.5,219.1,118.8,219.1"/>
<path class="st4" d="M123.2,229.8c-0.8,0-1.4,0.6-1.4,1.4c0,0.8,0.6,1.4,1.4,1.4c0.8,0,1.4-0.6,1.4-1.4
	C124.6,230.4,124,229.8,123.2,229.8"/>
<path class="st4" d="M115.2,214.7c-2,1-3,2.9-2.3,4.2c0.7,1.3,2.8,1.5,4.8,0.4c2-1,3-2.9,2.3-4.2
	C119.3,213.9,117.2,213.7,115.2,214.7"/>
<path class="st8" d="M124.4,235c-0.2,1.3-0.4,2-0.4,2c3-0.3,5.6,0,7.8,1C129.7,235.7,127.2,234.8,124.4,235"/>
<path class="st0" d="M100.4,248.8c7.5-2.6,11.2-6.6,11.2-12c-1.9-11.9-11.2-14.4-27.8-7.4c-3.6,2.3-1.9,5.7,4.9,10.3
	c2.9,1.8,4.3,3.7,4.3,5.8v0c0,0.1,0,0.2,0,0.2c0,0.6,0.2,1,0.6,1.3l0,0C96.1,248.8,98.4,249.4,100.4,248.8"/>
<path class="st0" d="M100,247.6c6.7-2.4,10.1-6,10.1-10.8c-1.7-10.7-10-12.9-25-6.7c-3.2,2-1.7,5.1,4.4,9.3c2.6,1.6,3.9,3.3,3.8,5.2
	v0c0,0.1,0,0.1,0,0.2c0,0.5,0.2,0.9,0.5,1.2l0,0C96.2,247.6,98.2,248.2,100,247.6"/>
<path class="st3" d="M101.3,228.1c3.6,0.4,6.5,2.4,6.5,4.7c0,2.2-2.9,3.7-6.5,3.4c-3.6-0.3-6.5-2.4-6.5-4.7
	C94.7,229.2,97.7,227.7,101.3,228.1"/>
<path class="st0" d="M90.6,186.7c-0.1-6.7-5.5-15.3-5.5-15.3c27.3-9,39.3,2.1,42.8,6.4c-3.8-0.5-6.8-0.4-9.1,0.2
	c3.6,1.5,6.2,3.9,7.8,7c-2.8-1.1-5.9-1.5-9.3-1.2c8,5.5,9.2,12.8,3.6,21.8c0.5-2.8-0.9-5.1-4-7c-2.6,8-7.7,13.3-15.2,15.9
	c1-7,0.1-13.3-2.8-18.9c-1.1,3-1.6,4.4-1.6,4.4C92.8,191.2,90.6,186.7,90.6,186.7"/>
<path class="st3" d="M116.8,198.7c7-20-12.2-33.1-30.4-24.8c20-0.9,34.7,22.1,15.2,40.7C109.3,211.8,114.4,206.5,116.8,198.7"/>
<path class="st3" d="M86.4,173.9c-0.8-1.5-1.4-2.5-1.4-2.5c27.3-9,39.3,2.1,42.8,6.4C116,170,102.2,168.7,86.4,173.9L86.4,173.9z"/>
<path class="st4" d="M99.7,273.2c30.2-4.6,41.5-16.3,33.8-35C138.7,256.6,127.4,268.2,99.7,273.2"/>
<path class="st3" d="M56.4,151.8c-0.1,2.3-0.8,2.5-2,0.6c-2.3-12-2.4-27.5-0.4-46.7C53.4,125.3,54.1,140.7,56.4,151.8"/>
</svg>
