<?xml version="1.0" encoding="utf-8"?>
<!-- Generator: Adobe Illustrator 19.1.0, SVG Export Plug-In . SVG Version: 6.00 Build 0)  -->
<svg version="1.1" id="Capa_1" xmlns="http://www.w3.org/2000/svg" xmlns:xlink="http://www.w3.org/1999/xlink" x="0px" y="0px"
	 viewBox="-466 268.3 25.7 25.7" style="enable-background:new -466 268.3 25.7 25.7;" xml:space="preserve">
<style type="text/css">
	.st0{fill:#030104;}
</style>
<g>
	<g>
		<path class="st0" d="M-449.6,284c-0.2-0.1-1.2-0.5-0.5-2.4h0c1.6-1.7,2.9-4.4,2.9-7.1c0-4.1-2.7-6.3-5.9-6.3
			c-3.2,0-5.9,2.2-5.9,6.3c0,2.7,1.2,5.4,2.9,7.1c0.6,1.7-0.5,2.3-0.7,2.4c-3.3,1.2-7.2,3.4-7.2,5.6c0,0.6,0,0.2,0,0.8
			c0,2.9,5.7,3.6,11,3.6c5.3,0,10.9-0.7,10.9-3.6c0-0.6,0-0.2,0-0.8C-442.2,287.3-446.1,285.2-449.6,284z"/>
	</g>
</g>
</svg>
