<?xml version="1.0" encoding="utf-8"?>
<!-- Generator: Adobe Illustrator 16.0.0, SVG Export Plug-In . SVG Version: 6.00 Build 0)  -->
<!DOCTYPE svg PUBLIC "-//W3C//DTD SVG 1.1//EN" "http://www.w3.org/Graphics/SVG/1.1/DTD/svg11.dtd">
<svg version="1.1" id="Layer_1" xmlns="http://www.w3.org/2000/svg" xmlns:xlink="http://www.w3.org/1999/xlink" x="0px" y="0px"
	 width="288.838px" height="265.375px" viewBox="0 0 288.838 265.375" enable-background="new 0 0 288.838 265.375"
	 xml:space="preserve">
<path fill="#FFFFFF" d="M288.077,90.16l-16.949-16.95c-2.112-2.111-8.219,0.375-15.336,5.682l-7.263-7.263
	c5.307-7.117,7.793-13.224,5.681-15.336l-41.521-41.521c-24.761-10.94-51.746-15.928-78.782-14.546l-13.642,0.701
	c-2.272,0.113-4.264,1.56-5.085,3.682c-0.814,2.123-0.303,4.533,1.305,6.14c0.658,0.658,1.465,1.145,2.344,1.421l15.5,4.871
	c17.563,5.526,31.914,18.312,39.405,35.131l0.48,1.076l10.115,10.116l-69.921,69.921c-2.432-1.856-6.048-1.716-8.731,0.573
	l-91.234,70.212c-8.026,6.854-13.188,16.438-14.243,26.396c-1.053,9.968,2.106,19.399,8.707,26
	c6.601,6.602,16.037,9.765,26.003,8.71c9.96-1.054,19.539-6.22,26.394-14.245l70.215-91.232c2.289-2.682,2.431-6.299,0.57-8.734
	l69.921-69.92l13.725,13.725c2.112,2.111,8.219-0.375,15.336-5.681l7.264,7.263c-5.307,7.117-7.794,13.223-5.682,15.335
	l16.949,16.95c3.006,3.006,14.057-3.167,24.685-13.795C284.91,104.215,291.083,93.166,288.077,90.16z"/>
</svg>
