<?xml version="1.0" encoding="utf-8"?>
<!-- Generator: Adobe Illustrator 19.1.0, SVG Export Plug-In . SVG Version: 6.00 Build 0)  -->
<svg version="1.1" id="Layer_1" xmlns="http://www.w3.org/2000/svg" xmlns:xlink="http://www.w3.org/1999/xlink" x="0px" y="0px"
	 viewBox="-335 148.6 288.8 265.4" style="enable-background:new -335 148.6 288.8 265.4;" xml:space="preserve">
<path d="M-46.9,238.8l-16.9-16.9c-2.1-2.1-8.2,0.4-15.3,5.7l-7.3-7.3c5.3-7.1,7.8-13.2,5.7-15.3l-41.5-41.5
	c-24.8-10.9-51.7-15.9-78.8-14.5l-13.6,0.7c-2.3,0.1-4.3,1.6-5.1,3.7c-0.8,2.1-0.3,4.5,1.3,6.1c0.7,0.7,1.5,1.1,2.3,1.4l15.5,4.9
	c17.6,5.5,31.9,18.3,39.4,35.1l0.5,1.1l10.1,10.1l-69.9,69.9c-2.4-1.9-6-1.7-8.7,0.6l-91.2,70.2c-8,6.9-13.2,16.4-14.2,26.4
	c-1.1,10,2.1,19.4,8.7,26c6.6,6.6,16,9.8,26,8.7c10-1.1,19.5-6.2,26.4-14.2l70.2-91.2c2.3-2.7,2.4-6.3,0.6-8.7l69.9-69.9l13.7,13.7
	c2.1,2.1,8.2-0.4,15.3-5.7l7.3,7.3c-5.3,7.1-7.8,13.2-5.7,15.3l16.9,17c3,3,14.1-3.2,24.7-13.8C-50.1,252.8-43.9,241.8-46.9,238.8z"
	/>
</svg>
