<?xml version="1.0" encoding="utf-8"?>
<!-- Generator: Adobe Illustrator 19.1.0, SVG Export Plug-In . SVG Version: 6.00 Build 0)  -->
<svg version="1.1" id="Capa_1" xmlns="http://www.w3.org/2000/svg" xmlns:xlink="http://www.w3.org/1999/xlink" x="0px" y="0px"
	 viewBox="-462 264.1 33.9 33.9" style="enable-background:new -462 264.1 33.9 33.9;" xml:space="preserve">
<style type="text/css">
	.st0{fill:#333333;}
</style>
<g>
	<path class="st0" d="M-439.3,283.7c0,0-0.9-0.8-2.1-2.1c3.8-4.1,11.8-12.8,13.3-15c-0.1-2.6-2.5-2.1-2.5-2.1
		c-1,0.6-10.6,9.3-14.9,13.2c-0.5-0.5-1-1-1.5-1.4c-2.5-2.8-3.9-1.2-3.9-1.2s-2.2,2.1-2.3,2.2l12,11.9c0,0,2.1-2.1,2.1-2.1
		C-437,285.4-439.3,283.7-439.3,283.7z M-452.7,279c-0.5-0.5-1.2-0.5-1.7,0l-7.3,7.2c-0.5,0.5-0.5,1.2,0,1.7c0.5,0.5,1.2,0.5,1.7,0
		l7.3-7.2C-452.2,280.3-452.2,279.5-452.7,279z M-449.7,282c-0.5-0.5-1.2-0.5-1.7,0l-7.3,7.2c-0.5,0.5-0.5,1.2,0,1.7
		c0.5,0.5,1.2,0.5,1.7,0l7.2-7.2C-449.3,283.2-449.3,282.4-449.7,282z M-446.3,285.2c-0.5-0.5-1.2-0.5-1.7,0l-7.3,7.2
		c-0.5,0.5-0.5,1.2,0,1.7c0.5,0.5,1.2,0.5,1.7,0l7.3-7.2C-445.8,286.5-445.8,285.7-446.3,285.2z M-444.7,288.4l-7.3,7.2
		c-0.5,0.5-0.5,1.2,0,1.7c0.5,0.5,1.2,0.5,1.7,0l7.3-7.2c0.5-0.5,0.5-1.2,0-1.7C-443.4,287.9-444.2,287.9-444.7,288.4z"/>
</g>
</svg>
