<?xml version="1.0" encoding="utf-8"?>
<!-- Generator: Adobe Illustrator 19.1.0, SVG Export Plug-In . SVG Version: 6.00 Build 0)  -->
<svg version="1.1" id="Capa_1" xmlns="http://www.w3.org/2000/svg" xmlns:xlink="http://www.w3.org/1999/xlink" x="0px" y="0px"
	 viewBox="-392 193.8 174.2 174.2" style="enable-background:new -392 193.8 174.2 174.2;" xml:space="preserve">
<g>
	<path d="M-304.9,193.8c-48,0-87.1,39.1-87.1,87.1s39.1,87.1,87.1,87.1s87.1-39.1,87.1-87.1S-256.8,193.8-304.9,193.8z
		 M-304.9,353.1c-39.8,0-72.2-32.4-72.2-72.2s32.4-72.2,72.2-72.2s72.2,32.4,72.2,72.2S-265.1,353.1-304.9,353.1z"/>
	<path d="M-271.2,247.2c-2.9-2.9-7.6-2.9-10.6,0l-23.2,23.2l-23.2-23.2c-2.9-2.9-7.6-2.9-10.6,0s-2.9,7.6,0,10.6l23.2,23.2
		l-23.2,23.2c-2.9,2.9-2.9,7.6,0,10.6c1.5,1.5,3.4,2.2,5.3,2.2c1.9,0,3.8-0.7,5.3-2.2l23.2-23.2l23.2,23.2c1.5,1.5,3.4,2.2,5.3,2.2
		c1.9,0,3.8-0.7,5.3-2.2c2.9-2.9,2.9-7.6,0-10.6l-23.2-23.2l23.2-23.2C-268.3,254.8-268.3,250.1-271.2,247.2z"/>
</g>
</svg>
