<?xml version="1.0" encoding="utf-8"?>
<!-- Generator: Adobe Illustrator 19.1.0, SVG Export Plug-In . SVG Version: 6.00 Build 0)  -->
<svg version="1.1" id="Capa_1" xmlns="http://www.w3.org/2000/svg" xmlns:xlink="http://www.w3.org/1999/xlink" x="0px" y="0px"
	 viewBox="-784 387.6 174.2 174.2" style="enable-background:new -784 387.6 174.2 174.2;" xml:space="preserve">
<style type="text/css">
	.st0{fill:#FFFFFF;}
</style>
<g>
	<path class="st0" d="M-696.9,387.6c-48,0-87.1,39.1-87.1,87.1s39.1,87.1,87.1,87.1s87.1-39.1,87.1-87.1S-648.8,387.6-696.9,387.6z
		 M-696.9,546.9c-39.8,0-72.2-32.4-72.2-72.2s32.4-72.2,72.2-72.2s72.2,32.4,72.2,72.2S-657.1,546.9-696.9,546.9z"/>
	<path class="st0" d="M-663.2,441c-2.9-2.9-7.6-2.9-10.6,0l-23.2,23.2l-23.2-23.2c-2.9-2.9-7.6-2.9-10.6,0s-2.9,7.6,0,10.6
		l23.2,23.2l-23.2,23.2c-2.9,2.9-2.9,7.6,0,10.6c1.5,1.5,3.4,2.2,5.3,2.2s3.8-0.7,5.3-2.2l23.2-23.2l23.2,23.2
		c1.5,1.5,3.4,2.2,5.3,2.2s3.8-0.7,5.3-2.2c2.9-2.9,2.9-7.6,0-10.6l-23.2-23.2l23.2-23.2C-660.3,448.6-660.3,443.9-663.2,441z"/>
</g>
</svg>
