<?xml version="1.0" encoding="utf-8"?>
<!-- Generator: Adobe Illustrator 19.1.0, SVG Export Plug-In . SVG Version: 6.00 Build 0)  -->
<svg version="1.1" id="Capa_1" xmlns="http://www.w3.org/2000/svg" xmlns:xlink="http://www.w3.org/1999/xlink" x="0px" y="0px"
	 viewBox="-463 265 32 32" style="enable-background:new -463 265 32 32;" xml:space="preserve">
<style type="text/css">
	.st0{fill:#030104;}
</style>
<g>
	<g>
		<path class="st0" d="M-435.4,277.7c-0.9-2.5-3.3-4.2-6.1-4.2c-0.6,0-1.3,0.1-1.8,0.3c-1.6-2.6-4.4-4.3-7.7-4.3
			c-4.9,0-8.9,3.9-9,8.8c-1.8,1-3,3-3,5.2c0,3.3,2.7,6,6,6h6v-2h-6c-2.2,0-4-1.8-4-4c0-1.9,1.3-3.5,3.1-3.9
			c-0.1-0.4-0.1-0.7-0.1-1.1c0-3.9,3.1-7,7-7c3.2,0,5.8,2.1,6.7,5c0.8-0.6,1.7-1,2.8-1c2.3,0,4.2,1.8,4.5,4h0c2.2,0,4,1.8,4,4
			c0,2.2-1.8,4-4,4h-6v2h6c3.3,0,6-2.7,6-6C-431,280.7-432.9,278.4-435.4,277.7z"/>
		<polygon class="st0" points="-447,278.5 -452,284.5 -449,284.5 -449,292.5 -445,292.5 -445,284.5 -442,284.5 		"/>
	</g>
</g>
</svg>
