<?xml version="1.0" encoding="utf-8"?>
<!-- Generator: Adobe Illustrator 19.1.0, SVG Export Plug-In . SVG Version: 6.00 Build 0)  -->
<svg version="1.1" id="Capa_1" xmlns="http://www.w3.org/2000/svg" xmlns:xlink="http://www.w3.org/1999/xlink" x="0px" y="0px"
	 viewBox="-465 267.7 27.3 27.3" style="enable-background:new -465 267.7 27.3 27.3;" xml:space="preserve">
<style type="text/css">
	.st0{fill:#333333;}
</style>
<g>
	<path class="st0" d="M-439.7,269.7h-23.4c-1.1,0-1.9,0.9-1.9,1.9v19.5c0,1.1,0.9,1.9,1.9,1.9h23.4c1.1,0,1.9-0.9,1.9-1.9v-19.5
		C-437.7,270.5-438.6,269.7-439.7,269.7z M-455.7,271.1c0.5,0,1,0.4,1,1c0,0.5-0.4,1-1,1c-0.5,0-1-0.4-1-1
		C-456.7,271.6-456.2,271.1-455.7,271.1z M-458.7,271.1c0.5,0,1,0.4,1,1c0,0.5-0.4,1-1,1c-0.5,0-1-0.4-1-1
		C-459.6,271.6-459.2,271.1-458.7,271.1z M-461.6,271.1c0.5,0,1,0.4,1,1c0,0.5-0.4,1-1,1c-0.5,0-1-0.4-1-1
		C-462.6,271.6-462.1,271.1-461.6,271.1z M-439.7,291.1h-23.4v-16.5h23.4V291.1z"/>
	<rect x="-463.1" y="274.6" class="st0" width="23.4" height="16.5"/>
	<rect x="-460.8" y="277.2" class="st0" width="2.8" height="2.9"/>
	<rect x="-456.8" y="277.2" class="st0" width="2.8" height="2.9"/>
	<rect x="-452.7" y="277.2" class="st0" width="2.8" height="2.9"/>
	<rect x="-460.8" y="280.9" class="st0" width="2.8" height="2.8"/>
	<rect x="-456.8" y="280.9" class="st0" width="2.8" height="2.8"/>
	<rect x="-452.7" y="280.9" class="st0" width="2.8" height="2.8"/>
	<rect x="-460.8" y="284.8" class="st0" width="2.8" height="2.8"/>
	<rect x="-456.8" y="284.8" class="st0" width="2.8" height="2.8"/>
	<rect x="-452.7" y="284.8" class="st0" width="2.8" height="2.8"/>
	<rect x="-448.8" y="277.2" class="st0" width="2.8" height="2.9"/>
	<rect x="-444.8" y="277.2" class="st0" width="2.8" height="2.9"/>
	<rect x="-448.8" y="280.9" class="st0" width="2.8" height="2.8"/>
	<rect x="-444.8" y="280.9" class="st0" width="2.8" height="2.8"/>
	<rect x="-448.8" y="284.8" class="st0" width="2.8" height="2.8"/>
	<rect x="-444.8" y="284.8" class="st0" width="2.8" height="2.8"/>
</g>
</svg>
