<?xml version="1.0" encoding="utf-8"?>
<!-- Generator: Adobe Illustrator 19.1.0, SVG Export Plug-In . SVG Version: 6.00 Build 0)  -->
<svg version="1.1" id="Capa_1" xmlns="http://www.w3.org/2000/svg" xmlns:xlink="http://www.w3.org/1999/xlink" x="0px" y="0px"
	 viewBox="-29 -170.5 900.5 900.5" style="enable-background:new -29 -170.5 900.5 900.5;" xml:space="preserve">
<style type="text/css">
	.st0{fill:#FFFFFF;}
</style>
<g>
	<path class="st0" d="M147.4,710c0,11,9,20,20,20h507.7c11,0,20-9,20-20V62H147.4L147.4,710L147.4,710z M533.8,172.3h75v436h-75
		V172.3z M383.8,172.3h75v436h-75V172.3z M233.8,172.3h75v436h-75V172.3z"/>
	<path class="st0" d="M589.8-78.6v-71.9c0-11-9-20-20-20H272.7c-11,0-20,9-20,20v71.9v12.5v12.5H112.9c-11,0-20,9-20,20V17
		c0,11,9,20,20,20h34.5h547.7h34.5c11,0,20-9,20-20v-50.6c0-11-9-20-20-20H589.8v-12.5V-78.6z M514.8-57.7H327.7v-8.4v-12.5v-16.9
		h187.1v16.9v12.5V-57.7z"/>
</g>
</svg>
