<?xml version="1.0" encoding="utf-8"?>
<!-- Generator: Adobe Illustrator 19.1.0, SVG Export Plug-In . SVG Version: 6.00 Build 0)  -->
<svg version="1.1" id="Layer_1" xmlns="http://www.w3.org/2000/svg" xmlns:xlink="http://www.w3.org/1999/xlink" x="0px" y="0px"
	 viewBox="-351 117.9 255.1 255.1" style="enable-background:new -351 117.9 255.1 255.1;" xml:space="preserve">
<style type="text/css">
	.st0{fill:#364548;}
	.st1{fill:#22A0C8;}
	.st2{fill:#37B1D9;}
	.st3{fill:#1B81A5;}
	.st4{fill:#1D91B4;}
	.st5{fill:#23A3C2;}
	.st6{fill:#34BBDE;}
	.st7{fill:#D3ECEC;}
	.st8{fill:#BDD9D7;}
</style>
<g>
	<path class="st0" d="M-203.5,218.7h22.9v23.4h11.6c5.3,0,10.8-1,15.9-2.7c2.5-0.8,5.3-2,7.7-3.5c-3.2-4.2-4.9-9.5-5.4-14.8
		c-0.7-7.1,0.8-16.4,5.6-22l2.4-2.8l2.9,2.3c7.2,5.8,13.3,13.9,14.3,23.1c8.7-2.6,18.9-1.9,26.5,2.5l3.1,1.8l-1.7,3.2
		c-6.5,12.6-20,16.5-33.2,15.9c-19.8,49.3-62.9,72.7-115.2,72.7c-27,0-51.8-10.1-65.9-34l-0.2-0.4l-2.1-4.2
		c-4.8-10.5-6.4-22.1-5.3-33.6l0.3-3.5h19.6v-23.4h22.9v-22.9h45.7V173h27.4V218.7"/>
	<path class="st1" d="M-129.4,227.4c1.5-11.9-7.4-21.3-12.9-25.7c-6.4,7.4-7.4,26.7,2.6,34.8c-5.6,5-17.3,9.4-29.4,9.4h-146.5
		c-1.2,12.6,1,24.1,6.1,34l1.7,3c1.1,1.8,2.2,3.5,3.5,5.2h0c6,0.4,11.6,0.5,16.7,0.4h0c10-0.2,18.1-1.4,24.3-3.5
		c0.9-0.3,1.9,0.2,2.2,1.1c0.3,0.9-0.2,1.9-1.1,2.2c-0.8,0.3-1.7,0.6-2.6,0.8c0,0,0,0,0,0c-4.9,1.4-10.1,2.3-16.8,2.7
		c0.4,0-0.4,0.1-0.4,0.1c-0.2,0-0.5,0-0.7,0.1c-2.6,0.1-5.5,0.2-8.4,0.2c-3.2,0-6.3-0.1-9.9-0.2l-0.1,0.1c12.2,13.7,31.3,22,55.2,22
		c50.6,0,93.6-22.5,112.6-72.9c13.5,1.4,26.5-2.1,32.4-13.6C-110.4,222.2-122.5,223.9-129.4,227.4"/>
	<path class="st2" d="M-129.4,227.4c1.5-11.9-7.4-21.3-12.9-25.7c-6.4,7.4-7.4,26.7,2.6,34.8c-5.6,5-17.3,9.4-29.4,9.4H-307
		c-0.6,19.2,6.5,33.9,19.2,42.7h0c10-0.2,18.1-1.4,24.3-3.5c0.9-0.3,1.9,0.2,2.2,1.1c0.3,0.9-0.2,1.9-1.1,2.2
		c-0.8,0.3-1.7,0.6-2.6,0.8c0,0,0,0,0,0c-4.9,1.4-10.5,2.4-17.3,2.9c0,0-0.2-0.2-0.2-0.2c17.2,8.8,42.2,8.8,70.9-2.2
		c32.1-12.3,62-35.9,82.9-62.8C-128.8,227.1-129.1,227.2-129.4,227.4"/>
	<path class="st3" d="M-315.4,261.2c0.9,6.7,2.9,13,5.8,18.8l1.7,3c1.1,1.8,2.2,3.5,3.5,5.2c6,0.4,11.6,0.5,16.7,0.4
		c10-0.2,18.1-1.4,24.3-3.5c0.9-0.3,1.9,0.2,2.2,1.1c0.3,0.9-0.2,1.9-1.1,2.2c-0.8,0.3-1.7,0.6-2.6,0.8c0,0,0,0,0,0
		c-4.9,1.4-10.5,2.4-17.2,2.8c-0.2,0-0.6,0-0.9,0c-2.6,0.1-5.5,0.2-8.4,0.2c-3.2,0-6.5-0.1-10-0.2c12.2,13.7,31.4,22,55.4,22
		c43.4,0,81.1-16.5,103-52.8H-315.4"/>
	<path class="st4" d="M-305.6,261.2c2.6,11.8,8.8,21.1,17.9,27.4c10-0.2,18.1-1.4,24.3-3.5c0.9-0.3,1.9,0.2,2.2,1.1
		c0.3,0.9-0.2,1.9-1.1,2.2c-0.8,0.3-1.7,0.6-2.6,0.8c0,0,0,0,0,0c-4.9,1.4-10.6,2.4-17.3,2.8c17.2,8.8,42.2,8.7,70.8-2.3
		c17.3-6.7,34-16.6,49-28.5H-305.6"/>
	<path class="st5" d="M-295.7,222.5h19.8v19.8h-19.8V222.5z M-294.1,224.2h1.6v16.5h-1.6V224.2z M-291.1,224.2h1.6v16.5h-1.6V224.2z
		 M-288.1,224.2h1.6v16.5h-1.6V224.2z M-285.1,224.2h1.6v16.5h-1.6V224.2z M-282.1,224.2h1.6v16.5h-1.6V224.2z M-279.1,224.2h1.6
		v16.5h-1.6V224.2z"/>
	<path class="st5" d="M-272.9,199.7h19.8v19.8h-19.8V199.7z M-271.2,201.3h1.6v16.5h-1.6V201.3z M-268.3,201.3h1.6v16.5h-1.6V201.3z
		 M-265.3,201.3h1.6v16.5h-1.6V201.3z M-262.3,201.3h1.6v16.5h-1.6V201.3z M-259.3,201.3h1.6v16.5h-1.6V201.3z M-256.3,201.3h1.6
		v16.5h-1.6V201.3z"/>
	<path class="st6" d="M-272.9,222.5h19.8v19.8h-19.8V222.5z M-271.2,224.2h1.6v16.5h-1.6V224.2z M-268.3,224.2h1.6v16.5h-1.6V224.2z
		 M-265.3,224.2h1.6v16.5h-1.6V224.2z M-262.3,224.2h1.6v16.5h-1.6V224.2z M-259.3,224.2h1.6v16.5h-1.6V224.2z M-256.3,224.2h1.6
		v16.5h-1.6V224.2z"/>
	<path class="st5" d="M-250,222.5h19.8v19.8H-250V222.5z M-248.4,224.2h1.6v16.5h-1.6V224.2z M-245.4,224.2h1.6v16.5h-1.6V224.2z
		 M-242.4,224.2h1.6v16.5h-1.6V224.2z M-239.4,224.2h1.6v16.5h-1.6V224.2z M-236.4,224.2h1.6v16.5h-1.6V224.2z M-233.4,224.2h1.6
		v16.5h-1.6V224.2z"/>
	<path class="st6" d="M-250,199.7h19.8v19.8H-250V199.7z M-248.4,201.3h1.6v16.5h-1.6V201.3z M-245.4,201.3h1.6v16.5h-1.6V201.3z
		 M-242.4,201.3h1.6v16.5h-1.6V201.3z M-239.4,201.3h1.6v16.5h-1.6V201.3z M-236.4,201.3h1.6v16.5h-1.6V201.3z M-233.4,201.3h1.6
		v16.5h-1.6V201.3z"/>
	<path class="st6" d="M-227.1,222.5h19.8v19.8h-19.8V222.5z M-225.5,224.2h1.6v16.5h-1.6V224.2z M-222.5,224.2h1.6v16.5h-1.6V224.2z
		 M-219.5,224.2h1.6v16.5h-1.6V224.2z M-216.5,224.2h1.6v16.5h-1.6V224.2z M-213.5,224.2h1.6v16.5h-1.6V224.2z M-210.5,224.2h1.6
		v16.5h-1.6V224.2z"/>
	<path class="st5" d="M-227.1,199.7h19.8v19.8h-19.8V199.7z M-225.5,201.3h1.6v16.5h-1.6V201.3z M-222.5,201.3h1.6v16.5h-1.6V201.3z
		 M-219.5,201.3h1.6v16.5h-1.6V201.3z M-216.5,201.3h1.6v16.5h-1.6V201.3z M-213.5,201.3h1.6v16.5h-1.6V201.3z M-210.5,201.3h1.6
		v16.5h-1.6V201.3z"/>
	<path class="st6" d="M-227.1,176.8h19.8v19.8h-19.8V176.8z M-225.5,178.5h1.6V195h-1.6V178.5z M-222.5,178.5h1.6V195h-1.6V178.5z
		 M-219.5,178.5h1.6V195h-1.6V178.5z M-216.5,178.5h1.6V195h-1.6V178.5z M-213.5,178.5h1.6V195h-1.6V178.5z M-210.5,178.5h1.6V195
		h-1.6V178.5z"/>
	<path class="st5" d="M-204.3,222.5h19.8v19.8h-19.8V222.5z M-202.6,224.2h1.6v16.5h-1.6V224.2z M-199.7,224.2h1.6v16.5h-1.6V224.2z
		 M-196.7,224.2h1.6v16.5h-1.6V224.2z M-193.7,224.2h1.6v16.5h-1.6V224.2z M-190.7,224.2h1.6v16.5h-1.6V224.2z M-187.7,224.2h1.6
		v16.5h-1.6V224.2z"/>
	<path class="st7" d="M-254.3,274.5c3,0,5.5,2.4,5.5,5.5s-2.4,5.5-5.5,5.5c-3,0-5.5-2.4-5.5-5.5S-257.3,274.5-254.3,274.5"/>
	<path class="st0" d="M-254.3,276c0.5,0,1,0.1,1.4,0.3c-0.5,0.3-0.8,0.8-0.8,1.4c0,0.9,0.7,1.6,1.6,1.6c0.6,0,1.1-0.3,1.4-0.8
		c0.2,0.5,0.3,1,0.3,1.5c0,2.2-1.8,3.9-3.9,3.9c-2.2,0-3.9-1.8-3.9-3.9C-258.2,277.8-256.5,276-254.3,276"/>
	<path class="st0" d="M-351,263.2h254.3c-5.5-1.4-17.5-3.3-15.5-10.6c-10.1,11.7-34.4,8.2-40.5,2.4c-6.8,9.9-46.6,6.1-49.3-1.6
		c-8.6,10-35.1,10-43.6,0c-2.8,7.7-42.5,11.5-49.3,1.6c-6.1,5.7-30.4,9.2-40.5-2.4C-333.5,259.9-345.5,261.8-351,263.2"/>
	<path class="st8" d="M-239.8,313.9c-13.5-6.4-21-15.2-25.1-24.7c-5,1.4-11.1,2.4-18.1,2.7c-2.6,0.1-5.4,0.2-8.4,0.2
		c-3.4,0-6.9-0.1-10.6-0.3c12.4,12.4,27.7,22,56,22.1C-243.9,314-241.8,314-239.8,313.9"/>
	<path class="st7" d="M-259.8,298c-1.9-2.5-3.7-5.7-5-8.8c-5,1.4-11.1,2.4-18.1,2.7C-278.1,294.6-271.2,297-259.8,298"/>
</g>
</svg>
