<?xml version="1.0" encoding="iso-8859-1"?>
<!-- Generator: Adobe Illustrator 19.0.0, SVG Export Plug-In . SVG Version: 6.00 Build 0)  -->
<svg version="1.1" id="Capa_1" xmlns="http://www.w3.org/2000/svg" xmlns:xlink="http://www.w3.org/1999/xlink" x="0px" y="0px"
	 viewBox="0 0 533.108 533.108" style="enable-background:new 0 0 533.108 533.108;" xml:space="preserve">
<g>
	<g>
		<g>
			<path style="fill:#010002;" d="M231.627,289.386c19.306-13.072,47.154-36.217,80.373-66.697
				c-5.997-3.624-12.36-8.24-18.357-14.129c-6.579-6.191-11.885-12.748-15.833-19.025c-28.797,34.168-50.411,62.771-62.771,82.616
				c-3.991,0-38.633,0.626-62.771,25.799c-25.605,26.791-24.159,91.719-24.159,91.719s16.415-25.454,47.111-32.658
				C210.79,348.792,226.86,326.294,231.627,289.386z"/>
			<polygon style="fill:#010002;" points="196.057,451.253 198.494,453.518 287.086,407.486 239.953,362.188 			"/>
			<path style="fill:#010002;" d="M435.794,157.891l-27.179,28.344v-58.716c5.414-5.479,8.801-8.909,8.801-8.909
				s84.061-84.946,60.42-101.189c-23.685-16.2-101.059,62.383-101.059,62.383s-13.309,14.323-30.436,32.96H0v405.121h408.615
				V280.823l74.354-77.59L435.794,157.891z M374.965,484.17c-29.228,0-312.021,0-341.293,0c0-29.207,0-308.527,0-337.755
				c22.132,0,189.197,0,281.995,0c-12.705,14.043-24.72,27.524-32.874,37.166c3.969,6.428,9.448,13.137,16.092,19.565
				c6.148,5.846,12.597,10.742,18.702,14.301c14.172-13.223,37.08-35.851,57.378-56.127c0,13.827,0,35.009,0,60.053L249.596,352.179
				l47.175,45.32l78.194-81.559C374.965,392.861,374.965,469.61,374.965,484.17z"/>
			<path style="fill:#010002;" d="M530.49,137.938l-31.558-30.134c-4.228-4.163-12.554-2.696-18.163,3.257l-35.613,37.059
				l47.218,45.363l35.549-37.188C533.704,150.363,534.783,142.015,530.49,137.938z"/>
		</g>
	</g>
	<g>
	</g>
	<g>
	</g>
	<g>
	</g>
	<g>
	</g>
	<g>
	</g>
	<g>
	</g>
	<g>
	</g>
	<g>
	</g>
	<g>
	</g>
	<g>
	</g>
	<g>
	</g>
	<g>
	</g>
	<g>
	</g>
	<g>
	</g>
	<g>
	</g>
</g>
<g>
</g>
<g>
</g>
<g>
</g>
<g>
</g>
<g>
</g>
<g>
</g>
<g>
</g>
<g>
</g>
<g>
</g>
<g>
</g>
<g>
</g>
<g>
</g>
<g>
</g>
<g>
</g>
<g>
</g>
</svg>
