<?xml version="1.0" encoding="utf-8"?>
<!-- Generator: Adobe Illustrator 19.1.0, SVG Export Plug-In . SVG Version: 6.00 Build 0)  -->
<svg version="1.1" id="Capa_1" xmlns="http://www.w3.org/2000/svg" xmlns:xlink="http://www.w3.org/1999/xlink" x="0px" y="0px"
	 viewBox="-251 52.5 456.5 456.5" style="enable-background:new -251 52.5 456.5 456.5;" xml:space="preserve">
<g>
	<path d="M199.3,409.4l-47.5-34.6c24.7-16.3,40.4-44.3,40.4-75c0-45.8-34.5-83.7-78.9-89.2v-80.1h4c3,0,6.2-2.5,6.2-5.5v-12
		c0-3-3.2-5.5-6.2-5.5H45.7c-3,0-5.5,2.5-5.5,5.5v12c0,3,2.5,5.5,5.5,5.5h4.7V210H-58.1v-73.8c0-8.3-6.7-15-15-15H-236
		c-5.9,0-11.2,3.4-13.6,8.8c-2.4,5.3-1.5,11.6,2.3,16.1l34.4,39.7v188.9c0,7.5,5.5,13.7,12.7,14.8c1.3,35.8,30.7,64.5,66.8,64.5
		c31.7,0,58.3-22.2,65.1-51.8H-21c6.8,29.6,33.4,51.8,65.1,51.8c17.3,0,33.1-6.6,44.9-17.4h101.4c6.5,0,12.3-4.2,14.3-10.4
		C206.7,420,204.5,413.2,199.3,409.4z M-133.5,402.1h25.5c-5.1,8.7-14.6,14.6-25.5,14.6c-16.3,0-29.6-13.3-29.6-29.6
		s13.3-29.6,29.6-29.6c10.8,0,20.3,5.9,25.5,14.6h-25.5c-8.3,0-15,6.7-15,15C-148.5,395.4-141.8,402.1-133.5,402.1z M-98.3,252.1
		h-74.3v-90h74.3L-98.3,252.1L-98.3,252.1z M44.1,416.7c-10.8,0-20.3-5.9-25.5-14.6h25.5c8.3,0,15-6.7,15-15s-6.7-15-15-15H18.6
		c5.1-8.7,14.6-14.6,25.5-14.6c16.3,0,29.6,13.3,29.6,29.6C73.6,403.4,60.4,416.7,44.1,416.7z"/>
</g>
</svg>
