<?xml version="1.0" encoding="iso-8859-1"?>
<!-- Generator: Adobe Illustrator 18.0.0, SVG Export Plug-In . SVG Version: 6.00 Build 0)  -->
<!DOCTYPE svg PUBLIC "-//W3C//DTD SVG 1.1//EN" "http://www.w3.org/Graphics/SVG/1.1/DTD/svg11.dtd">
<svg version="1.1" id="Capa_1" xmlns="http://www.w3.org/2000/svg" xmlns:xlink="http://www.w3.org/1999/xlink" x="0px" y="0px"
	 viewBox="0 0 297 297" style="enable-background:new 0 0 297 297;" xml:space="preserve">
<g>
	<path d="M100.079,52.78h5.863v17.743c12.847-4.305,27.561-6.631,42.558-6.631c14.997,0,29.711,2.326,42.558,6.631V52.78h5.863
		c5.646,0,10.223-4.577,10.223-10.223V10.223C207.144,4.577,202.566,0,196.921,0h-96.842c-5.646,0-10.223,4.577-10.223,10.223
		v32.335C89.856,48.203,94.434,52.78,100.079,52.78z"/>
	<path d="M267.341,232.376l-51.058-33.847c-9.701,24.598-32.403,42.688-59.605,45.741V297l109.019-46.723
		c3.448-1.477,5.81-4.725,6.153-8.461C272.193,238.08,270.463,234.456,267.341,232.376z"/>
	<path d="M80.717,198.529l-51.058,33.847c-3.122,2.08-4.853,5.704-4.51,9.44c0.343,3.735,2.705,6.983,6.153,8.461L140.321,297
		v-52.73C113.12,241.217,90.418,223.127,80.717,198.529z"/>
	<path d="M255.727,204.966v-24.742c0-5.646-4.577-10.223-10.223-10.223H221.3c0.016,0.631,0.048,1.259,0.048,1.893
		c0,3.289-0.241,6.52-0.664,9.693L255.727,204.966z"/>
	<path d="M75.652,171.895c0-0.635,0.032-1.263,0.048-1.893H51.496c-5.646,0-10.223,4.577-10.223,10.223v24.799l35.062-23.294
		C75.898,178.51,75.652,175.23,75.652,171.895z"/>
	<path d="M148.5,99.048c28.104,0,52.524,16.009,64.669,39.375v-31.229c0-10.778-26.804-26.945-64.669-26.945
		s-64.669,16.167-64.669,26.945v31.229C95.976,115.057,120.396,99.048,148.5,99.048z"/>
	<path d="M204.991,171.895c0-31.148-25.342-56.49-56.491-56.49s-56.491,25.342-56.491,56.49c0,31.149,25.342,56.491,56.491,56.491
		S204.991,203.044,204.991,171.895z M165.28,178.337c-1.721,4.483-5.084,8.027-9.472,9.98c-2.316,1.031-4.774,1.555-7.304,1.555
		c-7.093,0-13.54-4.186-16.425-10.665c-4.031-9.057,0.057-19.701,9.109-23.731c2.319-1.032,4.776-1.557,7.305-1.557
		c7.092,0,13.54,4.186,16.425,10.665C166.873,168.972,167.001,173.855,165.28,178.337z"/>
</g>
<g>
</g>
<g>
</g>
<g>
</g>
<g>
</g>
<g>
</g>
<g>
</g>
<g>
</g>
<g>
</g>
<g>
</g>
<g>
</g>
<g>
</g>
<g>
</g>
<g>
</g>
<g>
</g>
<g>
</g>
</svg>
