<?xml version="1.0" encoding="utf-8"?>
<!-- Generator: Adobe Illustrator 19.1.0, SVG Export Plug-In . SVG Version: 6.00 Build 0)  -->
<svg version="1.1" id="Layer_1" xmlns="http://www.w3.org/2000/svg" xmlns:xlink="http://www.w3.org/1999/xlink" x="0px" y="0px"
	 viewBox="-354.5 149 263 263" style="enable-background:new -354.5 149 263 263;" xml:space="preserve">
<style type="text/css">
	.st0{fill:#3A33D1;}
	.st1{fill:#6464E2;}
</style>
<g>
	<path class="st0" d="M-251,411.1l-99.4-89.5l27.9-130.9l127.2-41.3l99.4,89.5l-27.9,130.9L-251,411.1L-251,411.1z M-299.1,304.9
		l59.3,53.3l75.8-24.7l16.6-78l-59.3-53.4l-75.8,24.8L-299.1,304.9L-299.1,304.9z"/>
	<path class="st1" d="M-169.7,372.9h-106.9l-53.5-92.7l53.5-92.7h106.9l53.5,92.7L-169.7,372.9L-169.7,372.9z M-257.8,340.3h69.3
		l34.7-60.1l-34.7-60.1h-69.3l-34.6,60.1L-257.8,340.3L-257.8,340.3z"/>
</g>
</svg>
