<?xml version="1.0" encoding="utf-8"?>
<!-- Generator: Adobe Illustrator 19.1.0, SVG Export Plug-In . SVG Version: 6.00 Build 0)  -->
<svg version="1.1" id="Layer_1" xmlns="http://www.w3.org/2000/svg" xmlns:xlink="http://www.w3.org/1999/xlink" x="0px" y="0px"
	 viewBox="-731.9 734.2 266.8 266.9" style="enable-background:new -731.9 734.2 266.8 266.9;" xml:space="preserve">
<style type="text/css">
	.st0{fill:#333333;}
	.st1{fill:#FFFFFF;}
</style>
<path id="Blue_1_" class="st0" d="M-479.8,1001.1c8.1,0,14.7-6.6,14.7-14.7V748.9c0-8.1-6.6-14.7-14.7-14.7h-237.4
	c-8.1,0-14.7,6.6-14.7,14.7v237.4c0,8.1,6.6,14.7,14.7,14.7L-479.8,1001.1L-479.8,1001.1z"/>
<path id="f" class="st1" d="M-547.8,1001.1V897.7h34.7l5.2-40.3h-39.9v-25.7c0-11.7,3.2-19.6,20-19.6h21.3v-36
	c-3.7-0.5-16.4-1.6-31.1-1.6c-30.8,0-51.8,18.8-51.8,53.2v29.7h-34.8v40.3h34.8v103.4H-547.8L-547.8,1001.1z"/>
</svg>
