<?xml version="1.0" encoding="utf-8"?>
<!-- Generator: Adobe Illustrator 19.1.0, SVG Export Plug-In . SVG Version: 6.00 Build 0)  -->
<svg version="1.1" id="Layer_1" xmlns="http://www.w3.org/2000/svg" xmlns:xlink="http://www.w3.org/1999/xlink" x="0px" y="0px"
	 viewBox="-366 367.1 266.9 266.9" style="enable-background:new -366 367.1 266.9 266.9;" xml:space="preserve">
<style type="text/css">
	.st0{fill:#485A96;}
	.st1{fill:#FFFFFF;}
</style>
<path id="Blue_1_" class="st0" d="M-113.8,634c8.1,0,14.7-6.6,14.7-14.7V381.8c0-8.1-6.6-14.7-14.7-14.7h-237.4
	c-8.1,0-14.7,6.6-14.7,14.7v237.4c0,8.1,6.6,14.7,14.7,14.7L-113.8,634L-113.8,634z"/>
<path id="f" class="st1" d="M-181.8,634V530.6h34.7l5.2-40.3h-39.9v-25.7c0-11.7,3.2-19.6,20-19.6l21.3,0v-36
	c-3.7-0.5-16.4-1.6-31.1-1.6c-30.8,0-51.8,18.8-51.8,53.2v29.7h-34.8v40.3h34.8V634L-181.8,634L-181.8,634z"/>
</svg>
