<?xml version="1.0" encoding="utf-8"?>
<!-- Generator: Adobe Illustrator 19.1.0, SVG Export Plug-In . SVG Version: 6.00 Build 0)  -->
<svg version="1.1" id="Layer_1" xmlns="http://www.w3.org/2000/svg" xmlns:xlink="http://www.w3.org/1999/xlink" x="0px" y="0px"
	 viewBox="0 0 849.2 849.2" style="enable-background:new 0 0 849.2 849.2;" xml:space="preserve">
<path d="M424.5,849.2h283.6c29.2,0,52.9-23.7,52.9-52.9V108.4V52.9c0-29.2-23.7-52.9-52.9-52.9H424.5h-94.3v17.5
	c0.2,1.8,0.3,3.7,0.3,5.6v115.3V168c0,41.1-33.4,74.5-74.5,74.5h-29.6H111.1c-1.5,0-3.1-0.1-4.6-0.2H88.1v554
	c0,29.2,23.7,52.9,52.9,52.9h58H424.5L424.5,849.2z M435.2,669.4H250.3c-13.8,0-25-11.2-25-25c0-13.8,11.2-25,25-25h185
	c13.8,0,25,11.2,25,25C460.3,658.2,449,669.4,435.2,669.4z M620.2,541.8H250.3c-13.8,0-25-11.2-25-25c0-13.8,11.2-25,25-25h369.9
	c13.8,0,25,11.2,25,25C645.2,530.6,634,541.8,620.2,541.8z M250.3,356.3h369.9c13.8,0,25,11.2,25,25s-11.2,25-25,25H250.3
	c-13.8,0-25-11.2-25-25S236.5,356.3,250.3,356.3z"/>
<path d="M111.1,212.5H256c0.1,0,0.3,0,0.4,0c24.2-0.2,43.8-19.8,44-44c0-0.1,0-0.3,0-0.4v-145c0-13.4-11-22.3-22.4-22.3
	c-5.5,0-11,2-15.6,6.6L95.3,174.5C81.3,188.5,91.2,212.5,111.1,212.5z"/>
</svg>
