<?xml version="1.0" encoding="utf-8"?>
<!-- Generator: Adobe Illustrator 19.1.0, SVG Export Plug-In . SVG Version: 6.00 Build 0)  -->
<svg version="1.1" id="Capa_1" xmlns="http://www.w3.org/2000/svg" xmlns:xlink="http://www.w3.org/1999/xlink" x="0px" y="0px"
	 viewBox="-299 101 360 360" style="enable-background:new -299 101 360 360;" xml:space="preserve">
<path d="M53.2,264.1l-153.2-153.2c-10.4-10.4-27.4-10.4-37.8,0l-153.2,153.2c-7.7,7.7-9.9,19.2-5.8,29.2c4.1,10,13.9,16.5,24.7,16.5
	h20.8v114.6c0,19.1,15.5,34.6,34.6,34.6h195.8c19.1,0,34.6-15.5,34.6-34.6V309.8h20.8c10.8,0,20.6-6.5,24.7-16.5
	C63.1,283.3,60.8,271.8,53.2,264.1z M-78.6,408.8h-80.9v-45.6c0-22.3,18.1-40.4,40.4-40.4s40.4,18.1,40.4,40.4V408.8z"/>
</svg>
