<?xml version="1.0" encoding="iso-8859-1"?>
<!-- Generator: Adobe Illustrator 16.0.0, SVG Export Plug-In . SVG Version: 6.00 Build 0)  -->
<!DOCTYPE svg PUBLIC "-//W3C//DTD SVG 1.1//EN" "http://www.w3.org/Graphics/SVG/1.1/DTD/svg11.dtd">
<svg version="1.1" id="Capa_1" xmlns="http://www.w3.org/2000/svg" xmlns:xlink="http://www.w3.org/1999/xlink" x="0px" y="0px"
	 width="361.578px" height="361.578px" viewBox="0 0 361.578 361.578" style="enable-background:new 0 0 361.578 361.578;"
	 xml:space="preserve">
<g>
	<g>
		<g>
			<path d="M109.329,199.227c0,0-0.307,12.677-15.433,27.755c-15.126,15.084-29.718,15.84-29.718,15.84l62.318,62.336h-5.17v56.421
				h132.971v-56.421h-39.025L109.329,199.227z M243.788,351.046H131.847v-35.362h111.947v35.362H243.788z"/>
		</g>
		<g>
			<circle cx="55.181" cy="183.452" r="20.194"/>
		</g>
		<g>
			<path d="M106.119,183.452c0-1.753-0.087-3.479-0.258-5.191c-2.657-26.087-24.437-45.747-50.687-45.747
				c-28.094,0-50.936,22.845-50.936,50.938c0,28.084,22.842,50.927,50.936,50.927C83.283,234.379,106.119,211.536,106.119,183.452z
				 M55.181,221.661c-21.065,0-38.203-17.138-38.203-38.215c0-21.08,17.138-38.218,38.203-38.218
				c21.08,0,38.218,17.138,38.218,38.218C93.398,204.523,76.261,221.661,55.181,221.661z"/>
		</g>
		<g>
			<path d="M354.271,35.329c-1.796-1.012-4.071-1.012-5.896,0.015c-0.961,0.547-1.754,1.352-2.271,2.297l-37.169,66.479
				l-41.523-8.284l-26.56-48.152l13.955-35.431l75.919,4.741l0.559,0.021c0.919,0,1.861-0.223,2.732-0.685
				c1.867-0.997,3.05-2.841,3.164-4.924c0.114-1.618-0.414-3.149-1.478-4.359c-1.057-1.201-2.521-1.913-4.131-2.024L250.88,0
				c-2.594,0-4.702,1.42-5.633,3.786l-11.925,30.246l0,0l-27.467,14.52l5.909,11.214L81.106,128.875c0,0,9.893,0.336,23.611,22.917
				c13.718,22.59,7.458,33.071,7.458,33.071l128.953-69.623l5.909,11.193l23.935-12.673l6.119-2.435l-1.225-1.567l35.002,6.984
				c0.396,0.087,0.816,0.129,1.2,0.129c2.18,0,4.18-1.18,5.213-3.062l39.307-70.313C358.186,40.607,357.152,36.936,354.271,35.329z"
				/>
		</g>
	</g>
</g>
<g>
</g>
<g>
</g>
<g>
</g>
<g>
</g>
<g>
</g>
<g>
</g>
<g>
</g>
<g>
</g>
<g>
</g>
<g>
</g>
<g>
</g>
<g>
</g>
<g>
</g>
<g>
</g>
<g>
</g>
</svg>
