<?xml version="1.0" encoding="utf-8"?>
<!-- Generator: Adobe Illustrator 19.1.0, SVG Export Plug-In . SVG Version: 6.00 Build 0)  -->
<svg version="1.1" xmlns="http://www.w3.org/2000/svg" xmlns:xlink="http://www.w3.org/1999/xlink" x="0px" y="0px"
	 viewBox="-318.3 374.3 150.5 150.5" style="enable-background:new -318.3 374.3 150.5 150.5;" xml:space="preserve">
<style type="text/css">
	.st0{fill:#FFFFFF;}
</style>
<g id="Layer_3">
	<path class="st0" d="M-266.5,474c0,6.3-3.6,11.4-7.9,11.4c-4.4,0-7.9-5.1-7.9-11.4c0-6.3,3.6-11.4,7.9-11.4
		C-270.1,462.6-266.5,467.7-266.5,474L-266.5,474z"/>
	<path class="st0" d="M-202.7,474c0,6.3-3.6,11.4-7.9,11.4c-4.4,0-7.9-5.1-7.9-11.4c0-6.3,3.6-11.4,7.9-11.4
		C-206.2,462.6-202.7,467.7-202.7,474L-202.7,474z"/>
</g>
<g id="Layer_2">
	<path class="st0" d="M-318.3,456.7c0,12.5,1.9,22.5,5.6,30c4,7.9,10.3,13.8,18.7,17.6c8.6,4,17.3,6.5,26.3,7.4
		c8,0.9,16.7,1.4,26,1.4c4,0,9.1-0.2,15.1-0.5c5.1-0.3,10.5-1,16.2-2.1c5.7-1.1,10.6-2.5,14.8-4.2c4.7-2,9-4.7,13-8
		c4-3.4,7.1-7.3,9.2-11.7c3.7-7.5,5.5-17.5,5.5-30c0-14.3-4.1-26.3-12.3-35.9c1.6-4.9,2.4-10,2.4-15.3c0-7.1-1.5-13.6-4.5-19.7
		c-6.2,0-11.8,1.1-16.7,3.3s-10.7,5.9-17.4,11.1c-8.2-1.9-16.7-2.9-25.4-2.9c-9.5,0-18.8,1-27.9,3.1c-6.8-5.4-12.7-9.2-17.6-11.4
		s-10.4-3.3-16.7-3.3c-3.1,6-4.6,12.6-4.6,19.7c0,5.4,0.8,10.5,2.4,15.4C-314.2,430.6-318.3,442.5-318.3,456.7L-318.3,456.7z
		 M-298,472.6c0-7.4,2.1-13.6,6.4-18.6s9.9-7.4,16.8-7.4c2.8,0,8.6,0.7,17.6,2c4.6,0.7,9.3,1,14.2,1s9.6-0.3,14.3-1
		c9.1-1.3,15-2,17.6-2c7,0,12.5,2.5,16.8,7.4c4.2,5,6.3,11.2,6.3,18.6c0,5.3-1,9.9-2.9,14c-1.9,3.9-4.4,6.9-7.3,9.2
		c-2.9,2.3-6.6,4.1-11.1,5.4c-7.4,2.2-16.1,3.4-26.2,3.4h-15.2c-5,0-9.5-0.2-13.5-0.7c-4.3-0.4-8.6-1.3-12.9-2.7
		c-4.3-1.4-7.9-3.2-10.7-5.3c-3.1-2.4-5.6-5.6-7.4-9.6C-297.1,482.2-298,477.7-298,472.6L-298,472.6z"/>
</g>
</svg>
