<?xml version="1.0" encoding="utf-8"?>
<!-- Generator: Adobe Illustrator 19.1.0, SVG Export Plug-In . SVG Version: 6.00 Build 0)  -->
<svg version="1.1" xmlns="http://www.w3.org/2000/svg" xmlns:xlink="http://www.w3.org/1999/xlink" x="0px" y="0px"
	 viewBox="-318.3 374.3 150.5 150.5" style="enable-background:new -318.3 374.3 150.5 150.5;" xml:space="preserve">
<style type="text/css">
	.st0{fill:#F5CCB3;}
	.st1{fill:#FFFFFF;}
	.st2{fill:#AF5C51;}
</style>
<g id="Layer_3">
	<path class="st0" d="M-196.4,452.2c6.2,5.7,9.9,12.5,9.9,19.8c0,34.4-25.6,35.3-57.2,35.3s-57.2-4.8-57.2-35.3
		c0-7.3,3.6-14.1,9.8-19.7c10.3-9.4,27.7-4.4,47.4-4.4S-206.7,442.8-196.4,452.2L-196.4,452.2z"/>
	<path class="st1" d="M-262.7,473.8c0,9.5-5.3,17.1-11.9,17.1s-11.9-7.7-11.9-17.1c0-9.5,5.3-17.1,11.9-17.1
		C-268,456.6-262.7,464.3-262.7,473.8L-262.7,473.8z"/>
	<path class="st2" d="M-266.5,474c0,6.3-3.6,11.4-7.9,11.4c-4.4,0-7.9-5.1-7.9-11.4c0-6.3,3.6-11.4,7.9-11.4
		C-270.1,462.6-266.5,467.7-266.5,474L-266.5,474z"/>
	<path class="st1" d="M-198.8,473.8c0,9.5-5.3,17.1-11.9,17.1c-6.6,0-11.9-7.7-11.9-17.1c0-9.5,5.3-17.1,11.9-17.1
		C-204.2,456.6-198.8,464.3-198.8,473.8L-198.8,473.8z"/>
	<path class="st2" d="M-202.7,474c0,6.3-3.6,11.4-7.9,11.4c-4.4,0-7.9-5.1-7.9-11.4c0-6.3,3.6-11.4,7.9-11.4
		C-206.2,462.6-202.7,467.7-202.7,474L-202.7,474z"/>
	<path class="st2" d="M-240.5,489c0,1.6-1.3,3-3,3c-1.6,0-3-1.3-3-3c0-1.7,1.3-3,3-3C-241.9,486-240.5,487.3-240.5,489L-240.5,489z"
		/>
	<path class="st2" d="M-250.4,496.5c-0.2-0.5,0.1-1,0.6-1.2c0.5-0.2,1,0.1,1.2,0.6c0.8,2.2,2.8,3.6,5.1,3.6c2.3,0,4.3-1.5,5.1-3.6
		c0.2-0.5,0.7-0.8,1.2-0.6c0.5,0.2,0.8,0.7,0.6,1.2c-1,2.9-3.8,4.9-6.9,4.9C-246.6,501.4-249.4,499.4-250.4,496.5L-250.4,496.5z"/>
</g>
<g id="Layer_2">
	<path d="M-318.3,456.7c0,12.5,1.9,22.5,5.6,30c4,7.9,10.3,13.8,18.7,17.6c8.6,4,17.3,6.5,26.3,7.4c8,0.9,16.7,1.4,26,1.4
		c4,0,9.1-0.2,15.1-0.5c5.1-0.3,10.5-1,16.2-2.1c5.7-1.1,10.6-2.5,14.8-4.2c4.7-2,9-4.7,13-8c4-3.4,7.1-7.3,9.2-11.7
		c3.7-7.5,5.5-17.5,5.5-30c0-14.3-4.1-26.3-12.3-35.9c1.6-4.9,2.4-10,2.4-15.3c0-7.1-1.5-13.6-4.5-19.7c-6.2,0-11.8,1.1-16.7,3.3
		s-10.7,5.9-17.4,11.1c-8.2-1.9-16.7-2.9-25.4-2.9c-9.5,0-18.8,1-27.9,3.1c-6.8-5.4-12.7-9.2-17.6-11.4s-10.4-3.3-16.7-3.3
		c-3.1,6-4.6,12.6-4.6,19.7c0,5.4,0.8,10.5,2.4,15.4C-314.2,430.6-318.3,442.5-318.3,456.7L-318.3,456.7z M-298,472.6
		c0-7.4,2.1-13.6,6.4-18.6s9.9-7.4,16.8-7.4c2.8,0,8.6,0.7,17.6,2c4.6,0.7,9.3,1,14.2,1s9.6-0.3,14.3-1c9.1-1.3,15-2,17.6-2
		c7,0,12.5,2.5,16.8,7.4c4.2,5,6.3,11.2,6.3,18.6c0,5.3-1,9.9-2.9,14c-1.9,3.9-4.4,6.9-7.3,9.2c-2.9,2.3-6.6,4.1-11.1,5.4
		c-7.4,2.2-16.1,3.4-26.2,3.4h-15.2c-5,0-9.5-0.2-13.5-0.7c-4.3-0.4-8.6-1.3-12.9-2.7c-4.3-1.4-7.9-3.2-10.7-5.3
		c-3.1-2.4-5.6-5.6-7.4-9.6C-297.1,482.2-298,477.7-298,472.6L-298,472.6z"/>
</g>
</svg>
