<?xml version="1.0" encoding="utf-8"?>
<!-- Generator: Adobe Illustrator 19.1.0, SVG Export Plug-In . SVG Version: 6.00 Build 0)  -->
<svg version="1.1" id="Capa_1" xmlns="http://www.w3.org/2000/svg" xmlns:xlink="http://www.w3.org/1999/xlink" x="0px" y="0px"
	 viewBox="-466 268 26 26" style="enable-background:new -466 268 26 26;" xml:space="preserve">
<style type="text/css">
	.st0{fill:#333333;}
</style>
<g>
	<circle class="st0" cx="-444.3" cy="273.5" r="1.5"/>
	<circle class="st0" cx="-448.3" cy="270.5" r="1.5"/>
	<circle class="st0" cx="-452.3" cy="269.5" r="1.5"/>
	<circle class="st0" cx="-456.3" cy="271.5" r="1.5"/>
	<path class="st0" d="M-445.8,273.5v6.5c0,0.3-0.2,0.5-0.5,0.5s-0.5-0.2-0.5-0.5v-9.5h-3v8.5c0,0.3-0.2,0.5-0.5,0.5
		s-0.5-0.2-0.5-0.5v-9.5h-3v9.5c0,0.3-0.2,0.5-0.5,0.5s-0.5-0.2-0.5-0.5v-7.5h-3V284l-2-2.8c-0.6-0.9-1.8-1.2-2.6-0.7
		c-0.9,0.5-1.1,1.7-0.5,2.6c0,0,3.3,4.9,4.7,7.1c1.4,2.1,3.6,3.8,7.9,3.8c7,0,7.6-5.4,7.6-7s0-13.5,0-13.5H-445.8z"/>
</g>
</svg>
