<?xml version="1.0" encoding="utf-8"?>
<!-- Generator: Adobe Illustrator 19.1.0, SVG Export Plug-In . SVG Version: 6.00 Build 0)  -->
<svg version="1.1" id="Capa_1" xmlns="http://www.w3.org/2000/svg" xmlns:xlink="http://www.w3.org/1999/xlink" x="0px" y="0px"
	 viewBox="-231 33.4 495.6 495.6" style="enable-background:new -231 33.4 495.6 495.6;" xml:space="preserve">
<style type="text/css">
	.st0{fill:#030104;}
</style>
<g>
	<path class="st0" d="M264.6,146.5v150c0,0-32.1,6.3-38.7,7.2c-6.6,0.8-27.3,7.5-42.3-6.9c-23.2-22.2-105.4-104-105.4-104
		s-14.2-13.9-37-1.9c-20.9,11-51.9,27.2-64.9,33.5c-24.5,13-44.8-7.6-44.8-23.4c0-12.2,7.6-20.5,18.5-26.6
		c29.5-17.9,91.8-52.8,117.7-66.6c15.8-8.4,27.1-9.1,48.7,9.1c26.6,22.4,50.3,42.8,50.3,42.8s7.7,6.5,20.1,3.9
		C217.1,157.1,264.6,146.5,264.6,146.5z M-62.9,400.7c4-10.2,2.7-21.7-5-29.5c-6.9-7-16.9-8.9-26.4-6.7c2.7-9.5,1.2-19.6-5.7-26.7
		c-6.9-7-16.9-8.9-26.4-6.7c2.7-9.5,1.2-19.6-5.7-26.7c-10.8-11.1-29.5-10.6-41.8,1.1c-12.2,11.7-20.1,33-9.1,45.5
		c10.9,12.4,23.4,4.9,32.9,2.7c-2.7,9.5-10.6,18.3-0.8,30.7c9.8,12.4,23.4,4.9,33,2.7c-2.7,9.4-10.3,19.1-0.9,30.6
		c9.5,11.5,25.1,5.4,35.3,2.2c-4,10.2-12.5,21.2-1.5,33.5c10.9,12.4,36.1,6.7,48.4-5.1c12.3-11.7,13.4-30.3,2.7-41.4
		C-41.6,399.2-52.7,397.5-62.9,400.7z M161.4,322.6c-88.9-88.9-47.1-47.1-94.9-95c0,0-14.4-14.3-33.3-6
		c-13.3,5.8-30.4,13.8-43.3,19.8c-14.2,7.4-24.3,9.7-29.1,9.7c-27.4-0.2-49.6-22.2-49.6-49.5c0-17.7,9.4-33.2,23.5-41.9
		c19.8-13.7,65.2-37.8,65.2-37.8s-13.8-17.5-44.2-17.5c-30.3,0-93.7,41.5-93.7,41.5s-18,11.5-43.6,1.1l-49.4-17.2v171.7
		c0,0,14.1,4.1,26.8,9.3c2.9-8.2,7.5-15.7,13.9-21.9c21-20,55.9-20.2,75-0.5c5.8,6,9.8,13.1,11.8,21c7.7,2.4,14.7,6.6,20.3,12.4
		c5.8,5.9,9.8,13.1,11.9,21c7.7,2.4,14.7,6.6,20.3,12.4c6.3,6.5,10.6,14.4,12.5,23c8,2.3,15.3,6.7,21.2,12.7
		C-5.9,402.5-1.8,418.5-4.2,434c0,0,0.1,0,0.1,0c0.2,0.2,7.1,8,11.4,12.3c8.5,8.5,22.3,8.5,30.8,0c8.4-8.5,8.5-22.3,0-30.8
		c-0.3-0.3-30.6-32-28.1-34.4c2.4-2.4,41,37.7,41.7,38.4c8.5,8.5,22.3,8.5,30.8,0c8.5-8.5,8.5-22.3,0-30.8c-0.4-0.4-2.2-2.1-2.8-2.7
		c0,0-38.2-34.1-35.3-37c2.9-2.9,50.4,41.4,50.5,41.4c8.5,7.7,21.7,7.6,29.9-0.6c8-8,8.2-20.6,1.1-29.1c-0.1-0.5-36.2-38.1-33.4-41
		c2.9-2.9,38.5,33.9,38.6,33.9c8.4,8.5,22.3,8.5,30.8,0c8.5-8.5,8.5-22.3,0-30.8C161.7,322.8,161.6,322.7,161.4,322.6z"/>
</g>
</svg>
