<?xml version="1.0" encoding="utf-8"?>
<!-- Generator: Adobe Illustrator 19.1.0, SVG Export Plug-In . SVG Version: 6.00 Build 0)  -->
<svg version="1.1" id="Layer_1" xmlns="http://www.w3.org/2000/svg" xmlns:xlink="http://www.w3.org/1999/xlink" x="0px" y="0px"
	 viewBox="0 0 289.3 289.3" style="enable-background:new 0 0 289.3 289.3;" xml:space="preserve">
<style type="text/css">
	.st0{fill:#E44D26;}
	.st1{fill:#F16529;}
	.st2{fill:#EBEBEB;}
	.st3{fill:#FFFFFF;}
</style>
<path class="st0" d="M272.2,0L249,260.4l-104.5,29L40.3,260.4L17.1,0H272.2L272.2,0z"/>
<path class="st1" d="M144.7,267.2l84.4-23.4l19.9-222.5H144.7V267.2L144.7,267.2z"/>
<path class="st2" d="M99.5,85.2h45.2V53.2H64.6l0.8,8.6l7.8,88h71.5v-31.9h-42.3L99.5,85.2L99.5,85.2z"/>
<path class="st2" d="M106.7,165.8H74.6l4.5,50.1l65.4,18.2l0.1,0v-33.2l-0.1,0l-35.6-9.6L106.7,165.8L106.7,165.8z"/>
<path class="st3" d="M144.5,149.8h39.3l-3.7,41.4l-35.6,9.6v33.2l65.5-18.1l0.5-5.4l7.5-84.1l0.8-8.6h-74.2V149.8L144.5,149.8z"/>
<path class="st3" d="M144.5,85.1L144.5,85.1l77.1,0.1l0.6-7.2l1.5-16.2l0.8-8.6h-80V85.1L144.5,85.1z"/>
</svg>
