<?xml version="1.0" encoding="utf-8"?>
<!-- Generator: Adobe Illustrator 19.1.0, SVG Export Plug-In . SVG Version: 6.00 Build 0)  -->
<svg version="1.1" id="Capa_1" xmlns="http://www.w3.org/2000/svg" xmlns:xlink="http://www.w3.org/1999/xlink" x="0px" y="0px"
	 viewBox="-472 273 15 15" style="enable-background:new -472 273 15 15;" xml:space="preserve">
<style type="text/css">
	.st0{fill:#333333;}
</style>
<g>
	<path class="st0" d="M-457,280c-0.2-3.7-3.2-6.7-7-7v0h-0.5h-0.5v0c-3.7,0.2-6.7,3.2-7,7h0v0.5v0.5h0c0.2,3.7,3.2,6.7,7,7v0h0.5
		h0.5v0c3.7-0.2,6.7-3.2,7-7h0v-0.5L-457,280L-457,280z M-467.3,274.6c-0.5,0.6-0.9,1.4-1.2,2.4h-1.5
		C-469.3,276-468.4,275.2-467.3,274.6z M-470.5,278h1.8c-0.1,0.6-0.2,1.3-0.2,2h-2C-470.9,279.3-470.8,278.6-470.5,278z M-471,281h2
		c0,0.7,0.1,1.4,0.2,2h-1.8C-470.8,282.4-470.9,281.7-471,281z M-470,284h1.5c0.3,0.9,0.7,1.7,1.2,2.4
		C-468.4,285.8-469.3,285-470,284z M-465,286.9c-1-0.3-1.9-1.4-2.5-2.9h2.5V286.9z M-465,283h-2.7c-0.1-0.6-0.2-1.3-0.3-2h3V283z
		 M-465,280h-3c0-0.7,0.1-1.4,0.3-2h2.7V280z M-465,277h-2.5c0.5-1.6,1.4-2.7,2.5-2.9V277z M-459,277h-1.5c-0.3-0.9-0.7-1.7-1.2-2.4
		C-460.6,275.2-459.7,276-459,277z M-464,274.1c1,0.3,1.9,1.4,2.5,2.9h-2.5V274.1z M-464,278h2.7c0.1,0.6,0.2,1.3,0.3,2h-3V278z
		 M-464,281h3c0,0.7-0.1,1.4-0.3,2h-2.7V281z M-464,286.9V284h2.5C-462.1,285.6-463,286.7-464,286.9z M-461.7,286.4
		c0.5-0.6,0.9-1.4,1.2-2.4h1.5C-459.7,285-460.6,285.8-461.7,286.4z M-458.5,283h-1.8c0.1-0.6,0.2-1.3,0.2-2h2
		C-458.1,281.7-458.2,282.4-458.5,283z M-460,280c0-0.7-0.1-1.4-0.2-2h1.8c0.3,0.6,0.4,1.3,0.5,2H-460z"/>
</g>
</svg>
