<?xml version="1.0" encoding="utf-8"?>
<!-- Generator: Adobe Illustrator 19.1.0, SVG Export Plug-In . SVG Version: 6.00 Build 0)  -->
<svg version="1.1" id="Layer_1" xmlns="http://www.w3.org/2000/svg" xmlns:xlink="http://www.w3.org/1999/xlink" x="0px" y="0px"
	 viewBox="-379 181 200 200" style="enable-background:new -379 181 200 200;" xml:space="preserve">
<style type="text/css">
	.st0{fill:#FFFFFF;}
</style>
<g>
	<g>
		<path class="st0" d="M-201.2,258.3c-0.1-0.2-0.1-0.4-0.2-0.6c-0.7-2.3-1.5-4.5-2.4-6.7c-0.1-0.3-0.2-0.5-0.3-0.8
			c-0.9-2.1-1.9-4.2-2.9-6.3c-0.2-0.3-0.3-0.6-0.5-0.9c-0.4-0.7-0.7-1.3-1.1-2l10.2-20.7l-20.5-20.5l-21,10.3
			c-0.4-0.2-0.8-0.4-1.2-0.6c-0.3-0.2-0.6-0.3-0.9-0.5c-2.1-1.1-4.2-2.1-6.3-2.9c-0.3-0.1-0.5-0.2-0.8-0.3c-2.2-0.9-4.5-1.7-6.7-2.4
			c-0.2-0.1-0.4-0.1-0.6-0.2c-0.1,0-0.2-0.1-0.3-0.1l-7.5-22.1h-29l-7.4,21.9c-0.4,0.1-0.8,0.2-1.2,0.3c-0.2,0.1-0.4,0.1-0.6,0.2
			c-2.3,0.7-4.5,1.5-6.7,2.4c-0.3,0.1-0.5,0.2-0.8,0.3c-2.1,0.9-4.3,1.9-6.3,2.9c-0.3,0.2-0.6,0.3-0.9,0.5c-0.4,0.2-0.8,0.4-1.2,0.6
			l-21-10.3l-20.5,20.5l10.2,20.7c-0.4,0.6-0.7,1.3-1.1,2c-0.2,0.3-0.3,0.6-0.5,0.9c-1.1,2.1-2.1,4.2-2.9,6.3
			c-0.1,0.3-0.2,0.5-0.3,0.8c-0.9,2.2-1.7,4.5-2.4,6.7c-0.1,0.2-0.1,0.4-0.2,0.6c-0.1,0.4-0.2,0.8-0.3,1.2l-21.9,7.4v29l22.1,7.5
			c0,0.1,0.1,0.2,0.1,0.3c0.1,0.2,0.1,0.4,0.2,0.6c0.7,2.3,1.5,4.5,2.4,6.7c0.1,0.3,0.2,0.5,0.3,0.8c0.9,2.1,1.9,4.2,2.9,6.3
			c0.2,0.3,0.3,0.6,0.5,0.9c0.4,0.7,0.7,1.3,1.1,2l-10.2,20.7l20.5,20.5l21-10.3c0.4,0.2,0.8,0.4,1.2,0.6c0.3,0.2,0.6,0.3,0.9,0.5
			c2.1,1.1,4.2,2.1,6.3,2.9c0.3,0.1,0.5,0.2,0.8,0.3c2.2,0.9,4.5,1.7,6.7,2.4c0.2,0.1,0.4,0.1,0.6,0.2c0.1,0,0.2,0.1,0.3,0.1
			l7.5,22.1h29l7.4-21.9c0.4-0.1,0.8-0.2,1.2-0.3c0.2-0.1,0.4-0.1,0.6-0.2c2.3-0.7,4.5-1.5,6.7-2.4c0.3-0.1,0.5-0.2,0.8-0.3
			c2.1-0.9,4.2-1.9,6.3-2.9c0.3-0.2,0.6-0.3,0.9-0.5c0.4-0.2,0.8-0.4,1.2-0.6l21,10.3l20.5-20.5l-10.2-20.7c0.4-0.6,0.7-1.3,1.1-2
			c0.2-0.3,0.3-0.6,0.5-0.9c1.1-2.1,2.1-4.2,2.9-6.3c0.1-0.3,0.2-0.5,0.3-0.8c0.9-2.2,1.7-4.5,2.4-6.7c0.1-0.2,0.1-0.4,0.2-0.6
			c0.1-0.4,0.2-0.8,0.3-1.2l21.9-7.4v-29l-22.1-7.5C-201.2,258.5-201.2,258.4-201.2,258.3z M-267.3,337.4c-0.1,0-0.1,0-0.1,0
			c-1.6,0.3-3.2,0.6-4.9,0.8c-0.3,0-0.6,0.1-0.9,0.1c-1.9,0.2-3.9,0.3-5.8,0.3c-2,0-3.9-0.1-5.8-0.3c-0.3,0-0.6-0.1-0.9-0.1
			c-1.6-0.2-3.3-0.4-4.9-0.8c-0.1,0-0.1,0-0.2,0c-22.4-4.6-40-22.3-44.7-44.7c0,0,0-0.1,0-0.2c-0.3-1.6-0.6-3.2-0.8-4.9
			c0-0.3-0.1-0.6-0.1-0.9c-0.2-1.9-0.3-3.9-0.3-5.8s0.1-3.9,0.3-5.8c0-0.3,0.1-0.6,0.1-0.9c0.2-1.6,0.4-3.3,0.8-4.9
			c0-0.1,0-0.1,0-0.1c4.6-22.4,22.3-40,44.7-44.7c0,0,0.1,0,0.1,0c1.6-0.3,3.3-0.6,4.9-0.8c0.3,0,0.5-0.1,0.8-0.1
			c1.9-0.2,3.9-0.3,5.8-0.3c2,0,3.9,0.1,5.8,0.3c0.3,0,0.5,0.1,0.8,0.1c1.7,0.2,3.3,0.4,4.9,0.8c0,0,0.1,0,0.1,0
			c22.4,4.6,40.1,22.3,44.7,44.7c0,0,0,0.1,0,0.1c0.3,1.6,0.6,3.2,0.7,4.9c0,0.3,0.1,0.6,0.1,0.9c0.2,1.9,0.3,3.9,0.3,5.8
			c0,2-0.1,3.9-0.3,5.8c0,0.3-0.1,0.6-0.1,0.9c-0.2,1.6-0.4,3.3-0.7,4.9c0,0.1,0,0.1,0,0.2C-227.2,315.1-244.9,332.8-267.3,337.4z"
			/>
		<circle class="st0" cx="-279" cy="281" r="8.8"/>
	</g>
</g>
</svg>
