<?xml version="1.0" encoding="utf-8"?>
<!-- Generator: Adobe Illustrator 19.1.0, SVG Export Plug-In . SVG Version: 6.00 Build 0)  -->
<svg version="1.1" id="Capa_1" xmlns="http://www.w3.org/2000/svg" xmlns:xlink="http://www.w3.org/1999/xlink" x="0px" y="0px"
	 viewBox="-249 51.1 459.9 459.9" style="enable-background:new -249 51.1 459.9 459.9;" xml:space="preserve">
<g>
	<g>
		<path d="M87.4,342.7H40.9V204.7c0-14-11.4-25.4-25.4-25.4h-69.2c-14,0-25.4,11.3-25.4,25.4v138.1h-46.5c-7.7,0-14.6,4.6-17.6,11.8
			c-2.9,7.1-1.3,15.3,4.1,20.7l106.5,106.5c7.4,7.4,19.5,7.4,26.9,0l106.5-106.5c5.4-5.4,7.1-13.6,4.1-20.7
			C102.1,347.4,95.1,342.7,87.4,342.7z"/>
	</g>
	<g>
		<path d="M-226.1,291c12.6,0,22.9-10.2,22.9-22.9v-95.6c0-28.6,23.3-51.9,52-51.9h264.5c28.6,0,51.9,23.3,51.9,51.9v95.6
			c0,12.6,10.3,22.9,22.9,22.9c12.6,0,22.9-10.2,22.9-22.9v-95.6c0-53.9-43.8-97.7-97.7-97.7h-264.5c-53.9,0-97.7,43.8-97.7,97.7
			v95.6C-249,280.7-238.8,291-226.1,291z"/>
	</g>
</g>
</svg>
