<?xml version="1.0" encoding="utf-8"?>
<!-- Generator: Adobe Illustrator 19.1.0, SVG Export Plug-In . SVG Version: 6.00 Build 0)  -->
<svg version="1.1" id="Layer_1" xmlns="http://www.w3.org/2000/svg" xmlns:xlink="http://www.w3.org/1999/xlink" x="0px" y="0px"
	 viewBox="-109 110.2 780.8 780.8" style="enable-background:new -109 110.2 780.8 780.8;" xml:space="preserve">
<style type="text/css">
	.st0{fill:#FFFFFF;}
</style>
<path class="st0" d="M-109,509.9c0-52.1,10.2-102.3,30.7-150.8s48.5-90.3,83.9-125.4c35.5-35.5,77.3-63.4,125.4-83.7
	s98.3-30.5,150.3-30.5c52.1,0,102.3,10.2,150.8,30.5s90.4,48.2,125.9,83.7c35.1,35.1,62.9,76.9,83.2,125.4s30.5,98.7,30.5,150.8
	c0,56-11.5,109.3-34.4,160.1c-22.9,50.8-55.1,94.6-96.6,131.5c-41.5,36.9-88.9,63.7-142.3,80.3V744.1c0-34.2-14-60.8-42-80
	c68.6-6.2,118.8-23.6,150.5-52.2c31.7-28.6,47.6-74,47.6-136.2c0-48.1-14.8-88.7-44.4-121.5c5.9-17.6,8.8-34.5,8.8-50.8
	c0-24.1-5.5-46.2-16.6-66.4c-21.8,0-41.3,3.6-58.6,10.7s-38.4,19.5-63.4,37.1c-30.3-6.8-61.5-10.2-93.7-10.2
	c-36.8,0-71.1,3.7-103,11.2c-24.4-17.9-45.5-30.5-63.2-37.8s-37.8-11-60.3-11c-10.7,20.5-16.1,42.6-16.1,66.4
	c0,16.9,2.8,34,8.3,51.2c-29.6,31.9-44.4,72.2-44.4,121c0,62.1,15.8,107.4,47.3,135.7c31.6,28.3,82.1,45.7,151.8,52.2
	c-18.5,12.4-31.4,30.4-38.6,54.2c-15.9,5.5-32.5,8.3-49.8,8.3c-13,0-24.2-2.9-33.7-8.8c-2.9-1.6-5.6-3.3-8.1-5.1
	c-2.4-1.8-5-4-7.6-6.6c-2.6-2.6-4.7-4.6-6.3-6.1c-1.6-1.5-3.7-4-6.3-7.6c-2.6-3.6-4.3-5.9-5.1-6.8c-0.8-1-2.8-3.6-5.9-7.8
	s-4.8-6.5-5.1-6.8c-15.3-20.2-33.5-30.3-54.7-30.3c-11.4,0-17.1,2.4-17.1,7.3c0,2,2.8,5.2,8.3,9.8c10.4,9.1,15.9,14,16.6,14.6
	c7.8,6.2,12.2,10.1,13.2,11.7c9.4,11.7,16.6,24.6,21.5,38.6c18.2,40.7,49.5,61,93.7,61c7.2,0,21.1-1.6,42-4.9v103.5
	C110.9,865.1,63.5,838.4,22,801.5c-41.5-36.9-73.7-80.8-96.6-131.5C-97.5,619.2-109,565.8-109,509.9L-109,509.9z"/>
</svg>
