<?xml version="1.0" encoding="utf-8"?>
<!-- Generator: Adobe Illustrator 19.1.0, SVG Export Plug-In . SVG Version: 6.00 Build 0)  -->
<svg version="1.1" id="Capa_1" xmlns="http://www.w3.org/2000/svg" xmlns:xlink="http://www.w3.org/1999/xlink" x="0px" y="0px"
	 viewBox="-418 219.2 122.8 122.8" style="enable-background:new -418 219.2 122.8 122.8;" xml:space="preserve">
<g>
	<path d="M-332,247.3v-20.7c0-3.3-2.7-6-6-6h-74c-3.3,0-6,2.7-6,6v3.9v78.2v2.7c0,2.2,1.3,4.3,3.2,5.3l45.6,23.6
		c2,1,4.4-0.4,4.4-2.7v-23h26.8c3.3,0,6-2.7,6-6v-32.8h-12v23.8c0,1.7-1.3,3-3,3h-17.7v-30.8v-19.5v-0.6c0-2.2-1.3-4.3-3.2-5.3
		l-26.9-13.8h47.8c1.7,0,3,1.3,3,3v11.8h12V247.3z"/>
	<path d="M-316.6,237.5l19.5,19.5c2.5,2.5,2.5,6.2,0,8.7l-19.5,19.5c-2.5,2.5-6.3,2.6-8.8,0.1c-2.4-2.4-2.1-6.4,0.2-8.8l8.8-8.7
		h-34.1c-1.7,0-3.4-0.7-4.5-2c-2.8-3-2.1-8.3,1.5-10.3c0.9-0.5,2-0.8,3-0.8h34.1c0,0-8.7-8.7-8.8-8.7c-2.3-2.3-2.6-6.4-0.2-8.7
		C-323,234.9-319.1,235-316.6,237.5z"/>
</g>
</svg>
