<?xml version="1.0" encoding="utf-8"?>
<!-- Generator: Adobe Illustrator 19.1.0, SVG Export Plug-In . SVG Version: 6.00 Build 0)  -->
<svg version="1.1" id="Layer_1" xmlns:sketch="http://www.bohemiancoding.com/sketch/ns"
	 xmlns="http://www.w3.org/2000/svg" xmlns:xlink="http://www.w3.org/1999/xlink" x="0px" y="0px" viewBox="-222 23.5 514 514"
	 style="enable-background:new -222 23.5 514 514;" xml:space="preserve">
<title>logo</title>
<description>Created with Sketch (http://www.bohemiancoding.com/sketch)</description>
<g id="Page_1">
	<path id="Rectangle_1" d="M-98.6,196.5H-149V364h52.5v-93l50,60l47.6-60v93H51V196.5H1.1l-47.6,62L-98.6,196.5z M-182,123h434
		c22.1,0,40,17.9,40,40v235c0,22.1-17.9,40-40,40h-434c-22.1,0-40-17.9-40-40V163C-222,140.9-204.1,123-182,123z M138,197.5h-0.5v86
		h-48l74,80.5l74-81h-50v-85.5H138z"/>
</g>
</svg>
