<?xml version="1.0" encoding="utf-8"?>
<!-- Generator: Adobe Illustrator 19.1.0, SVG Export Plug-In . SVG Version: 6.00 Build 0)  -->
<svg version="1.1" id="Layer_1" xmlns="http://www.w3.org/2000/svg" xmlns:xlink="http://www.w3.org/1999/xlink" x="0px" y="0px"
	 viewBox="-351 153 256 256" style="enable-background:new -351 153 256 256;" xml:space="preserve">
<style type="text/css">
	.st0{fill:#CB3837;}
	.st1{fill:#FFFFFF;}
</style>
<g>
	<path class="st0" d="M-351,231v85.5h71.2v14.3h56.8v-14.3h128V231H-351L-351,231z"/>
	<path class="st1" d="M-308.5,245.3h-28.2v14.3v42.5h28.2v-42.5h14.3v42.5h14.3v-42.5v-14.3H-308.5L-308.5,245.3z"/>
	<path class="st1" d="M-265.5,245.3v53.9v3v14.3h28.7v-14.3h28.2v-56.8H-265.5L-265.5,245.3z M-223,287.8h-13.8v-28.2h13.8V287.8
		L-223,287.8z"/>
	<path class="st1" d="M-166.2,245.3h-28.2v14.3v42.5h28.2v-42.5h14.3v42.5h14.3v-42.5h14.3v42.5h14.3v-42.5v-13.3v-1H-166.2
		L-166.2,245.3z"/>
</g>
</svg>
