<svg width="191" height="190" viewBox="0 0 191 190" xmlns="http://www.w3.org/2000/svg"><title>Oval 893 Copy 9 + [Obj-C]</title><g transform="translate(.4)" fill="none" fill-rule="evenodd"><circle fill="#4791E7" cx="95" cy="95" r="95"/><path d="M28.415 117.468V78.513h8.61v2.037c0 .364-.13.675-.39.934-.258.26-.59.39-.996.39h-2.9v32.234h2.9c.405 0 .737.13.996.388.26.26.39.57.39.935v2.038h-8.61zm42.378-21.65c0 2.225-.37 4.286-1.113 6.183-.742 1.9-1.785 3.54-3.13 4.926-1.343 1.386-2.96 2.467-4.85 3.245-1.89.778-3.983 1.166-6.28 1.166-2.295 0-4.39-.388-6.288-1.165-1.898-.777-3.52-1.858-4.872-3.244-1.352-1.386-2.398-3.027-3.14-4.925-.742-1.896-1.113-3.957-1.113-6.183s.37-4.287 1.113-6.184c.742-1.898 1.788-3.54 3.14-4.925 1.35-1.386 2.974-2.467 4.872-3.245 1.897-.777 3.993-1.165 6.29-1.165 2.295 0 4.388.392 6.278 1.176 1.89.784 3.507 1.865 4.85 3.245 1.345 1.378 2.388 3.015 3.13 4.912.742 1.898 1.113 3.96 1.113 6.185zm-5.796 0c0-1.667-.22-3.16-.662-4.484-.44-1.324-1.074-2.447-1.9-3.37-.826-.925-1.83-1.632-3.014-2.122-1.182-.49-2.515-.735-4-.735-1.483 0-2.82.245-4.01.735s-2.2 1.197-3.034 2.12c-.834.925-1.474 2.048-1.922 3.37-.448 1.325-.672 2.82-.672 4.485 0 1.666.224 3.16.672 4.484.448 1.324 1.088 2.443 1.922 3.36.833.918 1.844 1.62 3.034 2.11 1.19.49 2.527.736 4.01.736 1.485 0 2.818-.245 4.002-.735 1.183-.49 2.187-1.192 3.013-2.11.826-.917 1.46-2.036 1.9-3.36.442-1.323.662-2.817.662-4.483zM75.014 111V79.794H80.2V92.1c.855-.91 1.82-1.634 2.9-2.173 1.077-.54 2.337-.81 3.78-.81 1.175 0 2.25.242 3.223.725.973.484 1.812 1.187 2.52 2.11.707.925 1.252 2.066 1.637 3.424.386 1.358.578 2.92.578 4.683 0 1.61-.217 3.1-.65 4.472-.435 1.372-1.054 2.562-1.86 3.57-.805 1.008-1.777 1.795-2.92 2.362-1.14.568-2.417.85-3.83.85-.66 0-1.26-.065-1.807-.198-.545-.134-1.042-.32-1.49-.557-.448-.24-.864-.53-1.25-.873-.385-.343-.752-.724-1.102-1.144l-.23 1.45c-.085.363-.228.622-.43.776-.205.153-.48.23-.83.23h-3.424zm10.08-17.85c-1.078 0-1.998.227-2.76.682-.765.456-1.475 1.096-2.133 1.922v9.66c.59.728 1.23 1.235 1.922 1.522.694.288 1.446.43 2.258.43.784 0 1.49-.146 2.12-.44.63-.294 1.166-.742 1.608-1.344.44-.602.78-1.36 1.018-2.278.238-.918.357-2 .357-3.245 0-1.26-.1-2.328-.305-3.204-.203-.875-.493-1.585-.87-2.13-.38-.547-.837-.946-1.377-1.198-.538-.252-1.15-.378-1.836-.378zm19.32-3.696v22.28c0 .94-.122 1.82-.368 2.647-.245.827-.636 1.55-1.175 2.175-.54.623-1.245 1.112-2.12 1.47-.876.357-1.943.535-3.203.535-.49 0-.945-.032-1.365-.094-.42-.063-.847-.165-1.28-.305l.167-2.792c.04-.28.153-.46.335-.535.182-.078.532-.116 1.05-.116s.955-.052 1.313-.157c.357-.106.643-.273.86-.505.218-.23.37-.535.463-.913.092-.378.137-.847.137-1.407v-22.28h5.187zm.777-6.28c0 .45-.09.87-.272 1.26-.182.393-.423.736-.725 1.03-.3.294-.654.528-1.06.704-.406.175-.84.262-1.302.262-.447 0-.87-.087-1.27-.263-.4-.175-.745-.41-1.04-.703-.293-.294-.527-.637-.703-1.03-.175-.39-.262-.81-.262-1.26 0-.46.087-.895.262-1.3.176-.407.41-.757.704-1.05.295-.295.64-.53 1.04-.704.4-.176.823-.263 1.27-.263.463 0 .897.087 1.303.263.406.175.76.41 1.06.703.302.294.543.644.725 1.05.182.406.273.84.273 1.302zm4.327 12.98h10.878v4.325h-10.878v-4.327zm36.918 7.685c.308 0 .574.118.798.356l2.226 2.415c-1.233 1.527-2.748 2.696-4.548 3.508-1.8.812-3.958 1.218-6.478 1.218-2.254 0-4.28-.385-6.08-1.155-1.8-.77-3.335-1.84-4.61-3.212-1.273-1.372-2.25-3.01-2.928-4.914-.68-1.904-1.02-3.983-1.02-6.237 0-2.282.38-4.37 1.135-6.268.757-1.9 1.82-3.533 3.193-4.905 1.372-1.372 3.013-2.44 4.925-3.203 1.91-.763 4.02-1.144 6.33-1.144 2.255 0 4.225.36 5.913 1.08 1.688.723 3.133 1.678 4.337 2.868l-1.89 2.625c-.112.17-.255.316-.43.442-.176.126-.417.19-.725.19-.322 0-.65-.127-.987-.38-.336-.25-.763-.524-1.28-.818-.52-.294-1.173-.567-1.964-.82-.79-.25-1.795-.377-3.013-.377-1.428 0-2.74.248-3.938.746-1.198.497-2.226 1.207-3.088 2.13-.86.925-1.532 2.048-2.016 3.37-.483 1.325-.724 2.812-.724 4.464 0 1.708.24 3.227.725 4.557.483 1.33 1.137 2.45 1.963 3.36.826.91 1.8 1.606 2.92 2.09 1.12.483 2.323.724 3.61.724.77 0 1.467-.042 2.09-.126.624-.084 1.197-.217 1.722-.4.526-.18 1.022-.415 1.492-.703s.934-.64 1.396-1.06c.14-.127.287-.23.44-.306.155-.076.323-.115.505-.115zm5.796 13.628v-2.037c0-.363.13-.674.39-.934s.59-.388.997-.388h2.898V81.873h-2.898c-.406 0-.738-.13-.998-.39-.26-.258-.39-.57-.39-.933v-2.037h8.61v38.955h-8.61z" fill="#FFF"/></g></svg>