<?xml version="1.0" encoding="utf-8"?>
<!-- Generator: Adobe Illustrator 19.1.0, SVG Export Plug-In . SVG Version: 6.00 Build 0)  -->
<svg version="1.1" id="Capa_1" xmlns="http://www.w3.org/2000/svg" xmlns:xlink="http://www.w3.org/1999/xlink" x="0px" y="0px"
	 viewBox="-217 19.2 523.8 523.8" style="enable-background:new -217 19.2 523.8 523.8;" xml:space="preserve">
<style type="text/css">
	.st0{fill:#185F96;}
</style>
<g>
	<path class="st0" d="M302.6,129.1L196.8,23.5c-5.7-5.7-15.1-5.7-20.8,0l-12.2,12.2c-5.7,5.7-5.7,15.1,0,20.8l4.9,4.9L48.2,182
		c-29.1-15.9-66.2-11.6-90.7,12.9L-86,238.4c-5.7,5.7-5.7,15.1,0,20.8l53.3,53.3L-213,511.9c-5.4,6-5.3,15.6,0.5,21.3l5.3,5.3
		c5.7,5.7,15.3,6,21.3,0.5L13.2,358.8l52.9,52.9c5.7,5.7,15.1,5.7,20.8,0l43.5-43.5c24.5-24.5,28.9-61.2,13.3-90.3l120.6-120.6
		l4.9,4.9c5.7,5.7,15.1,5.7,20.8,0l12.2-12.2C308.3,144.3,308.3,135,302.6,129.1z"/>
</g>
</svg>
