<?xml version="1.0" encoding="iso-8859-1"?>
<!-- Generator: Adobe Illustrator 19.1.0, SVG Export Plug-In . SVG Version: 6.00 Build 0)  -->
<svg version="1.1" id="Capa_1" xmlns="http://www.w3.org/2000/svg" xmlns:xlink="http://www.w3.org/1999/xlink" x="0px" y="0px"
	 viewBox="0 0 504.069 504.069" style="enable-background:new 0 0 504.069 504.069;" xml:space="preserve">
<style type="text/css">
	.st0{fill:#FFFFFF;}
</style>
<g>
	<path class="st0" d="M450.063,297.037v-54.008c0-2.394-0.954-4.681-2.628-6.373l-18.003-18.003c-1.692-1.674-3.979-2.628-6.373-2.628h-9
		v-62.558c0-78.617-60.687-145.569-138.188-152.428c-15.716-1.386-31.955-1.386-47.671,0C150.699,7.898,90.012,74.85,90.012,153.467
		v62.558H81.01c-2.394,0-4.681,0.936-6.373,2.628l-18.003,18.003c-1.674,1.692-2.628,3.979-2.628,6.373v54.008
		c0,2.394,0.954,4.681,2.628,6.373l11.63,11.63l-11.63,11.63c-1.674,1.692-2.628,3.979-2.628,6.373v54.008
		c0,2.394,0.954,4.681,2.628,6.373l11.63,11.63l-11.63,11.63c-1.674,1.692-2.628,3.979-2.628,6.373v54.008
		c0,2.394,0.954,4.681,2.628,6.373l18.003,18.003c1.692,1.674,3.979,2.628,6.373,2.628h342.05c2.394,0,4.681-0.954,6.372-2.628
		l18.003-18.003c1.674-1.692,2.628-3.979,2.628-6.373v-54.008c0-2.394-0.954-4.681-2.628-6.373l-11.63-11.63l11.63-11.63
		c1.674-1.692,2.628-3.979,2.628-6.373v-54.008c0-2.394-0.954-4.681-2.628-6.373l-11.63-11.63l11.63-11.63
		C449.109,301.718,450.063,299.431,450.063,297.037z M108.014,153.467c0-69.382,53.486-128.466,121.752-134.497
		c14.672-1.278,29.866-1.278,44.52,0c68.284,6.03,121.77,65.115,121.77,134.497v62.558h-36.004v-62.558
		c0-50.893-39.048-94.207-88.915-98.636c-12.584-1.116-25.672-1.116-38.184,0c-49.867,4.41-88.933,47.743-88.933,98.636v62.558
		h-36.006V153.467z M342.048,216.025H162.023v-62.558c0-41.658,31.846-77.105,72.532-80.706c11.45-1.008,23.475-1.008,35.015,0
		c40.631,3.601,72.478,39.066,72.478,80.706V216.025z M72.009,246.756l12.728-12.728h334.596l12.728,12.728v46.555l-12.727,12.727
		H84.736l-12.727-12.727V246.756z M419.334,396.051H84.736l-12.727-12.727v-46.555l12.728-12.728h334.596l12.728,12.728v46.555
		L419.334,396.051z M432.061,473.337l-12.728,12.728H84.737l-12.728-12.728v-46.555l12.728-12.728h334.596l12.728,12.728V473.337z"
		/>
</g>
</svg>
