<?xml version="1.0" encoding="utf-8"?>
<!-- Generator: Adobe Illustrator 19.1.0, SVG Export Plug-In . SVG Version: 6.00 Build 0)  -->
<svg version="1.1" id="Capa_1" xmlns="http://www.w3.org/2000/svg" xmlns:xlink="http://www.w3.org/1999/xlink" x="0px" y="0px"
	 viewBox="-173 -26 612 612" style="enable-background:new -173 -26 612 612;" xml:space="preserve">
<g>
	<g>
		<path d="M231.2,117.8H34.8c-30.9,0-55.9,25-55.9,55.9v212.6c0,30.9,25,55.9,55.9,55.9h196.4c30.9,0,55.9-25,55.9-55.9V173.7
			C287.1,142.8,262.1,117.8,231.2,117.8z"/>
		<path d="M405.5,303.5c13,0,23.5-10.5,23.5-23.5s-10.5-23.5-23.5-23.5h-53.6v-53.1h53.6c13,0,23.5-10.5,23.5-23.5
			s-10.5-23.5-23.5-23.5h-54.1c-4.6-51.9-44.1-94-94.9-102.4V-2.5c0-13-10.5-23.5-23.5-23.5s-23.5,10.5-23.5,23.5v55h-53.1v-55
			c0-13-10.5-23.5-23.5-23.5s-23.5,10.5-23.5,23.5v55H56.4v-55c0-13-10.5-23.5-23.5-23.5C20-26,9.5-15.5,9.5-2.5V54
			c-50.7,8.4-90.3,50.5-94.9,102.4h-54.1c-13,0-23.5,10.5-23.5,23.5s10.5,23.5,23.5,23.5h53.6v53.1h-53.6c-13,0-23.5,10.5-23.5,23.5
			s10.5,23.5,23.5,23.5h53.6v53.1h-53.6c-13,0-23.5,10.5-23.5,23.5s10.5,23.5,23.5,23.5h54.1c4.6,51.9,44.1,94,94.9,102.4v56.5
			c0,13,10.5,23.5,23.5,23.5s23.5-10.5,23.5-23.5v-55h53.1v55c0,13,10.5,23.5,23.5,23.5s23.5-10.5,23.5-23.5v-55h53.1v55
			c0,13,10.5,23.5,23.5,23.5s23.5-10.5,23.5-23.5V506c50.7-8.4,90.3-50.5,94.9-102.4h54.1c13,0,23.5-10.5,23.5-23.5
			s-10.5-23.5-23.5-23.5h-53.6v-53.1L405.5,303.5L405.5,303.5L405.5,303.5z M314.4,393.4c0,42.2-34.4,76.6-76.6,76.6H28.2
			c-42.2,0-76.6-34.4-76.6-76.6V166.6C-48.4,124.3-14,90,28.2,90h209.5c42.2,0,76.6,34.4,76.6,76.6V393.4L314.4,393.4z"/>
	</g>
</g>
</svg>
