<?xml version="1.0" encoding="utf-8"?>
<!-- Generator: Adobe Illustrator 19.1.0, SVG Export Plug-In . SVG Version: 6.00 Build 0)  -->
<svg version="1.1" id="Layer_1" xmlns="http://www.w3.org/2000/svg" xmlns:xlink="http://www.w3.org/1999/xlink" x="0px" y="0px"
	 viewBox="292 176.1 250 250" style="enable-background:new 292 176.1 250 250;" xml:space="preserve">
<style type="text/css">
	.st0{fill:#FFFFFF;}
</style>
<g>
	<path class="st0" d="M510.8,191.7v187.5c-0.2,4.4-1.7,8.1-4.6,11s-6.6,4.5-11,4.6H417v31.2l-23.4-23.4l-23.4,23.4v-31.2h-31.2
		c-4.4-0.2-8.1-1.7-11-4.6s-4.5-6.6-4.6-11V191.7c0.2-4.4,1.7-8.1,4.6-11c2.9-2.9,6.6-4.5,11-4.6h156.3c4.4,0.2,8.1,1.7,11,4.6
		C509,183.7,510.6,187.3,510.8,191.7z M495.1,348H338.9v31.2h31.2v-15.6H417v15.6h78.1V348z M495.1,191.7H354.5v140.6h140.6V191.7z
		 M385.8,207.4h-15.6V223h15.6V207.4z M385.8,238.6h-15.6v15.6h15.6V238.6z M385.8,269.9h-15.6v15.6h15.6V269.9z M385.8,316.7h-15.6
		v-15.6h15.6V316.7z"/>
</g>
</svg>
