<?xml version="1.0" encoding="utf-8"?>
<!-- Generator: Adobe Illustrator 19.1.0, SVG Export Plug-In . SVG Version: 6.00 Build 0)  -->
<svg version="1.1" id="Capa_1" xmlns="http://www.w3.org/2000/svg" xmlns:xlink="http://www.w3.org/1999/xlink" x="0px" y="0px"
	 viewBox="-467 268.7 24.3 24.3" style="enable-background:new -467 268.7 24.3 24.3;" xml:space="preserve">
<style type="text/css">
	.st0{fill:#333333;}
</style>
<g>
	<path class="st0" d="M-456.7,280v-9.4c0-1,0.8-1.9,1.9-1.9s1.9,0.8,1.9,1.9v9.4c0,1-0.8,1.9-1.9,1.9S-456.7,281-456.7,280z
		 M-447.4,271.5c-0.6-0.5-1.5-0.4-2,0.2c-0.5,0.6-0.4,1.5,0.2,2c2.2,1.8,3.5,4.4,3.5,7.3c0,5.1-4.1,9.2-9.2,9.2
		c-5.1,0-9.2-4.1-9.2-9.2c0-2.8,1.3-5.5,3.5-7.3c0.6-0.5,0.7-1.4,0.2-2c-0.5-0.6-1.4-0.7-2-0.2c-2.9,2.3-4.6,5.8-4.6,9.5
		c0,6.7,5.4,12.1,12.1,12.1s12.1-5.4,12.1-12.1C-442.8,277.2-444.5,273.8-447.4,271.5z"/>
</g>
</svg>
