<?xml version="1.0" encoding="iso-8859-1"?>
<!-- Generator: Adobe Illustrator 16.0.0, SVG Export Plug-In . SVG Version: 6.00 Build 0)  -->
<!DOCTYPE svg PUBLIC "-//W3C//DTD SVG 1.1//EN" "http://www.w3.org/Graphics/SVG/1.1/DTD/svg11.dtd">
<svg version="1.1" id="Capa_1" xmlns="http://www.w3.org/2000/svg" xmlns:xlink="http://www.w3.org/1999/xlink" x="0px" y="0px"
	 width="612px" height="612px" viewBox="0 0 612 612" style="enable-background:new 0 0 612 612;" xml:space="preserve">
<g>
	<g>
		<g>
			<path style="fill:#FFF;" d="M357.772,611.997c-4.243,0-8.479-1.619-11.721-4.854L4.853,265.951C1.75,262.842,0,258.632,0,254.237L0.007,16.575
				c0-9.155,7.417-16.572,16.572-16.572h237.648c4.395,0,8.611,1.75,11.72,4.859l341.2,341.194c3.109,3.107,4.854,7.318,4.854,11.72
				c0,4.396-1.75,8.61-4.854,11.721L369.485,607.144C366.251,610.378,362.008,611.997,357.772,611.997z M33.145,247.376
				l324.627,324.621l214.222-214.215L247.36,33.148H33.151L33.145,247.376z"/>
			<path style="fill:#FFF;" d="M145.937,211.739c-17.567,0-34.093-6.841-46.522-19.271c-25.647-25.654-25.647-67.39-0.006-93.044
				c12.436-12.43,28.955-19.271,46.529-19.271c17.573,0,34.093,6.841,46.522,19.264c25.654,25.661,25.654,67.397,0,93.051
				C180.03,204.891,163.51,211.739,145.937,211.739z M145.937,113.292c-8.724,0-16.917,3.401-23.089,9.565
				c-12.721,12.728-12.721,33.437,0.007,46.171c6.165,6.171,14.365,9.559,23.082,9.559s16.923-3.394,23.088-9.559
				c12.728-12.734,12.728-33.443,0-46.177C162.854,116.693,154.661,113.292,145.937,113.292z"/>
		</g>
	</g>
</g>
</svg>
