<?xml version="1.0" encoding="iso-8859-1"?>
<!-- Generator: Adobe Illustrator 18.1.1, SVG Export Plug-In . SVG Version: 6.00 Build 0)  -->
<svg version="1.1" id="Capa_1" xmlns="http://www.w3.org/2000/svg" xmlns:xlink="http://www.w3.org/1999/xlink" x="0px" y="0px"
	 viewBox="0 0 94 94" style="enable-background:new 0 0 94 94;" xml:space="preserve">
<g>
	<path style="fill:#030104;" d="M53.131,6C30.902,6,12.832,23.806,12.287,45.976H0l18.393,20.5l18.391-20.5H22.506
		C23.045,29.468,36.545,16.25,53.131,16.25c16.93,0,30.652,13.767,30.652,30.75S70.061,77.75,53.131,77.75
		c-6.789,0-13.059-2.218-18.137-5.966l-7.029,7.521C34.904,84.751,43.639,88,53.131,88C75.703,88,94,69.645,94,47S75.703,6,53.131,6
		z M49.498,25v23.45l15.027,15.024l4.949-4.949L56.5,45.55V25H49.498z"/>
</g>
<g>
</g>
<g>
</g>
<g>
</g>
<g>
</g>
<g>
</g>
<g>
</g>
<g>
</g>
<g>
</g>
<g>
</g>
<g>
</g>
<g>
</g>
<g>
</g>
<g>
</g>
<g>
</g>
<g>
</g>
</svg>
