<?xml version="1.0" encoding="utf-8"?>
<!-- Generator: Adobe Illustrator 19.1.0, SVG Export Plug-In . SVG Version: 6.00 Build 0)  -->
<svg version="1.1" id="Capa_1" xmlns="http://www.w3.org/2000/svg" xmlns:xlink="http://www.w3.org/1999/xlink" x="0px" y="0px"
	 viewBox="-249 51.1 459.9 459.9" style="enable-background:new -249 51.1 459.9 459.9;" xml:space="preserve">
<g>
	<g>
		<path d="M-125.5,219.4H-79v138.1c0,14,11.4,25.4,25.4,25.4h69.2c14,0,25.4-11.3,25.4-25.4V219.4h46.5c7.7,0,14.6-4.6,17.6-11.8
			c2.9-7.1,1.3-15.3-4.1-20.7L-5.6,80.4c-7.4-7.4-19.5-7.4-26.9,0L-139,186.9c-5.4,5.4-7.1,13.6-4.1,20.7
			C-140.2,214.7-133.2,219.4-125.5,219.4z"/>
	</g>
	<g>
		<path d="M188,271.1c-12.6,0-22.9,10.2-22.9,22.9v95.6c0,28.6-23.3,51.9-52,51.9h-264.5c-28.6,0-51.9-23.3-51.9-51.9V294
			c0-12.6-10.3-22.9-22.9-22.9c-12.6,0-22.9,10.2-22.9,22.9v95.6c0,53.9,43.8,97.7,97.7,97.7h264.5c53.9,0,97.7-43.8,97.7-97.7V294
			C210.9,281.4,200.7,271.1,188,271.1z"/>
	</g>
</g>
</svg>
