<?xml version="1.0" encoding="utf-8"?>
<!-- Generator: Adobe Illustrator 19.1.0, SVG Export Plug-In . SVG Version: 6.00 Build 0)  -->
<svg version="1.1" id="Capa_1" xmlns="http://www.w3.org/2000/svg" xmlns:xlink="http://www.w3.org/1999/xlink" x="0px" y="0px"
	 viewBox="-238 40.2 481.8 481.8" style="enable-background:new -238 40.2 481.8 481.8;" xml:space="preserve">
<g>
	<path d="M215.6,446L60.3,290.7c-1.5-1.5-3-2.8-4.6-4l27.5-29c1.4-1.4,2.7-2.9,4-4.4c36.5,13.8,79.3,6,108.7-23.3
		c21.4-21.4,32.2-51,29.6-81.2c-0.3-3.4-2.5-6.4-5.8-7.5c-3.2-1.2-6.8-0.4-9.3,2l-49.8,49.8l-50.4-12.7l-14.3-52l49.7-49.7
		c2.4-2.4,3.2-6.1,2.1-9.3c-1.2-3.2-4.1-5.5-7.6-5.8C110,61,80.4,71.8,59,93.2c-29.3,29.3-37.1,72.1-23.3,108.6
		c-1.5,1.3-3,2.6-4.4,4l-40.5,38.9l-74.3-74.3c-0.9-0.9-1.9-1.8-2.9-2.5c0.9-1.5,1.7-3.1,2.5-4.7c15.7,3,44.4-27.5,68.8-51.9l-71-71
		C-118,72-141.1,93.3-138.1,109c-7.3,3.5-13.7,7.9-18.3,12.5l-10,10c-6.5,6.5-10.4,14.6-11.8,23c-1,1.1-2,2.3-2.9,3.5l-3.7,4.7
		c-0.1,0.1-0.4,0.6-0.5,0.7l-3.4,4.7c-2.1,2.8-4,5.9-5.7,8.8c-0.7,1.1-1.3,2.2-2,3.3c-0.1,0.2-0.2,0.4-0.3,0.6l-1.5,2.8
		c-1.8,3.4-3.7,6.9-5.3,10.8l-0.3,0.6c-1.9,4.5-3.9,9.2-5.2,14.1l-0.7,2.1c-0.5,1.8-1.1,3.5-1.6,5.6l-1.4,6.8
		c-1,4.3-1.4,8.5-1.7,12.2l-0.2,2.5c-0.5,3.9-0.4,7.5-0.2,10.7c0,1.1,0.1,2.1,0.1,3.6c0,0.6,0,1.2,0.1,1.7c0,1.4,0.1,3.1,0.4,4.8
		l0.9,5.5c0.2,1.1,0.3,2.1,0.5,3.1c0.3,2.3,0.7,4.6,1.3,6.8l3.6,12.6c1.1,3.8,4.8,6.4,8.7,6.1c2.1-0.1,4-1.1,5.4-2.5
		c1.3-1.3,2.1-2.9,2.4-4.8l1.9-12.8c0.1-1,0.6-2.5,1-4.1c0.3-1.1,0.6-2.2,0.9-3.2l1.3-4.8c0.2-0.6,0.5-1.3,0.8-1.9
		c0.3-0.6,0.5-1.2,0.8-1.8c0.4-1,0.9-2,1.3-3.1c0.8-2,1.6-4,2.8-5.9c0.5-0.9,1-1.7,1.5-2.6c1.2-2.2,2.4-4.3,3.8-6.1
		c0.1-0.1,0.2-0.2,0.3-0.3l3.2-4.4c0.6-0.8,1.4-1.6,2.1-2.4c0.5-0.6,1-1.1,1.6-1.8c1.9-2.2,4.1-4.2,6.2-6.1l1.1-1
		c1.6-1.5,3.4-2.8,5.3-4.3c0.8-0.6,1.5-1.2,2.3-1.7c1-0.6,1.9-1.2,2.8-1.9c1.7-1.2,3.2-2.2,4.9-3.1l3.7-2.1l3.8-1.9
		c1.3-0.7,2.6-1.2,3.8-1.7c0.7-0.3,1.4-0.6,2.1-0.9c0.7-0.2,1.3-0.5,1.9-0.7c0.8-0.3,1.5-0.6,2.5-0.8l1-0.2c1.1,1.8,2.4,3.5,4,5.1
		l73.5,73.5l-156.9,150.7c-0.1,0.1-0.1,0.1-0.2,0.2c-19.5,19.5-22.7,48.1-3.2,67.7c19.5,19.5,46.3,14.5,65.8-5
		c0.1-0.1,0.2-0.2,0.2-0.2L-5.2,350.9c0.8,1,1.6,1.9,2.5,2.8l155.2,155.3c17.4,17.4,45.6,17.4,63,0C233,491.6,233,463.3,215.6,446z
		 M-164.1,480.8c-7.2,7.2-18.9,7.2-26.1,0c-7.2-7.2-7.2-18.9,0-26c7.2-7.2,18.9-7.2,26.1,0C-156.9,462-156.9,473.6-164.1,480.8z"/>
</g>
</svg>
