<?xml version="1.0" encoding="utf-8"?>
<!-- Generator: Adobe Illustrator 19.1.0, SVG Export Plug-In . SVG Version: 6.00 Build 0)  -->
<svg version="1.1" id="Capa_1" xmlns="http://www.w3.org/2000/svg" xmlns:xlink="http://www.w3.org/1999/xlink" x="0px" y="0px"
	 viewBox="-242 44.1 473.9 473.9" style="enable-background:new -242 44.1 473.9 473.9;" xml:space="preserve">
<style type="text/css">
	.st0{fill:#FFFFFF;}
</style>
<g>
	<g>
		<path class="st0" d="M143.5,345.3c-27.4,0-51.6,13.1-67.5,33.1l-146.7-75c1.9-7.2,3.3-14.6,3.3-22.3c0-8.5-1.6-16.5-3.9-24.2
			l146-74.7c15.7,20.9,40.6,34.6,68.7,34.6c47.8,0,86.4-38.6,86.4-86.3c0-47.7-38.6-86.3-86.4-86.3c-47.6,0-86.3,38.7-86.3,86.3
			c0,7.8,1.4,15.2,3.3,22.4l-146.6,75c-15.8-20-40.1-33.2-67.6-33.2c-47.7,0-86.3,38.7-86.3,86.4s38.6,86.3,86.3,86.3
			c28.2,0,53-13.7,68.8-34.7l145.9,74.7c-2.3,7.7-3.9,15.8-3.9,24.3c0,47.7,38.7,86.3,86.3,86.3c47.8,0,86.4-38.7,86.4-86.3
			C229.9,383.9,191.3,345.3,143.5,345.3z"/>
	</g>
</g>
</svg>
