<?xml version="1.0" encoding="utf-8"?>
<!-- Generator: Adobe Illustrator 19.1.0, SVG Export Plug-In . SVG Version: 6.00 Build 0)  -->
<svg version="1.1" id="Capa_1" xmlns="http://www.w3.org/2000/svg" xmlns:xlink="http://www.w3.org/1999/xlink" x="0px" y="0px"
	 viewBox="-463 265.3 31.7 31.7" style="enable-background:new -463 265.3 31.7 31.7;" xml:space="preserve">
<style type="text/css">
	.st0{fill:#FFFFFF;}
</style>
<g>
	<g>
		<path class="st0" d="M-447.1,265.3c-8.8,0-15.9,7.1-15.9,15.9c0,8.8,7.1,15.9,15.9,15.9c8.8,0,15.9-7.1,15.9-15.9
			C-431.3,272.4-438.4,265.3-447.1,265.3z M-447.1,294.4c-7.3,0-13.3-6-13.3-13.3c0-7.3,6-13.3,13.3-13.3c7.3,0,13.3,6,13.3,13.3
			C-433.8,288.5-439.8,294.4-447.1,294.4z"/>
		<path class="st0" d="M-447.1,271.4c-5.4,0-9.8,4.4-9.8,9.8c0,5.4,4.4,9.8,9.8,9.8c5.4,0,9.8-4.4,9.8-9.8
			C-437.4,275.7-441.7,271.4-447.1,271.4z M-447.1,288.3c-4,0-7.2-3.2-7.2-7.2c0-4,3.2-7.2,7.2-7.2s7.2,3.2,7.2,7.2
			C-439.9,285.1-443.2,288.3-447.1,288.3z"/>
		<circle class="st0" cx="-447.1" cy="281.1" r="3.8"/>
	</g>
</g>
</svg>
