<?xml version="1.0" encoding="utf-8"?>
<!-- Generator: Adobe Illustrator 19.1.0, SVG Export Plug-In . SVG Version: 6.00 Build 0)  -->
<svg version="1.1" id="Capa_1" xmlns="http://www.w3.org/2000/svg" xmlns:xlink="http://www.w3.org/1999/xlink" x="0px" y="0px"
	 viewBox="-250 51 459 459" style="enable-background:new -250 51 459 459;" xml:space="preserve">
<g>
	<g id="map">
		<path d="M196.2,51c-2.5,0-2.5,0-5.1,0L56,104.6L-97,51l-142.8,48.4c-5.1,2.6-10.2,5.1-10.2,12.8v385c0,7.6,5.1,12.8,12.8,12.8
			c2.6,0,2.6,0,5.1,0L-97,456.5L56,510l142.8-48.5c5.1-2.5,10.2-7.6,10.2-12.8v-385C209,56.1,203.9,51,196.2,51z M56,459l-153-53.5
			V102l153,53.6V459z"/>
	</g>
</g>
</svg>
