<?xml version="1.0" encoding="utf-8"?>
<!-- Generator: Adobe Illustrator 19.1.0, SVG Export Plug-In . SVG Version: 6.00 Build 0)  -->
<svg version="1.1" id="Layer_1" xmlns="http://www.w3.org/2000/svg" xmlns:xlink="http://www.w3.org/1999/xlink" x="0px" y="0px"
	 viewBox="0 0 400.3 400.3" style="enable-background:new 0 0 400.3 400.3;" xml:space="preserve">
<style type="text/css">
	.st0{fill:#FFFFFF;}
</style>
<path d="M67.8,181.7c33.2-11.7,51,6.2,78,19.1C144.5,175.1,265.8,97,160,91.2c-39.4-2.1-102.7,31.5-130.2,84.2
	c-10.5,20.3-16.1,41.2-17,60.4C23.5,215.6,40.5,191.4,67.8,181.7z"/>
<path d="M251.7,339.9c7.2-33.8-12.5-48.9-28.4-73.5c25.2-1.9,86.1-129.8,105-27.5c7,38-17.8,103.9-65.7,137.2
	c-18.4,12.8-38.1,20.9-56.6,24.2C224.3,387.3,245.7,367.7,251.7,339.9z"/>
<path d="M158.1,314.8c34.2-12.3,69.4-31.3,102.4-56.7c95.3-73.4,134.4-169.1,126-258c-87.3,0.8-179.2,54-239.8,157.9
	c-21,36-35.4,73.4-43.2,108.8L158.1,314.8z"/>
<g>
	<circle class="st0" cx="288.2" cy="110.7" r="23.9"/>
</g>
<g>
	<g>
		<path d="M114.1,229.2c-4.3,12.7-7.9,25.3-10.6,37.6l54.6,48c11.9-4.3,23.9-9.4,36-15.3L114.1,229.2z"/>
	</g>
	<g>
		<path d="M189.3,304l-79.1-69.5l2-20.5c1.5-3.3,4.9-4.1,7.6-1.7l90.3,79.4c2.7,2.4,2.4,5.9-0.7,7.8L189.3,304z"/>
	</g>
</g>
<path d="M98.6,328.2c0,0,126.3-203.1,155.8-177.1C282.8,176,98.6,328.2,98.6,328.2z"/>
</svg>
