<?xml version="1.0" encoding="utf-8"?>
<!-- Generator: Adobe Illustrator 19.1.0, SVG Export Plug-In . SVG Version: 6.00 Build 0)  -->
<svg version="1.1" id="Capa_1" xmlns="http://www.w3.org/2000/svg" xmlns:xlink="http://www.w3.org/1999/xlink" x="0px" y="0px"
	 viewBox="-179.3 101.9 373.4 373.4" style="enable-background:new -179.3 101.9 373.4 373.4;" xml:space="preserve">
<style type="text/css">
	.st0{fill:#333333;}
</style>
<g>
	<path class="st0" d="M-140.5,466c12.3,12.3,32.2,12.4,44.6,0L88.8,281.2l0,156.8c0,17.3,14.1,31.4,31.6,31.6l42.1,0
		c17.3,0,31.4-14.1,31.6-31.6l0-304.5c0-8.7-3.5-16.6-9.2-22.3c-5.7-5.7-13.6-9.2-22.3-9.2l-304.5,0c-17.3,0-31.4,14.1-31.6,31.6
		l0,42.1c0,17.3,14.1,31.4,31.6,31.6L14.5,207l-184.6,184.6c-12.3,12.3-12.3,32.3,0,44.6L-140.5,466z"/>
</g>
</svg>
