<?xml version="1.0" encoding="utf-8"?>
<!-- Generator: Adobe Illustrator 19.1.0, SVG Export Plug-In . SVG Version: 6.00 Build 0)  -->
<svg version="1.1" id="Layer_1" xmlns="http://www.w3.org/2000/svg" xmlns:xlink="http://www.w3.org/1999/xlink" x="0px" y="0px"
	 viewBox="0 0 334.9 334.9" style="enable-background:new 0 0 334.9 334.9;" xml:space="preserve">
<path d="M264.7,218.1c0,43.7-29.7,70.2-73.6,75.7v17.6c0,13-10.6,23.6-23.6,23.6c-13,0-23.6-10.6-23.6-23.6v-19.5
	c-22.4-4.2-44.1-12.9-63.3-26.7c-6-4.2-10.3-12-10.3-20.5c0-14.2,11.3-25.1,25.5-25.1c7.1,0,12,2.5,15.6,5
	c18.8,13.8,39.3,22.3,63.4,22.3c22.3,0,35.8-8.9,35.8-23.4v-0.7c0-13.8-8.5-20.9-50-31.5c-49.9-12.7-82.2-26.6-82.2-75.8v-0.7
	c0-38.3,26.4-65.4,65.5-72.6V23.6c0-13,10.6-23.6,23.6-23.6c13,0,23.6,10.6,23.6,23.6v18.7c19.5,3.2,37.1,9.8,52.7,19.7
	c6,3.5,12.1,11,12.1,21.6c0,14.2-11.3,25.1-25.5,25.1c-5.4,0-9.6-1.4-13.8-3.9c-18.1-10.6-35.1-16.7-52.1-16.7
	c-20.9,0-31.9,9.6-31.9,21.6v0.7c0,16.3,10.6,21.6,53.5,32.6c50.3,13.1,78.6,31.2,78.6,74.4L264.7,218.1L264.7,218.1L264.7,218.1z"
	/>
</svg>
