<?xml version="1.0" encoding="iso-8859-1"?>
<!-- Generator: Adobe Illustrator 16.0.0, SVG Export Plug-In . SVG Version: 6.00 Build 0)  -->
<!DOCTYPE svg PUBLIC "-//W3C//DTD SVG 1.1//EN" "http://www.w3.org/Graphics/SVG/1.1/DTD/svg11.dtd">
<svg version="1.1" id="Capa_1" xmlns="http://www.w3.org/2000/svg" xmlns:xlink="http://www.w3.org/1999/xlink" x="0px" y="0px"
	 width="31.938px" height="31.937px" viewBox="0 0 31.938 31.937" style="enable-background:new 0 0 31.938 31.937;"
	 xml:space="preserve">
<g>
	<g>
		<path style="fill:#FFF;" d="M20.564,28.065H2.419V3.872h18.146v4.123l2.418-2.696V3.916c0-1.36-1.103-2.463-2.463-2.463H2.463
			C1.103,1.453,0,2.555,0,3.916v24.105c0,1.361,1.103,2.464,2.463,2.464h18.059c1.359,0,2.463-1.103,2.463-2.464v-7.938l-2.42,2.697
			V28.065L20.564,28.065z"/>
		<path style="fill:#FFF;" d="M18.512,8.308c0-0.668-0.541-1.209-1.209-1.209H5.667C5,7.098,4.458,7.64,4.458,8.308c0,0.667,0.542,1.209,1.209,1.209
			h11.635C17.971,9.517,18.512,8.975,18.512,8.308z"/>
		<path style="fill:#FFF;" d="M16.846,12.167H5.667c-0.668,0-1.209,0.542-1.209,1.209c0,0.668,0.542,1.21,1.209,1.21h9.008L16.846,12.167z"/>
		<path style="fill:#FFF;" d="M12.324,17.177H5.667c-0.668,0-1.209,0.543-1.209,1.211c0,0.666,0.542,1.209,1.209,1.209h5.287L12.324,17.177z"/>
		<path style="fill:#FFF;" d="M4.458,23.457c0,0.668,0.542,1.209,1.209,1.209h3.872c0.015-0.173,0.04-0.268,0.078-0.398l0.582-2.021H5.667
			C5,22.248,4.458,22.789,4.458,23.457z"/>
		<path style="fill:#FFF;" d="M22.615,8.424l-8.447,9.416l-0.653,0.729l4.651,4.171l0.652-0.729l8.447-9.416l0.762-0.85l-4.649-4.171L22.615,8.424z
			 M22.213,12.677l-5.539,6.174c-0.068,0.078-0.167,0.125-0.271,0.13c-0.104,0.006-0.205-0.03-0.282-0.099l-0.274-0.246
			c-0.161-0.146-0.174-0.393-0.03-0.553l5.54-6.176c0.069-0.078,0.166-0.125,0.271-0.13c0.103-0.005,0.205,0.03,0.282,0.1
			l0.273,0.247C22.346,12.268,22.357,12.516,22.213,12.677z M23.823,9.743l0.274,0.246c0.16,0.144,0.174,0.392,0.029,0.553
			l-0.07,0.079l-0.396,0.441l-0.017,0.018c-0.068,0.078-0.166,0.124-0.271,0.129c-0.104,0.006-0.205-0.029-0.282-0.1l-0.275-0.246
			c-0.078-0.069-0.123-0.167-0.129-0.27c-0.006-0.104,0.03-0.206,0.101-0.283l0.481-0.537C23.414,9.612,23.662,9.598,23.823,9.743z"
			/>
		<polygon style="fill:#FFF;" points="24.177,6.684 23.827,7.074 28.477,11.245 28.828,10.853 29.618,9.972 24.969,5.802 		"/>
		<path style="fill:#FFF;" d="M31.936,6.795c-0.02-0.358-0.181-0.694-0.447-0.934l-2.635-2.364c-0.268-0.24-0.619-0.363-0.977-0.344
			c-0.357,0.02-0.695,0.18-0.934,0.448l-1.555,1.732l4.65,4.169l1.553-1.732C31.831,7.505,31.955,7.154,31.936,6.795z M29.943,7.766
			l-2.817-2.527l0.813-0.906l2.815,2.526L29.943,7.766z"/>
		<path style="fill:#FFF;" d="M11.557,25.429c0.192,0.172,0.466,0.219,0.705,0.121l5.345-2.189l-4.648-4.17l-1.599,5.551
			C11.288,24.99,11.365,25.257,11.557,25.429z M13.385,20.673l2.7,2.424l-2.1,0.861l-1.229-1.103L13.385,20.673z"/>
	</g>
</g>
</svg>
