<?xml version="1.0" encoding="UTF-8" standalone="no"?>
<!-- Created with Inkscape (http://www.inkscape.org/) -->
<svg
   xmlns:svg="http://www.w3.org/2000/svg"
   xmlns="http://www.w3.org/2000/svg"
   version="1.0"
   width="241.22879"
   height="54.08466"
   id="svg2">
  <defs
     id="defs4" />
  <g
     transform="translate(-91.597656,-245.52011)"
     id="layer1">
    <path
       d="M 126.92969,296.6652 L 91.597656,281.30192 L 91.597656,272.7941 L 126.92969,257.50113 L 126.92969,267.52067 L 102.28516,276.94254 L 126.92969,286.71598 L 126.92969,296.6652 z"
       transform="translate(0,2.9395703)"
       id="flowRoot2411"
       style="font-size:72px;font-style:normal;font-variant:normal;font-weight:bold;font-stretch:normal;text-align:center;line-height:125%;writing-mode:lr-tb;text-anchor:middle;fill:#0000ff;fill-opacity:1;fill-rule:nonzero;stroke:none;stroke-width:1;stroke-linejoin:round;stroke-miterlimit:4;stroke-opacity:1;font-family:Arial;-inkscape-font-specification:Arial Bold" />
    <path
       d="M 225.54688,312.53629 L 239.01172,293.30582 L 226.10938,275.20035 L 238.16797,275.20035 L 244.77734,285.46598 L 251.73828,275.20035 L 263.33984,275.20035 L 250.68359,292.88395 L 264.5,312.53629 L 252.37109,312.53629 L 244.77734,300.96988 L 237.11328,312.53629 L 225.54688,312.53629 z M 269.63281,275.20035 L 278.73828,275.20035 L 278.73828,280.29801 C 281.99608,276.33711 285.87498,274.35664 290.375,274.3566 C 292.7656,274.35664 294.83981,274.84883 296.59766,275.83317 C 298.35544,276.81758 299.79684,278.30586 300.92188,280.29801 C 302.56246,278.30586 304.33199,276.81758 306.23047,275.83317 C 308.12886,274.84883 310.15621,274.35664 312.3125,274.3566 C 315.05464,274.35664 317.37495,274.91328 319.27344,276.02652 C 321.17182,277.13984 322.58979,278.77461 323.52734,280.93082 C 324.20697,282.5246 324.54682,285.10272 324.54688,288.6652 L 324.54688,312.53629 L 314.66797,312.53629 L 314.66797,291.19645 C 314.66792,287.49335 314.32808,285.10272 313.64844,284.02457 C 312.73433,282.61835 311.32808,281.91523 309.42969,281.9152 C 308.04683,281.91523 306.74605,282.3371 305.52734,283.18082 C 304.30855,284.0246 303.42965,285.26093 302.89062,286.88981 C 302.35153,288.51874 302.08199,291.091 302.08203,294.6066 L 302.08203,312.53629 L 292.20312,312.53629 L 292.20312,292.07535 C 292.2031,288.44256 292.02732,286.09882 291.67578,285.0441 C 291.32419,283.98944 290.77927,283.20429 290.04102,282.68863 C 289.30271,282.17304 288.30076,281.91523 287.03516,281.9152 C 285.5117,281.91523 284.14061,282.32538 282.92188,283.14567 C 281.70311,283.96601 280.83006,285.1496 280.30273,286.69645 C 279.77538,288.24335 279.5117,290.80975 279.51172,294.39567 L 279.51172,312.53629 L 269.63281,312.53629 L 269.63281,275.20035 z M 334.35547,312.53629 L 334.35547,260.99723 L 344.23438,260.99723 L 344.23438,312.53629 L 334.35547,312.53629 z"
       transform="translate(-90.571429,-14.078125)"
       id="flowRoot2419"
       style="font-size:72px;font-style:normal;font-variant:normal;font-weight:bold;font-stretch:normal;text-align:center;line-height:125%;writing-mode:lr-tb;text-anchor:middle;fill:#d40000;fill-opacity:1;fill-rule:nonzero;stroke:none;stroke-width:1;stroke-linejoin:round;stroke-miterlimit:4;stroke-opacity:1;font-family:Arial;-inkscape-font-specification:Arial Bold" />
    <path
       d="M 367.76953,289.1027 L 380.53125,235.80582 L 387.94922,235.80582 L 375.04688,289.1027 L 367.76953,289.1027 z"
       transform="translate(-93.714286,9.714286)"
       id="flowRoot2429"
       style="font-size:72px;font-style:normal;font-variant:normal;font-weight:bold;font-stretch:normal;text-align:center;line-height:125%;writing-mode:lr-tb;text-anchor:middle;fill:#0000ff;fill-opacity:1;fill-rule:nonzero;stroke:none;stroke-width:1;stroke-linejoin:round;stroke-miterlimit:4;stroke-opacity:1;font-family:Arial;-inkscape-font-specification:Arial Bold" />
    <path
       d="M 297.45926,299.60477 L 297.45926,289.65555 L 322.13895,279.95242 L 297.45926,270.35477 L 297.45926,260.47586 L 332.82645,275.76883 L 332.82645,284.20633 L 297.45926,299.60477 z"
       id="text2439"
       style="font-size:72px;font-style:normal;font-variant:normal;font-weight:bold;font-stretch:normal;text-align:center;line-height:125%;writing-mode:lr-tb;text-anchor:middle;fill:#0000ff;fill-opacity:1;fill-rule:nonzero;stroke:none;stroke-width:1;stroke-linejoin:round;stroke-miterlimit:4;stroke-opacity:1;font-family:Arial;-inkscape-font-specification:Arial Bold" />
  </g>
</svg>
