<?xml version="1.0" encoding="utf-8"?>
<!-- Generator: Adobe Illustrator 19.1.0, SVG Export Plug-In . SVG Version: 6.00 Build 0)  -->
<svg version="1.1" id="Layer_1" xmlns="http://www.w3.org/2000/svg" xmlns:xlink="http://www.w3.org/1999/xlink" x="0px" y="0px"
	 viewBox="-354 155.9 250 250" style="enable-background:new -354 155.9 250 250;" xml:space="preserve">
<style type="text/css">
	.st0{fill:#EC2527;}
</style>
<g>
	<path class="st0" d="M-354,265.4c0-3.3,1.2-6.1,3.5-8.3c2.4-2.2,5.4-3.3,9-3.3c3.6,0,6.6,1.1,8.9,3.3c2.3,2.2,3.5,4.9,3.5,8.3
		c0,3.3-1.2,6.1-3.5,8.2c-2.3,2.2-5.3,3.3-8.9,3.3c-3.7,0-6.7-1.1-9-3.3C-352.8,271.5-354,268.7-354,265.4z M-323.1,272.9
		c0.2-0.1,0.4-0.1,0.6-0.2c0.2,0,0.4-0.1,0.6-0.1c0.7,0,1.3,0.2,1.8,0.6c0.5,0.4,0.7,1,0.7,1.7c0,0.5-0.2,1-0.5,1.4
		c-0.3,0.4-0.8,0.8-1.3,1l-28.7,11.5c-0.2,0.1-0.4,0.1-0.6,0.2c-0.2,0-0.4,0.1-0.5,0.1c-0.7,0-1.2-0.2-1.7-0.7
		c-0.4-0.5-0.7-1-0.7-1.7c0-0.5,0.2-0.9,0.5-1.4c0.3-0.4,0.7-0.8,1.3-1L-323.1,272.9z M-348.7,265.4c0,1.9,0.7,3.5,2,4.7
		c1.3,1.2,3,1.8,5.2,1.8c2.2,0,3.9-0.6,5.2-1.8c1.3-1.2,2-2.8,2-4.7c0-2-0.7-3.6-2-4.8c-1.3-1.2-3-1.8-5.2-1.8
		c-2.2,0-3.9,0.6-5.2,1.8C-348,261.9-348.7,263.5-348.7,265.4z M-344,296.5c0-3.3,1.2-6.1,3.5-8.3c2.4-2.2,5.4-3.2,9-3.2
		c3.6,0,6.6,1.1,8.9,3.2c2.4,2.2,3.5,4.9,3.5,8.3s-1.2,6.1-3.5,8.3c-2.3,2.2-5.3,3.3-8.9,3.3c-3.6,0-6.6-1.1-9-3.3
		C-342.9,302.5-344,299.8-344,296.5z M-338.7,296.5c0,1.9,0.7,3.5,2,4.7c1.3,1.2,3,1.8,5.2,1.8c2.2,0,3.9-0.6,5.2-1.8
		c1.3-1.2,2-2.8,2-4.7c0-2-0.7-3.5-2-4.7c-1.3-1.2-3-1.8-5.2-1.8c-2.1,0-3.8,0.6-5.2,1.8C-338,292.9-338.7,294.5-338.7,296.5z"/>
	<path class="st0" d="M-274.5,301.9c2.2,0,3.6,0.2,4.2,0.6c0.6,0.4,0.9,1.2,0.9,2.3c0,1.2-0.3,2-0.9,2.4c-0.6,0.4-1.8,0.7-3.7,0.7
		h-20.3c-1.9,0-3.1-0.2-3.7-0.7c-0.6-0.4-0.9-1.2-0.9-2.4c0-1.1,0.3-1.9,1-2.3c0.7-0.4,2.1-0.6,4.2-0.6h6.2v-14.2l-14.2-24.3h-0.7
		c-1.7,0-2.9-0.2-3.5-0.7c-0.6-0.5-0.9-1.3-0.9-2.4c0-1.1,0.3-1.8,0.8-2.3c0.5-0.5,1.3-0.7,2.5-0.7h1.9h9.8c1.7,0,2.8,0.2,3.4,0.7
		c0.6,0.5,0.9,1.3,0.9,2.4c0,1.1-0.3,1.9-1,2.4c-0.7,0.5-2,0.7-3.8,0.7h-1.4l10.3,18.6l10.7-18.6h-1.8c-1.5,0-2.6-0.2-3.2-0.7
		c-0.6-0.5-0.9-1.3-0.9-2.4c0-1.2,0.3-2,0.8-2.4c0.5-0.4,1.8-0.6,3.9-0.6h1.1h6.8c2.2,0,3.6,0.2,4.2,0.7c0.6,0.4,0.9,1.2,0.9,2.4
		c0,1.1-0.3,1.9-0.9,2.4c-0.6,0.5-1.8,0.7-3.5,0.7h-0.7l-14.5,24.9v13.6L-274.5,301.9L-274.5,301.9L-274.5,301.9z"/>
	<path class="st0" d="M-238,263.4h-6.2c-1.7,0-3-0.2-3.7-0.7c-0.7-0.5-1-1.3-1-2.4c0-1.2,0.3-2,0.9-2.4c0.6-0.4,2.3-0.7,5-0.7h12.2
		c1.6,0,2.6,0.2,3.2,0.6c0.6,0.4,1.1,1.2,1.5,2.3l16.7,41.8h0.7c1.5,0,2.6,0.2,3.2,0.6c0.6,0.4,0.9,1.2,0.9,2.3c0,1.2-0.3,2-0.8,2.4
		c-0.5,0.4-1.6,0.7-3,0.7h-11.6c-2.2,0-3.6-0.2-4.2-0.7c-0.6-0.4-0.9-1.2-0.9-2.4c0-1.1,0.3-1.8,1-2.3c0.7-0.4,1.9-0.7,3.8-0.7h4
		l-4.1-10.2h-21.7l-3.7,10.2h4.1c1.9,0,3.2,0.2,3.8,0.7c0.7,0.4,1,1.2,1,2.3c0,1.2-0.3,2-0.9,2.4c-0.6,0.4-2,0.7-4,0.7h-11.2
		c-1.8,0-3-0.2-3.6-0.7c-0.6-0.4-0.9-1.2-0.9-2.4c0-1.1,0.3-1.9,0.9-2.3c0.6-0.4,1.8-0.6,3.5-0.6h0.8L-238,263.4z M-240.2,286h17.5
		l-9.2-22.7L-240.2,286z"/>
	<path class="st0" d="M-178.8,286.9l9.2-26.8c0.4-1,0.9-1.8,1.6-2.2c0.7-0.5,1.7-0.7,3-0.7h7c0.9,0,1.6,0.2,2.1,0.7
		c0.5,0.5,0.7,1.2,0.7,2.2c0,1.1-0.3,1.8-0.9,2.2c-0.6,0.4-1.7,0.6-3.2,0.6h-0.7l1.2,38.9h1c1.9,0,3.1,0.2,3.7,0.6
		c0.6,0.4,0.9,1.2,0.9,2.3c0,1-0.3,1.8-0.8,2.3c-0.5,0.5-1.3,0.8-2.2,0.8h-12c-1.7,0-2.8-0.2-3.4-0.7c-0.6-0.5-0.9-1.3-0.9-2.4
		c0-1.1,0.4-1.9,1.1-2.3c0.7-0.4,2.1-0.6,4.1-0.6h1.8l-0.9-36.8l-8.5,24.6c-0.4,1.2-1,2-1.6,2.5c-0.6,0.5-1.6,0.7-2.8,0.7
		c-1.2,0-2.1-0.2-2.7-0.7c-0.6-0.5-1.1-1.3-1.5-2.5l-8.6-24.6l-0.8,36.8h2.9c1.7,0,2.9,0.2,3.5,0.7c0.7,0.5,1,1.2,1,2.3
		c0,1.1-0.3,1.9-0.9,2.4s-1.7,0.7-3.4,0.7h-12c-1,0-1.7-0.3-2.2-0.8c-0.5-0.5-0.7-1.3-0.7-2.3c0-1.1,0.3-1.9,0.9-2.3
		c0.6-0.4,1.9-0.6,3.7-0.6h0.9l1.2-38.9h-0.7c-1.6,0-2.7-0.2-3.3-0.6c-0.6-0.4-0.9-1.2-0.9-2.2c0-0.9,0.2-1.7,0.7-2.2
		c0.5-0.5,1.2-0.7,2.1-0.7h7c1.3,0,2.3,0.2,3,0.7c0.7,0.5,1.2,1.2,1.6,2.2L-178.8,286.9z"/>
	<path class="st0" d="M-110.2,290.7c0-2.1,0.2-3.5,0.6-4.1c0.4-0.6,1.2-0.9,2.4-0.9c1,0,1.8,0.3,2.3,0.8c0.5,0.5,0.8,1.3,0.8,2.5
		v1.8v14.1c0,1-0.3,1.8-0.8,2.3c-0.5,0.6-1.3,0.8-2.3,0.8H-145h-2c-1,0-1.8-0.3-2.3-0.8c-0.5-0.5-0.8-1.3-0.8-2.3
		c0-1.1,0.3-1.9,0.9-2.3c0.6-0.4,2-0.6,4.2-0.6h5.3v-38.5h-5.3c-2.1,0-3.5-0.2-4.1-0.7c-0.6-0.4-1-1.2-1-2.4c0-1.1,0.3-1.8,0.8-2.3
		c0.5-0.5,1.3-0.7,2.5-0.7h1.8h19.3h2c1,0,1.8,0.3,2.4,0.8c0.5,0.5,0.8,1.3,0.8,2.3c0,1.2-0.3,2-1,2.4c-0.6,0.4-2,0.7-4.2,0.7h-7.2
		v38.5h22.8L-110.2,290.7L-110.2,290.7z"/>
</g>
</svg>
